<svg xmlns="http://www.w3.org/2000/svg" width="826" height="138" viewBox="0 0 826 138">
  <g id="Groupe_13638" data-name="Groupe 13638" transform="translate(12712 12446)">
    <rect id="Rectangle_9262" data-name="Rectangle 9262" width="826" height="138" transform="translate(-12712 -12446)" fill="#3c7548"/>
    <g id="Groupe_13634" data-name="Groupe 13634" transform="matrix(0.602, -0.799, 0.799, 0.602, -12540.348, -12359.207)">
      <path id="Tracé_3743" data-name="Tracé 3743" d="M31.73,9.355A5.347,5.347,0,0,0,28.352,1.48a5.552,5.552,0,0,0-3.023.128,1.116,1.116,0,0,1-.731.08.609.609,0,0,1-.438-.618.666.666,0,0,1,.511-.629,6.731,6.731,0,0,1,6.75,11.427,6.675,6.675,0,0,1-9.038-.344c-1.033-.988-1.033-.988-2.273-.326-1.4.746-2.784,1.5-4.19,2.229-.356.184-.466.324-.312.746a7.416,7.416,0,0,1,0,5.462c-.156.389-.058.535.277.71,1.7.887,3.391,1.783,5.067,2.709.381.21.564.2.854-.161a6.567,6.567,0,0,1,7.41-2.2c.463.151.858.348.678.909s-.656.481-1.095.348a5.19,5.19,0,0,0-5.791,1.571c-1.614,1.837-1.739,3.93-.652,6.241.337-.665.673-1.31,1.293-1.529.874-.309.887-.758.7-1.567a2.914,2.914,0,0,1,2.011-3.545,2.857,2.857,0,0,1,3.5,3.192c-.083,1.3-.085,1.3.9,2.085a3.962,3.962,0,0,1,1,1.318,5.368,5.368,0,0,0,.484-4.23c-.24-.851-.165-1.175.311-1.311.453-.13.7.187.962.982a6.727,6.727,0,1,1-13.173,1.621,5.911,5.911,0,0,1,.341-1.837.478.478,0,0,0-.276-.7c-1.731-.913-3.466-1.819-5.176-2.77-.451-.251-.568.016-.775.281A8.047,8.047,0,0,1,.822,13.343c.2-.4.435-.771.951-.549.552.237.444.683.243,1.111a6.714,6.714,0,0,0-.067,5.8,1.522,1.522,0,0,0,.116.22c.021.032.065.049.114.085a3.845,3.845,0,0,1,2.695-2.315c.383-.085.266-.292.151-.489a3.924,3.924,0,0,1-.337-2.767,3.35,3.35,0,0,1,3.869-2.878,3.636,3.636,0,0,1,2.94,4.03,7.119,7.119,0,0,1-.474,1.68c-.1.268-.016.409.192.465a3.761,3.761,0,0,1,2.689,2.33A6.663,6.663,0,0,0,5.4,10.72a6,6,0,0,1-.573.246.647.647,0,0,1-.888-.345.615.615,0,0,1,.381-.864,7.982,7.982,0,0,1,7.945.278,7.581,7.581,0,0,1,2.272,2.121c.218.306.384.321.7.146q2.548-1.393,5.124-2.735c.371-.194.438-.382.3-.784A6.379,6.379,0,0,1,20.7,4.548c.143-.412.344-.823.882-.666.579.17.514.645.371,1.081a5.351,5.351,0,0,0,.416,4.414,3.436,3.436,0,0,1,2.121-1.9c.3-.092.06-.276.017-.393a3.661,3.661,0,0,1-.169-1.968,2.762,2.762,0,0,1,3.173-2.4,2.952,2.952,0,0,1,2.36,3.087,2.09,2.09,0,0,0,.995,2.346A3.845,3.845,0,0,1,31.73,9.355ZM8.044,23.633A6.9,6.9,0,0,0,12.5,21.924c.19-.168.379-.329.344-.624a2.18,2.18,0,0,0-.632-1.526A3.273,3.273,0,0,0,9.07,18.9a2.865,2.865,0,0,1-1.729.035,3.387,3.387,0,0,0-2.254.076A2.551,2.551,0,0,0,3.27,21.046a.85.85,0,0,0,.313.883A6.734,6.734,0,0,0,8.044,23.633Zm19.005,8.851a5.676,5.676,0,0,0,3.164-1.02.829.829,0,0,0,.369-.966,2.189,2.189,0,0,0-2.575-1.526,3.072,3.072,0,0,1-1.839,0,2.448,2.448,0,0,0-2.3.807,1.141,1.141,0,0,0,.336,1.872A5.642,5.642,0,0,0,27.049,32.484Zm.4-20.358a5.336,5.336,0,0,0,2.76-1,.841.841,0,0,0,.369-.966,2.191,2.191,0,0,0-2.633-1.517,3.389,3.389,0,0,1-1.719,0,2.3,2.3,0,0,0-2.187.613,1.2,1.2,0,0,0,.229,2.088A5.556,5.556,0,0,0,27.45,12.126ZM10.127,15.181a5.115,5.115,0,0,0-.036-.536A2.038,2.038,0,0,0,7.96,12.854,1.992,1.992,0,0,0,5.993,14.74a5.88,5.88,0,0,0-.008.937,2.092,2.092,0,0,0,2.671,1.934A2.271,2.271,0,0,0,10.127,15.181ZM28.517,5.7a1.49,1.49,0,0,0-.722-1.467A1.338,1.338,0,0,0,26.376,4.2a1.583,1.583,0,0,0-.754,1.588c.032,1.015.582,1.671,1.45,1.666S28.511,6.781,28.517,5.7Zm0,20.452c0-1.032-.46-1.677-1.276-1.769-1-.113-1.636.591-1.61,1.786.023,1.045.552,1.626,1.472,1.618A1.473,1.473,0,0,0,28.518,26.151Z" transform="translate(0 0)" fill="#488453"/>
      <path id="Tracé_3744" data-name="Tracé 3744" d="M.664,1.327A.673.673,0,0,1,0,.639.606.606,0,0,1,.629,0a.616.616,0,0,1,.665.605C1.328,1.026,1.053,1.237.664,1.327Z" transform="translate(2.164 11.011)" fill="#488453"/>
      <path id="Tracé_3745" data-name="Tracé 3745" d="M1.317.58c-.054.439-.251.7-.675.7A.6.6,0,0,1,0,.667.61.61,0,0,1,.657,0,.662.662,0,0,1,1.317.58Z" transform="translate(30.715 22.123)" fill="#488453"/>
      <path id="Tracé_3746" data-name="Tracé 3746" d="M1.294.6c-.031.435-.254.7-.658.7A.6.6,0,0,1,0,.677.6.6,0,0,1,.581,0,.644.644,0,0,1,1.294.6Z" transform="translate(22.126 1.777)" fill="#488453"/>
    </g>
    <g id="Groupe_13635" data-name="Groupe 13635" transform="translate(-12198.751 -12379.745) rotate(-51)">
      <path id="Tracé_3747" data-name="Tracé 3747" d="M4.092,18.357C.4,12.652,3.937,4.509,10.72,2.9a10.9,10.9,0,0,1,5.932.25,2.19,2.19,0,0,0,1.435.157A1.2,1.2,0,0,0,18.946,2.1a1.306,1.306,0,0,0-1-1.234A13.208,13.208,0,0,0,4.7,23.288a13.1,13.1,0,0,0,17.735-.675c2.027-1.939,2.027-1.94,4.461-.639,2.738,1.463,5.463,2.951,8.222,4.373.7.36.914.635.612,1.463a14.552,14.552,0,0,0,0,10.718c.306.763.114,1.051-.543,1.394-3.331,1.741-6.653,3.5-9.943,5.315-.748.413-1.106.384-1.676-.315A12.886,12.886,0,0,0,9.027,40.614c-.909.3-1.683.683-1.33,1.784.359,1.117,1.287.943,2.148.683,4.434-1.341,8.325-.375,11.363,3.083,3.167,3.6,3.413,7.711,1.279,12.246-.661-1.3-1.32-2.57-2.537-3-1.716-.607-1.741-1.487-1.383-3.074a5.717,5.717,0,0,0-3.945-6.956c-3.757-1.015-7.127,2.062-6.859,6.264.163,2.548.167,2.553-1.76,4.091A7.774,7.774,0,0,0,4.04,58.32a10.533,10.533,0,0,1-.949-8.3c.471-1.669.324-2.3-.611-2.573-.888-.255-1.38.366-1.888,1.927A13.028,13.028,0,0,0,11.629,66.208,13.1,13.1,0,0,0,26.441,52.556a11.6,11.6,0,0,0-.67-3.605.939.939,0,0,1,.542-1.37c3.4-1.791,6.8-3.569,10.156-5.436.885-.493,1.115.032,1.521.552A15.79,15.79,0,0,0,64.741,26.182c-.384-.784-.854-1.513-1.865-1.078-1.083.466-.87,1.341-.477,2.179A13.174,13.174,0,0,1,62.53,38.66a2.99,2.99,0,0,1-.227.431c-.041.063-.127.1-.223.166a7.545,7.545,0,0,0-5.288-4.542c-.752-.166-.522-.573-.3-.959a7.7,7.7,0,0,0,.661-5.429,6.574,6.574,0,0,0-7.593-5.647,7.135,7.135,0,0,0-5.77,7.908,13.971,13.971,0,0,0,.93,3.3c.2.526.03.8-.376.912A7.38,7.38,0,0,0,39.07,39.37c-2.575-4.085-2.268-11.225,1.973-15.406a13.207,13.207,0,0,1,14.712-2.929,11.759,11.759,0,0,0,1.125.482,1.269,1.269,0,0,0,1.743-.677,1.206,1.206,0,0,0-.747-1.7c-5.286-2.487-10.5-2.511-15.591.546a14.877,14.877,0,0,0-4.459,4.162c-.428.6-.754.629-1.381.286q-5-2.733-10.054-5.367c-.728-.38-.859-.75-.592-1.539a12.517,12.517,0,0,0-.063-8.309c-.28-.808-.675-1.616-1.731-1.306C22.869,7.952,23,8.884,23.279,9.74a10.5,10.5,0,0,1-.817,8.661A6.741,6.741,0,0,0,18.3,14.679c-.6-.181-.118-.541-.032-.77a7.185,7.185,0,0,0,.332-3.862,5.419,5.419,0,0,0-6.226-4.707c-2.648.323-4.8,3.142-4.632,6.057.149,2.543,0,2.906-1.952,4.6A7.546,7.546,0,0,0,4.092,18.357ZM50.57,46.374a13.546,13.546,0,0,1-8.743-3.354c-.372-.33-.743-.646-.675-1.225A4.277,4.277,0,0,1,42.392,38.8c1.778-1.449,3.753-2.446,6.164-1.709a5.622,5.622,0,0,0,3.393.069,6.647,6.647,0,0,1,4.424.149A5.006,5.006,0,0,1,59.937,41.3a1.669,1.669,0,0,1-.615,1.733A13.214,13.214,0,0,1,50.57,46.374ZM13.276,63.742a11.137,11.137,0,0,1-6.208-2,1.626,1.626,0,0,1-.724-1.9A4.3,4.3,0,0,1,11.4,56.853a6.028,6.028,0,0,0,3.608,0,4.8,4.8,0,0,1,4.509,1.583c1.095,1.477.872,2.7-.659,3.674A11.071,11.071,0,0,1,13.276,63.742ZM12.49,23.794a10.471,10.471,0,0,1-5.415-1.961,1.65,1.65,0,0,1-.723-1.9,4.3,4.3,0,0,1,5.167-2.976,6.65,6.65,0,0,0,3.373.008,4.516,4.516,0,0,1,4.292,1.2c1.5,1.393,1.28,3.035-.449,4.1A10.9,10.9,0,0,1,12.49,23.794Zm33.991,6a10.028,10.028,0,0,1,.071-1.053,4,4,0,0,1,4.181-3.514,3.909,3.909,0,0,1,3.86,3.7,11.538,11.538,0,0,1,.015,1.839,4.1,4.1,0,0,1-5.241,3.795C47.559,34.009,46.446,32.288,46.482,29.79ZM10.4,11.184A2.924,2.924,0,0,1,11.814,8.3,2.626,2.626,0,0,1,14.6,8.251a3.106,3.106,0,0,1,1.479,3.115c-.063,1.992-1.143,3.279-2.846,3.27C11.543,14.627,10.408,13.305,10.4,11.184Zm0,40.132c-.01-2.025.9-3.291,2.5-3.471,1.965-.222,3.21,1.159,3.158,3.505-.045,2.05-1.083,3.191-2.889,3.174C11.526,54.509,10.4,53.209,10.394,51.316Z" transform="translate(0 0)" fill="#488453"/>
      <path id="Tracé_3748" data-name="Tracé 3748" d="M1.243,2.6a1.321,1.321,0,0,0,1.3-1.349A1.19,1.19,0,0,0,1.311,0,1.209,1.209,0,0,0,.005,1.189C-.06,2.013.48,2.428,1.243,2.6Z" transform="translate(59.561 21.606)" fill="#488453"/>
      <path id="Tracé_3749" data-name="Tracé 3749" d="M0,1.139C.106,2,.493,2.517,1.324,2.522A1.173,1.173,0,0,0,2.583,1.308,1.2,1.2,0,0,0,1.294,0,1.3,1.3,0,0,0,0,1.139Z" transform="translate(3.5 43.411)" fill="#488453"/>
      <path id="Tracé_3750" data-name="Tracé 3750" d="M0,1.173c.061.853.5,1.365,1.291,1.374A1.174,1.174,0,0,0,2.538,1.329,1.175,1.175,0,0,0,1.4.007,1.264,1.264,0,0,0,0,1.173Z" transform="translate(20.397 3.488)" fill="#488453"/>
    </g>
    <g id="Groupe_13636" data-name="Groupe 13636" transform="translate(-12388.863 -12377.729) rotate(-51)">
      <path id="Tracé_3747-2" data-name="Tracé 3747" d="M5.338,23.948C.527,16.5,5.136,5.883,13.985,3.788a14.213,14.213,0,0,1,7.739.327,2.857,2.857,0,0,0,1.872.2,1.56,1.56,0,0,0,1.12-1.582,1.7,1.7,0,0,0-1.309-1.61A17.231,17.231,0,0,0,6.128,30.381,17.086,17.086,0,0,0,29.264,29.5c2.644-2.53,2.645-2.53,5.819-.834,3.572,1.909,7.127,3.85,10.726,5.705.912.47,1.193.829.8,1.909a18.984,18.984,0,0,0,0,13.983c.4,1,.148,1.37-.709,1.819-4.345,2.272-8.679,4.565-12.971,6.934-.976.539-1.443.5-2.187-.411a16.81,16.81,0,0,0-18.969-5.621c-1.186.388-2.2.89-1.735,2.327.468,1.457,1.679,1.23,2.8.891,5.784-1.749,10.86-.489,14.824,4.022,4.131,4.7,4.453,10.059,1.669,15.976-.862-1.7-1.722-3.353-3.31-3.915-2.238-.791-2.271-1.94-1.8-4.011A7.458,7.458,0,0,0,19.074,59.2c-4.9-1.324-9.3,2.691-8.947,8.171.212,3.324.217,3.33-2.3,5.337a10.142,10.142,0,0,0-2.56,3.374A13.741,13.741,0,0,1,4.032,65.253c.614-2.178.422-3.007-.8-3.357-1.159-.333-1.8.478-2.463,2.514a17,17,0,0,0,14.4,21.961,17.087,17.087,0,0,0,19.322-17.81,15.131,15.131,0,0,0-.874-4.7,1.225,1.225,0,0,1,.707-1.787c4.431-2.337,8.873-4.656,13.25-7.091,1.154-.643,1.455.041,1.984.72a20.6,20.6,0,0,0,34.9-21.545c-.5-1.022-1.114-1.974-2.433-1.406-1.412.607-1.135,1.749-.622,2.843a17.186,17.186,0,0,1,.171,14.841,3.9,3.9,0,0,1-.3.562c-.054.082-.166.127-.291.216-1.418-3-3.559-5.186-6.9-5.926-.981-.217-.681-.748-.386-1.251a10.045,10.045,0,0,0,.862-7.082c-.866-5.013-5.133-8.159-9.905-7.367A9.308,9.308,0,0,0,57.13,39.9a18.226,18.226,0,0,0,1.213,4.3c.262.686.04,1.048-.491,1.19a9.627,9.627,0,0,0-6.884,5.965c-3.36-5.329-2.959-14.643,2.575-20.1a17.229,17.229,0,0,1,19.193-3.821,15.34,15.34,0,0,0,1.468.629,1.655,1.655,0,0,0,2.273-.883,1.574,1.574,0,0,0-.974-2.212c-6.9-3.245-13.7-3.275-20.339.713a19.407,19.407,0,0,0-5.817,5.429c-.559.784-.984.821-1.8.373q-6.523-3.566-13.116-7c-.95-.5-1.121-.978-.772-2.007a16.329,16.329,0,0,0-.082-10.839c-.365-1.054-.88-2.108-2.258-1.7-1.483.434-1.315,1.651-.949,2.767A13.7,13.7,0,0,1,29.3,24a8.794,8.794,0,0,0-5.43-4.855c-.78-.236-.154-.705-.042-1a9.373,9.373,0,0,0,.433-5.039,7.07,7.07,0,0,0-8.122-6.141c-3.455.422-6.266,4.1-6.042,7.9.195,3.317.006,3.791-2.546,6.007A9.844,9.844,0,0,0,5.338,23.948ZM65.971,60.5a17.672,17.672,0,0,1-11.406-4.376c-.485-.43-.97-.843-.88-1.6A5.58,5.58,0,0,1,55.3,50.618c2.32-1.89,4.9-3.19,8.041-2.23a7.334,7.334,0,0,0,4.426.089,8.671,8.671,0,0,1,5.771.195,6.531,6.531,0,0,1,4.651,5.2,2.177,2.177,0,0,1-.8,2.261A17.239,17.239,0,0,1,65.971,60.5ZM17.32,83.155a14.529,14.529,0,0,1-8.1-2.61,2.121,2.121,0,0,1-.945-2.472,5.6,5.6,0,0,1,6.592-3.906,7.864,7.864,0,0,0,4.706,0c1.806-.579,4.748.534,5.882,2.065,1.428,1.927,1.138,3.517-.86,4.793A14.443,14.443,0,0,1,17.32,83.155ZM16.294,31.04A13.659,13.659,0,0,1,9.23,28.482a2.152,2.152,0,0,1-.943-2.472,5.609,5.609,0,0,1,6.741-3.882,8.675,8.675,0,0,0,4.4.011,5.891,5.891,0,0,1,5.6,1.569c1.953,1.818,1.67,3.96-.585,5.346A14.222,14.222,0,0,1,16.294,31.04Zm44.343,7.823a13.083,13.083,0,0,1,.092-1.373,5.216,5.216,0,0,1,5.455-4.584,5.1,5.1,0,0,1,5.036,4.826,15.052,15.052,0,0,1,.02,2.4A5.354,5.354,0,0,1,64.4,45.081C62.043,44.366,60.592,42.121,60.638,38.863ZM13.563,14.59a3.814,3.814,0,0,1,1.849-3.756,3.425,3.425,0,0,1,3.63-.07c1.576.918,1.984,2.341,1.929,4.064-.083,2.6-1.491,4.277-3.713,4.266C15.059,19.082,13.578,17.357,13.563,14.59Zm0,52.354c-.013-2.641,1.178-4.293,3.265-4.529,2.564-.289,4.187,1.512,4.12,4.573-.058,2.674-1.413,4.162-3.769,4.141C15.037,71.11,13.571,69.413,13.559,66.944Z" transform="translate(0 0)" fill="#488453"/>
      <path id="Tracé_3748-2" data-name="Tracé 3748" d="M1.622,3.4a1.723,1.723,0,0,0,1.7-1.759A1.552,1.552,0,0,0,1.71,0a1.577,1.577,0,0,0-1.7,1.55C-.079,2.626.627,3.167,1.622,3.4Z" transform="translate(77.701 28.186)" fill="#488453"/>
      <path id="Tracé_3749-2" data-name="Tracé 3749" d="M0,1.486c.138,1.125.644,1.8,1.727,1.8A1.53,1.53,0,0,0,3.369,1.706,1.56,1.56,0,0,0,1.688,0,1.7,1.7,0,0,0,0,1.486Z" transform="translate(4.566 56.632)" fill="#488453"/>
      <path id="Tracé_3750-2" data-name="Tracé 3750" d="M0,1.53C.08,2.643.65,3.311,1.684,3.322A1.532,1.532,0,0,0,3.311,1.734,1.533,1.533,0,0,0,1.825.009,1.648,1.648,0,0,0,0,1.53Z" transform="translate(26.608 4.55)" fill="#488453"/>
    </g>
    <g id="Groupe_13637" data-name="Groupe 13637" transform="matrix(0.225, -0.974, 0.974, 0.225, -11947.397, -12395.242)">
      <path id="Tracé_3747-3" data-name="Tracé 3747" d="M2.9,13.022C.287,8.975,2.793,3.2,7.6,2.06a7.729,7.729,0,0,1,4.208.178,1.554,1.554,0,0,0,1.018.111.848.848,0,0,0,.609-.86.927.927,0,0,0-.712-.875,9.37,9.37,0,0,0-9.4,15.907,9.291,9.291,0,0,0,12.581-.479c1.438-1.376,1.438-1.376,3.165-.454,1.942,1.038,3.875,2.093,5.833,3.1.5.256.649.451.434,1.038a10.323,10.323,0,0,0,0,7.6c.217.542.081.745-.385.989-2.363,1.235-4.72,2.482-7.053,3.771-.531.293-.785.272-1.189-.224A9.141,9.141,0,0,0,6.4,28.811c-.645.211-1.194.484-.943,1.265s.913.669,1.524.484a7.225,7.225,0,0,1,8.061,2.187c2.246,2.557,2.421,5.47.908,8.687-.469-.925-.936-1.823-1.8-2.129-1.217-.43-1.235-1.055-.981-2.181a4.056,4.056,0,0,0-2.8-4.934c-2.665-.72-5.056,1.463-4.865,4.443.115,1.807.118,1.811-1.248,2.9a5.515,5.515,0,0,0-1.392,1.835,7.472,7.472,0,0,1-.673-5.888c.334-1.184.23-1.635-.433-1.826-.63-.181-.979.26-1.339,1.367A9.242,9.242,0,0,0,8.25,46.967a9.292,9.292,0,0,0,10.507-9.685,8.228,8.228,0,0,0-.475-2.557.666.666,0,0,1,.384-.972c2.41-1.271,4.825-2.532,7.2-3.856.628-.349.791.023,1.079.391A11.2,11.2,0,0,0,45.926,18.573c-.272-.556-.606-1.073-1.323-.765-.768.33-.617.951-.338,1.546a9.346,9.346,0,0,1,.093,8.07,2.121,2.121,0,0,1-.161.306c-.029.045-.09.069-.158.118a5.352,5.352,0,0,0-3.751-3.222c-.533-.118-.371-.407-.21-.68a5.462,5.462,0,0,0,.469-3.851,4.663,4.663,0,0,0-5.386-4.006,5.061,5.061,0,0,0-4.093,5.61,9.911,9.911,0,0,0,.659,2.339c.142.373.022.57-.267.647a5.235,5.235,0,0,0-3.743,3.244A9.275,9.275,0,0,1,39.552,14.922a8.341,8.341,0,0,0,.8.342.9.9,0,0,0,1.236-.48.856.856,0,0,0-.53-1.2A11.111,11.111,0,0,0,30,13.969a10.553,10.553,0,0,0-3.163,2.952c-.3.426-.535.446-.98.2q-3.547-1.939-7.132-3.808c-.517-.269-.609-.532-.42-1.092a8.879,8.879,0,0,0-.044-5.894c-.2-.573-.479-1.146-1.228-.927-.807.236-.715.9-.516,1.5a7.449,7.449,0,0,1-.579,6.144,4.782,4.782,0,0,0-2.953-2.64c-.424-.129-.084-.384-.023-.546a5.1,5.1,0,0,0,.235-2.74A3.844,3.844,0,0,0,8.777,3.787a4.109,4.109,0,0,0-3.286,4.3c.106,1.8,0,2.061-1.384,3.266A5.353,5.353,0,0,0,2.9,13.022ZM35.874,32.9a9.61,9.61,0,0,1-6.2-2.38c-.264-.234-.527-.459-.479-.869a3.034,3.034,0,0,1,.879-2.124,4.556,4.556,0,0,1,4.373-1.213,3.988,3.988,0,0,0,2.407.049,4.715,4.715,0,0,1,3.138.106,3.551,3.551,0,0,1,2.529,2.83,1.184,1.184,0,0,1-.436,1.23A9.374,9.374,0,0,1,35.874,32.9ZM9.418,45.218a7.9,7.9,0,0,1-4.4-1.419A1.154,1.154,0,0,1,4.5,42.454,3.047,3.047,0,0,1,8.085,40.33a4.276,4.276,0,0,0,2.559,0,3.408,3.408,0,0,1,3.2,1.123,1.588,1.588,0,0,1-.468,2.606A7.854,7.854,0,0,1,9.418,45.218ZM8.86,16.879a7.428,7.428,0,0,1-3.841-1.391,1.17,1.17,0,0,1-.513-1.344,3.05,3.05,0,0,1,3.665-2.111,4.717,4.717,0,0,0,2.392.006,3.2,3.2,0,0,1,3.045.853,1.67,1.67,0,0,1-.318,2.907A7.734,7.734,0,0,1,8.86,16.879Zm24.113,4.254a7.114,7.114,0,0,1,.05-.747,2.836,2.836,0,0,1,2.966-2.493,2.773,2.773,0,0,1,2.739,2.624,8.185,8.185,0,0,1,.011,1.3,2.912,2.912,0,0,1-3.718,2.692C33.737,24.125,32.948,22.9,32.973,21.133Zm-25.6-13.2A2.074,2.074,0,0,1,8.381,5.891a1.863,1.863,0,0,1,1.974-.038A2.2,2.2,0,0,1,11.4,8.063c-.045,1.413-.811,2.326-2.019,2.32S7.383,9.439,7.375,7.934Zm0,28.469c-.007-1.436.641-2.334,1.776-2.463,1.394-.157,2.277.822,2.241,2.487-.032,1.454-.768,2.263-2.05,2.252A2.05,2.05,0,0,1,7.373,36.4Z" transform="translate(0 0)" fill="#488453"/>
      <path id="Tracé_3748-3" data-name="Tracé 3748" d="M.882,1.847A.937.937,0,0,0,1.806.89.844.844,0,0,0,.93,0,.857.857,0,0,0,0,.843C-.043,1.428.341,1.722.882,1.847Z" transform="translate(42.252 15.327)" fill="#488453"/>
      <path id="Tracé_3749-3" data-name="Tracé 3749" d="M0,.808c.075.612.35.978.939.981A.832.832,0,0,0,1.832.928.849.849,0,0,0,.918,0,.922.922,0,0,0,0,.808Z" transform="translate(2.483 30.795)" fill="#488453"/>
      <path id="Tracé_3750-3" data-name="Tracé 3750" d="M0,.832c.043.605.354.968.916.975A.833.833,0,0,0,1.8.943.834.834,0,0,0,.993,0,.9.9,0,0,0,0,.832Z" transform="translate(14.469 2.474)" fill="#488453"/>
    </g>
  </g>
</svg>
