<svg id="Groupe_13584" data-name="Groupe 13584" xmlns="http://www.w3.org/2000/svg" width="76.057" height="77.136" viewBox="0 0 76.057 77.136">
  <g id="Groupe_7" data-name="Groupe 7" transform="translate(18.109)">
    <path id="Tracé_17" data-name="Tracé 17" d="M192.2,15.573c-.671-6.624-7.736-12.062-13.092-12.062S166.692,8.949,166.02,15.573l-.057,5.18a2.727,2.727,0,0,0,2.833,2.608h20.636a2.726,2.726,0,0,0,2.83-2.608ZM184.1,9.149a1.1,1.1,0,0,1-1.54.181,5.293,5.293,0,0,0-6.849-.038,1.1,1.1,0,0,1-1.455-1.641,7.446,7.446,0,0,1,9.665-.038A1.093,1.093,0,0,1,184.1,9.149Z" transform="translate(-159.192 -3.511)" fill="#fff"/>
    <path id="Tracé_18" data-name="Tracé 18" d="M160.74,102.937a2.6,2.6,0,0,0-3.281,1.657c-.013.04-1.393,4.009-4.213,4.009H142.956a2.347,2.347,0,0,1-.688,0H131.977c-2.806,0-4.185-3.929-4.212-4.008a2.6,2.6,0,0,0-4.943,1.631c.921,2.816,3.886,7.582,9.155,7.582h10.291a2.347,2.347,0,0,1,.688,0h10.291c5.269,0,8.234-4.766,9.156-7.582A2.608,2.608,0,0,0,160.74,102.937Z" transform="translate(-122.693 -87.269)" fill="#fff"/>
  </g>
  <path id="Tracé_19" data-name="Tracé 19" d="M250,327.187" transform="translate(-211.971 -276.541)" fill="#fff"/>
  <g id="Groupe_9" data-name="Groupe 9" transform="translate(7.33 28.027)">
    <g id="Groupe_8" data-name="Groupe 8">
      <path id="Tracé_20" data-name="Tracé 20" d="M67.851,186.191a10.481,10.481,0,1,1-10.481,10.481,10.493,10.493,0,0,1,10.481-10.481m0-3.561a14.043,14.043,0,1,0,14.043,14.043A14.043,14.043,0,0,0,67.851,182.63Z" transform="translate(-53.808 -182.63)" fill="#fff"/>
      <path id="Tracé_21" data-name="Tracé 21" d="M280.742,186.191a10.481,10.481,0,1,1-10.482,10.481,10.493,10.493,0,0,1,10.482-10.481m0-3.561a14.043,14.043,0,1,0,14.043,14.043,14.043,14.043,0,0,0-14.043-14.043Z" transform="translate(-233.388 -182.63)" fill="#fff"/>
    </g>
    <path id="Tracé_22" data-name="Tracé 22" d="M228.754,239.162a3.94,3.94,0,0,0-3.939,3.939v7.457h1.923v-6.731a2.018,2.018,0,1,1,4.035,0v6.731H232.7V243.1A3.941,3.941,0,0,0,228.754,239.162Z" transform="translate(-198.057 -230.316)" fill="#fff"/>
  </g>
  <g id="Groupe_10" data-name="Groupe 10" transform="translate(0 63.485)">
    <path id="Tracé_23" data-name="Tracé 23" d="M6.96,409.243H9.423l3.122,6.613,3.122-6.613H18.11l-4.46,8.59v4.887h-2.21v-4.887Z" transform="translate(-6.96 -409.243)" fill="#fff"/>
    <path id="Tracé_24" data-name="Tracé 24" d="M76.756,437.008a5.184,5.184,0,0,1-5.333-5.527c0-3.354,2.172-5.507,5.333-5.507a4.983,4.983,0,0,1,5.2,5.255,6.834,6.834,0,0,1-.078,1.086H73.711a2.939,2.939,0,0,0,3.044,2.831,2.587,2.587,0,0,0,2.521-1.493h2.385A4.882,4.882,0,0,1,76.756,437.008Zm-3.025-6.477h5.914a2.774,2.774,0,0,0-2.986-2.7A2.91,2.91,0,0,0,73.731,430.531Z" transform="translate(-61.336 -423.356)" fill="#fff"/>
    <path id="Tracé_25" data-name="Tracé 25" d="M153.341,437.008c-2.56,0-4.363-1.512-4.46-3.452h2.288a1.949,1.949,0,0,0,2.133,1.59c1.28,0,1.959-.543,1.959-1.28,0-2.094-6.205-.892-6.205-4.809,0-1.706,1.59-3.083,4.111-3.083,2.424,0,4.014,1.3,4.13,3.432h-2.21a1.767,1.767,0,0,0-2-1.571c-1.183,0-1.8.485-1.8,1.2,0,2.153,6.031.95,6.147,4.809C157.432,435.65,155.862,437.008,153.341,437.008Z" transform="translate(-126.675 -423.356)" fill="#fff"/>
    <path id="Tracé_26" data-name="Tracé 26" d="M224.17,422.72h-5.391V409.243h5.139c2.851,0,4.363,1.571,4.363,3.471a3.153,3.153,0,0,1-2.288,3.083,3.352,3.352,0,0,1,2.6,3.3C228.591,421.149,226.923,422.72,224.17,422.72Zm-.446-11.674H220.99v3.859h2.734c1.435,0,2.307-.679,2.307-1.92C226.031,411.764,225.159,411.046,223.724,411.046Zm.174,5.662H220.99v4.208h2.986c1.493,0,2.4-.756,2.4-2.055A2.188,2.188,0,0,0,223.9,416.709Z" transform="translate(-185.636 -409.243)" fill="#fff"/>
    <path id="Tracé_27" data-name="Tracé 27" d="M297.622,437.008a5.209,5.209,0,0,1-5.352-5.527,5.449,5.449,0,1,1,10.9,0A5.352,5.352,0,0,1,297.622,437.008Zm0-1.92a3.291,3.291,0,0,0,3.277-3.607c0-2.424-1.571-3.587-3.219-3.587-1.668,0-3.161,1.164-3.161,3.587S295.954,435.088,297.622,435.088Z" transform="translate(-247.627 -423.356)" fill="#fff"/>
    <path id="Tracé_28" data-name="Tracé 28" d="M376.668,437.008c-2.56,0-4.363-1.512-4.46-3.452H374.5a1.949,1.949,0,0,0,2.133,1.59c1.28,0,1.959-.543,1.959-1.28,0-2.094-6.205-.892-6.205-4.809,0-1.706,1.59-3.083,4.111-3.083,2.424,0,4.014,1.3,4.13,3.432h-2.211a1.767,1.767,0,0,0-2-1.571c-1.183,0-1.8.485-1.8,1.2,0,2.153,6.031.95,6.147,4.809C380.759,435.65,379.189,437.008,376.668,437.008Z" transform="translate(-315.058 -423.356)" fill="#fff"/>
    <path id="Tracé_29" data-name="Tracé 29" d="M442.848,437.008c-2.56,0-4.363-1.512-4.46-3.452h2.288a1.949,1.949,0,0,0,2.133,1.59c1.28,0,1.959-.543,1.959-1.28,0-2.094-6.205-.892-6.205-4.809,0-1.706,1.59-3.083,4.111-3.083,2.424,0,4.014,1.3,4.13,3.432h-2.211a1.767,1.767,0,0,0-2-1.571c-1.183,0-1.8.485-1.8,1.2,0,2.153,6.031.95,6.147,4.809C446.939,435.65,445.369,437.008,442.848,437.008Z" transform="translate(-370.882 -423.356)" fill="#fff"/>
  </g>
</svg>
