<svg id="Groupe_13634" data-name="Groupe 13634" xmlns="http://www.w3.org/2000/svg" width="123.408" height="125.159" viewBox="0 0 123.408 125.159">
  <g id="Groupe_7" data-name="Groupe 7" transform="translate(29.383)">
    <path id="Tracé_17" data-name="Tracé 17" d="M208.541,23.082C207.452,12.334,195.989,3.511,187.3,3.511s-20.153,8.823-21.242,19.571l-.093,8.405a4.425,4.425,0,0,0,4.6,4.231h33.484a4.423,4.423,0,0,0,4.591-4.231ZM195.388,12.659a1.78,1.78,0,0,1-2.5.293,8.588,8.588,0,0,0-11.112-.062,1.779,1.779,0,0,1-2.36-2.662,12.082,12.082,0,0,1,15.682-.062A1.774,1.774,0,0,1,195.388,12.659Z" transform="translate(-154.977 -3.511)" fill="#3c7548"/>
    <path id="Tracé_18" data-name="Tracé 18" d="M184.427,103.018a4.212,4.212,0,0,0-5.323,2.689c-.022.065-2.26,6.5-6.835,6.5h-16.7a3.807,3.807,0,0,1-1.116,0h-16.7c-4.552,0-6.791-6.375-6.835-6.5a4.223,4.223,0,0,0-8.02,2.646c1.495,4.569,6.306,12.3,14.855,12.3h16.7a3.809,3.809,0,0,1,1.116,0h16.7c8.55,0,13.36-7.733,14.855-12.3A4.232,4.232,0,0,0,184.427,103.018Z" transform="translate(-122.693 -77.596)" fill="#3c7548"/>
  </g>
  <path id="Tracé_19" data-name="Tracé 19" d="M250,327.187" transform="translate(-188.296 -245.011)" fill="#304e36"/>
  <g id="Groupe_9" data-name="Groupe 9" transform="translate(11.894 45.475)">
    <g id="Groupe_8" data-name="Groupe 8">
      <path id="Tracé_20" data-name="Tracé 20" d="M76.593,188.408a17.007,17.007,0,1,1-17.007,17.007,17.026,17.026,0,0,1,17.007-17.007m0-5.778a22.785,22.785,0,1,0,22.785,22.785A22.785,22.785,0,0,0,76.593,182.63Z" transform="translate(-53.808 -182.63)" fill="#e3bac6"/>
      <path id="Tracé_21" data-name="Tracé 21" d="M289.484,188.408a17.007,17.007,0,1,1-17.007,17.007,17.026,17.026,0,0,1,17.007-17.007m0-5.778a22.785,22.785,0,1,0,22.785,22.785,22.785,22.785,0,0,0-22.785-22.785Z" transform="translate(-212.649 -182.63)" fill="#e3bac6"/>
    </g>
    <path id="Tracé_22" data-name="Tracé 22" d="M231.207,239.162a6.393,6.393,0,0,0-6.392,6.392v12.1h3.12V246.732a3.274,3.274,0,1,1,6.547,0v10.921h3.12v-12.1A6.394,6.394,0,0,0,231.207,239.162Z" transform="translate(-181.399 -224.809)" fill="#e3bac6"/>
  </g>
  <g id="Groupe_10" data-name="Groupe 10" transform="translate(0 103.009)">
    <path id="Tracé_23" data-name="Tracé 23" d="M6.96,409.243h4l5.066,10.729,5.066-10.729h3.964l-7.237,13.938v7.929H14.228v-7.929Z" transform="translate(-6.96 -409.243)" fill="#3c7548"/>
    <path id="Tracé_24" data-name="Tracé 24" d="M80.075,443.877c-4.971,0-8.652-3.524-8.652-8.967s3.524-8.935,8.652-8.935c4.94,0,8.432,3.43,8.432,8.527a11.09,11.09,0,0,1-.126,1.762H75.136a4.769,4.769,0,0,0,4.94,4.594,4.2,4.2,0,0,0,4.09-2.423h3.87A7.922,7.922,0,0,1,80.075,443.877Zm-4.908-10.508h9.6c-.063-2.675-2.171-4.374-4.845-4.374A4.721,4.721,0,0,0,75.167,433.368Z" transform="translate(-55.057 -421.726)" fill="#3c7548"/>
    <path id="Tracé_25" data-name="Tracé 25" d="M156.117,443.877c-4.153,0-7.079-2.454-7.236-5.6h3.713c.126,1.416,1.479,2.58,3.461,2.58,2.077,0,3.178-.881,3.178-2.077,0-3.4-10.068-1.447-10.068-7.8,0-2.769,2.58-5,6.67-5,3.933,0,6.513,2.108,6.7,5.569h-3.587c-.126-1.51-1.29-2.548-3.241-2.548-1.92,0-2.926.787-2.926,1.951,0,3.493,9.785,1.542,9.974,7.8C162.756,441.674,160.208,443.877,156.117,443.877Z" transform="translate(-112.85 -421.726)" fill="#3c7548"/>
    <path id="Tracé_26" data-name="Tracé 26" d="M227.526,431.11h-8.747V409.243h8.338c4.625,0,7.079,2.549,7.079,5.632a5.116,5.116,0,0,1-3.713,5,5.439,5.439,0,0,1,4.216,5.349C234.7,428.562,231.994,431.11,227.526,431.11Zm-.724-18.941h-4.436v6.262H226.8c2.328,0,3.744-1.1,3.744-3.115C230.546,413.333,229.131,412.169,226.8,412.169Zm.283,9.188h-4.719v6.828h4.845c2.423,0,3.9-1.227,3.9-3.335C231.113,422.678,229.477,421.357,227.085,421.357Z" transform="translate(-165.002 -409.243)" fill="#3c7548"/>
    <path id="Tracé_27" data-name="Tracé 27" d="M300.954,443.877c-4.94,0-8.684-3.524-8.684-8.967a8.842,8.842,0,1,1,17.683,0A8.683,8.683,0,0,1,300.954,443.877Zm0-3.115c2.674,0,5.317-1.919,5.317-5.852s-2.549-5.821-5.223-5.821c-2.706,0-5.128,1.888-5.128,5.821S298.248,440.762,300.954,440.762Z" transform="translate(-219.834 -421.726)" fill="#3c7548"/>
    <path id="Tracé_28" data-name="Tracé 28" d="M379.444,443.877c-4.153,0-7.079-2.454-7.236-5.6h3.713c.126,1.416,1.479,2.58,3.461,2.58,2.077,0,3.178-.881,3.178-2.077,0-3.4-10.068-1.447-10.068-7.8,0-2.769,2.58-5,6.67-5,3.933,0,6.513,2.108,6.7,5.569h-3.587c-.126-1.51-1.29-2.548-3.241-2.548-1.919,0-2.926.787-2.926,1.951,0,3.493,9.785,1.542,9.974,7.8C386.083,441.674,383.535,443.877,379.444,443.877Z" transform="translate(-279.478 -421.726)" fill="#3c7548"/>
    <path id="Tracé_29" data-name="Tracé 29" d="M445.625,443.877c-4.153,0-7.08-2.454-7.237-5.6H442.1c.126,1.416,1.479,2.58,3.461,2.58,2.077,0,3.178-.881,3.178-2.077,0-3.4-10.069-1.447-10.069-7.8,0-2.769,2.58-5,6.671-5,3.933,0,6.513,2.108,6.7,5.569h-3.587c-.126-1.51-1.29-2.548-3.241-2.548-1.919,0-2.926.787-2.926,1.951,0,3.493,9.785,1.542,9.974,7.8C452.263,441.674,449.715,443.877,445.625,443.877Z" transform="translate(-328.855 -421.726)" fill="#3c7548"/>
  </g>
</svg>
