<svg xmlns="http://www.w3.org/2000/svg" width="117.55" height="73.478" viewBox="0 0 117.55 73.478">
  <g id="Groupe_13600" data-name="Groupe 13600" transform="translate(-306.89 -122.589)">
    <ellipse id="Ellipse_3490" data-name="Ellipse 3490" cx="5.478" cy="54.883" rx="5.478" ry="54.883" transform="translate(314.628 195.593) rotate(-89.753)" fill="#fff" opacity="0.1"/>
    <path id="Tracé_3703" data-name="Tracé 3703" d="M355.65,150.645a24.406,24.406,0,0,0-2.419-14.694l2.211,15.9C355.52,151.45,355.591,151.05,355.65,150.645Zm-48.5-7.1a24.507,24.507,0,0,0,20.7,27.8,24.223,24.223,0,0,0,3.258.258l-6.68-48.007A24.505,24.505,0,0,0,307.151,143.546Zm24.754-20.957,6.673,47.941q1.026-.312,2.016-.716l-6.555-47.084Q332.967,122.611,331.905,122.589Zm-3.223.141,6.755,48.542c.695-.113,1.382-.26,2.056-.434l-6.717-48.248C330.072,122.6,329.375,122.653,328.682,122.73Zm-3.164.568,6.723,48.293c.7-.023,1.4-.079,2.089-.161l-6.758-48.55Q326.531,123.044,325.518,123.3ZM354.7,154.687l-2.956-21.258a25.216,25.216,0,0,0-2.556-3.2l3.925,28.227A23.594,23.594,0,0,0,354.7,154.687Zm-13.044,14.667c.67-.312,1.329-.65,1.967-1.019l-6.262-45.012q-1.068-.272-2.176-.44Zm4.933-3.032-5.827-41.883c-.724-.3-1.464-.563-2.226-.793l6.13,44.05A23.41,23.41,0,0,0,346.593,166.322Zm5.615-6.273-4.329-31.1a23.5,23.5,0,0,0-2.376-1.9l4.937,35.482A23.046,23.046,0,0,0,352.208,160.048Zm-2.74,3.609-5.212-37.434a24.466,24.466,0,0,0-2.289-1.252l5.638,40.508A23.021,23.021,0,0,0,349.467,163.657Z" transform="translate(0 0)" fill="#ffc4ce"/>
    <g id="Groupe_13595" data-name="Groupe 13595" transform="translate(319.345 128.715)">
      <g id="Groupe_13585" data-name="Groupe 13585" transform="translate(4.817 0)">
        <path id="Tracé_3704" data-name="Tracé 3704" d="M429.084,144.082h0l-2.191-2.727-.008,0a1.057,1.057,0,0,0-1.024-.434l-64.924,10.013a1.07,1.07,0,0,0-.877.807l-1.489,6.2a1.066,1.066,0,0,0,.683,1.253l1.7,2.368c.018.024.033.051.053.073l0,0h0a1.062,1.062,0,0,0,.9.354l3.414-.328,5.123-.492,3.1-.3,52.326-5.019a1.076,1.076,0,0,0,.94-.813l2.451-10.079A1.058,1.058,0,0,0,429.084,144.082Z" transform="translate(-358.542 -140.91)" fill="#cb8eaa"/>
        <path id="Tracé_3705" data-name="Tracé 3705" d="M549.371,144.082h0l-2.191-2.727-.008,0a1.057,1.057,0,0,0-1.024-.434l-5.973.921-.916.789,3.093,8.387,4.422,4.568a1.083,1.083,0,0,0,.323-.538l2.451-10.079A1.058,1.058,0,0,0,549.371,144.082Z" transform="translate(-478.829 -140.91)" fill="#bd5288"/>
        <path id="Tracé_3706" data-name="Tracé 3706" d="M358.572,157.947l1.489-6.2a1.07,1.07,0,0,1,.877-.807l64.924-10.013a1.069,1.069,0,0,1,1.2,1.309l-2.452,10.08a1.069,1.069,0,0,1-.937.812l-63.961,6.138A1.07,1.07,0,0,1,358.572,157.947Z" transform="translate(-358.542 -140.909)" fill="#d7b9c4"/>
        <path id="Tracé_3707" data-name="Tracé 3707" d="M366.007,179.1a.084.084,0,0,1-.008-.167l61.57-6.406a.085.085,0,0,1,.092.074.084.084,0,0,1-.075.092l-61.57,6.406Z" transform="translate(-363.455 -161.955)" fill="#ffc4ce"/>
        <path id="Tracé_3708" data-name="Tracé 3708" d="M490.045,147.938l23.452-3.474-1.705,5.919Z" transform="translate(-446.071 -143.275)" fill="#fff"/>
      </g>
      <g id="Groupe_13592" data-name="Groupe 13592" transform="translate(28.241 1.173)">
        <g id="Groupe_13587" data-name="Groupe 13587" transform="translate(0 2.073)">
          <path id="Tracé_3709" data-name="Tracé 3709" d="M432.81,166.738a.75.75,0,1,1-.513-1.06A.845.845,0,0,1,432.81,166.738Z" transform="translate(-430.431 -160.633)" fill="#bd5288"/>
          <g id="Groupe_13586" data-name="Groupe 13586">
            <path id="Tracé_3710" data-name="Tracé 3710" d="M434.148,153.3l-.993.15a1.95,1.95,0,0,0-1.766-1.829,2.042,2.042,0,0,0-1.8,2.217.865.865,0,0,0,.01.161,2.338,2.338,0,0,0,.7,1.6.5.5,0,0,1,.02.709.5.5,0,0,1-.709.02,3.362,3.362,0,0,1-1.007-2.17c-.01-.1-.013-.207-.013-.314a3.036,3.036,0,0,1,2.8-3.22A2.95,2.95,0,0,1,434.148,153.3Z" transform="translate(-428.59 -150.618)" fill="#ede9fd"/>
          </g>
          <path id="Tracé_3711" data-name="Tracé 3711" d="M432.033,151.647c.093.141-.025.383-.264.54s-.508.17-.6.028.025-.384.264-.541S431.94,151.506,432.033,151.647Z" transform="translate(-430.285 -151.238)" fill="#fff"/>
          <path id="Tracé_3712" data-name="Tracé 3712" d="M431.116,154.547a.217.217,0,1,1-.278-.032A.2.2,0,0,1,431.116,154.547Z" transform="translate(-430.016 -153.184)" fill="#fff"/>
        </g>
        <g id="Groupe_13589" data-name="Groupe 13589" transform="translate(7.076 1.037)">
          <path id="Tracé_3713" data-name="Tracé 3713" d="M453.971,163.641a.75.75,0,1,1-.513-1.06A.844.844,0,0,1,453.971,163.641Z" transform="translate(-451.592 -157.535)" fill="#bd5288"/>
          <g id="Groupe_13588" data-name="Groupe 13588">
            <path id="Tracé_3714" data-name="Tracé 3714" d="M455.3,150.143l-.99.154a1.94,1.94,0,0,0-1.762-1.776,2.042,2.042,0,0,0-1.8,2.217.582.582,0,0,0,.007.107,2.367,2.367,0,0,0,.7,1.652.5.5,0,0,1-.344.866.494.494,0,0,1-.344-.14A3.375,3.375,0,0,1,449.76,151q-.01-.13-.01-.261a3.036,3.036,0,0,1,2.8-3.22A2.941,2.941,0,0,1,455.3,150.143Z" transform="translate(-449.75 -147.518)" fill="#ede9fd"/>
          </g>
          <path id="Tracé_3715" data-name="Tracé 3715" d="M453.8,149.063a.309.309,0,1,1-.394-.046A.283.283,0,0,1,453.8,149.063Z" transform="translate(-452.085 -148.477)" fill="#fff"/>
        </g>
        <g id="Groupe_13591" data-name="Groupe 13591" transform="translate(14.152)">
          <path id="Tracé_3716" data-name="Tracé 3716" d="M475.132,160.545a.75.75,0,1,1-.513-1.06A.844.844,0,0,1,475.132,160.545Z" transform="translate(-472.753 -154.437)" fill="#bd5288"/>
          <g id="Groupe_13590" data-name="Groupe 13590">
            <path id="Tracé_3717" data-name="Tracé 3717" d="M476.454,146.99v0l-.993.15a1.924,1.924,0,0,0-1.749-1.722,2.044,2.044,0,0,0-1.8,2.217.282.282,0,0,0,0,.054,2.387,2.387,0,0,0,.7,1.705.5.5,0,1,1-.689.729,3.381,3.381,0,0,1-1.013-2.281c0-.07-.007-.137-.007-.207a3.037,3.037,0,0,1,2.8-3.22A2.936,2.936,0,0,1,476.454,146.99Z" transform="translate(-470.91 -144.418)" fill="#ede9fd"/>
          </g>
          <path id="Tracé_3718" data-name="Tracé 3718" d="M474.332,146.139c.065.1,0,.253-.134.344a.269.269,0,0,1-.369-.013c-.065-.1,0-.253.134-.344A.269.269,0,0,1,474.332,146.139Z" transform="translate(-472.835 -145.512)" fill="#fff"/>
          <path id="Tracé_3719" data-name="Tracé 3719" d="M476.2,146.33c.033.051,0,.129-.069.176a.138.138,0,0,1-.189-.006c-.033-.051,0-.13.069-.177A.138.138,0,0,1,476.2,146.33Z" transform="translate(-474.253 -145.664)" fill="#fff"/>
        </g>
      </g>
      <g id="Groupe_13594" data-name="Groupe 13594" transform="translate(0 12.406)">
        <path id="Tracé_3720" data-name="Tracé 3720" d="M438.235,181.12s-1.32,10.911,1.27,20.294c3.933,14.251,12.7,18.87,12.7,18.87l-55.084-7.036s-8.434-4.372-12.662-11.927c-3.194-5.708-5.278-14.533-5.278-14.533Z" transform="translate(-367.461 -180.08)" fill="#fff" opacity="0.58"/>
        <path id="Tracé_3721" data-name="Tracé 3721" d="M433.4,178.692a77.77,77.77,0,0,0-1.073,24.193,55.881,55.881,0,0,0,8.607,22.272l-57.24-6.293a31.809,31.809,0,0,1-9.349-14.688c-2.607-9.2,0-19.817,0-19.817Z" transform="translate(-363.471 -178.464)" fill="#fff" opacity="0.58"/>
        <path id="Tracé_3722" data-name="Tracé 3722" d="M412.086,178.01l-.387,1.847-10.323,48.915-57.24-6.293,2.121-9.271,2.419-10.552,2.821-12.3,1.534-6.682Z" transform="translate(-344.136 -178.01)" fill="#f8f7fe"/>
        <path id="Tracé_3723" data-name="Tracé 3723" d="M377.479,256.76l-27,5.507,2.419-10.552,22.759,1.891Z" transform="translate(-348.357 -227.068)" fill="#5d8657" opacity="0.15"/>
        <path id="Tracé_3724" data-name="Tracé 3724" d="M426.737,178.01l-.387,1.847-60.2,10.5,1.534-6.682Z" transform="translate(-358.787 -178.01)" fill="#5d8657" opacity="0.15"/>
        <path id="Tracé_3725" data-name="Tracé 3725" d="M417.564,212.944v-.306l-4.87-.006,2.141-9.837,5.048-.167-.01-.305-4.971.164,1.88-8.638-.3-.065-1.9,8.714-9.334.308,1.785-8.217-.3-.065-1.8,8.293-8.832.291,1.7-7.819-.3-.065-1.715,7.894-9.55.314,1.649-7.391-.3-.067-1.666,7.468-9.058.3,1.512-6.98-.3-.065-1.529,7.055-4.093.135.01.305,4.016-.132-1.848,8.53-4.05,0v.306l3.984,0-1.7,7.852-4-.176-.013.306,3.948.173-1.783,8.228.3.065,1.794-8.279,8.794.386L380,230l.3.067,1.919-8.6,9.5.416-1.935,8.908.3.065,1.947-8.959,8.688.381-2.005,9.232.3.065,2.016-9.283,9.171.4-2.083,9.572.3.065L410.5,222.7l5.334.234.013-.306-5.281-.232,2.059-9.461Zm-3.044-10.138-2.139,9.826-9.261-.011,2.065-9.508Zm-9.649.318-2.063,9.5-8.767-.01,2-9.2Zm-9.147.3-2,9.186-9.533-.011,1.977-8.86Zm-18.923.623,9.056-.3-1.974,8.849-8.932-.01Zm-3.62,16.711,1.7-7.865,8.93.01-1.839,8.24Zm9.106.4,1.841-8.253,9.535.011-1.881,8.659Zm9.8.43,1.884-8.672,8.768.01-1.964,9.043Zm18.169.8-9.172-.4,1.967-9.056,9.261.011Z" transform="translate(-360.59 -188.509)" fill="#52744c"/>
        <g id="Groupe_13593" data-name="Groupe 13593" transform="translate(33.376 15.642)">
          <path id="Tracé_3726" data-name="Tracé 3726" d="M515.014,230.81a1.129,1.129,0,1,1-1.12-1.137A1.129,1.129,0,0,1,515.014,230.81Z" transform="translate(-489.747 -228.039)" fill="#fff"/>
          <path id="Tracé_3727" data-name="Tracé 3727" d="M507.214,241.026a.564.564,0,1,1-.56-.569A.564.564,0,0,1,507.214,241.026Z" transform="translate(-485.306 -235.217)" fill="#fff"/>
          <path id="Tracé_3728" data-name="Tracé 3728" d="M445.65,291.956a.852.852,0,1,1-.846-.858A.852.852,0,0,1,445.65,291.956Z" transform="translate(-443.946 -268.924)" fill="#fff"/>
          <path id="Tracé_3729" data-name="Tracé 3729" d="M466.43,225.327a.537.537,0,1,1-.533-.541A.537.537,0,0,1,466.43,225.327Z" transform="translate(-458.196 -224.786)" fill="#fff"/>
        </g>
      </g>
    </g>
    <g id="Groupe_13599" data-name="Groupe 13599" transform="translate(309.162 127.22)">
      <path id="Tracé_3730" data-name="Tracé 3730" d="M423.957,256.816a3.1,3.1,0,0,0-2.437-1.56,4.184,4.184,0,0,0-3.361.777.426.426,0,0,0,.406.71c.408-.1.778-.291,1.188-.394a4.344,4.344,0,0,1,1.247-.131,2.612,2.612,0,0,1,1.947.847c.885,1.144.227,2.9-.531,3.929a6.36,6.36,0,0,1-3.448,2.278c-1.482.4-3.579.288-4.182-1.421-.7-1.992,1.158-3.532,2.35-4.815.032-.034-.009-.1-.052-.068-1.543,1-3.153,2.6-3,4.609.161,2.082,2.345,2.951,4.179,2.73a7.334,7.334,0,0,0,4.642-2.446C424.036,260.537,424.784,258.484,423.957,256.816Z" transform="translate(-380.507 -215.487)" fill="#d7b9c4"/>
      <g id="Groupe_13598" data-name="Groupe 13598" transform="translate(0 0)">
        <path id="Tracé_3731" data-name="Tracé 3731" d="M423.729,264.38l.136,1.338a.76.76,0,0,1-.981.814l-1.289-.382c.358-.244.731-.528,1.1-.837S423.422,264.686,423.729,264.38Z" transform="translate(-385.511 -221.597)" fill="#001552"/>
        <path id="Tracé_3732" data-name="Tracé 3732" d="M414.2,250.084l.266,2.642.218,2.138c-.306.306-.654.621-1.03.932s-.746.593-1.1.837l-2.064-.608-2.478-.73,2.879-2.835Z" transform="translate(-376.471 -212.082)" fill="#feafab"/>
        <path id="Tracé_3733" data-name="Tracé 3733" d="M330.359,149.069l27.79,33.511c.406.489-.136,1.638-1.249,2.821a11.45,11.45,0,0,1-2.126,1.763c-1.366.872-2.6,1.194-3,.705l-27.79-33.511Z" transform="translate(-320.538 -144.846)" fill="#6e6e6e"/>
        <path id="Tracé_3734" data-name="Tracé 3734" d="M326.107,159.615l28.667,34.569c-1.366.872-2.6,1.194-3,.705l-27.79-33.511Z" transform="translate(-320.538 -151.865)" fill="#354b31"/>
        <path id="Tracé_3735" data-name="Tracé 3735" d="M332.465,154.342l28.668,34.569a11.451,11.451,0,0,1-2.126,1.763l-28.667-34.569Z" transform="translate(-324.77 -148.355)" fill="#52744c"/>
        <path id="Tracé_3736" data-name="Tracé 3736" d="M338.823,149.069l27.79,33.511c.406.489-.136,1.638-1.249,2.821L336.7,150.832Z" transform="translate(-329.002 -144.846)" fill="#5d8657"/>
        <path id="Tracé_3737" data-name="Tracé 3737" d="M326.3,150.58c-1.762,1.461-2.871,3.031-2.477,3.506l.151.183.275.332.151.183c.394.475,2.142-.324,3.9-1.785s2.87-3.031,2.476-3.506l-.151-.183-.275-.332-.152-.183C329.808,148.32,328.06,149.119,326.3,150.58Z" transform="translate(-320.379 -144.572)" fill="#fff"/>
        <path id="Tracé_3738" data-name="Tracé 3738" d="M326.408,147.58a.089.089,0,0,1-.017.02c-.06.074-.124.147-.187.217s-.137.154-.207.227c-.1.11-.207.214-.314.318-.207.2-.435.408-.672.605a6.651,6.651,0,0,1-3.5,1.739.866.866,0,0,1-.552-.157,3.166,3.166,0,0,1-1.438-2.1l3-2.488,3-2.488a3.076,3.076,0,0,1,.749.418,3.117,3.117,0,0,1,1.05,1.381l0,0C327.565,145.741,327.193,146.624,326.408,147.58Z" transform="translate(-317.569 -141.122)" fill="#feafab"/>
        <g id="Groupe_13596" data-name="Groupe 13596" transform="translate(4.439 2.77)">
          <path id="Tracé_3739" data-name="Tracé 3739" d="M331.361,148.412a.087.087,0,0,1-.017.02c-.06.074-.124.147-.187.217s-.137.154-.207.227c-.1.11-.207.214-.314.318a11.5,11.5,0,0,1-2.454,1.8.836.836,0,0,1-.769-1.485,9.884,9.884,0,0,0,1.782-1.254,5.162,5.162,0,0,0,1.933-3.214.821.821,0,0,1,.094-.314,3.117,3.117,0,0,1,1.05,1.381l0,0C332.518,146.573,332.147,147.456,331.361,148.412Z" transform="translate(-326.962 -144.724)" fill="#fed3d1"/>
        </g>
        <path id="Tracé_3740" data-name="Tracé 3740" d="M321.445,140.162a8.185,8.185,0,0,1-1.923,2.184c-1.508,1.251-3.083,1.886-3.722,1.545l0,0-.05-.03s0,0,0,0a6.13,6.13,0,0,1-1.973-1.966l.007,0c-.408-.672.585-2.3,2.287-3.712s3.488-2.087,4.073-1.565l.007,0a4.519,4.519,0,0,1,.381.378,6.346,6.346,0,0,1,1.184,1.923,0,0,0,0,0,0,0c.013.037.02.057.02.057l0,0A1.652,1.652,0,0,1,321.445,140.162Z" transform="translate(-313.686 -136.439)" fill="#feafab"/>
        <path id="Tracé_3741" data-name="Tracé 3741" d="M319.817,138.081c.4.484-.524,1.912-2.066,3.191s-3.117,1.923-3.518,1.44.524-1.912,2.066-3.191S319.416,137.6,319.817,138.081Z" transform="translate(-313.988 -137.425)" fill="#fb7880"/>
        <g id="Groupe_13597" data-name="Groupe 13597" transform="translate(3.154 0.55)">
          <path id="Tracé_3742" data-name="Tracé 3742" d="M327.722,141.257a10.565,10.565,0,0,1-3.22,3.056.91.91,0,0,1-.465.127.919.919,0,0,1-.465-1.712c.893-.528,3.17-2.291,3.17-4.2v-.087a.906.906,0,0,1,.06-.358,6.346,6.346,0,0,1,1.184,1.923,0,0,0,0,0,0,0c.013.037.02.057.02.057l0,0A1.651,1.651,0,0,1,327.722,141.257Z" transform="translate(-323.117 -138.084)" fill="#fed3d1"/>
        </g>
      </g>
    </g>
  </g>
</svg>
