<svg xmlns="http://www.w3.org/2000/svg" xmlns:xlink="http://www.w3.org/1999/xlink" width="24" height="24" viewBox="0 0 24 24">
  <defs>
    <clipPath id="clip-path">
      <rect id="Rectangle_2839" data-name="Rectangle 2839" width="24" height="24" transform="translate(-257.725 330.739)" fill="none"/>
    </clipPath>
  </defs>
  <g id="Groupe_13228" data-name="Groupe 13228" transform="translate(257.725 -330.739)">
    <g id="Groupe_13227" data-name="Groupe 13227" clip-path="url(#clip-path)">
      <g id="Groupe_13226" data-name="Groupe 13226">
        <path id="Tracé_2728" data-name="Tracé 2728" d="M-254.793,350.861c0-.409-.011-.819-.011-1.229q0-4.576,0-9.153c0-.086,0-.173.007-.259h18.154c0,.086.007.173.007.259q0,4.884,0,9.768c0,.189-.007.378-.011.567-.055.01-.068.051-.084.1a2.026,2.026,0,0,1-1.989,1.418q-6.979,0-13.958,0a2.048,2.048,0,0,1-1.992-1.288C-254.7,350.979-254.687,350.877-254.793,350.861Zm4.012-7.624c0-.268,0-.536,0-.8,0-.127-.037-.185-.174-.184-.552.005-1.1,0-1.655,0-.122,0-.166.047-.166.168,0,.551.005,1.1,0,1.654,0,.139.06.173.186.172q.816-.006,1.631,0c.133,0,.181-.049.178-.181C-250.785,343.789-250.781,343.513-250.781,343.237Zm3.029.005c0-.268,0-.536,0-.8,0-.122-.027-.19-.169-.189q-.828.008-1.655,0c-.14,0-.172.063-.171.188,0,.543.005,1.087,0,1.63,0,.134.051.179.181.178.544-.005,1.088-.006,1.631,0,.153,0,.187-.065.184-.2C-247.757,343.778-247.752,343.51-247.752,343.242Zm3.028.005c0-.276,0-.552,0-.827,0-.119-.039-.171-.164-.17-.551,0-1.1,0-1.654,0-.136,0-.178.053-.177.183q.008.814,0,1.63c0,.13.041.184.177.183.543-.005,1.087-.006,1.63,0,.148,0,.193-.055.189-.2C-244.729,343.783-244.724,343.515-244.724,343.247Zm1.036-.007c0,.268,0,.536,0,.8,0,.133.027.2.182.2q.814-.009,1.63,0c.153,0,.185-.065.184-.2-.005-.536-.006-1.072,0-1.607,0-.146-.052-.192-.193-.19-.536.005-1.072.007-1.607,0-.164,0-.2.066-.2.212C-243.682,342.72-243.688,342.98-243.688,343.24Zm5.02.008c0-.267-.005-.535,0-.8,0-.138-.038-.2-.187-.2-.543.006-1.087.005-1.631,0-.133,0-.179.05-.178.181q.008.814,0,1.631c0,.128.038.185.174.184q.828-.008,1.655,0c.123,0,.167-.048.165-.168C-238.671,343.8-238.668,343.524-238.668,343.248Zm-12.113,3.025c0-.268,0-.536,0-.8,0-.142-.045-.2-.19-.193-.536.006-1.072.005-1.608,0-.135,0-.2.032-.2.184.007.543,0,1.087,0,1.631,0,.131.044.182.178.18.543,0,1.087-.005,1.631,0,.148,0,.19-.058.187-.2C-250.786,346.809-250.781,346.541-250.781,346.273Zm3.028.025c0-.283,0-.567,0-.85,0-.119-.04-.171-.164-.17-.552,0-1.1,0-1.655,0-.135,0-.177.053-.176.182q.006.816,0,1.631c0,.13.041.184.176.182.544,0,1.088-.005,1.631,0,.147,0,.193-.055.189-.2C-247.758,346.818-247.752,346.558-247.753,346.3Zm2.037.973c.268,0,.536,0,.8,0,.121,0,.191-.025.19-.168-.006-.551-.005-1.1,0-1.654,0-.14-.061-.174-.187-.173-.543,0-1.087.005-1.631,0-.133,0-.179.049-.178.181.005.543.006,1.087,0,1.63,0,.152.064.188.2.185C-246.252,347.266-245.984,347.271-245.716,347.271Zm3.046-1.992c-.276,0-.551.005-.827,0-.142,0-.2.044-.193.19.006.535.005,1.071,0,1.607,0,.135.032.2.184.2.544-.006,1.087-.005,1.631,0,.131,0,.182-.044.181-.177-.005-.544-.006-1.088,0-1.631,0-.149-.057-.191-.2-.187C-242.15,345.284-242.41,345.279-242.67,345.279Zm2.011.972c0,.284,0,.567,0,.851,0,.118.039.171.164.17q.828-.006,1.655,0c.135,0,.177-.052.176-.182q-.006-.814,0-1.631c0-.129-.041-.183-.176-.182-.544.005-1.088.006-1.631,0-.147,0-.193.055-.189.2C-240.654,345.731-240.66,345.991-240.659,346.251Zm-10.122,3.052c0-.276,0-.552,0-.827,0-.119-.039-.171-.164-.17q-.839,0-1.678,0c-.112,0-.152.05-.152.158,0,.559,0,1.118,0,1.678,0,.129.062.158.175.158.552,0,1.1,0,1.655,0,.124,0,.166-.051.164-.17C-250.784,349.854-250.781,349.579-250.781,349.3Zm1.037-.024c0,.284,0,.567,0,.851,0,.118.039.171.164.17q.826-.006,1.654,0c.135,0,.177-.052.176-.182q-.006-.814,0-1.631c0-.129-.041-.183-.176-.182-.544.005-1.087.006-1.631,0-.147,0-.192.055-.188.2C-249.739,348.759-249.744,349.019-249.744,349.279Zm4.018-.972c-.268,0-.536,0-.8,0-.124,0-.189.029-.188.171.005.551,0,1.1,0,1.654,0,.119.039.171.164.17q.826-.006,1.654,0c.136,0,.178-.053.177-.182-.005-.544-.006-1.087,0-1.631,0-.153-.067-.185-.2-.182C-245.19,348.311-245.458,348.307-245.726,348.307Zm4.03,1c0-.268-.005-.536,0-.8,0-.138-.038-.2-.187-.2-.543.007-1.087.006-1.631,0-.133,0-.179.05-.178.181q.008.814,0,1.63c0,.128.038.186.175.184.552,0,1.1,0,1.655,0,.123,0,.167-.048.165-.169C-241.7,349.856-241.7,349.58-241.7,349.3Zm2.031.994c.268,0,.536-.005.8,0,.139,0,.2-.039.2-.187-.007-.544-.006-1.088,0-1.631,0-.134-.05-.179-.181-.178q-.814.006-1.631,0c-.128,0-.185.038-.184.175q.008.826,0,1.654c0,.123.049.168.169.166C-240.217,350.3-239.941,350.3-239.665,350.3Z" fill="#ebeff0"/>
        <path id="Tracé_2729" data-name="Tracé 2729" d="M-238.648,334.162a2.016,2.016,0,0,1,2.017,2.017c-.022,1-.01,2-.012,3H-254.8c0-1.071-.052-2.143.006-3.21a1.958,1.958,0,0,1,2-1.807c.023.489.021.978,0,1.467a1.344,1.344,0,0,0-.486,1.291,1.49,1.49,0,0,0,1.5,1.265,1.489,1.489,0,0,0,1.5-1.265,1.348,1.348,0,0,0-.487-1.291c-.019-.489-.021-.978,0-1.467h10.081c.022.489.021.978,0,1.467a1.344,1.344,0,0,0-.486,1.291,1.489,1.489,0,0,0,1.5,1.265,1.488,1.488,0,0,0,1.5-1.265,1.348,1.348,0,0,0-.486-1.291C-238.668,335.14-238.67,334.651-238.648,334.162Z" fill="#e64c3c"/>
        <path id="Tracé_2730" data-name="Tracé 2730" d="M-254.793,350.861c.106.016.093.118.123.183a2.048,2.048,0,0,0,1.992,1.288q6.979,0,13.958,0a2.026,2.026,0,0,0,1.989-1.418c.016-.048.029-.089.084-.1a3.068,3.068,0,0,1-.08,1.1,2,2,0,0,1-1.841,1.417c-.283.01-.567,0-.851,0q-6.644,0-13.289,0a2.013,2.013,0,0,1-2.026-1.489A2.913,2.913,0,0,1-254.793,350.861Z" fill="#bcc2c6"/>
        <path id="Tracé_2731" data-name="Tracé 2731" d="M-236.643,340.22H-254.8v-1h18.154Z" fill="#bf392b"/>
        <path id="Tracé_2732" data-name="Tracé 2732" d="M-252.792,335.629c.02-.489.022-.978,0-1.467,0-.322.006-.644.011-.966a1.013,1.013,0,0,1,1.006-1.054,1.011,1.011,0,0,1,1,1.054c.005.322.007.644.011.966-.022.489-.02.978,0,1.467,0,.2-.006.393-.013.59a1,1,0,0,1-.99.972,1,1,0,0,1-1.013-.972C-252.785,336.022-252.787,335.825-252.792,335.629Z" fill="#bcc2c6"/>
        <path id="Tracé_2733" data-name="Tracé 2733" d="M-240.679,335.629c.02-.489.021-.978,0-1.467,0-.33.006-.66.011-.989a.985.985,0,0,1,1.016-1.032.984.984,0,0,1,.994,1.032c0,.33.007.659.011.989-.022.489-.02.978,0,1.467l-.012.543a1.034,1.034,0,0,1-1,1.019,1.032,1.032,0,0,1-1-1.019Z" fill="#bcc2c6"/>
        <path id="Tracé_2734" data-name="Tracé 2734" d="M-236.643,339.224H-254.8a.051.051,0,0,1,0-.045h18.154A.051.051,0,0,1-236.643,339.224Z" fill="#da6a5f"/>
        <path id="Tracé_2735" data-name="Tracé 2735" d="M-250.781,343.237c0,.276,0,.552,0,.827,0,.132-.045.182-.178.181q-.816-.008-1.631,0c-.126,0-.187-.033-.186-.172.005-.551,0-1.1,0-1.654,0-.121.044-.169.166-.168.552,0,1.1,0,1.655,0,.137,0,.177.057.174.184C-250.785,342.7-250.781,342.969-250.781,343.237Z" fill="#bcc2c6"/>
        <path id="Tracé_2736" data-name="Tracé 2736" d="M-247.752,343.242c0,.268-.005.536,0,.8,0,.135-.031.2-.184.2-.543-.006-1.087-.005-1.631,0-.13,0-.182-.044-.181-.178.005-.543,0-1.087,0-1.63,0-.125.031-.189.171-.188q.828.008,1.655,0c.142,0,.171.067.169.189C-247.756,342.706-247.752,342.974-247.752,343.242Z" fill="#bcc2c6"/>
        <path id="Tracé_2737" data-name="Tracé 2737" d="M-244.724,343.247c0,.268-.005.536,0,.8,0,.14-.041.2-.189.2-.543-.006-1.087-.005-1.63,0-.136,0-.178-.053-.177-.183q.008-.814,0-1.63c0-.13.041-.184.177-.183.551.005,1.1,0,1.654,0,.125,0,.166.051.164.17C-244.727,342.7-244.724,342.971-244.724,343.247Z" fill="#bcc2c6"/>
        <path id="Tracé_2738" data-name="Tracé 2738" d="M-243.688,343.24c0-.26.006-.52,0-.78-.005-.146.032-.214.2-.212.535.008,1.071.006,1.607,0,.141,0,.195.044.193.19-.006.535-.005,1.071,0,1.607,0,.134-.031.2-.184.2q-.814-.009-1.63,0c-.155,0-.185-.069-.182-.2C-243.684,343.776-243.688,343.508-243.688,343.24Z" fill="#bcc2c6"/>
        <path id="Tracé_2739" data-name="Tracé 2739" d="M-238.668,343.248c0,.276,0,.552,0,.828,0,.12-.042.169-.165.168q-.828-.006-1.655,0c-.136,0-.175-.056-.174-.184q.006-.816,0-1.631c0-.131.045-.182.178-.181.544.005,1.088.006,1.631,0,.149,0,.191.058.187.2C-238.673,342.713-238.668,342.981-238.668,343.248Z" fill="#bcc2c6"/>
        <path id="Tracé_2740" data-name="Tracé 2740" d="M-250.781,346.273c0,.268,0,.536,0,.8,0,.138-.039.2-.187.2-.544-.006-1.088-.005-1.631,0-.134,0-.179-.049-.178-.18,0-.544.006-1.088,0-1.631,0-.152.064-.185.2-.184.536.005,1.072.006,1.608,0,.145,0,.194.051.19.193C-250.786,345.737-250.781,346.005-250.781,346.273Z" fill="#bcc2c6"/>
        <path id="Tracé_2741" data-name="Tracé 2741" d="M-247.752,346.3c0,.26-.006.52,0,.78,0,.14-.042.2-.189.2-.543-.006-1.087-.005-1.631,0-.135,0-.177-.052-.176-.182q.006-.814,0-1.631c0-.129.041-.183.176-.182.552.005,1.1,0,1.655,0,.124,0,.166.051.164.17C-247.756,345.731-247.753,346.015-247.752,346.3Z" fill="#bcc2c6"/>
        <path id="Tracé_2742" data-name="Tracé 2742" d="M-245.716,347.271c-.268,0-.536-.005-.8,0-.135,0-.2-.033-.2-.185.007-.543.006-1.087,0-1.63,0-.132.045-.182.178-.181.544.005,1.088,0,1.631,0,.126,0,.188.033.187.173-.005.551-.006,1.1,0,1.654,0,.143-.069.17-.19.168C-245.18,347.267-245.448,347.271-245.716,347.271Z" fill="#bcc2c6"/>
        <path id="Tracé_2743" data-name="Tracé 2743" d="M-242.67,345.279c.26,0,.52.005.78,0,.139,0,.2.038.2.187-.006.543-.005,1.087,0,1.631,0,.133-.05.178-.181.177-.544,0-1.087-.005-1.631,0-.152,0-.185-.064-.184-.2.005-.536.006-1.072,0-1.607,0-.146.051-.194.193-.19C-243.221,345.284-242.946,345.279-242.67,345.279Z" fill="#bcc2c6"/>
        <path id="Tracé_2744" data-name="Tracé 2744" d="M-240.66,346.251c0-.26.006-.52,0-.78,0-.14.042-.2.189-.2.543.007,1.087.006,1.631,0,.135,0,.177.053.176.182q-.006.816,0,1.631c0,.13-.041.184-.176.182q-.828-.006-1.655,0c-.125,0-.166-.052-.164-.17C-240.657,346.818-240.659,346.535-240.66,346.251Z" fill="#bcc2c6"/>
        <path id="Tracé_2745" data-name="Tracé 2745" d="M-250.781,349.3c0,.276,0,.551,0,.827,0,.119-.04.171-.164.17-.552,0-1.1,0-1.655,0-.113,0-.176-.029-.175-.158,0-.56,0-1.119,0-1.678,0-.108.04-.158.152-.158q.839,0,1.678,0c.125,0,.166.051.164.17C-250.784,348.751-250.781,349.027-250.781,349.3Z" fill="#bcc2c6"/>
        <path id="Tracé_2746" data-name="Tracé 2746" d="M-249.744,349.279c0-.26.005-.52,0-.78,0-.14.041-.2.188-.2.544.007,1.087.006,1.631,0,.135,0,.177.053.176.182q-.006.816,0,1.631c0,.13-.041.183-.176.182q-.826-.006-1.654,0c-.125,0-.166-.052-.164-.17C-249.741,349.846-249.744,349.563-249.744,349.279Z" fill="#bcc2c6"/>
        <path id="Tracé_2747" data-name="Tracé 2747" d="M-245.726,348.307c.268,0,.536,0,.8,0,.134,0,.2.029.2.182-.006.544-.005,1.087,0,1.631,0,.129-.041.183-.177.182q-.826-.006-1.654,0c-.125,0-.165-.051-.164-.17,0-.551,0-1.1,0-1.654,0-.142.064-.173.188-.171C-246.262,348.31-245.994,348.307-245.726,348.307Z" fill="#bcc2c6"/>
        <path id="Tracé_2748" data-name="Tracé 2748" d="M-241.7,349.3c0,.276,0,.552,0,.827,0,.121-.042.17-.165.169-.552,0-1.1,0-1.655,0-.137,0-.176-.056-.175-.184q.008-.814,0-1.63c0-.131.045-.182.178-.181.544.005,1.088.006,1.631,0,.149,0,.191.059.187.2C-241.7,348.768-241.7,349.036-241.7,349.3Z" fill="#bcc2c6"/>
        <path id="Tracé_2749" data-name="Tracé 2749" d="M-239.665,350.3c-.276,0-.552,0-.827,0-.12,0-.17-.043-.169-.166q.006-.826,0-1.654c0-.137.056-.176.184-.175q.816.006,1.631,0c.131,0,.182.044.181.178-.005.543-.006,1.087,0,1.631,0,.148-.058.19-.2.187C-239.129,350.293-239.4,350.3-239.665,350.3Z" fill="#bcc2c6"/>
        <path id="Tracé_2750" data-name="Tracé 2750" d="M-240.679,335.629l.012.543a1.032,1.032,0,0,0,1,1.019,1.034,1.034,0,0,0,1-1.019l.012-.543a1.348,1.348,0,0,1,.486,1.291,1.488,1.488,0,0,1-1.5,1.265,1.489,1.489,0,0,1-1.5-1.265A1.344,1.344,0,0,1-240.679,335.629Z" fill="#c0392c"/>
        <path id="Tracé_2751" data-name="Tracé 2751" d="M-252.792,335.629c.005.2.007.393.014.59a1,1,0,0,0,1.013.972,1,1,0,0,0,.99-.972c.007-.2.009-.394.013-.59a1.348,1.348,0,0,1,.487,1.291,1.489,1.489,0,0,1-1.5,1.265,1.49,1.49,0,0,1-1.5-1.265A1.344,1.344,0,0,1-252.792,335.629Z" fill="#c0392c"/>
      </g>
    </g>
  </g>
</svg>
