<svg xmlns="http://www.w3.org/2000/svg" xmlns:xlink="http://www.w3.org/1999/xlink" width="412" height="334" viewBox="0 0 412 334">
  <defs>
    <clipPath id="clip-path">
      <rect id="Rectangle_2779" data-name="Rectangle 2779" width="412" height="334" transform="translate(0 88)" fill="none" stroke="#707070" stroke-width="1"/>
    </clipPath>
  </defs>
  <g id="Groupe_de_masques_10" data-name="Groupe de masques 10" transform="translate(0 -88)" clip-path="url(#clip-path)">
    <path id="Tracé_2538" data-name="Tracé 2538" d="M299.037,604.231c2.53-1.574,9.936-1.629,12.22-1.657,91.49-1.064,183.074.069,274.609.083,5.174,0,23.733-.1,26.914,2.762a1.18,1.18,0,0,1,.062,1.823c-3.337,3.289-26.814,3.161-32.976,3.157-23.736-.01-234.858,1.6-269.861-.832-2.669-.184-7.923-.645-10.421-2.149C298.087,606.521,297.491,605.194,299.037,604.231Z" transform="translate(-250.131 -190.913)" fill="#e8e8e8"/>
    <g id="Groupe_13243" data-name="Groupe 13243" transform="translate(165.363 120.372)">
      <path id="Tracé_2539" data-name="Tracé 2539" d="M220.221,548.567" transform="translate(-200.236 -523.459)" fill="#304e36"/>
      <g id="Groupe_13240" data-name="Groupe 13240" transform="translate(7.017)">
        <path id="Tracé_2540" data-name="Tracé 2540" d="M235.216,550.292c-.439-4.315-5.036-7.852-8.523-7.852s-8.089,3.536-8.523,7.852l-.037,3.373a1.773,1.773,0,0,0,1.844,1.7h13.433a1.775,1.775,0,0,0,1.844-1.7Zm-5.278-4.184a.708.708,0,0,1-.561.27.715.715,0,0,1-.443-.152,3.448,3.448,0,0,0-4.459-.025.714.714,0,0,1-.946-1.07,4.853,4.853,0,0,1,6.294-.025A.715.715,0,0,1,229.938,546.108Z" transform="translate(-213.724 -542.44)" fill="#3c7548"/>
        <path id="Tracé_2541" data-name="Tracé 2541" d="M241.826,544.994a1.685,1.685,0,0,0-2.135,1.078c-.012.025-.91,2.61-2.745,2.61h-6.7a1.51,1.51,0,0,1-.447,0h-6.7c-1.828,0-2.725-2.557-2.741-2.61a1.694,1.694,0,0,0-3.217,1.061c.6,1.836,2.528,4.938,5.958,4.938h6.7a1.521,1.521,0,0,1,.447,0h6.7c3.43,0,5.36-3.1,5.962-4.938A1.7,1.7,0,0,0,241.826,544.994Z" transform="translate(-217.056 -534.795)" fill="#3c7548"/>
      </g>
      <g id="Groupe_13242" data-name="Groupe 13242" transform="translate(0 18.244)">
        <g id="Groupe_13241" data-name="Groupe 13241">
          <path id="Tracé_2542" data-name="Tracé 2542" d="M224.486,549.211a6.823,6.823,0,1,1-6.827,6.823,6.831,6.831,0,0,1,6.827-6.823m0-2.319a9.142,9.142,0,1,0,9.142,9.142,9.14,9.14,0,0,0-9.142-9.142Z" transform="translate(-215.344 -546.892)" fill="#e3bac6"/>
          <path id="Tracé_2543" data-name="Tracé 2543" d="M229.778,549.211a6.823,6.823,0,1,1-6.823,6.823,6.831,6.831,0,0,1,6.823-6.823m0-2.319a9.142,9.142,0,1,0,9.142,9.142,9.143,9.143,0,0,0-9.142-9.142Z" transform="translate(-198.95 -546.892)" fill="#e3bac6"/>
        </g>
        <path id="Tracé_2544" data-name="Tracé 2544" d="M222.16,548.3a2.563,2.563,0,0,0-2.565,2.561v4.856h1.25v-4.381a1.313,1.313,0,1,1,2.627,0v4.381h1.254v-4.856A2.563,2.563,0,0,0,222.16,548.3Z" transform="translate(-202.175 -542.536)" fill="#e3bac6"/>
      </g>
    </g>
    <g id="Groupe_13244" data-name="Groupe 13244" transform="translate(44.178 164.092)">
      <rect id="Rectangle_2774" data-name="Rectangle 2774" width="29.756" height="29.756" rx="3.203" transform="matrix(0.722, -0.692, 0.692, 0.722, 0, 20.591)" fill="#e3bac6"/>
      <path id="Tracé_2545" data-name="Tracé 2545" d="M200.543,572.394a1.921,1.921,0,0,1-1.381.537l-5.643-.119a1.939,1.939,0,0,1,.082-3.877l3.7.078.254-12.093a1.939,1.939,0,0,1,3.877.082l-.3,14.031A1.932,1.932,0,0,1,200.543,572.394Z" transform="translate(-176.875 -544.321)" fill="#fff"/>
    </g>
    <g id="Groupe_13254" data-name="Groupe 13254" transform="translate(290.582 310.604)">
      <g id="Groupe_13246" data-name="Groupe 13246">
        <path id="Tracé_2546" data-name="Tracé 2546" d="M257.185,588.331c-.344-2.023-.956-2.956-1.441-6.453-.478-3.46-.737-5.245.239-6.924,1.709-2.94,5.274-3.48,6.106-3.607,8.456-1.284,18.133,9.2,16.6,20.026-.609,4.292-2.708,5.794-2.491,10.9.147,3.378,1.093,3.323,1.179,6.4.206,7.238-5.638,10.358-5.006,22.756-2.76-3.048-11.746-13.2-13.727-16.794-1.552-2.822-4.315-7.968-3.712-14.224C255.453,595,258.056,593.432,257.185,588.331Z" transform="translate(-238.066 -571.24)" fill="#3c7548"/>
        <path id="Tracé_2547" data-name="Tracé 2547" d="M251.385,585.382c-2.655,2.963-1.454,7.572-.966,9.451,3.3,12.663,24.1,18.818,29.107,18.169-3.617-12-11.612-12.116-15.465-16.2-4.367-4.626-.815-10.967-4.528-13.232C257.183,582.134,253.336,583.2,251.385,585.382Z" transform="translate(-249.722 -544.694)" fill="#3c7548"/>
        <g id="Groupe_13245" data-name="Groupe 13245" transform="translate(6.688 10.077)">
          <path id="Tracé_2548" data-name="Tracé 2548" d="M266.755,627.814c-2.072-12.82-7.733-14.738-8.152-26.043-.3-8.207,2.5-10.745,1.369-20.707a43.816,43.816,0,0,0-1.172-6.407.4.4,0,1,0-.763.206,43.484,43.484,0,0,1,1.149,6.286c1.116,9.8-1.679,12.335-1.368,20.634.426,11.494,6.135,13.488,8.171,26.1a49.691,49.691,0,0,1-.665,18.991c-.049.21.115.3.324.35s.4.036.445-.177A50.142,50.142,0,0,0,266.755,627.814Z" transform="translate(-238.057 -574.318)" fill="#9aafae"/>
          <path id="Tracé_2549" data-name="Tracé 2549" d="M279.042,619.191c.8-5.958-.786-9.478-2.256-11.377a39.98,39.98,0,0,0-10.306-8.08c-1.48-.841-7.278-3.529-10.07-6.017A17.729,17.729,0,0,1,251.8,587a.4.4,0,0,1,.733-.3,17,17,0,0,0,4.4,6.43c2.737,2.432,8.387,5.038,9.936,5.919a41.063,41.063,0,0,1,10.545,8.283c1.558,2.02,3.241,5.736,2.413,11.966A.4.4,0,0,1,279.042,619.191Z" transform="translate(-251.765 -546.73)" fill="#9aafae"/>
        </g>
      </g>
      <g id="Groupe_13248" data-name="Groupe 13248" transform="translate(36.745 16.932)">
        <path id="Tracé_2550" data-name="Tracé 2550" d="M282.071,590.639c.648-1.44,1.287-2.016,2.324-4.528,1.031-2.485,1.568-3.765,1.166-5.205-.7-2.524-3.251-3.617-3.847-3.876-6.053-2.6-15.3,3.333-16.258,11.7-.383,3.316.89,4.842-.262,8.6-.763,2.491-1.46,2.266-2.121,4.544-1.558,5.356,2.19,8.813-.691,17.93,2.652-1.735,11.317-7.556,13.491-9.851,1.706-1.8,4.763-5.1,5.529-9.877C282.068,595.942,280.431,594.273,282.071,590.639Z" transform="translate(-257.679 -576.412)" fill="#3c7548"/>
        <path id="Tracé_2551" data-name="Tracé 2551" d="M289.258,589.3c1.4,2.72-.386,5.926-1.116,7.228-4.917,8.8-21.61,9.343-25.215,7.89,5.025-8.243,11-6.773,14.67-9.068,4.151-2.6,2.737-8.014,5.942-8.983C285.568,585.748,288.227,587.294,289.258,589.3Z" transform="translate(-256.442 -554.096)" fill="#3c7548"/>
        <g id="Groupe_13247" data-name="Groupe 13247" transform="translate(0 7.455)">
          <path id="Tracé_2552" data-name="Tracé 2552" d="M264.19,616.938c4.033-9.15,8.623-9.481,11.131-17.822,1.82-6.057.223-8.492,3-15.7a34.068,34.068,0,0,1,2.118-4.544.306.306,0,1,1,.527.3,33.725,33.725,0,0,0-2.076,4.459c-2.737,7.091-1.146,9.52-2.986,15.645-2.554,8.482-7.192,8.859-11.16,17.855a38.269,38.269,0,0,0-3.192,14.28c0,.167-.144.2-.308.2s-.3-.049-.3-.219A38.615,38.615,0,0,1,264.19,616.938Z" transform="translate(-260.946 -578.69)" fill="#9aafae"/>
          <path id="Tracé_2553" data-name="Tracé 2553" d="M261.556,608.1c.566-4.6,2.429-6.908,3.889-8.04a30.815,30.815,0,0,1,9.252-4.017c1.267-.341,6.106-1.218,8.672-2.528a13.718,13.718,0,0,0,4.744-4.115.306.306,0,0,0-.491-.363,13.036,13.036,0,0,1-4.531,3.935c-2.508,1.28-7.225,2.125-8.551,2.481a31.636,31.636,0,0,0-9.468,4.125c-1.552,1.2-3.529,3.644-4.118,8.449A.3.3,0,0,0,261.556,608.1Z" transform="translate(-260.937 -555.445)" fill="#9aafae"/>
        </g>
      </g>
      <g id="Groupe_13253" data-name="Groupe 13253" transform="translate(19.583 73.58)">
        <path id="Tracé_2554" data-name="Tracé 2554" d="M284.809,622.1c-4.014,3.385-21.3,3.451-25.332.046-2.8-2.364-4.2-6.806-3.657-12.087a23.444,23.444,0,0,1,.442-2.665c.065-.337.141-.674.233-1.012A28.774,28.774,0,0,1,257.6,603c.141-.347.291-.694.442-1.047a34.4,34.4,0,0,1,2.118-4.007c.18-.281.357-.563.553-.851a35.43,35.43,0,0,1,2.468-3.329h8.947c0-.049,8.973-.049,8.973-.049a35.665,35.665,0,0,1,2.213,2.947c.386.573.753,1.143,1.09,1.715a30.956,30.956,0,0,1,1.565,2.946c.3.629.563,1.254.8,1.866.318.815.589,1.63.815,2.429.177.589.327,1.182.449,1.761a24.253,24.253,0,0,1,.432,2.674C289,615.306,287.6,619.733,284.809,622.1Z" transform="translate(-255.704 -593.716)" fill="#f5d491"/>
        <g id="Groupe_13252" data-name="Groupe 13252" transform="translate(0.558 7.431)">
          <g id="Groupe_13251" data-name="Groupe 13251">
            <g id="Groupe_13249" data-name="Groupe 13249" transform="translate(1.339)">
              <path id="Tracé_2555" data-name="Tracé 2555" d="M285.452,598.029c-4.4.066-8.846-.291-13.233-.311-5.31-.036-10.627.226-15.937.121.141-.347.291-.694.442-1.047a155.458,155.458,0,0,1,16.431-.753c3.8-.036,7.68-.148,11.5.124C284.955,596.792,285.216,597.417,285.452,598.029Z" transform="translate(-256.283 -595.986)" fill="#504647"/>
            </g>
            <g id="Groupe_13250" data-name="Groupe 13250" transform="translate(0 4.229)">
              <path id="Tracé_2556" data-name="Tracé 2556" d="M287.646,599.282c-4.577.281-9.294-.141-13.832-.131-5.929.01-12.025.609-17.94.141.065-.337.141-.674.233-1.012,5.5-.91,11.275-.743,16.808-.819,4.642-.065,9.576-.412,14.283.059Z" transform="translate(-255.874 -597.278)" fill="#504647"/>
            </g>
          </g>
        </g>
      </g>
    </g>
    <g id="Groupe_13256" data-name="Groupe 13256" transform="translate(103.275 131.704)">
      <g id="Groupe_13255" data-name="Groupe 13255" transform="translate(0 3.519)">
        <path id="Tracé_2557" data-name="Tracé 2557" d="M233.5,548.15l5.819,17.367a2.914,2.914,0,0,1,.147,1.09,2.661,2.661,0,0,1-.332,1.266,2.992,2.992,0,0,1-1.762,1.549l-26.366,8.831a3.033,3.033,0,0,1-2.352-.168,2.817,2.817,0,0,1-1.02-.832,2.726,2.726,0,0,1-.529-.942l-5.819-17.367a3.09,3.09,0,0,1,1.951-3.889l26.366-8.831A3.087,3.087,0,0,1,233.5,548.15Z" transform="translate(-201.13 -546.064)" fill="#f5e3cb"/>
        <path id="Tracé_2558" data-name="Tracé 2558" d="M225.771,559.757l6.548-13.142a1.8,1.8,0,0,0-.557-.319,1.922,1.922,0,0,0-.615-.213l-6.524,13.1-.57,1.168-2.672,5.339-5.335-2.656-1.152-.573-13.1-6.528a1.928,1.928,0,0,0-.385.529,3.888,3.888,0,0,0-.254.59l13.166,6.557-6.782,13.584a2.817,2.817,0,0,0,1.02.832l6.909-13.843,5.921,2.95a.638.638,0,0,0,.484.037.661.661,0,0,0,.377-.328l2.95-5.921,13.838,6.893a2.662,2.662,0,0,0,.332-1.266Z" transform="translate(-201.04 -546.005)" fill="#e5cfb3"/>
      </g>
      <path id="Tracé_2559" data-name="Tracé 2559" d="M214.692,547.663a3.6,3.6,0,1,1-4.561-2.27A3.6,3.6,0,0,1,214.692,547.663Z" transform="translate(-180.859 -545.205)" fill="#3c7548"/>
    </g>
    <g id="Groupe_13258" data-name="Groupe 13258" transform="translate(270.83 165.148)">
      <ellipse id="Ellipse_3461" data-name="Ellipse 3461" cx="16.713" cy="16.713" rx="16.713" ry="16.713" transform="translate(3.898 37.312) rotate(-88.415)" fill="#504647"/>
      <ellipse id="Ellipse_3462" data-name="Ellipse 3462" cx="15.079" cy="15.079" rx="15.079" ry="15.079" transform="matrix(0.808, -0.589, 0.589, 0.808, 0, 17.757)" fill="#fff"/>
      <g id="Groupe_13257" data-name="Groupe 13257" transform="translate(8.007 8.007)">
        <path id="Tracé_2560" data-name="Tracé 2560" d="M245.937,558.63a.645.645,0,0,1-.606-.856l.967-2.738a.643.643,0,1,1,1.213.426l-.967,2.737A.647.647,0,0,1,245.937,558.63Z" transform="translate(-229.461 -554.606)" fill="#504647"/>
        <path id="Tracé_2561" data-name="Tracé 2561" d="M244.811,558.817a.654.654,0,0,1-.213-.037l-2.737-.967a.641.641,0,1,1,.426-1.209l2.737.963a.643.643,0,0,1-.213,1.25Z" transform="translate(-241.431 -548.531)" fill="#504647"/>
        <path id="Tracé_2562" data-name="Tracé 2562" d="M244.032,564.021a.649.649,0,0,1-.213-.037.639.639,0,0,1-.389-.82l.967-2.737a.642.642,0,1,1,1.209.43l-.967,2.737A.639.639,0,0,1,244.032,564.021Z" transform="translate(-235.358 -537.901)" fill="#504647"/>
        <path id="Tracé_2563" data-name="Tracé 2563" d="M250.2,560.724a.665.665,0,0,1-.217-.037l-2.737-.967a.644.644,0,0,1,.43-1.213l2.737.967a.644.644,0,0,1-.213,1.25Z" transform="translate(-224.726 -542.636)" fill="#504647"/>
      </g>
      <path id="Tracé_2564" data-name="Tracé 2564" d="M247.391,566.168l-.094,0a.866.866,0,0,1-.688-.508l-2.815-6.364a.856.856,0,1,1,1.565-.693l2.221,5.016,5.844-7.9a.856.856,0,1,1,1.377,1.016l-6.72,9.085A.848.848,0,0,1,247.391,566.168Z" transform="translate(-226.33 -544.232)" fill="#3c7548"/>
    </g>
    <g id="Groupe_13262" data-name="Groupe 13262" transform="translate(88.426 197.386)">
      <path id="Tracé_2565" data-name="Tracé 2565" d="M217.986,568.479c-.221-.942-.631-2.758-2.176-3.545a3.521,3.521,0,0,0-1.3-.361,2.316,2.316,0,0,0-.807-.529c-1.627-.586-3.463,1.213-3.6,1.369-2.278,2.278-.943,6.409-.873,6.614-5.057-8.585-6.565-8.909-7.061-8.737a.829.829,0,0,0-.393.275c-.582.77.652,2.532,1.783,4.282.824,1.283,1.971,3.135,3.27,5.532a47.505,47.505,0,0,1-4.54-3.442c-2.381-2.041-4.024-3.889-4.913-3.426a.924.924,0,0,0-.447.631c-.516,1.766,7.3,8.225,14.957,14.068a11.736,11.736,0,0,1,.889-1.541,13.671,13.671,0,0,1,5.294-4.491c-.258-.34-.529-.668-.8-1.008A8.852,8.852,0,0,0,217.986,568.479Zm-3.393,3.786c-1.061.43-2.328-.5-2.91-1.25a3.467,3.467,0,0,1-.242-3.959,3.612,3.612,0,0,1,2.672-1.455,5.193,5.193,0,0,1,1.75,3.426C215.88,569.372,215.966,571.72,214.593,572.265Z" transform="translate(-196.907 -529.057)" fill="#f9b995"/>
      <path id="Tracé_2566" data-name="Tracé 2566" d="M269.424,590.9c-7.438,4.524-17.186,10.708-28.714,18.232-.516-.328-20.424-13.158-27.328-17.408,1.885-3.307,3.786-6.631,5.671-9.921,1.233,1.012,2.721,1.373,5.171,1.729,6.479.942,10.589.533,16.674.5,6.216-.053,7.089.34,12.507.033,6.921-.41,9.06-1.25,10.245-2.262Q266.552,586.355,269.424,590.9Z" transform="translate(-145.87 -471.606)" fill="#a18b80"/>
      <path id="Tracé_2567" data-name="Tracé 2567" d="M241.449,601.25l-11.822,21.78a1.084,1.084,0,0,1-.82.586,1.017,1.017,0,0,1-.824-.332,2.164,2.164,0,0,1-.16-1.811,60.693,60.693,0,0,0,1.68-8.737,14.231,14.231,0,0,0-.221-4.905,11.315,11.315,0,0,0-1.832-4.163,57.5,57.5,0,0,0,3.819-5.43c.652-1.061,1.254-2.09,1.783-3.1,1.1.652,2.057,1.168,2.811,1.545.668.34,1.287.619,1.869.877,2.073.942,3.491,1.586,3.733,2.872A2.122,2.122,0,0,1,241.449,601.25Z" transform="translate(-102.287 -430.315)" fill="#f9b995"/>
      <path id="Tracé_2568" data-name="Tracé 2568" d="M241.277,598.6a2.109,2.109,0,0,1-.016.82L229.439,621.2a1.122,1.122,0,0,1-.82.586,1.045,1.045,0,0,1-.824-.332c-.467-.529-.234-1.508-.16-1.811a57.1,57.1,0,0,0,1.68-8.736l8.229-15.179C239.618,596.669,241.031,597.321,241.277,598.6Z" transform="translate(-102.098 -428.484)" fill="#352f31"/>
      <path id="Tracé_2569" data-name="Tracé 2569" d="M305.55,634.472c-.377.824-.787,1.663-1.25,2.536-.529,1.012-1.131,2.041-1.783,3.1a57.481,57.481,0,0,1-3.819,5.43c-.533.651-1.029,1.27-1.524,1.852-9.663-4.282-52.256-23.571-52.858-23.845-18.33-8.4-30.168-14.072-32.484-15.457a16.287,16.287,0,0,1-6.409-6.786,8.7,8.7,0,0,1-.545-1.541c-1.61-5.688,1.832-10.88,2.176-11.412a18.674,18.674,0,0,1,8.7-6.254c3.852-1.336,7.675.447,9.9,1.459,2.725,1.234,8.019,4.245,15.387,8.753,6.9,4.25,26.812,17.08,27.328,17.408a3.865,3.865,0,0,0,.324.225C271.083,611.5,300.858,631.288,305.55,634.472Z" transform="translate(-173.534 -472.188)" fill="#bda396"/>
      <path id="Tracé_2570" data-name="Tracé 2570" d="M222.9,621.473c.07.311.311,1.282-.168,1.811a.988.988,0,0,1-.824.332,1.132,1.132,0,0,1-.82-.586l-11.822-21.78a2.163,2.163,0,0,1,0-.82c.238-1.287,1.647-1.93,3.721-2.872.582-.258,1.213-.537,1.881-.877.754-.377,1.717-.893,2.811-1.545.533,1.012,1.131,2.057,1.783,3.118a57.106,57.106,0,0,0,3.819,5.414,11.037,11.037,0,0,0-1.832,4.163,14.338,14.338,0,0,0-.221,4.905A56.063,56.063,0,0,0,222.9,621.473Z" transform="translate(-158.749 -430.315)" fill="#f9b995"/>
      <path id="Tracé_2571" data-name="Tracé 2571" d="M209.263,598.6a2.155,2.155,0,0,0,0,.82l11.822,21.78a1.122,1.122,0,0,0,.82.586,1.03,1.03,0,0,0,.824-.332c.471-.529.242-1.508.168-1.811a57.622,57.622,0,0,1-1.676-8.736l-8.241-15.179C210.91,596.669,209.509,597.321,209.263,598.6Z" transform="translate(-158.749 -428.484)" fill="#352f31"/>
      <path id="Tracé_2572" data-name="Tracé 2572" d="M259.572,567.143a1.083,1.083,0,0,0-.447-.631c-.889-.463-2.537,1.385-4.918,3.426a46.965,46.965,0,0,1-4.54,3.442c1.3-2.4,2.45-4.25,3.274-5.532,1.131-1.75,2.364-3.512,1.783-4.282a.826.826,0,0,0-.4-.275c-.5-.172-2,.152-7.057,8.737.07-.2,1.406-4.336-.873-6.614-.156-.156-1.971-1.955-3.6-1.369a2.4,2.4,0,0,0-.824.529,3.6,3.6,0,0,0-1.3.361c-1.524.787-1.934,2.6-2.16,3.545a8.978,8.978,0,0,0,.7,5.692c-.258.324-.516.631-.77.959a12.42,12.42,0,0,1,4.2,3.032,12.012,12.012,0,0,1,2,3.032C252.29,575.351,260.084,568.893,259.572,567.143Zm-14.752,3.873c-.6.754-1.852,1.68-2.914,1.25-1.385-.545-1.283-2.893-1.266-3.237a5.125,5.125,0,0,1,1.729-3.426,3.624,3.624,0,0,1,2.688,1.455A3.467,3.467,0,0,1,244.819,571.015Z" transform="translate(-68.633 -529.057)" fill="#f9b995"/>
      <path id="Tracé_2573" data-name="Tracé 2573" d="M362.344,577.93A87.269,87.269,0,0,1,344.493,592c-8.327,4.934-13.228,7.848-19.448,6.97-3.27-.443-7.536-2.036-12.712-3.954-2.623-.979-4.778-1.869-6.286-2.52-.414,14.6-.2,24.878.254,32.672.139,2.3.533,6.8-2.258,9.544a3.3,3.3,0,0,1-.344.291c-1.184,1.012-3.323,1.852-10.245,2.262-5.417.307-6.29-.086-12.507-.033-6.085.033-10.2.443-16.674-.5-2.451-.356-3.938-.717-5.171-1.729a4.389,4.389,0,0,1-.344-.291c-2.893-2.725-2.4-7.47-2.262-9.544.463-7.794.652-18.076.242-32.672-1.492.652-3.651,1.541-6.274,2.52-5.188,1.918-9.454,3.512-12.712,3.954-6.216.877-11.134-2.036-19.461-6.97a87.256,87.256,0,0,1-17.838-14.068,7.97,7.97,0,0,1,.447-.975,11.724,11.724,0,0,1,.889-1.541,13.67,13.67,0,0,1,5.294-4.491,7.947,7.947,0,0,1,.91-.41c2.7,1.745,6.593,4.163,11.425,6.786,12.662,6.852,16.158,6.663,17.649,6.475,2.057-.258,2.02-.77,11.494-6.581,10.831-6.61,14.224-8.2,16.842-9.265a64.547,64.547,0,0,1,10.159-3.172c3.651-.033,7.3-.086,10.953-.119a62.816,62.816,0,0,1,10.876,3.291c7.233,2.93,11.4,5.942,16.826,9.265,9.474,5.811,9.458,6.323,11.515,6.581,1.488.188,4.983.377,17.629-6.475,4.848-2.623,8.737-5.041,11.445-6.786.258.086.566.2.926.361a12.421,12.421,0,0,1,4.2,3.033,12.012,12.012,0,0,1,2,3.032A10.135,10.135,0,0,1,362.344,577.93Z" transform="translate(-185.919 -524.8)" fill="#f5e3cb"/>
      <g id="Groupe_13259" data-name="Groupe 13259" transform="translate(168.929 53.164)">
        <path id="Tracé_2574" data-name="Tracé 2574" d="M239.151,568.1a.85.85,0,0,0-.074,1.2.852.852,0,0,0,1.274-1.131A.85.85,0,0,0,239.151,568.1Z" transform="translate(-235.861 -567.888)" fill="#a18b80"/>
        <path id="Tracé_2575" data-name="Tracé 2575" d="M238.418,568.756a.85.85,0,1,0,1.2.07A.846.846,0,0,0,238.418,568.756Z" transform="translate(-238.131 -565.869)" fill="#a18b80"/>
      </g>
      <path id="Tracé_2576" data-name="Tracé 2576" d="M229.741,563.9c0,1.5,0,2.991,0,4.487a6.093,6.093,0,0,1-10.953.119v-5.085a7.5,7.5,0,0,0,5.487,2.774A7.427,7.427,0,0,0,229.741,563.9Z" transform="translate(-129.139 -528.554)" fill="#f9b995"/>
      <path id="Tracé_2577" data-name="Tracé 2577" d="M229.741,563.9v2.291a11.489,11.489,0,0,1-10.958,0v-2.77a7.808,7.808,0,0,0,5.487,2.774,7.944,7.944,0,0,0,5.167-2.033A1.848,1.848,0,0,0,229.741,563.9Z" transform="translate(-129.139 -528.554)" fill="#efa884"/>
      <path id="Tracé_2578" data-name="Tracé 2578" d="M244.336,568.353a2.341,2.341,0,0,1-2.131,2.512,1.851,1.851,0,0,1-.561-.139c-.926,5.126-3.032,9.364-5.807,11.814a1.861,1.861,0,0,1-.3.262,7.944,7.944,0,0,1-5.167,2.033,7.807,7.807,0,0,1-5.487-2.774c-.037-.021-.041-.021-.061-.058a25.324,25.324,0,0,1-5.569-11.22,1.657,1.657,0,0,1-.3.082,2.341,2.341,0,0,1-2.131-2.512,2.387,2.387,0,0,1,1.77-2.414,4.768,4.768,0,0,1,0-.541c.2.3.422.479.623.459.443-.036.885-1.483,1.77-4.4.684-2.27.742-2.872,1.447-3.459.52-.459,1.307-.7,3.737-.541,5.229.32,5.79,1.668,8.646,1.307,2.533-.3,3.737-1.57,4.962-.844l.184.119A3.434,3.434,0,0,1,241,560.051a32.786,32.786,0,0,0,1.323,5.446c-.02.143-.037.262-.057.381A2.325,2.325,0,0,1,244.336,568.353Z" transform="translate(-135.235 -547.191)" fill="#f9b995"/>
      <path id="Tracé_2579" data-name="Tracé 2579" d="M242.4,573.622c-.1,0-.2-.16-.3-.4a32.784,32.784,0,0,1-1.324-5.446,3.433,3.433,0,0,0-1.045-2.012l-.184-.119c-1.225-.725-2.43.541-4.963.844-2.856.361-3.418-.988-8.646-1.307-2.43-.16-3.217.082-3.737.541-.7.586-.762,1.188-1.447,3.459-.885,2.917-1.328,4.364-1.77,4.4-.2.02-.422-.16-.623-.459-1.086-1.57-2.049-6.655-1.045-8.06.041-.061.52-.766,1.086-1.692a8.857,8.857,0,0,0,.52-1,19.533,19.533,0,0,0,.865-3c1.168-3.135,6.573-4.782,10.536-4.4a14.239,14.239,0,0,1,3.639.844c1.828.762,2.229,1.488,3.877,1.848,1.75.385,2.115-.258,3.139.143,1.164.479,2.41,3.012,2.774,6.552C244.226,569.283,242.96,573.663,242.4,573.622Z" transform="translate(-135.006 -554.915)" fill="#a25f4c"/>
      <path id="Tracé_2580" data-name="Tracé 2580" d="M222.15,565.461c-.82-.213-2.11-.7-2.266-1.66a2.05,2.05,0,0,1,.344-1.241c.25-.524.631-1.328,1.115-2.389a.264.264,0,0,1,.336-.123.254.254,0,0,1,.123.332c-.488,1.062-.869,1.869-1.11,2.381-.266.557-.348.742-.311.959.078.492.766.959,1.836,1.25a.247.247,0,0,1,.176.307A.25.25,0,0,1,222.15,565.461Z" transform="translate(-125.773 -539.078)" fill="#f2856b"/>
      <path id="Tracé_2581" data-name="Tracé 2581" d="M218.19,559.873c.086-.815,2.053-1.139,2.631-1.242s1.787-.328,2.143.209a.586.586,0,0,1,.082.5c-.107.291-.52.377-.7.418-2.393.52-3.557,1.16-4.016.561A.658.658,0,0,1,218.19,559.873Z" transform="translate(-130.984 -543.821)" fill="#504647"/>
      <path id="Tracé_2582" data-name="Tracé 2582" d="M225.874,559.82c-.094-.815-2.065-1.115-2.643-1.213s-1.795-.307-2.143.234a.586.586,0,0,0-.074.5c.107.287.525.373.7.41,2.4.492,3.569,1.123,4.024.516A.688.688,0,0,0,225.874,559.82Z" transform="translate(-122.318 -543.858)" fill="#504647"/>
      <g id="Groupe_13260" data-name="Groupe 13260" transform="translate(91.679 29.229)">
        <path id="Tracé_2583" data-name="Tracé 2583" d="M226.674,562.738a1.134,1.134,0,0,1-.045.262c-.02.041-.041.057-.061.1a4.083,4.083,0,0,1-1.787,2.016,3.9,3.9,0,0,1-3.041.18,4.309,4.309,0,0,1-2.274-2.053,1.524,1.524,0,0,1-.168-.524.534.534,0,0,1,.045-.4c.291-.5,1.365.127,3.963.037,2.131-.082,2.987-.565,3.3-.119A.783.783,0,0,1,226.674,562.738Z" transform="translate(-219.279 -562.047)" fill="#da6249"/>
        <path id="Tracé_2584" data-name="Tracé 2584" d="M226.674,562.738a10.554,10.554,0,0,1-2.844.59,11.258,11.258,0,0,1-4.532-.61.534.534,0,0,1,.045-.4c.291-.5,1.365.127,3.963.037,2.131-.082,2.987-.565,3.3-.119A.783.783,0,0,1,226.674,562.738Z" transform="translate(-219.279 -562.047)" fill="#fff"/>
      </g>
      <path id="Tracé_2585" data-name="Tracé 2585" d="M225.468,574.134c.2-.2.41-.422.66-.7,1.418-1.573,2.127-2.36,2.078-3.131-.045-.656-.443-.988-1.93-2.549-1.053-1.106-1.881-2.016-2.4-2.6-.7.709-1.52,1.59-2.377,2.647-1.274,1.574-1.389,2-1.4,2.365-.012.471.147.775,1.758,2.93.238.316.43.574.607.8q-1.77,24.144-3.549,48.293,2.453,3.553,4.9,7.1,2.514-3.546,5.024-7.1Z" transform="translate(-128.742 -523.176)" fill="#e3bac6"/>
      <path id="Tracé_2586" data-name="Tracé 2586" d="M227.557,568.443c-.553.877-1.3,1.988-2.258,3.225-1.262,1.63-1.66,1.893-2.1,1.918-.607.037-1.082-.43-2.7-2.295a30.868,30.868,0,0,1-2.783-3.745,10.085,10.085,0,0,1,1.942-2.032,10.308,10.308,0,0,1,2.405-1.414,15.582,15.582,0,0,0,5.487,4.344Z" transform="translate(-132.426 -526.46)" fill="#e5cfb3"/>
      <path id="Tracé_2587" data-name="Tracé 2587" d="M220.122,568.443c.434.57,1.192,1.574,2.139,2.848,1.311,1.766,1.639,2.25,2.221,2.295.541.045,1.008-.348,2.7-2.295a30.852,30.852,0,0,0,2.782-3.745,10.053,10.053,0,0,0-4.352-3.446,15.488,15.488,0,0,1-5.487,4.344Z" transform="translate(-124.991 -526.46)" fill="#e5cfb3"/>
      <path id="Tracé_2588" data-name="Tracé 2588" d="M222.979,561.748c-.049,0-.1,0-.156,0a2.159,2.159,0,0,1-1.861-1.5.342.342,0,1,1,.647-.217,1.43,1.43,0,0,0,2.745.025.335.335,0,0,1,.439-.2.34.34,0,0,1,.2.439A2.18,2.18,0,0,1,222.979,561.748Z" transform="translate(-122.443 -539.82)" fill="#352f31"/>
      <path id="Tracé_2589" data-name="Tracé 2589" d="M220.465,561.748c-.053,0-.107,0-.156,0a2.164,2.164,0,0,1-1.865-1.5.343.343,0,0,1,.652-.217,1.43,1.43,0,0,0,2.745.025.335.335,0,0,1,.439-.2.34.34,0,0,1,.2.439A2.184,2.184,0,0,1,220.465,561.748Z" transform="translate(-130.243 -539.82)" fill="#352f31"/>
      <g id="Groupe_13261" data-name="Groupe 13261" transform="translate(17.323 53.164)">
        <path id="Tracé_2590" data-name="Tracé 2590" d="M202.551,568.1a.85.85,0,1,1-1.2.07A.85.85,0,0,1,202.551,568.1Z" transform="translate(-201.134 -567.888)" fill="#a18b80"/>
        <path id="Tracé_2591" data-name="Tracé 2591" d="M203.284,568.756a.85.85,0,1,1-1.2.07A.853.853,0,0,1,203.284,568.756Z" transform="translate(-198.864 -565.869)" fill="#a18b80"/>
      </g>
      <path id="Tracé_2592" data-name="Tracé 2592" d="M244.165,593.277l-21.87,9.97c-.828-.36-1.631-.725-2.434-1.106l22.313-10.191Z" transform="translate(-125.799 -440.185)" fill="#a18b80"/>
      <path id="Tracé_2593" data-name="Tracé 2593" d="M238.562,589.442l-22.21,14.613c-.742-.34-1.467-.688-2.172-1.008l22.534-14.81C237.321,588.618,237.939,589.02,238.562,589.442Z" transform="translate(-143.398 -451.687)" fill="#a18b80"/>
      <path id="Tracé_2594" data-name="Tracé 2594" d="M311.67,599.782a11.437,11.437,0,0,1-.549,1.524,16.5,16.5,0,0,1-6.425,6.786c-2.381,1.438-14.957,7.434-34.336,16.31-6.647,3.049-40.724,18.42-50.99,22.977-.5-.566-1.008-1.184-1.524-1.836a57.087,57.087,0,0,1-3.819-5.414c-.652-1.061-1.25-2.106-1.783-3.118-.463-.873-.889-1.729-1.266-2.536,5.155-3.491,35.123-23.4,37.18-24.755,11.527-7.524,21.276-13.708,28.714-18.232,6.647-4.061,11.445-6.782,14-7.95,2.242-1.008,6.048-2.79,9.921-1.422a18.6,18.6,0,0,1,8.683,6.237C309.834,588.886,313.26,594.078,311.67,599.782Z" transform="translate(-153.317 -472.19)" fill="#bda396"/>
    </g>
    <g id="Groupe_13265" data-name="Groupe 13265" transform="translate(223.742 130.17)">
      <g id="Groupe_13263" data-name="Groupe 13263" transform="translate(0 0)">
        <path id="Rectangle_2775" data-name="Rectangle 2775" d="M.6,0h33a.6.6,0,0,1,.6.6v22.27a.6.6,0,0,1-.6.6H.6a.6.6,0,0,1-.6-.6V.6A.6.6,0,0,1,.6,0Z" transform="matrix(0.421, -0.907, 0.907, 0.421, 0, 31.033)" fill="#f5e3cb"/>
        <path id="Tracé_2595" data-name="Tracé 2595" d="M254.137,556.328l-1.1,2.369-21.3-9.872,1.1-2.369a2.475,2.475,0,0,1,3.274-1.2l16.826,7.8A2.473,2.473,0,0,1,254.137,556.328Z" transform="translate(-219.493 -544.218)" fill="#b3bfbf"/>
        <rect id="Rectangle_2776" data-name="Rectangle 2776" width="1.072" height="4.037" rx="0.115" transform="translate(19.211 0.171) rotate(24.818)" fill="#504647"/>
        <rect id="Rectangle_2777" data-name="Rectangle 2777" width="1.072" height="4.037" rx="0.115" transform="translate(25.336 3.01) rotate(24.875)" fill="#504647"/>
        <rect id="Rectangle_2778" data-name="Rectangle 2778" width="1.072" height="4.037" rx="0.115" transform="matrix(0.907, 0.421, -0.421, 0.907, 31.46, 5.849)" fill="#504647"/>
      </g>
      <g id="Groupe_13264" data-name="Groupe 13264" transform="translate(5.247 9.697)">
        <path id="Tracé_2596" data-name="Tracé 2596" d="M246.777,554.408l-14.56-6.749a.241.241,0,0,1-.115-.32.237.237,0,0,1,.32-.119l14.556,6.749a.243.243,0,0,1,.119.32A.246.246,0,0,1,246.777,554.408Z" transform="translate(-223.695 -547.197)" fill="#3c7548"/>
        <path id="Tracé_2597" data-name="Tracé 2597" d="M246.521,554.956l-14.56-6.749a.24.24,0,1,1,.2-.434l14.556,6.749a.237.237,0,0,1,.119.32A.241.241,0,0,1,246.521,554.956Z" transform="translate(-224.488 -545.487)" fill="#3c7548"/>
        <path id="Tracé_2598" data-name="Tracé 2598" d="M236.068,554.805l-5.9-2.733a.241.241,0,0,1-.115-.32.237.237,0,0,1,.32-.119l5.9,2.733a.242.242,0,0,1-.2.438Z" transform="translate(-230.033 -533.527)" fill="#bda396"/>
        <path id="Tracé_2599" data-name="Tracé 2599" d="M245.754,556.611l-14.56-6.749a.24.24,0,1,1,.2-.434l14.556,6.745a.242.242,0,0,1,.119.319A.239.239,0,0,1,245.754,556.611Z" transform="translate(-226.864 -540.36)" fill="#bda396"/>
        <path id="Tracé_2600" data-name="Tracé 2600" d="M245.5,557.165l-14.56-6.75a.242.242,0,0,1,.2-.438l14.56,6.749a.242.242,0,0,1-.2.439Z" transform="translate(-227.657 -538.652)" fill="#bda396"/>
        <path id="Tracé_2601" data-name="Tracé 2601" d="M246.265,555.51l-14.555-6.749a.239.239,0,0,1-.119-.32.243.243,0,0,1,.32-.119l14.56,6.749a.242.242,0,0,1-.2.438Z" transform="translate(-225.281 -543.779)" fill="#bda396"/>
        <path id="Tracé_2602" data-name="Tracé 2602" d="M246.011,556.059l-14.56-6.745a.246.246,0,0,1-.119-.319.239.239,0,0,1,.32-.119l14.56,6.749a.245.245,0,0,1,.119.32A.241.241,0,0,1,246.011,556.059Z" transform="translate(-226.072 -542.07)" fill="#bda396"/>
        <path id="Tracé_2603" data-name="Tracé 2603" d="M245.24,557.714l-14.556-6.749a.239.239,0,1,1,.2-.434l14.56,6.749a.24.24,0,0,1-.2.434Z" transform="translate(-228.449 -536.943)" fill="#bda396"/>
        <path id="Tracé_2604" data-name="Tracé 2604" d="M244.988,558.267l-14.56-6.749a.241.241,0,0,1,.2-.439l14.56,6.749a.243.243,0,0,1,.119.32A.239.239,0,0,1,244.988,558.267Z" transform="translate(-229.241 -535.235)" fill="#bda396"/>
      </g>
    </g>
  </g>
</svg>
