<svg xmlns="http://www.w3.org/2000/svg" xmlns:xlink="http://www.w3.org/1999/xlink" width="412" height="334" viewBox="0 0 412 334">
  <defs>
    <clipPath id="clip-path">
      <rect id="Rectangle_2773" data-name="Rectangle 2773" width="412" height="334" transform="translate(0 88)" fill="none" stroke="#707070" stroke-width="1"/>
    </clipPath>
  </defs>
  <g id="Groupe_de_masques_9" data-name="Groupe de masques 9" transform="translate(0 -88)" clip-path="url(#clip-path)">
    <path id="Tracé_2493" data-name="Tracé 2493" d="M299.037,604.231c2.53-1.574,9.936-1.629,12.22-1.657,91.49-1.064,183.074.069,274.609.083,5.174,0,23.733-.1,26.914,2.762a1.18,1.18,0,0,1,.062,1.823c-3.337,3.289-26.814,3.161-32.976,3.157-23.736-.01-234.858,1.6-269.861-.832-2.669-.184-7.923-.645-10.421-2.149C298.087,606.521,297.491,605.194,299.037,604.231Z" transform="translate(-250.131 -190.913)" fill="#e8e8e8"/>
    <g id="Groupe_13194" data-name="Groupe 13194" transform="translate(-20 -74.897)">
      <g id="Groupe_13190" data-name="Groupe 13190" transform="translate(48.83 196.933)">
        <g id="Groupe_13188" data-name="Groupe 13188">
          <g id="Groupe_13184" data-name="Groupe 13184">
            <g id="Groupe_13172" data-name="Groupe 13172" transform="translate(67.913)">
              <g id="Groupe_13171" data-name="Groupe 13171">
                <g id="Groupe_13170" data-name="Groupe 13170">
                  <path id="Tracé_2494" data-name="Tracé 2494" d="M104.969,570.511c-.2,8.49-11.06,30.22-11.06,30.22S81.85,578.459,82.05,569.969s13.352-32.4,13.352-32.4S105.169,562.021,104.969,570.511Z" transform="translate(-82.047 -537.565)" fill="#e3bac6"/>
                </g>
              </g>
            </g>
            <g id="Groupe_13173" data-name="Groupe 13173" transform="translate(0 31.574)">
              <path id="Tracé_2495" data-name="Tracé 2495" d="M96.1,562.011c5.73,6.268,12.918,29.474,12.918,29.474s-24.113-7.744-29.843-14.012S66.4,544.839,66.4,544.839,90.376,555.739,96.1,562.011Z" transform="translate(-66.402 -544.839)" fill="#e3bac6"/>
            </g>
            <g id="Groupe_13176" data-name="Groupe 13176" transform="translate(114.552 31.574)">
              <g id="Groupe_13175" data-name="Groupe 13175">
                <g id="Groupe_13174" data-name="Groupe 13174">
                  <path id="Tracé_2496" data-name="Tracé 2496" d="M105.71,562.011c-5.73,6.268-12.918,29.474-12.918,29.474s24.117-7.744,29.843-14.012,12.775-32.634,12.775-32.634S111.44,555.739,105.71,562.011Z" transform="translate(-92.792 -544.839)" fill="#e3bac6"/>
                </g>
              </g>
            </g>
            <g id="Groupe_13177" data-name="Groupe 13177" transform="translate(79.359 29.135)">
              <rect id="Rectangle_2768" data-name="Rectangle 2768" width="0.73" height="198.589" fill="#1c261f"/>
            </g>
            <g id="Groupe_13178" data-name="Groupe 13178" transform="translate(17.594 52.206)">
              <path id="Tracé_2497" data-name="Tracé 2497" d="M117.622,723.37c-.035-.842-3.4-84.606-8.174-113.264-5.752-34.5-38.663-59.681-38.993-59.929l.438-.586c.334.252,33.476,25.606,39.275,60.393,4.784,28.7,8.148,112.512,8.182,113.359Z" transform="translate(-70.455 -549.592)" fill="#1c261f"/>
            </g>
            <g id="Groupe_13180" data-name="Groupe 13180" transform="translate(54.401 216.799)">
              <g id="Groupe_13179" data-name="Groupe 13179">
                <path id="Tracé_2498" data-name="Tracé 2498" d="M117.277,587.51H86.631s-6.767,3.177-7.57,13.474c-1.463,18.76,10.288,51.772,10.288,51.772h28.918s9.606-39.392,7.483-51.772C124.049,591.048,117.277,587.51,117.277,587.51Z" transform="translate(-78.935 -587.51)" fill="#bf9da7"/>
              </g>
            </g>
            <g id="Groupe_13183" data-name="Groupe 13183" transform="translate(77.939 26.908)">
              <g id="Groupe_13182" data-name="Groupe 13182">
                <g id="Groupe_13181" data-name="Groupe 13181">
                  <path id="Tracé_2499" data-name="Tracé 2499" d="M88.077,545.626a1.86,1.86,0,1,1-1.862-1.862A1.862,1.862,0,0,1,88.077,545.626Z" transform="translate(-84.357 -543.764)" fill="#1c261f"/>
                </g>
              </g>
            </g>
          </g>
          <g id="Groupe_13187" data-name="Groupe 13187" transform="translate(16.825 51.442)">
            <g id="Groupe_13186" data-name="Groupe 13186">
              <g id="Groupe_13185" data-name="Groupe 13185">
                <path id="Tracé_2500" data-name="Tracé 2500" d="M74,551.274a1.862,1.862,0,1,1-1.862-1.858A1.862,1.862,0,0,1,74,551.274Z" transform="translate(-70.278 -549.416)" fill="#1c261f"/>
              </g>
            </g>
          </g>
        </g>
        <g id="Groupe_13189" data-name="Groupe 13189" transform="translate(93.086 52.206)">
          <path id="Tracé_2501" data-name="Tracé 2501" d="M88.576,723.37l-.729-.026c.03-.847,3.394-84.658,8.182-113.359,5.795-34.787,38.937-60.141,39.271-60.393l.443.586c-.334.247-33.246,25.432-38.993,59.929C91.971,638.764,88.607,722.528,88.576,723.37Z" transform="translate(-87.847 -549.592)" fill="#1c261f"/>
        </g>
      </g>
      <g id="Groupe_13193" data-name="Groupe 13193" transform="translate(186.893 247.935)">
        <g id="Groupe_13192" data-name="Groupe 13192">
          <g id="Groupe_13191" data-name="Groupe 13191">
            <path id="Tracé_2502" data-name="Tracé 2502" d="M101.928,551.173a1.86,1.86,0,1,1-1.862-1.858A1.862,1.862,0,0,1,101.928,551.173Z" transform="translate(-98.208 -549.315)" fill="#1c261f"/>
          </g>
        </g>
      </g>
    </g>
    <g id="Groupe_13232" data-name="Groupe 13232" transform="translate(85.549 242.892)">
      <g id="Groupe_13196" data-name="Groupe 13196" transform="translate(25.661 136.916)">
        <g id="Groupe_13195" data-name="Groupe 13195">
          <path id="Tracé_2503" data-name="Tracé 2503" d="M97.319,617.5a6.65,6.65,0,0,1-9.4,0h0a6.648,6.648,0,0,1,0-9.4l11.222-11.222a6.65,6.65,0,0,1,9.4,0h0a6.648,6.648,0,0,1,0,9.4Z" transform="translate(-85.969 -594.927)" fill="#3c7548"/>
        </g>
      </g>
      <g id="Groupe_13198" data-name="Groupe 13198" transform="translate(103.307 136.916)">
        <g id="Groupe_13197" data-name="Groupe 13197">
          <path id="Tracé_2504" data-name="Tracé 2504" d="M123.494,617.5a6.654,6.654,0,0,0,9.4,0h0a6.654,6.654,0,0,0,0-9.4l-11.225-11.222a6.65,6.65,0,0,0-9.4,0h0a6.648,6.648,0,0,0,0,9.4Z" transform="translate(-110.324 -594.927)" fill="#3c7548"/>
        </g>
      </g>
      <g id="Groupe_13202" data-name="Groupe 13202" transform="translate(41.733)">
        <g id="Groupe_13201" data-name="Groupe 13201">
          <g id="Groupe_13200" data-name="Groupe 13200">
            <g id="Groupe_13199" data-name="Groupe 13199">
              <path id="Tracé_2505" data-name="Tracé 2505" d="M94,585.194a17.661,17.661,0,0,1-2.987-9.727c0-12.95,15.188-23.487,33.86-23.487s33.861,10.537,33.861,23.487a17.528,17.528,0,0,1-2.576,9.064l-4.973-2.965a11.82,11.82,0,0,0,1.757-6.1c0-9.593-12.854-17.694-28.068-17.694S96.8,565.874,96.8,575.467a11.959,11.959,0,0,0,2.056,6.574Z" transform="translate(-91.01 -551.981)" fill="#3c7548"/>
            </g>
          </g>
        </g>
      </g>
      <g id="Groupe_13205" data-name="Groupe 13205" transform="translate(97.648 28.685)">
        <g id="Groupe_13204" data-name="Groupe 13204" transform="translate(0 0)">
          <g id="Groupe_13203" data-name="Groupe 13203">
            <rect id="Rectangle_2769" data-name="Rectangle 2769" width="21.295" height="27.366" transform="translate(0 17.923) rotate(-57.316)" fill="#3c7548"/>
          </g>
        </g>
      </g>
      <g id="Groupe_13206" data-name="Groupe 13206" transform="translate(99.303 20.861)">
        <path id="Tracé_2506" data-name="Tracé 2506" d="M109.068,570.4a20.681,20.681,0,1,1,33.242,23.525Z" transform="translate(-109.068 -558.524)" fill="#e3bac6"/>
      </g>
      <g id="Groupe_13209" data-name="Groupe 13209" transform="translate(19.223 29.543)">
        <g id="Groupe_13208" data-name="Groupe 13208" transform="translate(0 0)">
          <g id="Groupe_13207" data-name="Groupe 13207">
            <rect id="Rectangle_2770" data-name="Rectangle 2770" width="27.367" height="21.295" transform="translate(0 14.778) rotate(-32.684)" fill="#3c7548"/>
          </g>
        </g>
      </g>
      <g id="Groupe_13210" data-name="Groupe 13210" transform="translate(0 22.51)">
        <circle id="Ellipse_3459" data-name="Ellipse 3459" cx="62.928" cy="62.928" r="62.928" transform="translate(0 122.147) rotate(-76.057)" fill="#e3bac6"/>
      </g>
      <g id="Groupe_13211" data-name="Groupe 13211" transform="translate(13.998 36.508)">
        <circle id="Ellipse_3460" data-name="Ellipse 3460" cx="52.311" cy="52.311" r="52.311" transform="translate(0 102.229) rotate(-77.722)" fill="#fff"/>
      </g>
      <g id="Groupe_13212" data-name="Groupe 13212" transform="translate(74.306 51.293)">
        <path id="Tracé_2507" data-name="Tracé 2507" d="M105.088,570a1.93,1.93,0,1,1-1.929-1.929A1.929,1.929,0,0,1,105.088,570Z" transform="translate(-101.227 -568.07)" fill="#3c7548"/>
      </g>
      <g id="Groupe_13213" data-name="Groupe 13213" transform="translate(51.544 57.391)">
        <path id="Tracé_2508" data-name="Tracé 2508" d="M97.689,570.946a1.93,1.93,0,1,1-2.637-.7A1.929,1.929,0,0,1,97.689,570.946Z" transform="translate(-94.087 -569.983)" fill="#3c7548"/>
      </g>
      <g id="Groupe_13214" data-name="Groupe 13214" transform="translate(34.881 74.055)">
        <path id="Tracé_2509" data-name="Tracé 2509" d="M91.753,575.469a1.929,1.929,0,1,1-2.633.7A1.929,1.929,0,0,1,91.753,575.469Z" transform="translate(-88.861 -575.21)" fill="#3c7548"/>
      </g>
      <g id="Groupe_13215" data-name="Groupe 13215" transform="translate(28.78 96.818)">
        <path id="Tracé_2510" data-name="Tracé 2510" d="M88.879,582.35a1.929,1.929,0,1,1-1.932,1.929A1.929,1.929,0,0,1,88.879,582.35Z" transform="translate(-86.947 -582.35)" fill="#3c7548"/>
      </g>
      <g id="Groupe_13216" data-name="Groupe 13216" transform="translate(34.881 119.579)">
        <path id="Tracé_2511" data-name="Tracé 2511" d="M89.824,589.749a1.929,1.929,0,1,1-.7,2.637A1.928,1.928,0,0,1,89.824,589.749Z" transform="translate(-88.861 -589.489)" fill="#3c7548"/>
      </g>
      <g id="Groupe_13217" data-name="Groupe 13217" transform="translate(51.544 136.242)">
        <path id="Tracé_2512" data-name="Tracé 2512" d="M94.348,595.682a1.929,1.929,0,1,1,.7,2.637A1.929,1.929,0,0,1,94.348,595.682Z" transform="translate(-94.087 -594.716)" fill="#3c7548"/>
      </g>
      <g id="Groupe_13218" data-name="Groupe 13218" transform="translate(74.306 142.344)">
        <path id="Tracé_2513" data-name="Tracé 2513" d="M101.227,598.559a1.93,1.93,0,1,1,1.932,1.929A1.93,1.93,0,0,1,101.227,598.559Z" transform="translate(-101.227 -596.63)" fill="#3c7548"/>
      </g>
      <g id="Groupe_13219" data-name="Groupe 13219" transform="translate(97.068 136.242)">
        <path id="Tracé_2514" data-name="Tracé 2514" d="M108.625,597.611a1.93,1.93,0,1,1,2.637.708A1.931,1.931,0,0,1,108.625,597.611Z" transform="translate(-108.367 -594.716)" fill="#3c7548"/>
      </g>
      <g id="Groupe_13220" data-name="Groupe 13220" transform="translate(113.732 119.579)">
        <path id="Tracé_2515" data-name="Tracé 2515" d="M114.56,593.091a1.929,1.929,0,1,1,2.637-.7A1.929,1.929,0,0,1,114.56,593.091Z" transform="translate(-113.594 -589.489)" fill="#3c7548"/>
      </g>
      <g id="Groupe_13221" data-name="Groupe 13221" transform="translate(119.831 96.818)">
        <path id="Tracé_2516" data-name="Tracé 2516" d="M117.439,586.208a1.929,1.929,0,1,1,1.929-1.929A1.93,1.93,0,0,1,117.439,586.208Z" transform="translate(-115.507 -582.35)" fill="#3c7548"/>
      </g>
      <g id="Groupe_13222" data-name="Groupe 13222" transform="translate(113.732 74.055)">
        <path id="Tracé_2517" data-name="Tracé 2517" d="M116.489,578.81a1.929,1.929,0,1,1,.708-2.636A1.932,1.932,0,0,1,116.489,578.81Z" transform="translate(-113.594 -575.21)" fill="#3c7548"/>
      </g>
      <g id="Groupe_13223" data-name="Groupe 13223" transform="translate(97.068 57.391)">
        <path id="Tracé_2518" data-name="Tracé 2518" d="M111.97,572.878a1.931,1.931,0,1,1-.708-2.636A1.932,1.932,0,0,1,111.97,572.878Z" transform="translate(-108.367 -569.983)" fill="#3c7548"/>
      </g>
      <g id="Groupe_13224" data-name="Groupe 13224" transform="translate(53.358 84.012)">
        <rect id="Rectangle_2771" data-name="Rectangle 2771" width="4.022" height="24.09" transform="translate(0 3.553) rotate(-62.053)" fill="#3c7548"/>
      </g>
      <g id="Groupe_13227" data-name="Groupe 13227" transform="translate(76.178 79.03)">
        <g id="Groupe_13226" data-name="Groupe 13226" transform="translate(0 0)">
          <g id="Groupe_13225" data-name="Groupe 13225">
            <rect id="Rectangle_2772" data-name="Rectangle 2772" width="36.213" height="2.982" transform="translate(0 17.484) rotate(-28.869)" fill="#3c7548"/>
          </g>
        </g>
      </g>
      <g id="Groupe_13230" data-name="Groupe 13230" transform="translate(67.069 89.578)">
        <g id="Groupe_13229" data-name="Groupe 13229">
          <g id="Groupe_13228" data-name="Groupe 13228">
            <path id="Tracé_2519" data-name="Tracé 2519" d="M117.295,589.248a9.169,9.169,0,1,1-9.169-9.169A9.17,9.17,0,0,1,117.295,589.248Z" transform="translate(-98.957 -580.079)" fill="#e3bac6"/>
          </g>
        </g>
      </g>
      <g id="Groupe_13231" data-name="Groupe 13231" transform="translate(12.71 21.718)">
        <path id="Tracé_2520" data-name="Tracé 2520" d="M121.3,570.665a21.012,21.012,0,0,0-1.824-3.134,20.682,20.682,0,1,0-31.418,26.659Z" transform="translate(-81.906 -558.793)" fill="#e3bac6"/>
      </g>
    </g>
    <g id="Groupe_13233" data-name="Groupe 13233" transform="translate(253.83 274.609)">
      <path id="Tracé_2521" data-name="Tracé 2521" d="M209.669,563.326l-3.638-1.4-20.139,52.536,3.638,1.4a7.921,7.921,0,0,0,3.861.453l-6.784,17.742a8.246,8.246,0,0,0-7.913-5.719H138.961a8.17,8.17,0,0,0-8.257,8.072v3.9h25.935v42.357H131.2v4.4H186.47v-4.4H161.035V640.305h25.932a1.813,1.813,0,0,0,2.241-1.081l25.042-65.3A8.167,8.167,0,0,0,209.669,563.326Z" transform="translate(-130.704 -561.93)" fill="#1c261f"/>
      <path id="Tracé_2522" data-name="Tracé 2522" d="M136.132,601.362a4.17,4.17,0,1,0,4.173,4.17A4.172,4.172,0,0,0,136.132,601.362Z" transform="translate(-127.951 -475.65)" fill="#1c261f"/>
      <path id="Tracé_2523" data-name="Tracé 2523" d="M148.6,601.362a4.17,4.17,0,1,0,4.17,4.17A4.17,4.17,0,0,0,148.6,601.362Z" transform="translate(-100.66 -475.65)" fill="#1c261f"/>
    </g>
    <g id="Groupe_13236" data-name="Groupe 13236" transform="translate(198.813 240.044)">
      <g id="Groupe_13235" data-name="Groupe 13235" transform="translate(0 3.872)">
        <g id="Groupe_13234" data-name="Groupe 13234">
          <path id="Tracé_2524" data-name="Tracé 2524" d="M121.506,575.777c-1.074-.312-1.967-.516-2.668-.663-.606-.121-1.157-.2-1.667-.293-1.843-.309-3.083-.52-3.558-1.473a2.039,2.039,0,0,1-.166-.65l4.7-19.712a.817.817,0,0,1,1.25-.555c.481.328.5,1.132.51,1.4a47.924,47.924,0,0,0,.536,7.253,11.622,11.622,0,0,0,1.221,3.826,8.949,8.949,0,0,0,1.824,2.468C122.833,570.182,122.166,572.988,121.506,575.777Z" transform="translate(-113.447 -552.301)" fill="#f9b995"/>
          <path id="Tracé_2525" data-name="Tracé 2525" d="M113.613,573.349a1.7,1.7,0,0,1-.166-.65l4.7-19.712a.927.927,0,0,1,.529-.638.871.871,0,0,1,.721.083c.481.319.5,1.138.51,1.4a46.715,46.715,0,0,0,.536,7.253l-3.271,13.741C115.331,574.519,114.078,574.305,113.613,573.349Z" transform="translate(-113.447 -552.302)" fill="#a25f4c"/>
          <path id="Tracé_2526" data-name="Tracé 2526" d="M214.358,622.073c-2.975-5.579-1.543-9.3-5.445-14.754-1.307-1.827-1.833-1.923-3.169-4.065-2.248-3.606-2.672-6.861-3.363-8.646-1.2-3.086-2.933-7.364-5.86-14.114-5.971-13.823-6.236-14.554-7.769-15.95-6.281-5.668-15.07-5.254-28.377-4.46A116.855,116.855,0,0,0,146.3,561.79c-.966.179-1.951.363-2.965.574-.185.038-.376.083-.561.124-5.2-1.243-22.992-5.764-24.134-6.064-.15.641-2.656,11.267-2.764,11.742l50.435,22.772c.982,4.393,5.248,22.469,12.252,35.518,2.235,4.176,4.859,8.034,9.44,10.763a21.714,21.714,0,0,0,8.311,2.936c13.106,1.712,26.05-12.548,27.1-13.83C220.2,623.814,215.343,623.919,214.358,622.073Z" transform="translate(-108.141 -543.283)" fill="#f5d491"/>
        </g>
        <path id="Tracé_2527" data-name="Tracé 2527" d="M174.228,591.075a.642.642,0,0,1-.558.035.683.683,0,0,1-.29-.274c-1.607-2.872-7.384-12.73-13.808-18.95a32.622,32.622,0,0,0-7.106-5.353,28.508,28.508,0,0,0-5.885-2.35c-6.029-1.747-15.771-4.055-22.1-5.5,1.014-.21,2-.4,2.965-.574,6.191,1.425,14.228,3.357,19.476,4.878a31.718,31.718,0,0,1,6.121,2.458,33.536,33.536,0,0,1,7.38,5.55c6.548,6.348,12.389,16.342,14.034,19.25A.62.62,0,0,1,174.228,591.075Z" transform="translate(-89.295 -539.601)" fill="#c28e3c"/>
      </g>
      <path id="Tracé_2528" data-name="Tracé 2528" d="M195.092,566.649c-.041.169-.1.38-.166.615a8.874,8.874,0,0,1-2.34,3.966c-1.164,1.065-1.709.73-2.678,1.667,10.02,6.542,12.261,8.853,11.895,9.555-.5.959-5-.278-12.959-2.353-3.724-.972-8.828-2.289-14.965-3.822-1.871-1.116-4.626-2.828-7.843-5.1-4.556-3.22-9.2-6.491-8.672-7.565.351-.714,3.1-.615,12.567,2.257.532-2.059,1.078-3.768,1.486-5.044.347-.94.768-1.948,1.272-3.013a63.925,63.925,0,0,0-10.744-4.049c-6.88-1.907-16.113-4.454-19.294-.867-4.8,5.41,6.4,22.351,10.632,28.323-1.479,3.459-3.469,7.993-5.917,13.275-7,15.086-9.443,18.344-7.919,22.661,1.957,5.551,7.164,3.469,13.651,12.163a44.111,44.111,0,0,0,8.557,7.948,9.234,9.234,0,0,0,2.627,1.186c1.645.485,4.415,1.3,7.192.277,6-2.209,5.385-11.062,12.727-28.4.88-2.079,1.722-4.454,1.722-4.454,2.04-5.2,3.819-9.421,5.079-12.341,17.684,1.352,30.29-.287,31.581-4.868C223.941,583.827,212.859,575.2,195.092,566.649Z" transform="translate(-57.507 -551.088)" fill="#f5e3cb"/>
    </g>
    <g id="Groupe_13239" data-name="Groupe 13239" transform="translate(309.518 230.699)">
      <path id="Tracé_2529" data-name="Tracé 2529" d="M150.091,561.727c-.077.223-1.09,3.4.344,4.8s5.248.982,8.276-2.407l1.9-4.192c-.494-.969-.156-1.913-.494-2.028-.322-.108-.81.749-1.629,1.737-.721.848-1.788,2.267-3.226,2.732a5.653,5.653,0,0,1-2.519.118A8.292,8.292,0,0,1,150.091,561.727Z" transform="translate(-144.887 -526.848)" fill="#f9b995"/>
      <path id="Tracé_2530" data-name="Tracé 2530" d="M167.389,566.063a2.331,2.331,0,0,1-1.693,2.442c-.838.175-1.272-.491-1.926-.692-.708-.724-2.241.9-4.527.475a2.837,2.837,0,0,1-.446-.1,3.285,3.285,0,0,1-1.533-.87,6.393,6.393,0,0,0-2.764-2.111c-2.123-.736-3.526.057-4.642-1.055a3.357,3.357,0,0,1-.851-2.2c.36-.969.794-2.009,1.314-3.108a39.165,39.165,0,0,1,2.171-3.979,42.8,42.8,0,0,1,3.194-4.368c.752.87,1.607.956,2.678,1.39,1.98.781,1.75,1.721,3.558,2.4a10.044,10.044,0,0,1,1.836.651,12.458,12.458,0,0,1,1.967,1.562c1.387,1.071,1.6.985,1.706,1.374.217.838-.969,1.329-1.951,3.325-.217.437-.969,2.114-.58,2.879a1.556,1.556,0,0,0,.131.176c.233.229.507.143.883.258.159.073.274.118.389.159A2.332,2.332,0,0,1,167.389,566.063Z" transform="translate(-146.344 -543.031)" fill="#f9b995"/>
      <path id="Tracé_2531" data-name="Tracé 2531" d="M151.67,558.318a.212.212,0,0,0,.23-.351c-.421-.373-1.106-1.1-.931-1.744.061-.226.207-.367.752-.874l.121-.112c.663-.612,1.189-1.122,1.53-1.457a.212.212,0,0,0,.006-.3.215.215,0,0,0-.3,0c-.341.332-.864.838-1.524,1.451l-.118.112c-.567.523-.778.717-.874,1.071-.233.867.561,1.734,1.058,2.174Z" transform="translate(-143.036 -536.644)" fill="#f2856b"/>
      <path id="Tracé_2532" data-name="Tracé 2532" d="M155.85,552.009c.306-.587,1.878-.245,2.34-.153s1.438.29,1.546.8a.461.461,0,0,1-.089.4c-.166.188-.5.13-.647.105-1.948-.319-3.013-.185-3.178-.772A.531.531,0,0,1,155.85,552.009Z" transform="translate(-131.482 -540.461)" fill="#a25f4c"/>
      <g id="Groupe_13237" data-name="Groupe 13237" transform="translate(5.391 14.538)">
        <path id="Tracé_2533" data-name="Tracé 2533" d="M154,556.463a1.736,1.736,0,0,1-.969-.29,1.835,1.835,0,0,1-.749-1.878.285.285,0,0,1,.341-.23.29.29,0,0,1,.23.338,1.2,1.2,0,0,0,2.005,1.154.3.3,0,0,1,.411.032.291.291,0,0,1-.032.408A1.91,1.91,0,0,1,154,556.463Z" transform="translate(-144.656 -549.783)" fill="#352f31"/>
        <path id="Tracé_2534" data-name="Tracé 2534" d="M151.614,555.122a1.736,1.736,0,0,1-.969-.29,1.823,1.823,0,0,1-.746-1.878.284.284,0,0,1,.338-.229.29.29,0,0,1,.23.338,1.206,1.206,0,0,0,2.008,1.157.289.289,0,1,1,.376.44A1.9,1.9,0,0,1,151.614,555.122Z" transform="translate(-149.863 -552.717)" fill="#352f31"/>
      </g>
      <path id="Tracé_2535" data-name="Tracé 2535" d="M179.368,564.2c.131,1.75-.969,3.268-1.706,4.323a17.213,17.213,0,0,0-1.808,2.458,7.98,7.98,0,0,0-.58,2.114c-.041.172-.1.389-.172.635a9.156,9.156,0,0,1-2.417,4.093c-1.2,1.1-1.763.752-2.761,1.721a2.545,2.545,0,0,1-.2.217c-.867.982-.794,1.562-1.763,2.2a3.106,3.106,0,0,1-2.429.58,2.636,2.636,0,0,1-1.476-1.027,1.318,1.318,0,0,1-.159-.274c-.491-.969-.159-1.913-.494-2.028s-.807.756-1.629,1.737a7.808,7.808,0,0,1-3.226,2.732c-1.447.478-2.764.147-4.572-.446-.188-.06-.408-.127-.6-.2-2.085-.679-4.017-1.435-4.9-3.169a.382.382,0,0,1-.041-.073c-.306-.638-.58-1.607.622-6.507.086-.348.156-.682.245-1,.548-2.127,1.113-3.893,1.533-5.21a3.357,3.357,0,0,0,.851,2.2c1.116,1.113,2.519.319,4.642,1.055a6.393,6.393,0,0,1,2.764,2.111,3.284,3.284,0,0,0,1.533.87,2.831,2.831,0,0,0,.446.1c2.286.421,3.819-1.2,4.527-.475.654.2,1.087.867,1.926.692a2.331,2.331,0,0,0,1.693-2.442,2.29,2.29,0,0,0-1.042-1.361,1.71,1.71,0,0,0-.392-.172c-.418-.131-.692-.045-.925-.274a1.554,1.554,0,0,1-.131-.176c-.376-.781.363-2.442.58-2.879.982-2,2.168-2.487,1.951-3.325-.1-.389-.319-.3-1.706-1.374a12.463,12.463,0,0,0-1.967-1.562,10.049,10.049,0,0,0-1.836-.651c-1.808-.679-1.578-1.62-3.558-2.4-1.071-.434-1.926-.52-2.678-1.39a3.5,3.5,0,0,1-.781-1.518,4.8,4.8,0,0,1,.969-4.294,4.519,4.519,0,0,1,3.689-1.635c.941.1.969.52,2.764,1.129,1.546.507,1.69.261,2.63.666,1.562.692,1.533,1.575,3.01,2.573,1.562,1.071,2.012.348,4.164,1.361.956.446,3.3,1.562,4.052,3.714.36,1.1-.073,1.259.287,3.124C178.689,562.756,179.282,562.957,179.368,564.2Z" transform="translate(-148.172 -548.157)" fill="#a25f4c"/>
      <g id="Groupe_13238" data-name="Groupe 13238" transform="translate(4.29 22.475)">
        <path id="Tracé_2536" data-name="Tracé 2536" d="M149.58,555.61a1.069,1.069,0,0,0-.061.214c0,.038.01.061.01.1a3.455,3.455,0,0,0,.631,2.184,3.294,3.294,0,0,0,2.251,1.243,3.64,3.64,0,0,0,2.477-.74,1.231,1.231,0,0,0,.322-.341.438.438,0,0,0,.108-.322c-.041-.484-1.087-.4-3.032-1.409-1.6-.835-2.069-1.515-2.471-1.288A.652.652,0,0,0,149.58,555.61Z" transform="translate(-149.517 -555.206)" fill="#da6249"/>
        <path id="Tracé_2537" data-name="Tracé 2537" d="M149.537,555.61a8.863,8.863,0,0,0,1.954,1.479,9.443,9.443,0,0,0,3.676,1.18.438.438,0,0,0,.108-.322c-.041-.484-1.087-.4-3.032-1.409-1.6-.835-2.069-1.515-2.471-1.288A.652.652,0,0,0,149.537,555.61Z" transform="translate(-149.474 -555.206)" fill="#fff"/>
      </g>
    </g>
  </g>
</svg>
