<svg xmlns="http://www.w3.org/2000/svg" xmlns:xlink="http://www.w3.org/1999/xlink" width="412" height="334" viewBox="0 0 412 334">
  <defs>
    <clipPath id="clip-path">
      <rect id="Rectangle_2830" data-name="Rectangle 2830" width="412" height="334" transform="translate(0 88)" fill="none" stroke="#707070" stroke-width="1"/>
    </clipPath>
  </defs>
  <g id="Groupe_de_masques_11" data-name="Groupe de masques 11" transform="translate(0 -88)" clip-path="url(#clip-path)">
    <path id="Tracé_2605" data-name="Tracé 2605" d="M299.037,604.231c2.53-1.574,9.936-1.629,12.22-1.657,91.49-1.064,183.074.069,274.609.083,5.174,0,23.733-.1,26.914,2.762a1.18,1.18,0,0,1,.062,1.823c-3.337,3.289-26.814,3.161-32.976,3.157-23.736-.01-234.858,1.6-269.861-.832-2.669-.184-7.923-.645-10.421-2.149C298.087,606.521,297.491,605.194,299.037,604.231Z" transform="translate(-250.131 -190.913)" fill="#e8e8e8"/>
    <g id="Groupe_13285" data-name="Groupe 13285" transform="translate(2.191 -8.48)">
      <g id="Groupe_13266" data-name="Groupe 13266" transform="translate(236.787 282.603)">
        <path id="Tracé_2606" data-name="Tracé 2606" d="M464.169,655.966a96.52,96.52,0,0,1-6.664,11.54,72.226,72.226,0,0,1-13.807,15.46c-.634.519-1.273,1.013-1.917,1.492q-1.221.906-2.461,1.717c-.175.115-.349.225-.524.339-16.927,10.747-24.958,8.246-30.764,1.967a67.186,67.186,0,0,1-6.344-8.755c-2.621-4-5.366-7.992-9.145-10.687-.19-.135-.384-.269-.584-.4-14.651-9.659-29.182-1.653-36.809-12.389s2.865-43.418,2.865-43.418-9.854-23.975,21.514-22.253,44.646-40.283,75.275-20C480.327,587.485,478.58,626.594,464.169,655.966Z" transform="translate(-352.269 -564.927)" fill="#fff"/>
        <path id="Tracé_2607" data-name="Tracé 2607" d="M419.485,694.086c-5.331,0-8.755-2.516-11.456-5.441a59.262,59.262,0,0,1-5.8-7.917l-.559-.854c-2.7-4.113-5.421-8.022-9.11-10.652-.195-.14-.384-.274-.584-.4-6.968-4.6-13.952-5.181-20.112-5.7-6.819-.574-12.714-1.068-16.727-6.719-3.963-5.58-2.975-17.121-1.448-25.827a151.883,151.883,0,0,1,4.283-17.655c-.264-.684-3.619-9.614.9-15.969,3.424-4.817,10.4-6.973,20.745-6.409,13.5.739,23.551-6.579,33.28-13.662,12.639-9.2,24.574-17.89,42.055-6.314,25.458,16.857,24,55.792,9.4,85.537h0a96.589,96.589,0,0,1-6.674,11.551,71.752,71.752,0,0,1-13.827,15.484c-.639.524-1.288,1.023-1.922,1.5-.8.6-1.632,1.178-2.466,1.722-.175.115-.349.225-.524.339C430.417,692.11,424.2,694.086,419.485,694.086Zm-43-103.393c-8.551,0-14.4,2.146-17.421,6.395-4.6,6.469-.9,15.689-.859,15.784l.015.04-.01.04c-.1.325-10.388,32.751-2.885,43.313,3.953,5.566,9.794,6.055,16.558,6.624,6.19.519,13.2,1.108,20.221,5.735.2.13.4.264.589.4,3.724,2.656,6.464,6.584,9.175,10.717l.559.854a58.906,58.906,0,0,0,5.77,7.887c5.032,5.436,12.6,9.449,30.619-1.987.175-.11.349-.224.519-.339.834-.544,1.657-1.118,2.451-1.712.639-.469,1.283-.974,1.917-1.487a71.785,71.785,0,0,0,13.782-15.435A96.581,96.581,0,0,0,464.146,656h0c14.546-29.656,16.018-68.456-9.325-85.238-17.341-11.486-29.216-2.841-41.791,6.314-9.294,6.769-18.9,13.757-31.532,13.757-.624,0-1.253-.015-1.9-.05Q377.992,590.693,376.487,590.693Z" transform="translate(-352.351 -565.011)" fill="#fff"/>
      </g>
      <g id="Groupe_13280" data-name="Groupe 13280" transform="translate(253.272 322.687)">
        <g id="Groupe_13274" data-name="Groupe 13274" transform="translate(0 5.495)">
          <g id="Groupe_13268" data-name="Groupe 13268" transform="translate(0 36.405)" opacity="0.4">
            <path id="Tracé_2608" data-name="Tracé 2608" d="M383.2,593.484l-.04.44c-.025.349-.08.978-.18,2.121v.015h0l-.03.365c-.19,2.2-3.444,4.2-6.539,5.281l-.165-.089a30.593,30.593,0,0,0-4.193-1.817c.075-.13.155-.26.23-.394,1.2-2.136,5.027-3.095,5.9-4.078s-.928-.988-3.045-.02c-1.707.779-2.221,2.611-4.148,4.143a44.707,44.707,0,0,0-8.785-1.682,18.662,18.662,0,0,1-1.343-1.3c2.7-.14,6.559-3.07,6.419-3.968s-6.544,1.547-7.642,1.667-3.584-1.243-3.968-5.656,6.844-5.641,6.844-5.641,7.173,5.331,8.57,5.012-5.241-5.76-5.241-5.76c2.5-1.2,10.268-.449,10.268-.449s2.591,8.346,3.864,7.687-2.665-7.273-2.665-7.273c2.78-.165,6.195,1.9,6.195,1.9C388.174,587.673,383.2,593.484,383.2,593.484Z" transform="translate(-355.653 -581.435)" fill="#3c7548"/>
            <g id="Groupe_13267" data-name="Groupe 13267" transform="translate(3.564 7.157)">
              <path id="Tracé_2609" data-name="Tracé 2609" d="M356.367,582.9s19.642-.759,23.98,4.857a14.2,14.2,0,0,0,3.909,5.491l.459,1.253s-3.4-3.589-4.617-3.8C380.1,590.7,382,583.742,356.367,582.9Z" transform="translate(-356.367 -582.869)" fill="#3c7548"/>
              <path id="Tracé_2610" data-name="Tracé 2610" d="M362.841,585.344a12.31,12.31,0,0,1,4.507,8.686l-.764.07s-1.348-5.76-3.779-8.012S362.841,585.344,362.841,585.344Z" transform="translate(-334.952 -574.962)" fill="#57e3d2"/>
            </g>
          </g>
          <g id="Groupe_13270" data-name="Groupe 13270" transform="translate(48.714 12.649)" opacity="0.8">
            <path id="Tracé_2611" data-name="Tracé 2611" d="M370.623,597.2s-7.927-4.437-4.228-10.458c0,0,2.96-3.7,6.13-4.652,0,0-1.692,8.98,0,9.195s1.163-10.143,1.163-10.143,8.346-4.013,11.621-3.7c0,0-5.177,8.771-3.489,8.561s7.5-9.09,7.5-9.09,8.556-1.583,9.929,3.489-.844,7.607-2.111,7.922-9.4.21-9.19,1.268,5.706,2.745,8.766,1.8c0,0-3.379,8.346-7.817,7.922s-5.81-3.17-8.556-3.379-4.752.529-3.379,1.268,6.02.245,8.241,2.127,4.013,3.05-.11,3.893-11.516.32-12.993-2.85Z" transform="translate(-365.412 -576.676)" fill="#3c7548"/>
            <g id="Groupe_13269" data-name="Groupe 13269" transform="translate(1.025 5.305)">
              <path id="Tracé_2612" data-name="Tracé 2612" d="M392.867,577.739s-22.183,7.183-24.719,15.215a16.841,16.841,0,0,1-2.116,7.712v1.583s2.326-5.386,3.594-6.125C369.626,596.124,364.659,589.15,392.867,577.739Z" transform="translate(-363.962 -577.739)" fill="#3c7548"/>
              <path id="Tracé_2613" data-name="Tracé 2613" d="M367.687,583.121a14.636,14.636,0,0,0-1.467,11.521l.878-.235s-.854-6.968.938-10.473S367.687,583.121,367.687,583.121Z" transform="translate(-365.617 -560.194)" fill="#42d4cc"/>
            </g>
          </g>
          <g id="Groupe_13273" data-name="Groupe 13273" transform="translate(3.007)">
            <g id="Groupe_13272" data-name="Groupe 13272">
              <path id="Tracé_2614" data-name="Tracé 2614" d="M394.565,601.191s10.448-5.85,5.571-13.787c0,0-3.9-4.877-8.076-6.13,0,0,2.231,11.84,0,12.12s-1.532-13.373-1.532-13.373-11-5.291-15.32-4.872c0,0,6.824,11.556,4.6,11.281s-9.888-11.98-9.888-11.98-11.281-2.086-13.088,4.6,1.113,10.028,2.785,10.443,12.394.28,12.115,1.672-7.523,3.624-11.561,2.371c0,0,4.458,11,10.308,10.443s7.657-4.178,11.281-4.458,6.264.7,4.453,1.672-7.937.32-10.862,2.805-5.291,4.018.14,5.132,15.18.419,17.132-3.759Z" transform="translate(-356.255 -574.142)" fill="#3c7548"/>
              <g id="Groupe_13271" data-name="Groupe 13271" transform="translate(5.724 6.997)">
                <path id="Tracé_2615" data-name="Tracé 2615" d="M357.4,575.544s29.246,9.469,32.586,20.051a22.216,22.216,0,0,0,2.786,10.168v2.086s-3.06-7.1-4.732-8.076C388.041,599.774,394.585,590.584,357.4,575.544Z" transform="translate(-357.402 -575.544)" fill="#3c7548"/>
                <path id="Tracé_2616" data-name="Tracé 2616" d="M365.6,582.639a19.284,19.284,0,0,1,1.942,15.185l-1.163-.314s1.128-9.18-1.233-13.8S365.6,582.639,365.6,582.639Z" transform="translate(-330.233 -552.419)" fill="#3c7548"/>
              </g>
            </g>
          </g>
        </g>
        <g id="Groupe_13279" data-name="Groupe 13279" transform="translate(20.591)">
          <g id="Groupe_13275" data-name="Groupe 13275" transform="translate(0 29.509)">
            <path id="Tracé_2617" data-name="Tracé 2617" d="M441.677,581.618l-.06.235h0c-.814,2.975-1.762,5.92-2.835,8.805-.165.444-.329.883-.5,1.323v.005q-1.048,2.7-2.231,5.336-.7,1.557-1.448,3.075a98.285,98.285,0,0,1-5.765,10.183l-.005,0c-.294.454-.594.9-.893,1.353a72.1,72.1,0,0,1-13.807,15.46c-.554.449-1.113.888-1.672,1.308l-.245.185q-1.221.906-2.461,1.718c-.175.115-.349.229-.524.339-14.6,9.264-22.572,8.68-28.218,4.323l-.489-.389a21.778,21.778,0,0,1-2.057-1.967l0,0-.055-.06a44.822,44.822,0,0,1-4.163-5.466c-.709-1.058-1.413-2.141-2.121-3.225-.19-.284-.379-.574-.569-.863-2.456-3.7-5.072-7.323-8.576-9.824-.19-.135-.384-.269-.584-.4q-1.228-.809-2.451-1.458l-.165-.089a49.678,49.678,0,0,1,5.89-6.844c.1-.095.195-.185.3-.275a8.5,8.5,0,0,1,.724-.574l.165-.115a15.706,15.706,0,0,1,2.516-1.4,38.89,38.89,0,0,1,6.933-2.226l.38-.09c2.516-.569,5.116-1,7.5-1.328.509-.07,1-.135,1.488-.2,1.572-.195,3.02-.339,4.233-.449h.02c.315-.03.619-.055.9-.08.934-.075,1.682-.13,2.181-.164h0c.439-.03.689-.045.7-.05s.973-.779,2.3-1.952c.16-.14.324-.285.5-.439v0c.534-.474,1.108-1,1.692-1.563a43.055,43.055,0,0,0,3.145-3.29l.16-.189c.12-.14.235-.28.354-.414l.14-.165c.155-.18.3-.35.454-.519l.225-.254.225-.245.02-.025c.24-.26.479-.514.714-.759.115-.115.23-.235.349-.35l.17-.175.17-.164c.1-.1.2-.2.3-.295l.279-.27.255-.235c.394-.364.784-.7,1.168-1.023.075-.065.155-.13.23-.189.155-.125.3-.25.454-.37.3-.235.6-.464.893-.674.075-.055.15-.11.22-.16.22-.16.439-.309.654-.449h0c.14-.1.275-.185.409-.27l.1-.065c.11-.07.215-.135.319-.2l.3-.185.17-.1c.11-.065.22-.125.319-.18l.145-.08.185-.1.269-.145c.135-.07.27-.14.4-.2l.19-.095c.09-.045.18-.085.27-.125h0c.1-.05.215-.1.314-.145a17.154,17.154,0,0,1,3.359-1.1l.26-.05c.16-.03.31-.055.454-.08l.16-.02.09-.015.09-.01c.245-.03.469-.05.664-.065l.225-.01.195-.005a5.1,5.1,0,0,1,.6.02c1.038-.195,2.056-.379,3.055-.539.225-.04.444-.07.664-.1.24-.04.484-.075.724-.11s.479-.07.714-.1.479-.065.714-.095l.849-.1c.269-.03.534-.055.8-.085.2-.02.4-.04.6-.055.135-.015.27-.025.4-.04h.05c.2-.02.4-.035.609-.05h.015l.329-.02.07-.005.324-.02h.02l.255-.015c.244-.01.484-.02.724-.025l.529-.015c.23,0,.459,0,.684,0h.015c.2,0,.414,0,.619,0,.355.005.709.015,1.053.035l.09,0c.095,0,.19.01.284.015l.37.025c.4.03.794.065,1.188.115l.265.03.344.05.295.04.055.01c.2.03.4.065.594.1s.385.075.574.115c.424.09.844.189,1.253.3l.409.12.23.075.229.075.195.065.254.09c.185.065.369.135.549.2.135.055.274.115.409.17l.274.125.165.075c.36.165.714.35,1.058.539v0C441.362,581.434,441.522,581.524,441.677,581.618Z" transform="translate(-359.778 -578.953)" fill="#939393"/>
          </g>
          <path id="Tracé_2618" data-name="Tracé 2618" d="M429.151,581.853h0c-.814,2.975-1.762,5.92-2.835,8.805-.165.444-.329.883-.5,1.323v.005a15.079,15.079,0,0,1-1.682,1.053A11.916,11.916,0,0,0,420,597.383c-.639,1-1.243,2.067-1.887,3.139h0v.005h-.005c-2.022,3.38-4.388,6.794-9,8.146-8.765,2.566-23.626,2.281-32.086,11.4h-.005c-2.875,3.1-5.84,2.316-8.311-.274a19.039,19.039,0,0,1-3.255-4.982c-2.431-5.186-3.444-11.755-1.612-14.725l.38-.09c2.586-.594,5.171-1.093,7.487-1.5.5-.09.983-.17,1.458-.25,1.747-.289,3.284-.519,4.482-.694l.394-.055h.005c.17-.025.335-.045.484-.065l.265-.04h.01l.04,0,.07-.01c.868-.12,1.373-.18,1.393-.19s.539-.309,1.358-.838c.1-.06.2-.13.314-.2.175-.115.359-.24.554-.37.863-.574,1.887-1.3,2.91-2.106a24.846,24.846,0,0,0,3.444-3.195l.16-.189c.12-.14.235-.28.354-.414l.14-.165c.155-.18.3-.35.454-.519l.225-.254.225-.245.02-.025c.24-.26.479-.514.714-.759.115-.115.23-.235.349-.35l.17-.175.17-.164c.1-.1.2-.2.3-.295l.279-.27.255-.235c.394-.364.784-.7,1.168-1.023.075-.065.155-.13.23-.189.155-.13.3-.25.454-.37.3-.235.6-.464.893-.674.075-.055.15-.11.22-.16.22-.16.439-.309.654-.449h0c.14-.1.275-.185.409-.27l.1-.065c.11-.07.215-.135.319-.2l.3-.185.17-.1c.11-.065.22-.125.319-.18l.145-.08.185-.1.269-.145c.135-.07.27-.14.4-.2l.19-.095c.09-.045.18-.085.27-.125h0c.1-.05.215-.1.314-.145a17.155,17.155,0,0,1,3.359-1.1l.26-.05c.16-.03.31-.055.454-.08l.16-.02.09-.015.09-.01c.245-.03.469-.05.664-.065l.225-.01.195-.005a5.1,5.1,0,0,1,.6.02c1.038-.195,2.056-.379,3.055-.539.225-.04.444-.07.664-.1.24-.04.484-.075.724-.11s.479-.07.714-.1.479-.065.714-.095l.849-.1c.269-.03.534-.055.8-.085.2-.02.4-.04.6-.055.135-.015.27-.025.4-.04h.05c.2-.02.4-.035.609-.05h.015l.329-.02.07-.005.324-.02h.02l.255-.015c.245-.01.484-.02.724-.025l.529-.015c.23,0,.459,0,.684,0h.015c.2,0,.414,0,.619,0,.354.005.709.015,1.053.035l.09,0c.095,0,.19.01.284.015l.37.025c.4.03.794.065,1.188.115l.264.03.344.05.295.04.055.01c.2.03.4.065.594.1s.385.075.574.115c.424.09.844.189,1.253.3l.409.12.23.075.23.075.195.065.254.09c.185.065.37.135.549.2.135.055.275.115.409.17l.275.125.165.075c.36.165.714.35,1.058.539v0A5.666,5.666,0,0,1,429.151,581.853Z" transform="translate(-347.313 -549.444)" fill="#616161"/>
          <g id="Groupe_13278" data-name="Groupe 13278" transform="translate(9.59)">
            <path id="Tracé_2619" data-name="Tracé 2619" d="M394.988,594.5h0a2.5,2.5,0,0,1-1.662,1.383,8.354,8.354,0,0,1-.849.15h0c-5.211.684-17.87-1.248-17.87-1.248s.709,4.268-.434,7.348a20.344,20.344,0,0,0-.669,4.213c-.439,4.887-.6,12.23-.649,15.08a21.785,21.785,0,0,1-2.057-1.967l0,0-.055-.06a44.813,44.813,0,0,1-4.163-5.466c-.709-1.058-1.413-2.142-2.121-3.225-.19-.284-.379-.574-.569-.863-.759-4.822-1.488-10.083-1.882-14.581v-.035l-.025-.284-.045-.524c-.165-2.082-.255-3.973-.23-5.551.04-2.441.349-4.123,1.048-4.562,1.542-.983,7.223-1.487,13.363-1.737l1.238-.045,1.877-.06h.005c1.383-.04,2.76-.065,4.088-.085h.005c.245,0,.489-.01.729-.01h.015l1.183-.015c.315,0,.629,0,.934,0,.389,0,.769,0,1.143-.01h.544c.16,0,.319,0,.474,0,1.662-.005,3.095,0,4.163.01,1.3.01,2.062.025,2.062.025s.285,1.078.569,2.636c.12.659.24,1.4.339,2.181v0C395.807,589.759,395.9,592.754,394.988,594.5Z" transform="translate(-361.699 -535.985)" fill="#d6ba7f"/>
            <path id="Tracé_2620" data-name="Tracé 2620" d="M382.964,578.4c0,.02-3.973,9.2-5.9,10.173s-8.925,8.965-10.423,8.821,1.747,1.223,1.747,1.223,12.2-5.586,12.913-5.935,4.458-6.479,4.982-9.594S382.964,578.4,382.964,578.4Z" transform="translate(-343.541 -551.659)" fill="#eaad92"/>
            <path id="Tracé_2621" data-name="Tracé 2621" d="M363.565,589.822l-.055-.06.015-.015Z" transform="translate(-354.471 -506.357)" fill="#fff"/>
            <path id="Tracé_2622" data-name="Tracé 2622" d="M393.412,587.975c-3.529-2.576-3.879-5.311-4.383-7.812s-4.013-9.709-10.148-6.155a7.972,7.972,0,0,0-4.572,1.532c-2.636,2.271-5.456,12.519-4.083,17.83h0a6.587,6.587,0,0,0,.32.963c.9,2.151,2.77,3.05,6.06,1.388-.165-.19.454-.539,1.457-.774a9.3,9.3,0,0,1,3.374-.165,6.992,6.992,0,0,1,2.676.909,5.789,5.789,0,0,1,1.742,1.6,7.43,7.43,0,0,1,1.123,2.486,29.761,29.761,0,0,0,4.163-1.513c.215-.1.429-.2.649-.3.26-.13.514-.264.774-.4.155-.085.31-.175.464-.265C396.467,595.283,399.067,592.1,393.412,587.975Z" transform="translate(-329.1 -573.041)" fill="#461e10"/>
            <path id="Tracé_2623" data-name="Tracé 2623" d="M369.445,620.716a90.668,90.668,0,0,1,5.361-7.757c1.328-1.593,2.341-4.483,3.11-7.433l.005-.005c.065-.26.13-.519.195-.774v-.005c1.088-4.383,1.662-8.646,1.987-8.72.2-.05,2.74.279,6.185.489,6.05.369,14.905.364,18.914-2.7a6.185,6.185,0,0,0,1.732-1.942,4.252,4.252,0,0,0,.339-3.115c-.834-3.319-4.867-6.16-4.867-6.16s-5.067.5-11.161,1.3c-.509.065-1.028.135-1.552.2-3.669.5-7.582,1.1-10.9,1.747-.4.08-.789.16-1.173.24h0c-1.163.245-2.236.494-3.175.749-.619.17-1.178.345-1.672.514a5.294,5.294,0,0,0-2.062,1.089c-.839.973-2.506,5.79-4.358,11.82-1.2,3.918-2.481,8.346-3.674,12.564a44.792,44.792,0,0,0,4.163,5.466l.055.06.005,0a21.737,21.737,0,0,0,2.056,1.967Z" transform="translate(-357.8 -534.89)" fill="#f5d491"/>
            <path id="Tracé_2624" data-name="Tracé 2624" d="M397.968,578.982a30.36,30.36,0,0,0-15.749-1.727,6.042,6.042,0,0,0-4.717,2.99c-1.827,2.99-2.681,4.592-2.681,4.592s.17,1.388,2.651,2.5c-.684,2.481.6,6.824-.6,8.5s-8.611,5.83-8.98,8.152c-.684,4.263,12.609,12.03,16.583,11.216C395.912,612.866,403.764,582.267,397.968,578.982Z" transform="translate(-337.076 -557.65)" fill="#e3bac6"/>
            <path id="Tracé_2625" data-name="Tracé 2625" d="M381.2,584.357a16.152,16.152,0,0,0,1.562-4.9c.135-1.582-1.183-7.263-6.888-5.905a7.917,7.917,0,0,0-3.145,1.527c-1.178.963-2.825,2.96-.339,7.8l.684,1.647Z" transform="translate(-324.209 -571.82)" fill="#461e10"/>
            <g id="Groupe_13276" data-name="Groupe 13276" transform="translate(43.694 3.942)">
              <path id="Tracé_2626" data-name="Tracé 2626" d="M371.753,583.888c-.579.609-.355,2.63,2.341,2.486,1.772-.095,5.576-2.271,5.226-3.789a18.844,18.844,0,0,1-1.832-6.848l-.319.09-5.416,1.5s.254,1.722.384,3.35A6.986,6.986,0,0,1,371.753,583.888Z" transform="translate(-366.304 -566.227)" fill="#eaad92"/>
              <path id="Tracé_2627" data-name="Tracé 2627" d="M371.544,577.256s.255,1.722.384,3.35c3.07-.32,4.483-3.25,5.032-4.852Z" transform="translate(-366.096 -566.155)" fill="#e39b7f"/>
              <path id="Tracé_2628" data-name="Tracé 2628" d="M375.246,586.922s7.078-1.762,5.915-6.155-1.033-7.577-5.606-6.644-5,2.85-4.967,4.408S373.374,587.266,375.246,586.922Z" transform="translate(-369.917 -573.319)" fill="#eaad92"/>
              <path id="Tracé_2629" data-name="Tracé 2629" d="M370.933,575.383s2.366,4.537,6.843,5.036a3.912,3.912,0,0,1,3.339,2.022,41.384,41.384,0,0,0-2.081-7.972S371.737,572.543,370.933,575.383Z" transform="translate(-368.535 -573.831)" fill="#461e10"/>
              <path id="Tracé_2630" data-name="Tracé 2630" d="M373.66,574.858a12.425,12.425,0,0,0-2.037,2.69c-.709,1.647.659,5.132,1.228,5.88,0,0-3.275-5.6-2.172-8.011A1.664,1.664,0,0,1,373.66,574.858Z" transform="translate(-370.453 -572.702)" fill="#461e10"/>
            </g>
            <path id="Tracé_2631" data-name="Tracé 2631" d="M374.23,583.3s-1.413,1.488-1.582,1.568c-.933.434-2.111.18-2.68.319s-.469-.215-.05-.5,1.452-.17,1.028-.275a11.405,11.405,0,0,0-3.554-.314,3.205,3.205,0,0,1-2.516-.2,11.152,11.152,0,0,1,4.013-1.632c.913.055,3.529-.065,3.529-.065Z" transform="translate(-349.028 -536.507)" fill="#eaad92"/>
            <path id="Tracé_2632" data-name="Tracé 2632" d="M390.945,594.99c-.165.445-.329.883-.5,1.323v.005q-1.048,2.7-2.231,5.336a24.568,24.568,0,0,1-3.584.06c-1.8-.08-3.764-.29-5.6-.534-3.928-.529-7.273-1.238-7.273-1.238l.324-1.133.2-.7.594-.04c.23-.01.519-.03.854-.05,1.662-.095,4.477-.27,6.948-.439,2.451-.175,4.573-.344,4.922-.439.614-.175-.839-3.549-2.5-6.974-.255-.524-.514-1.048-.769-1.562-1.118-2.231-2.2-4.273-2.7-5.211h0l-.29-.539L383.572,579l.609-.559.629-.574.185.424c.359.838,1.208,2.835,2.176,5.321.235.594.474,1.223.714,1.867A83.6,83.6,0,0,1,390.945,594.99Z" transform="translate(-321.532 -553.775)" fill="#eaad92"/>
            <path id="Tracé_2633" data-name="Tracé 2633" d="M378.043,577.25c.21,0,2.83.874,4.707,4.607,1.837,3.669,2.511,5.451,2.511,5.451s-8.231,6.339-11.491,3.988S375.033,577.161,378.043,577.25Z" transform="translate(-318.029 -556.242)" fill="#e3bac6"/>
            <path id="Tracé_2634" data-name="Tracé 2634" d="M376.836,583.6s-1.408-.919-1.977-1.418-3.874-.923-3.874-.589,1.927.794,2.137,1.133,1.378,1.712,2.381,1.712A1.43,1.43,0,0,0,376.836,583.6Z" transform="translate(-324.629 -539.365)" fill="#eaad92"/>
            <g id="Groupe_13277" data-name="Groupe 13277" transform="translate(31.367 32.778)">
              <path id="Tracé_2635" data-name="Tracé 2635" d="M368.943,579.661l12.394,2.251a1.085,1.085,0,0,1,.809.674l3.928,11.386c.175.5-.21.883-.754.754l-12.265-2.945a1.088,1.088,0,0,1-.749-.639l-4.058-10.7A.57.57,0,0,1,368.943,579.661Z" transform="translate(-367.121 -579.451)" fill="#282f47"/>
              <path id="Tracé_2636" data-name="Tracé 2636" d="M368.732,579.623l12.394,2.251a1.076,1.076,0,0,1,.8.674l3.933,11.386c.17.5-.215.878-.759.748l-12.265-2.94a1.081,1.081,0,0,1-.744-.639l-4.063-10.7A.57.57,0,0,1,368.732,579.623Z" transform="translate(-367.983 -579.608)" fill="#363c54"/>
              <path id="Tracé_2637" data-name="Tracé 2637" d="M369.489,581.386c-.135-.4.09-.644.5-.529a1.623,1.623,0,0,1,.993.938c.135.4-.095.644-.509.529A1.6,1.6,0,0,1,369.489,581.386Z" transform="translate(-362.127 -574.737)" fill="#fff"/>
              <path id="Tracé_2638" data-name="Tracé 2638" d="M368.215,580.043c-.07-.2.045-.314.249-.26a.8.8,0,0,1,.484.459c.065.2-.045.314-.25.26A.789.789,0,0,1,368.215,580.043Z" transform="translate(-367.141 -578.964)" fill="#fff"/>
            </g>
            <path id="Tracé_2639" data-name="Tracé 2639" d="M375.853,584.63a25.869,25.869,0,0,1-3.2-.125c-.639-.155-2.276-2.2-1.837-2.705.28-.32,1.807.259,2.536.259s2.63-1.048,3.919,1.113C377.41,583.417,375.853,584.63,375.853,584.63Z" transform="translate(-325.622 -538.464)" fill="#eaad92"/>
          </g>
          <path id="Tracé_2640" data-name="Tracé 2640" d="M406.826,583.274l-1.742,10.058-.005,0c-.295.454-.594.9-.893,1.353a72.1,72.1,0,0,1-13.807,15.459c-.554.449-1.113.889-1.672,1.308-3.7-.449-23.092-5.341-22.977-8.626v-.005a2.359,2.359,0,0,1,.2-.774v0c.809-1.922,3.963-5.171,8.171-8.231.734-.534,1.5-1.063,2.291-1.577h0c.814-.529,1.657-1.043,2.511-1.532h0a41.062,41.062,0,0,1,6.739-3.125,23.091,23.091,0,0,1,6.874-1.4c.914-.03,1.767-.065,2.571-.12,1.537-.1,2.885-.24,4.063-.41,5.94-.838,7.627-2.331,7.677-2.376Z" transform="translate(-336.024 -532.196)" fill="#939393"/>
        </g>
      </g>
      <g id="Groupe_13284" data-name="Groupe 13284" transform="translate(299.794 291.508)">
        <g id="Groupe_13281" data-name="Groupe 13281" transform="translate(0 4.932)">
          <path id="Tracé_2641" data-name="Tracé 2641" d="M395.732,569.68l.09,15.5a2.024,2.024,0,0,1-.11.654,1.926,1.926,0,0,1-1.8,1.278l-26.925.155A1.911,1.911,0,0,1,365.178,586a1.811,1.811,0,0,1-.115-.639l-.09-15.494a1.919,1.919,0,0,1,1.907-1.932l26.92-.155A1.913,1.913,0,0,1,395.732,569.68Z" transform="translate(-364.973 -567.783)" fill="#f57722"/>
          <path id="Tracé_2642" data-name="Tracé 2642" d="M395.548,577.675a1.926,1.926,0,0,1-1.8,1.278l-26.925.155a1.911,1.911,0,0,1-1.812-1.268l15.933-8.011Z" transform="translate(-364.809 -559.62)" fill="#e66b14"/>
          <path id="Tracé_2643" data-name="Tracé 2643" d="M395.732,569.68l-15.04,10.737-15.714-9.759-.005-.789a1.919,1.919,0,0,1,1.907-1.932l26.92-.155A1.913,1.913,0,0,1,395.732,569.68Z" transform="translate(-364.973 -567.783)" fill="#ff9056"/>
        </g>
        <g id="Groupe_13283" data-name="Groupe 13283" transform="translate(25.757)">
          <path id="Tracé_2644" data-name="Tracé 2644" d="M370.133,571.887a5.092,5.092,0,1,1,5.091,5.092A5.087,5.087,0,0,1,370.133,571.887Z" transform="translate(-370.133 -566.795)" fill="#363c54"/>
          <g id="Groupe_13282" data-name="Groupe 13282" transform="translate(3.15 2.236)">
            <path id="Tracé_2645" data-name="Tracé 2645" d="M372.087,568.431h-.015l-1.088.514-.22-1,1.517-.7h1.1v5.706h-1.293Z" transform="translate(-370.764 -567.243)" fill="#fff"/>
          </g>
        </g>
      </g>
    </g>
    <path id="Tracé_2646" data-name="Tracé 2646" d="M353.4,586.329h0a4.674,4.674,0,0,1-.711-6.571l10.872-13.5a4.674,4.674,0,0,1,6.571-.71h0a4.678,4.678,0,0,1,.707,6.574l-10.868,13.492A4.674,4.674,0,0,1,353.4,586.329Z" transform="translate(-117.273 -283.622)" fill="#eaad92"/>
    <path id="Tracé_2647" data-name="Tracé 2647" d="M353.595,584.439h0a4.266,4.266,0,0,1-.187-6.03l6.47-6.886a4.273,4.273,0,0,1,6.034-.187h0a4.27,4.27,0,0,1,.187,6.034l-6.47,6.883A4.267,4.267,0,0,1,353.595,584.439Z" transform="translate(-115.811 -269.665)" fill="#eaad92"/>
    <g id="Groupe_13301" data-name="Groupe 13301" transform="translate(-36.275 -63.271)">
      <g id="Groupe_13296" data-name="Groupe 13296" transform="translate(91.063 316.969)">
        <g id="Groupe_13286" data-name="Groupe 13286">
          <path id="Tracé_2648" data-name="Tracé 2648" d="M457.375,634.432c-.046,1.6-.087,3.2-.134,4.789-.91,32.334-2.575,63.594-35.741,56.62l-.288-.057c-.637-.139-1.29-.293-1.958-.458-2.076-.524-4.265-1.187-6.583-1.994-.329-.118-.663-.236-1-.359A42.749,42.749,0,0,0,404.023,691a54.262,54.262,0,0,0-8.952-.653,116.851,116.851,0,0,0-19.821,2.292c-3.885.693-7.513,1.361-10.766,1.706-.55.057-1.094.108-1.624.144-.714.051-1.413.082-2.086.093-.776.01-1.521-.015-2.235-.072q-.763-.062-1.48-.185a12.276,12.276,0,0,1-1.362-.3,85.26,85.26,0,0,1-12.174-4.44,68.649,68.649,0,0,1-11.054-6.29,57.994,57.994,0,0,1-7.066-5.827,52.093,52.093,0,0,1-6.069-6.994h0c-.565-.781-1.1-1.578-1.614-2.379a47.258,47.258,0,0,1-5.941-13.639,45.989,45.989,0,0,1-1.444-10.673h0a46.2,46.2,0,0,1,.73-9.122q.956-5.3,2.194-10.067.632-2.451,1.341-4.779c.72-2.369,1.5-4.63,2.328-6.8,11.8-30.787,41.142-46.964,68.609-33.48,39.1,19.2,52.566,5.776,63.558,22.2q1.241,1.858,2.3,3.839c.365.684.714,1.372,1.043,2.076.586,1.243,1.12,2.528,1.6,3.844.267.72.519,1.454.75,2.194q.594,1.881,1.048,3.844c.175.755.334,1.521.483,2.292.237,1.259.437,2.539.591,3.844.087.688.159,1.377.221,2.081q.17,1.888.236,3.839C457.416,631.169,457.421,632.788,457.375,634.432Z" transform="translate(-310.204 -574.601)" fill="#fff"/>
          <path id="Tracé_2649" data-name="Tracé 2649" d="M430.319,697.07a42.735,42.735,0,0,1-8.747-1l-.18-.036-.1-.021c-.632-.139-1.29-.293-1.963-.457-2.092-.524-4.312-1.2-6.6-2-.329-.118-.663-.231-1-.355a41.874,41.874,0,0,0-7.631-1.968,53.162,53.162,0,0,0-8.931-.652,115.807,115.807,0,0,0-19.8,2.286l-.951.17c-3.515.627-6.84,1.223-9.826,1.537-.55.057-1.1.108-1.634.149-.73.051-1.434.082-2.086.087a21.158,21.158,0,0,1-2.251-.072,14.431,14.431,0,0,1-1.49-.185,11.92,11.92,0,0,1-1.372-.3,85.594,85.594,0,0,1-12.195-4.445A69.539,69.539,0,0,1,332.5,683.5a59.092,59.092,0,0,1-7.081-5.838,53.261,53.261,0,0,1-6.079-7.01c-.565-.781-1.11-1.588-1.619-2.384A47.536,47.536,0,0,1,311.76,654.6a46.609,46.609,0,0,1-.714-19.851c.632-3.495,1.367-6.881,2.194-10.072.416-1.614.869-3.222,1.341-4.784.709-2.338,1.5-4.625,2.328-6.8,6.444-16.8,18.33-29.652,32.617-35.264a43.8,43.8,0,0,1,36.162,1.717c19.4,9.528,32.509,11.018,42.077,12.107,9.615,1.09,15.961,1.814,21.527,10.129.838,1.254,1.614,2.549,2.307,3.854.36.668.709,1.367,1.043,2.081.586,1.244,1.125,2.539,1.609,3.854.262.714.514,1.454.745,2.2.391,1.233.745,2.534,1.053,3.854.18.766.339,1.536.483,2.3.236,1.259.437,2.554.6,3.854.082.668.154,1.367.221,2.081.113,1.239.19,2.534.237,3.849.051,1.6.056,3.232.01,4.851-.026.812-.046,1.624-.067,2.441l-.067,2.348c-.334,11.835-.75,22.385-2.487,31.609-1.968,10.5-5.463,17.6-10.668,21.707C440.566,695.605,435.946,697.07,430.319,697.07Zm-34.754-6.732a52.993,52.993,0,0,1,8.577.658,42.706,42.706,0,0,1,7.672,1.978c.334.123.668.242,1,.355,2.282.8,4.491,1.469,6.573,1.994.673.164,1.326.318,1.953.457l.1.02.18.036c9.7,2.04,17.077.935,22.539-3.371,11.825-9.327,12.482-32.6,13.063-53.131l.062-2.354c.026-.812.046-1.624.072-2.441h0c.046-1.609.041-3.238-.01-4.836-.046-1.305-.128-2.595-.236-3.833-.067-.709-.139-1.408-.221-2.076-.159-1.29-.355-2.58-.6-3.834-.139-.761-.3-1.526-.478-2.287-.308-1.315-.658-2.605-1.048-3.838-.231-.74-.483-1.475-.745-2.189-.478-1.306-1.013-2.6-1.6-3.833-.334-.709-.684-1.408-1.038-2.066a44.209,44.209,0,0,0-2.292-3.834c-5.5-8.222-11.47-8.9-21.352-10.026-9.589-1.095-22.724-2.585-42.16-12.128a43.555,43.555,0,0,0-35.962-1.711c-14.224,5.586-26.064,18.387-32.478,35.124-.837,2.174-1.619,4.456-2.328,6.788-.473,1.557-.92,3.16-1.336,4.774-.822,3.186-1.562,6.568-2.189,10.057A46.222,46.222,0,0,0,312,654.536a47.047,47.047,0,0,0,5.925,13.6c.5.8,1.048,1.6,1.608,2.374a52.521,52.521,0,0,0,6.054,6.978,58.769,58.769,0,0,0,7.056,5.817,68.974,68.974,0,0,0,11.033,6.28,84.811,84.811,0,0,0,12.159,4.43,12.859,12.859,0,0,0,1.346.3c.478.082.976.144,1.47.18.7.057,1.444.082,2.225.072.652-.005,1.352-.036,2.076-.088.529-.041,1.079-.093,1.624-.149,2.98-.313,6.3-.9,9.81-1.536l.945-.165a116.287,116.287,0,0,1,19.841-2.3Z" transform="translate(-310.302 -574.714)" fill="#fff"/>
        </g>
        <g id="Groupe_13291" data-name="Groupe 13291" transform="translate(0.122 25.431)">
          <path id="Tracé_2650" data-name="Tracé 2650" d="M420.411,606.914l-.159-13.664h-4.964V581.558l-.231-.139h-1.48v-.005h-8.608v.005h-.005v1.753h.005v1.208h-.005v1.752h.005v1.208h-.005v1.753h.005v.005l-.91-.005v-9.168H394.4v1.161h-.005v1.753h.005v1.542h-.005v1.752h.005v1.208h-.005v1.753h.005v1.12h-.005v1.753h.005v1.115h-.005v1.752h.005v1.059h-.005V597h.005v.123H383.513V607.15h-4.07v2.529h-4.389v-4.353h-7.888V593.506h-1.233v-1.177h-.175v1.177h-6.141v-1.177h-.175v1.177h-1.336v5.941l-6.624-.031v3.669h-5.622V580.407H329.216v24.3h-5.082v-13.14h-7.2c-.832,2.169-1.608,4.43-2.328,6.8q-.709,2.328-1.341,4.779-1.233,4.779-2.194,10.067a46.2,46.2,0,0,0-.73,9.122h0A45.988,45.988,0,0,0,311.779,633a47.258,47.258,0,0,0,5.941,13.639c.509.8,1.048,1.6,1.614,2.379h0a52.1,52.1,0,0,0,6.069,6.994,58.006,58.006,0,0,0,7.066,5.827,76.266,76.266,0,0,0,23.228,10.73,12.262,12.262,0,0,0,1.362.3,24.239,24.239,0,0,0,5.8.164c8.561-.617,20.16-4.07,32.211-4.142a54.269,54.269,0,0,1,8.952.653,42.749,42.749,0,0,1,7.652,1.974c.334.123.668.241,1,.359,2.318.807,4.507,1.47,6.583,1.994.668.165,1.321.319,1.958.458Z" transform="translate(-310.326 -578.582)" fill="#f5e3cb"/>
          <rect id="Rectangle_2780" data-name="Rectangle 2780" width="12.363" height="3.844" transform="translate(23.172 1.824)" fill="#e5cfb3"/>
          <rect id="Rectangle_2781" data-name="Rectangle 2781" width="12.363" height="3.844" transform="translate(23.172 7.741)" fill="#e5cfb3"/>
          <rect id="Rectangle_2782" data-name="Rectangle 2782" width="12.363" height="3.844" transform="translate(23.172 13.781)" fill="#e5cfb3"/>
          <rect id="Rectangle_2783" data-name="Rectangle 2783" width="12.363" height="3.844" transform="translate(23.172 19.918)" fill="#e5cfb3"/>
          <rect id="Rectangle_2784" data-name="Rectangle 2784" width="12.363" height="3.844" transform="translate(23.172 25.839)" fill="#e5cfb3"/>
          <g id="Groupe_13287" data-name="Groupe 13287" transform="translate(84.074 1.343)">
            <rect id="Rectangle_2785" data-name="Rectangle 2785" width="6.182" height="2.335" fill="#e5cfb3"/>
            <rect id="Rectangle_2786" data-name="Rectangle 2786" width="6.182" height="2.335" transform="translate(0 3.593)" fill="#e5cfb3"/>
            <rect id="Rectangle_2787" data-name="Rectangle 2787" width="6.182" height="2.335" transform="translate(0 7.262)" fill="#e5cfb3"/>
            <rect id="Rectangle_2788" data-name="Rectangle 2788" width="6.182" height="2.335" transform="translate(0 10.988)" fill="#e5cfb3"/>
            <rect id="Rectangle_2789" data-name="Rectangle 2789" width="6.182" height="2.335" transform="translate(0 14.584)" fill="#e5cfb3"/>
          </g>
          <g id="Groupe_13288" data-name="Groupe 13288" transform="translate(84.074 19.885)">
            <rect id="Rectangle_2790" data-name="Rectangle 2790" width="6.182" height="2.335" fill="#e5cfb3"/>
            <rect id="Rectangle_2791" data-name="Rectangle 2791" width="6.182" height="2.335" transform="translate(0 3.593)" fill="#e5cfb3"/>
            <rect id="Rectangle_2792" data-name="Rectangle 2792" width="6.182" height="2.335" transform="translate(0 7.262)" fill="#e5cfb3"/>
            <rect id="Rectangle_2793" data-name="Rectangle 2793" width="6.182" height="2.334" transform="translate(0 10.989)" fill="#e5cfb3"/>
            <rect id="Rectangle_2794" data-name="Rectangle 2794" width="6.182" height="2.334" transform="translate(0 14.585)" fill="#e5cfb3"/>
          </g>
          <g id="Groupe_13289" data-name="Groupe 13289" transform="translate(94.655 2.873)">
            <rect id="Rectangle_2795" data-name="Rectangle 2795" width="6.182" height="2.335" fill="#e5cfb3"/>
            <rect id="Rectangle_2796" data-name="Rectangle 2796" width="6.182" height="2.334" transform="translate(0 3.594)" fill="#e5cfb3"/>
            <rect id="Rectangle_2797" data-name="Rectangle 2797" width="6.182" height="2.334" transform="translate(0 7.262)" fill="#e5cfb3"/>
            <rect id="Rectangle_2798" data-name="Rectangle 2798" width="6.182" height="2.335" transform="translate(0 10.989)" fill="#e5cfb3"/>
            <rect id="Rectangle_2799" data-name="Rectangle 2799" width="6.182" height="2.335" transform="translate(0 14.585)" fill="#e5cfb3"/>
          </g>
          <g id="Groupe_13290" data-name="Groupe 13290" transform="translate(94.655 21.207)">
            <rect id="Rectangle_2800" data-name="Rectangle 2800" width="6.182" height="2.335" fill="#e5cfb3"/>
            <rect id="Rectangle_2801" data-name="Rectangle 2801" width="6.182" height="2.335" transform="translate(0 3.593)" fill="#e5cfb3"/>
            <rect id="Rectangle_2802" data-name="Rectangle 2802" width="6.182" height="2.334" transform="translate(0 7.262)" fill="#e5cfb3"/>
            <rect id="Rectangle_2803" data-name="Rectangle 2803" width="6.182" height="2.335" transform="translate(0 10.989)" fill="#e5cfb3"/>
            <rect id="Rectangle_2804" data-name="Rectangle 2804" width="6.182" height="2.334" transform="translate(0 14.584)" fill="#e5cfb3"/>
          </g>
          <rect id="Rectangle_2805" data-name="Rectangle 2805" width="0.307" height="4.763" transform="translate(75.211 13.862)" fill="#e5cfb3"/>
          <rect id="Rectangle_2806" data-name="Rectangle 2806" width="0.477" height="9.225" transform="translate(80.379 9.772)" fill="#e5cfb3"/>
          <rect id="Rectangle_2807" data-name="Rectangle 2807" width="0.199" height="1.699" transform="translate(19.994 0.125)" fill="#e5cfb3"/>
          <rect id="Rectangle_2808" data-name="Rectangle 2808" width="0.199" height="1.699" transform="translate(24.208 0.125)" fill="#e5cfb3"/>
          <rect id="Rectangle_2809" data-name="Rectangle 2809" width="0.199" height="1.699" transform="translate(33.868 0.125)" fill="#e5cfb3"/>
          <rect id="Rectangle_2810" data-name="Rectangle 2810" width="0.153" height="1.311" transform="translate(85.03 0.032)" fill="#dceafb"/>
          <rect id="Rectangle_2811" data-name="Rectangle 2811" width="0.153" height="1.311" transform="translate(92.282 0.032)" fill="#dceafb"/>
          <rect id="Rectangle_2812" data-name="Rectangle 2812" width="0.199" height="1.699" transform="translate(30.092 0.125)" fill="#e5cfb3"/>
          <path id="Tracé_2651" data-name="Tracé 2651" d="M369.633,607.847q-.069-1.95-.236-3.839c-.062-.7-.134-1.393-.221-2.081-.154-1.305-.355-2.585-.591-3.844-.149-.771-.308-1.536-.483-2.292q-.455-1.966-1.048-3.844c-.231-.74-.483-1.475-.75-2.194-.478-1.316-1.012-2.6-1.6-3.844-.329-.7-.678-1.393-1.043-2.076q-1.056-1.981-2.3-3.839h-6.47v24.292h-5.468V591.15h-17.9v82.438c.668.165,1.321.319,1.958.458l.288.057c33.167,6.974,34.832-24.286,35.741-56.62.046-1.593.087-3.191.134-4.789C369.69,611.048,369.684,609.429,369.633,607.847Z" transform="translate(-222.595 -578.293)" fill="#e5cfb3"/>
          <path id="Tracé_2652" data-name="Tracé 2652" d="M339.071,585.176v67.479l-.288-.057c-.637-.139-1.29-.293-1.958-.458-2.076-.524-4.265-1.187-6.583-1.994V585.176Z" transform="translate(-227.897 -556.845)" fill="#e5cfb3"/>
          <path id="Tracé_2653" data-name="Tracé 2653" d="M339.743,583.833H337.3v-3.839h.144Q338.687,581.852,339.743,583.833Z" transform="translate(-198.676 -578.293)" fill="#42d4cc"/>
          <path id="Tracé_2654" data-name="Tracé 2654" d="M342.384,584.989H337.3v-3.844h3.484C341.372,582.389,341.906,583.673,342.384,584.989Z" transform="translate(-198.676 -573.529)" fill="#42d4cc"/>
          <path id="Tracé_2655" data-name="Tracé 2655" d="M344.183,586.164H337.3V582.32h5.833Q343.728,584.2,344.183,586.164Z" transform="translate(-198.676 -568.666)" fill="#42d4cc"/>
          <path id="Tracé_2656" data-name="Tracé 2656" d="M345.257,587.358H337.3v-3.844h7.364C344.9,584.773,345.1,586.053,345.257,587.358Z" transform="translate(-198.676 -563.724)" fill="#42d4cc"/>
          <path id="Tracé_2657" data-name="Tracé 2657" d="M345.714,588.506H337.3v-3.839h8.176Q345.648,586.556,345.714,588.506Z" transform="translate(-198.676 -558.952)" fill="#42d4cc"/>
          <rect id="Rectangle_2813" data-name="Rectangle 2813" width="0.21" height="1.698" transform="translate(135.271)" fill="#57e3d2"/>
        </g>
        <g id="Groupe_13295" data-name="Groupe 13295" transform="translate(15.433 10.239)">
          <g id="man">
            <path id="Tracé_2658" data-name="Tracé 2658" d="M334.137,586.184c-.622,1.67-1.7,3.6-2.821,4.08a4.33,4.33,0,0,0-1.809,1.315l-1.033-.6-1.233-.719s.031-.134.092-.36.149-.529.272-.873a1.185,1.185,0,0,0,.149-1.095,2.546,2.546,0,0,1,.211-2.127c.4-.576.776-1.989,1.013-1.948.576.1-.283,2.045-.036,2.4a.424.424,0,0,0,.555.19l.01,0c1.614-.709,3.577-4.543,4.445-4.024C334.276,582.618,334.4,585.475,334.137,586.184Z" transform="translate(-255.628 -553.227)" fill="#eaad92"/>
            <g id="Groupe_13292" data-name="Groupe 13292" transform="translate(72.656 27.194)">
              <rect id="Rectangle_2814" data-name="Rectangle 2814" width="9.659" height="3.111" rx="0.062" transform="matrix(0.575, -0.818, 0.818, 0.575, 0, 7.903)" fill="#fff"/>
              <path id="Tracé_2659" data-name="Tracé 2659" d="M327.936,590.222l1.187.838a.241.241,0,0,0,.339-.062l5.278-7.5a.25.25,0,0,0-.062-.339l-1.187-.832a.238.238,0,0,0-.334.056l-5.278,7.508A.239.239,0,0,0,327.936,590.222Z" transform="translate(-325.824 -580.836)" fill="#b5b5b5"/>
            </g>
            <path id="Tracé_2660" data-name="Tracé 2660" d="M326.361,581.51s7.647,13.346,12.159,19.153a2.882,2.882,0,0,0,4,.555l11.588-8.643a5.018,5.018,0,0,1,2.862,2.6s-8.325,16.964-16.521,17.683-19.7-20.329-19.7-20.329Z" transform="translate(-282.498 -556.827)" fill="#e66b14"/>
            <g id="Groupe_13293" data-name="Groupe 13293" transform="translate(17.886 66.226)">
              <path id="Tracé_2661" data-name="Tracé 2661" d="M339.411,591.5l-.072.93c-.206,2.534-.791,9.918-1.465,18.469-.442,5.668-.925,11.855-1.351,17.467-3.885.693-7.513,1.362-10.766,1.706-.55.057-1.094.108-1.624.144-.714.051-1.413.082-2.086.093-.087-1.341-.18-2.75-.272-4.209h0c-.858-13.387-1.824-30.957-2.045-34.98l-.046-.843,10.874.673h0Z" transform="translate(-304.796 -586.788)" fill="#e3bac6"/>
              <path id="Tracé_2662" data-name="Tracé 2662" d="M339.411,591.5l-.072.93c-.206,2.534-.791,9.918-1.465,18.469,0,0-16,16.717-15.992,16.917l-.108-1.717c-.056-.884-.113-1.788-.175-2.708-.812-12.945-1.665-28.516-1.871-32.272l-.046-.843,10.874.673h0Z" transform="translate(-304.796 -586.788)" fill="#d1abb7"/>
              <path id="Tracé_2663" data-name="Tracé 2663" d="M348.174,595.345l-.062.164c-.745,1.855-7.59,18.885-14.348,33.392-.658,1.409-1.315,2.791-1.963,4.137q-.763-.062-1.48-.185a12.279,12.279,0,0,1-1.362-.3,85.249,85.249,0,0,1-12.174-4.44,21.091,21.091,0,0,1,2.888-5.915,28.349,28.349,0,0,0,3.428-6.634c.067-.174.139-.354.205-.534,1.855-4.81,3.32-10.38,3.428-12.971.005-.216.016-.442.031-.673v-.005c.036-.617.082-1.305.139-2.02.185-2.451.473-5.283.689-7.266.154-1.491.272-2.5.272-2.5l14.687,4.157Z" transform="translate(-316.786 -589.594)" fill="#e3bac6"/>
            </g>
            <path id="Tracé_2664" data-name="Tracé 2664" d="M333.213,592.346c-4.975,1.567-13.577-2.667-13.577-2.667a12.951,12.951,0,0,0,4.342-10.6l3.849,3.1,2.611,2.1a30.969,30.969,0,0,1-.3,3.417c-.031.226-.062.463-.1.709a1.87,1.87,0,0,0,.8,1.809A11.348,11.348,0,0,1,333.213,592.346Z" transform="translate(-287.104 -566.876)" fill="#eaad92"/>
            <path id="Tracé_2665" data-name="Tracé 2665" d="M326.953,581.848a30.994,30.994,0,0,1-.3,3.417c-2.893-.5-6.177-5.175-6.177-5.175a9.165,9.165,0,0,1,3.865-.344Z" transform="translate(-283.619 -564.442)" fill="#e39b7f"/>
            <path id="Tracé_2666" data-name="Tracé 2666" d="M329.949,591.016s-8.217,1.367-8.988-3.762-2.348-8.407,2.863-9.5,6.526.714,7.2,2.364S332.066,590.528,329.949,591.016Z" transform="translate(-285.094 -573.728)" fill="#eaad92"/>
            <path id="Tracé_2667" data-name="Tracé 2667" d="M343.811,631.6a.785.785,0,0,1-.524.2c-1.865-.026-7.313,1.012-11.922.54a34.219,34.219,0,0,1-11.013-3.181c-.494-.216-1.624-.822-1.6-1.367.021-.6.077-1.47.154-2.569a137.544,137.544,0,0,0,.272-17.93c-.082-1.408-.123-2.806-.128-4.178-.036-10.252,1.994-19.266,6.079-22.318.349-.252,2.492.8,4.461,1.768a6.986,6.986,0,0,0,4.908.715l2.164,1.449a17.183,17.183,0,0,1,5.38,8.592c.848,3.412,1.341,9.569,1.619,15.941.123,2.888.221,5.8.247,8.567v.1c.026.272.026.571.026.848C344.037,625.875,343.934,631.5,343.811,631.6Z" transform="translate(-290.759 -559.936)" fill="#f57722"/>
            <path id="Tracé_2668" data-name="Tracé 2668" d="M318.783,612.953a137.534,137.534,0,0,0,.272-17.93c-.082-1.408-.123-2.806-.128-4.178,1.7-4.126,3.094-7.122,3.094-7.122h4.286S329.451,605.2,318.783,612.953Z" transform="translate(-290.635 -547.667)" fill="#e66b14"/>
            <g id="Groupe_13294" data-name="Groupe 13294" transform="translate(0 70.622)">
              <rect id="Rectangle_2815" data-name="Rectangle 2815" width="16.749" height="27.218" rx="0.851" transform="matrix(0.141, -0.99, 0.99, 0.141, 1.852, 18.387)" fill="#b5b5b5"/>
              <path id="Tracé_2669" data-name="Tracé 2669" d="M341.171,597.842v0a4.393,4.393,0,0,0-3.027-2.642h-.005v0c-.139-.031-.283-.062-.427-.082l-3.638-.514.242-1.711a1.411,1.411,0,0,0-.278-1.074,1.447,1.447,0,0,0-.951-.565l-.637-.093-.313-.041-3.361-.483-.462-.062-.689-.1a1.457,1.457,0,0,0-1.639,1.233l-.241,1.711-6.285-.9a4.407,4.407,0,0,0-4.969,3.726l-1.141,8.017a4.4,4.4,0,0,0,3.726,4.964l18.259,2.6a4.189,4.189,0,0,0,.945.031h.01a4.209,4.209,0,0,0,1.423-.36h0a4.4,4.4,0,0,0,2.585-3.4l1.141-8.016A4.284,4.284,0,0,0,341.171,597.842Zm-14.286-6.018a.54.54,0,0,1,.447-.457.563.563,0,0,1,.164,0l.812.118.031.005,2.981.421.7.1.94.134a.543.543,0,0,1,.457.612l-.242,1.711-6.531-.936Z" transform="translate(-313.306 -590.449)" fill="#fff"/>
            </g>
            <path id="Tracé_2670" data-name="Tracé 2670" d="M321.557,590.561a6.443,6.443,0,0,0-1,1.788c-.257,3.469-.36,5.067-2.826,5.134,0,0-1.532.021-1.562-1.341,0,0,1.048.005.822-1.9-.262-2.194-.236-2.215,1.2-3.361l.956-1.572Z" transform="translate(-301.466 -524.535)" fill="#eaad92"/>
            <path id="Tracé_2671" data-name="Tracé 2671" d="M318.448,626.367a14.3,14.3,0,0,0,3.222.18s4.584-14.163,5.17-15.458,13.618-16.609,13.618-16.609L335.032,580.9s-14.091,23.541-15.519,26.846c-2.364,5.467-3.186,17.719-3.186,17.719A5.877,5.877,0,0,0,318.448,626.367Z" transform="translate(-300.804 -559.359)" fill="#f57722"/>
            <path id="Tracé_2672" data-name="Tracé 2672" d="M321.894,589.74s.843-.144.7-1.305-.134-2.677.812-2.395.992,1.038,1.377.6.4-2.3,3.207-2.43,3.952.848,5.257.277,1.372-2.554,1.372-2.554a2.221,2.221,0,0,1-.93.93s2.179-2.981-.344-5.026-5.1-.7-6.557-.617c-3.217.195-5.293.39-6.347,2.5S319.828,587.705,321.894,589.74Z" transform="translate(-286.033 -576.707)" fill="#461e10"/>
            <path id="Tracé_2673" data-name="Tracé 2673" d="M316.986,589.851s.925.966.981,1.367c.19,1.29.617,1.845.4,1.984-.447.293-1.038-.663-1.321-1.516A3.934,3.934,0,0,1,316.986,589.851Z" transform="translate(-298.412 -522.304)" fill="#eaad92"/>
          </g>
        </g>
      </g>
      <g id="Groupe_13300" data-name="Groupe 13300" transform="translate(167.178 314.7)">
        <g id="Groupe_13297" data-name="Groupe 13297" transform="translate(0 4.473)">
          <path id="Tracé_2674" data-name="Tracé 2674" d="M353,576.865l.082,14.055a1.753,1.753,0,0,1-1.732,1.753l-24.41.139a1.744,1.744,0,0,1-1.644-1.151,1.936,1.936,0,0,1-.1-.576l-.077-14.05a1.739,1.739,0,0,1,1.727-1.753l24.4-.139A1.738,1.738,0,0,1,353,576.865Z" transform="translate(-325.114 -575.143)" fill="#f57722"/>
          <path id="Tracé_2675" data-name="Tracé 2675" d="M352.832,584.056a1.737,1.737,0,0,1-1.629,1.162l-24.41.139a1.744,1.744,0,0,1-1.645-1.151l14.445-7.261Z" transform="translate(-324.969 -567.689)" fill="#e66b14"/>
          <path id="Tracé_2676" data-name="Tracé 2676" d="M353,576.865,339.364,586.6l-14.25-8.844v-.719a1.739,1.739,0,0,1,1.727-1.753l24.4-.139A1.738,1.738,0,0,1,353,576.865Z" transform="translate(-325.114 -575.143)" fill="#ff9056"/>
        </g>
        <g id="Groupe_13299" data-name="Groupe 13299" transform="translate(23.349)">
          <circle id="Ellipse_3463" data-name="Ellipse 3463" cx="4.616" cy="4.616" r="4.616" fill="#363c54"/>
          <g id="Groupe_13298" data-name="Groupe 13298" transform="translate(2.855 2.032)">
            <path id="Tracé_2677" data-name="Tracé 2677" d="M331.415,575.742H331.4l-.987.468-.2-.9,1.377-.637h1v5.17h-1.172Z" transform="translate(-330.213 -574.668)" fill="#fff"/>
          </g>
        </g>
      </g>
    </g>
    <g id="Groupe_13306" data-name="Groupe 13306" transform="translate(-0.529 -62.507)">
      <g id="Groupe_13302" data-name="Groupe 13302" transform="translate(197.537 204.722)">
        <path id="Tracé_2678" data-name="Tracé 2678" d="M487.629,619.332v0a70.616,70.616,0,0,1-4.553,8,84.821,84.821,0,0,1-7.36,9.605c-.1.117-.2.23-.3.342q-1.4,1.578-2.876,3.086c-.494.509-.993,1.013-1.5,1.507a100.1,100.1,0,0,1-11.014,9.356c-2.392,1.741-4.827,3.36-7.282,4.823-.337.205-.68.4-1.022.6-1.624.939-3.257,1.815-4.886,2.621A67.04,67.04,0,0,1,436,663.569q-1.13.33-2.245.557c-.831.166-1.648.3-2.46.386-24.918,2.773-41.767-31.384-54.429-42.662-13.44-11.977-35.531-19.709-35.966-34.592-.513-17.543,14.794-26.175,68.944-39.977,70.8-18.047,80.2,30.3,82.56,43.669C494.08,600.469,492.045,610.192,487.629,619.332Z" transform="translate(-340.773 -543.185)" fill="#fff"/>
        <path id="Tracé_2679" data-name="Tracé 2679" d="M428.511,664.882c-16.809,0-29.789-16.457-40.334-29.824-4.049-5.131-7.869-9.977-11.3-13.034a125.219,125.219,0,0,0-14.413-10.466c-10.95-7.189-21.289-13.983-21.588-24.2-.274-9.239,3.922-15.665,14.032-21.5,9.962-5.747,26.41-11.313,55-18.595,25.344-6.461,45.439-5.062,59.73,4.167,18.032,11.64,21.749,32.68,22.972,39.6,1.589,9.013-.015,18.575-4.768,28.43l-.015.025a70.1,70.1,0,0,1-4.563,8.016,84.85,84.85,0,0,1-7.365,9.62c-.1.117-.2.23-.308.342-.924,1.042-1.893,2.084-2.876,3.091-.474.484-.978.993-1.5,1.506a99.835,99.835,0,0,1-11.024,9.366c-2.392,1.746-4.847,3.369-7.292,4.827-.337.205-.68.406-1.022.6-1.609.934-3.252,1.819-4.891,2.626a67.2,67.2,0,0,1-10.857,4.294c-.758.22-1.516.411-2.255.563-.836.171-1.668.3-2.475.391A26.161,26.161,0,0,1,428.511,664.882ZM438.469,543.5a116.378,116.378,0,0,0-28.508,3.976c-28.562,7.282-44.995,12.838-54.942,18.575C345,571.841,340.836,578.209,341.1,587.349c.294,10.1,10.588,16.863,21.485,24.018a124.968,124.968,0,0,1,14.442,10.486c3.443,3.066,7.272,7.923,11.327,13.063,11.1,14.071,24.918,31.589,43.009,29.574.8-.088,1.624-.22,2.45-.391.734-.147,1.487-.333,2.24-.553a67.361,67.361,0,0,0,10.818-4.279c1.633-.807,3.272-1.692,4.881-2.621.338-.2.675-.4,1.017-.6,2.44-1.457,4.886-3.076,7.273-4.822a99.792,99.792,0,0,0,11-9.341c.523-.509,1.027-1.017,1.5-1.5.983-1.007,1.947-2.044,2.871-3.081.1-.112.205-.23.3-.342a85.106,85.106,0,0,0,7.351-9.6A70.648,70.648,0,0,0,487.6,619.4l.015-.024c4.739-9.816,6.343-19.343,4.759-28.313-1.218-6.891-4.92-27.858-22.864-39.443C461.132,546.214,450.749,543.5,438.469,543.5Z" transform="translate(-340.862 -543.275)" fill="#fff"/>
      </g>
      <path id="Tracé_2680" data-name="Tracé 2680" d="M396.856,563.08c.582-14.218-11.332-20.536-23.514-20.541s-25.441,3.149-26.6,22.052c-.743,12.158,5.737,19.646,24.4,19.651,6.3,0,11.19-.988,14.936-2.758l9.332,8.294-4.583-11.464C394.895,574.539,396.607,569.213,396.856,563.08Z" transform="translate(-121.45 -337.817)" fill="#3c7548"/>
      <g id="Groupe_13304" data-name="Groupe 13304" transform="translate(275.425 218.933)">
        <path id="Tracé_2681" data-name="Tracé 2681" d="M358.5,558.326c0-.112,1.6-3.428,1.1-3.683s-1.428-.215-1.531.367A20.214,20.214,0,0,0,358.5,558.326Z" transform="translate(-352.679 -510.234)" fill="#eaad92"/>
        <path id="Tracé_2682" data-name="Tracé 2682" d="M363.377,562.546c0-.323-.377-5.287-1.213-6.275s-2.548-2.4-3.086-2.352-2.641,2.836-2.01,4.979,3.3,5.042,3.3,5.042Z" transform="translate(-356.951 -512.477)" fill="#eaad92"/>
        <g id="Groupe_13303" data-name="Groupe 13303" transform="translate(0.579 34.085)">
          <rect id="Rectangle_2816" data-name="Rectangle 2816" width="5.701" height="10.316" rx="0.063" transform="translate(0.908 1.637) rotate(-16.685)" fill="#fc9f38"/>
          <path id="Tracé_2683" data-name="Tracé 2683" d="M364.843,562.408l-4.426,1.325a.545.545,0,0,1-.675-.362l-2.651-8.842a.543.543,0,0,1,.367-.675l4.421-1.325a.538.538,0,0,1,.675.362l2.651,8.843A.542.542,0,0,1,364.843,562.408Z" transform="translate(-357.07 -552.059)" fill="#e65f00"/>
        </g>
        <path id="Tracé_2684" data-name="Tracé 2684" d="M357.283,556.344s2.03-3.125,2.528-2.949c.709.245-1.844,4.211-1.844,4.211s1.893-2.964,2.186-2.739c.67.509-.4,2.367-1.457,3.8,0,0,1.9-1.741,1.961-1.428.215,1.1-2.088,3.756-2.088,3.756l-1.286-2.939Z" transform="translate(-355.66 -514.541)" fill="#eaad92"/>
        <path id="Tracé_2685" data-name="Tracé 2685" d="M356.972,560.3c.1-.382.592-7.84.807-7.136s.714,4.622.714,4.622Z" transform="translate(-356.87 -515.596)" fill="#eaad92"/>
        <path id="Tracé_2686" data-name="Tracé 2686" d="M386.894,562.689a55.221,55.221,0,0,1-2.548,14.653c-1.849,5.169-5.023,9.365-10.471,7.815-.552-.156-1.1-.328-1.619-.513h0c-11.063-3.854-14.643-12.677-14.643-12.677.827-1.355,3.213-1.859,3.213-1.859,2.225.122,12.016,4.279,12.642,4.406,2.264.455,4.094-11.987,5.566-16.3s7.492-6.241,7.492-6.241Z" transform="translate(-354.395 -520.041)" fill="#e3bac6"/>
        <path id="Tracé_2687" data-name="Tracé 2687" d="M372.9,555.974l-.21,5.84c-1.849,5.169-5.023,9.365-10.471,7.815-.553-.156-1.1-.328-1.619-.513.176.024,3.512.474,4.905-.92,1.433-1.438,1.281-6.191,3.922-9.361S372.9,555.974,372.9,555.974Z" transform="translate(-342.743 -504.512)" fill="#d1abb7"/>
        <path id="Tracé_2688" data-name="Tracé 2688" d="M391.063,572.672c-1.218,4.563-3.556,9.273-6.725,11.625a25.567,25.567,0,0,0-3.517,3.184c-.337.205-.68.4-1.022.6-1.624.939-3.257,1.815-4.886,2.621a67.04,67.04,0,0,1-10.838,4.289q-1.13.33-2.245.557c-.831.166-1.648.3-2.46.386,2.929-9.381,9.385-22.629,12.711-29.188,1.257-2.484,2.069-4.01,2.069-4.01s4.582-1.037,9.048-1.545a21.547,21.547,0,0,1,6.9.01C392.388,561.824,392.545,567.141,391.063,572.672Z" transform="translate(-347.536 -485.22)" fill="#d6ba7f"/>
        <path id="Tracé_2689" data-name="Tracé 2689" d="M391.125,572.449q-1.4,1.578-2.876,3.086c-.494.509-.993,1.013-1.5,1.507a100.116,100.116,0,0,1-11.014,9.356c-2.392,1.741-4.827,3.36-7.282,4.822-.337.205-.68.4-1.022.6-1.624.939-3.257,1.815-4.886,2.621,1.981-6.876,4.005-14.095,5.693-20.145,1.022-3.668,1.917-6.9,2.592-9.365.851-3.091,1.364-4.969,1.364-4.969l11.664,5.893,7.111,3.59A16.872,16.872,0,0,1,391.125,572.449Z" transform="translate(-335.171 -488.958)" fill="#f5d491"/>
        <path id="Tracé_2690" data-name="Tracé 2690" d="M396.606,589.149a137.364,137.364,0,0,1-1.976,15.293c-.1.117-.2.23-.3.342q-1.4,1.578-2.876,3.086a27.229,27.229,0,0,1-4.842.832h0a32.325,32.325,0,0,1-4.71.044,39.914,39.914,0,0,1-10.456-2.113,52.541,52.541,0,0,1-8.525-3.81l-.117-.069s-2.8-2.308.641-12.129a49.071,49.071,0,0,0,1.6-6.186c.636-3.145,1.223-6.808,1.839-10.755,1.007-6.431,2.093-13.606,3.619-20.458,0,0,.929-.289,2.455-.621a40.151,40.151,0,0,1,8.485-.953h0a24.334,24.334,0,0,1,7.551,1.105l.108.034a5.861,5.861,0,0,1,.9.377l.083.044c5.282,2.783,4.778,11.982,5.884,21.534.112.944.235,1.893.381,2.836A55.078,55.078,0,0,1,396.606,589.149Z" transform="translate(-338.373 -521.293)" fill="#e3bac6"/>
        <path id="Tracé_2691" data-name="Tracé 2691" d="M362.776,553.419s7.043-11.464,12.5-5.566c0,0,3.57.909,5.61,6.465,2.083,5.664-1.159,10.662-3.326,9.855-1.394-.518-2.044,1.878-2.044,1.878Z" transform="translate(-334.288 -542.633)" fill="#461e10"/>
        <path id="Tracé_2692" data-name="Tracé 2692" d="M365.111,549.76s.484-4.744,7.419-4.285c0,0-3.282.059-3.986,1.428,0,0,2.387-1.541,4.128-.792s2.475,4.006,2.382,5.042-1.433,4.274-2.6,4.441a5.411,5.411,0,0,1-2.7-.655Z" transform="translate(-325.204 -545.445)" fill="#461e10"/>
        <path id="Tracé_2693" data-name="Tracé 2693" d="M373.638,559.066a31.985,31.985,0,0,1-2.4-9.1l-.416.147-7,2.465s.494,2.245.807,4.377c.127.875.22,2.435.279,3.8.059,1.394,1.428,1.521,2.822,1.457C371.427,562.034,373.466,560.655,373.638,559.066Z" transform="translate(-330.238 -527.861)" fill="#eaad92"/>
        <path id="Tracé_2694" data-name="Tracé 2694" d="M363.817,552.459s.494,2.245.807,4.377c4.015-.695,5.62-4.681,6.2-6.842Z" transform="translate(-330.238 -527.744)" fill="#fff3dc"/>
        <path id="Tracé_2695" data-name="Tracé 2695" d="M376.312,561.174a21.338,21.338,0,0,0,1.726-6.573c.068-2.089-2.059-9.5-9.493-7.312a10.39,10.39,0,0,0-4.045,2.23c-1.492,1.355-3.521,4.1.088,10.31l1.012,2.127Z" transform="translate(-335.099 -539.819)" fill="#461e10"/>
        <path id="Tracé_2696" data-name="Tracé 2696" d="M367.443,564.3s9.561-1.217,8.715-7.16-.191-10.109-6.334-9.581-7,2.964-7.2,5.018S364.934,564.471,367.443,564.3Z" transform="translate(-334.916 -537.374)" fill="#eaad92"/>
        <path id="Tracé_2697" data-name="Tracé 2697" d="M363.2,548.9s3.619,6.6,7.776,7.052,5.742-.875,5.742-.875a11.444,11.444,0,0,1-4.68-6.172S364.688,545.3,363.2,548.9Z" transform="translate(-332.654 -538.229)" fill="#461e10"/>
        <path id="Tracé_2698" data-name="Tracé 2698" d="M366.843,548.447a8.49,8.49,0,0,0-1.981,3.418c-.259,1.584-.024,4.729-.949,4.754,0,0-2.651-4.455-.827-7.453C365.023,545.982,366.843,548.447,366.843,548.447Z" transform="translate(-335.572 -537.304)" fill="#461e10"/>
        <path id="Tracé_2699" data-name="Tracé 2699" d="M363.278,549.39s2.915,7.033,8.309,8.642c0,0-5.7-3.756-6.827-8.515S363.278,549.39,363.278,549.39Z" transform="translate(-332.335 -537.958)" fill="#461e10"/>
        <path id="Tracé_2700" data-name="Tracé 2700" d="M378.108,571.4a137.315,137.315,0,0,1-1.976,15.293c-.1.117-.2.23-.3.342q-1.4,1.578-2.876,3.086a27.211,27.211,0,0,1-4.842.832h0a8.432,8.432,0,0,1,.455-10.51c4.411-5.556-.342-15.8,3.052-21.377q.176-.286.352-.543c2.235-3.242,4.372-2.387,5.492-1.526.112.944.235,1.893.381,2.836A55.071,55.071,0,0,1,378.108,571.4Z" transform="translate(-319.875 -503.547)" fill="#d1abb7"/>
        <path id="Tracé_2701" data-name="Tracé 2701" d="M383.545,580.7c.968,1.687,1.927,3.5,2.842,5.287v0a70.644,70.644,0,0,1-4.553,8,64.743,64.743,0,0,1-5.385-5.688c-1.492-1.961-4.186-8.143-6.138-12.877-1.35-3.271-2.348-5.844-2.348-5.844s-2.881-18.731.871-17.67l.108.034c.308.113.606.24.895.376l.083.044C378.821,556.75,379.305,573.275,383.545,580.7Z" transform="translate(-318.216 -520.449)" fill="#e3bac6"/>
      </g>
      <g id="Groupe_13305" data-name="Groupe 13305" transform="translate(232.536 219.829)">
        <rect id="Rectangle_2817" data-name="Rectangle 2817" width="22.506" height="1.742" fill="#fff"/>
        <rect id="Rectangle_2818" data-name="Rectangle 2818" width="9.905" height="1.742" transform="translate(24.718)" fill="#fff"/>
        <rect id="Rectangle_2819" data-name="Rectangle 2819" width="14.641" height="1.742" transform="translate(0 4.669)" fill="#fff"/>
        <rect id="Rectangle_2820" data-name="Rectangle 2820" width="11.783" height="1.742" transform="translate(18.378 4.669)" fill="#fff"/>
        <rect id="Rectangle_2821" data-name="Rectangle 2821" width="11.918" height="1.742" transform="translate(0 9.338)" fill="#fff"/>
        <rect id="Rectangle_2822" data-name="Rectangle 2822" width="14.309" height="1.742" transform="translate(15.361 9.338)" fill="#fff"/>
      </g>
    </g>
    <g id="Groupe_13316" data-name="Groupe 13316" transform="translate(-35.195 -113.467)">
      <g id="Groupe_13307" data-name="Groupe 13307" transform="translate(100.246 229.5)">
        <path id="Tracé_2702" data-name="Tracé 2702" d="M439.714,625.181c-6.153,8.148-23.824,34.835-52.779,22.458a48.153,48.153,0,0,0-11.775-5.634,67.123,67.123,0,0,0-22.258-3.516q-2.165.024-4.3-.106c-19.527-1.153-36.977-11.415-35.542-32.071,2.122-30.46,24.7-55.012,50.085-57.023s45.481,11.342,60.634,25.12S445.872,617.036,439.714,625.181Z" transform="translate(-312.88 -548.992)" fill="#fff"/>
        <path id="Tracé_2703" data-name="Tracé 2703" d="M401.771,651.022a37.493,37.493,0,0,1-14.8-3.222l-.016-.012a48.9,48.9,0,0,0-11.755-5.622,67.009,67.009,0,0,0-22.225-3.508c-1.443.012-2.891-.024-4.309-.106a52.813,52.813,0,0,1-16.559-3.529,33.027,33.027,0,0,1-12.744-8.651c-4.747-5.4-6.873-12.127-6.325-19.993a66.107,66.107,0,0,1,16.338-39.238c9.391-10.544,21.408-16.894,33.833-17.879a66.537,66.537,0,0,1,34.205,6.648c8.713,4.154,17.38,10.2,26.5,18.5,6.942,6.317,12.773,16.354,15.986,27.545,2.993,10.418,2.981,19.367-.037,23.362-.323.425-.679.9-1.063,1.427-3.582,4.828-9.571,12.907-18.211,18.464A34.373,34.373,0,0,1,401.771,651.022Zm-14.715-3.4c27.361,11.689,44.336-11.219,51.59-21,.384-.523.74-1,1.063-1.431l.078.057-.078-.057c2.936-3.884,2.94-12.985.008-23.19-3.205-11.154-9.015-21.162-15.933-27.455-12.981-11.8-33.379-27.246-60.56-25.092-25.954,2.052-47.918,27.062-50,56.934-.544,7.813,1.566,14.494,6.276,19.85,6.215,7.069,16.575,11.374,29.172,12.119,1.411.082,2.858.118,4.293.106a67.065,67.065,0,0,1,22.291,3.521A49.126,49.126,0,0,1,387.056,647.625Z" transform="translate(-312.952 -549.064)" fill="#fff"/>
      </g>
      <g id="Groupe_13310" data-name="Groupe 13310" transform="translate(100.343 243.863)">
        <path id="Tracé_2704" data-name="Tracé 2704" d="M315.648,559.393q-1.1,2.729-1.979,5.589h0c1.545,7.274,4.24,19.343,6.914,28.44,1.987,6.746,3.962,11.853,5.458,12.163.875.18,5.291.221,11.673.143,2.8-.033,5.969-.094,9.387-.172,3.541-.081,7.347-.188,11.272-.315,2.666-.086,5.389-.18,8.116-.286,3.761-.147,7.535-.311,11.2-.49,3.308-.164,6.525-.339,9.571-.528.63-.041,1.255-.078,1.873-.118,2.743-.18,5.319-.368,7.662-.568,2.2-.188,4.191-.384,5.916-.589,1.124-.131,2.2-.266,3.218-.405a67.964,67.964,0,0,0,6.963-1.239c1.787-.446,2.883-.912,3.087-1.4.159-.376-.4-3.046-1.447-6.877l-.049-.167-.061-.237c-3.2-11.583-10.585-32.978-15.99-34.585h0a2.122,2.122,0,0,0-.63-.1c-.372,0-.875,0-1.492,0-6.072.025-22.957.147-31.96.229h0c-1.558.012-2.882.029-3.872.037-1.586.016-3.205.037-4.845.053h0l-1.075.017h0l-4.072.049h0l-2.9.037h0l-3.169.045h-.012c-1.962.024-3.9.053-5.806.078l-1.856.029c-8.745.127-16.432.25-20.733.323-.119.282-.237.56-.348.843Z" transform="translate(-310.834 -536.904)" fill="#a7a7a7"/>
        <path id="Tracé_2705" data-name="Tracé 2705" d="M344.986,593.708s-8.234-31.539-8.827-34.189a2.085,2.085,0,0,0-1.905-1.717c1.447-.139,2.5-.151,2.5-.151a6.679,6.679,0,0,1,6.292,4.767c2,6.215,5.957,18.153,9.678,29.826C352.537,592.24,344.986,593.708,344.986,593.708Z" transform="translate(-247.259 -536.904)" fill="#b7b7b7"/>
        <path id="Tracé_2706" data-name="Tracé 2706" d="M356.892,572.608a11.008,11.008,0,0,1-1.824,4.51c-2.694,3.569-7.6,10.688-14.686,16.53l.658-22.246.123-4.138h0s9.555-3.112,16.007-2.547q.11,1.356.131,2.625A25.291,25.291,0,0,1,356.892,572.608Z" transform="translate(-228.33 -515.292)" fill="#b7b7b7"/>
        <path id="Tracé_2707" data-name="Tracé 2707" d="M365,572.095a11.009,11.009,0,0,1-1.824,4.51c-2.694,3.569-7.6,10.688-14.686,16.53a44.69,44.69,0,0,1-8.108,5.38l-1.885-19.621-.736-7.662s.462-.225,1.276-.584h0l0,0,.11-.049h0c.262-.119.552-.245.875-.385.491-.213,1.055-.454,1.676-.711,2.061-.846,4.735-1.873,7.568-2.748,6.358-1.963,13.488-3.169,16.138.078A25.3,25.3,0,0,1,365,572.095Z" transform="translate(-236.434 -514.779)" fill="#b7b7b7"/>
        <path id="Tracé_2708" data-name="Tracé 2708" d="M415.782,567.89a11.007,11.007,0,0,1-1.824,4.51c-2.694,3.569-7.6,10.688-14.686,16.53a44.69,44.69,0,0,1-8.108,5.381,32.882,32.882,0,0,1-17.409,3.7,35.346,35.346,0,0,1-6.48-1.059,39.521,39.521,0,0,1-3.819-1.19c-.748-.27-1.509-.572-2.273-.9,0,0-.793-.572-2.3-1.435a55.874,55.874,0,0,0-9.477-4.2c-1.047-.356-2.155-.7-3.328-1.03a66.381,66.381,0,0,0-9.351-1.909,69.9,69.9,0,0,0-9.58-.576q-1.276.013-2.543-.024l-1.116-6.456-2.171-12.556s1.112-.025,3.1-.066c1.439-.024,3.332-.061,5.593-.1,1.975-.037,4.228-.069,6.7-.106l.433,0c7.028-.1,15.778-.192,24.928-.217,3.2-.008,6.444-.008,9.686,0,4.358.012,8.7.049,12.9.11,1.787.024,3.549.057,5.27.094h0l.143,0h0c.282,0,.56.012.838.016,3.161.074,6.186.16,9.011.274A155.852,155.852,0,0,1,415.782,567.89Z" transform="translate(-287.219 -510.575)" fill="#b7b7b7"/>
        <g id="Groupe_13308" data-name="Groupe 13308" transform="translate(23.837)">
          <path id="Tracé_2709" data-name="Tracé 2709" d="M372.41,565.446a3.306,3.306,0,0,1-.65-.335h4.076s.2-.409-2.326-1.566a8.138,8.138,0,0,0-3.529-.09,4.585,4.585,0,0,1-1.206,0c-2.392-.339-11.056-1.5-16.24-1.37-1.623.041-13.182-1.844-16.51-1.173-1.758.352-3.349.63-4.371.793a1.087,1.087,0,0,1-1.259-.977v-.012a29.543,29.543,0,0,0-.462-3.406l-4.068-1.966c-.838.446-1.7.131-2.122.352.02.229.114,1.177.123,1.4a11.848,11.848,0,0,1-.266,2.94,4.464,4.464,0,0,1-3.222,3.34l-.021.008c3.046,2.621,18.55,7.2,18.816,5.855.323-1.656,25.435-3.745,29.634-4.085a2.191,2.191,0,0,1,1.382.348.849.849,0,0,1,.249.225c.208.294,1.877.249,2.187.294S372.778,565.56,372.41,565.446Z" transform="translate(-314.012 -544.032)" fill="#eaad92"/>
          <path id="Tracé_2710" data-name="Tracé 2710" d="M335.317,560.2a4.754,4.754,0,0,1-1.791,3.954c-2.081,1.345-1.554,4.865-1.541,6.247l-8.9-12.74a43.79,43.79,0,0,1,5.417-.953,46.243,46.243,0,0,1,6.521.344A12.319,12.319,0,0,1,335.317,560.2Z" transform="translate(-305.58 -539.967)" fill="#f5e3cb"/>
          <path id="Tracé_2711" data-name="Tracé 2711" d="M361.894,606.153a35.352,35.352,0,0,1-6.48-1.059,39.577,39.577,0,0,1-3.819-1.19c.9-4.2,2.236-11.616,1.132-14.187a15.235,15.235,0,0,1-.94-3.962,48.742,48.742,0,0,1-.3-6.84c-1.141-.065-9.682,1.145-17.18.335-3.991-.429-7.368-1.419-8.508-3.434a4.821,4.821,0,0,1-.511-1.272,6.272,6.272,0,0,1,1.145-4.853h0a14.244,14.244,0,0,1,1.3-1.7c.065-.074.135-.151.2-.225.429-.474.883-.92,1.333-1.333a27.688,27.688,0,0,1,3.766-2.894s.773.139,2.053.388c3.475.674,10.683,2.159,16.285,3.839a26.013,26.013,0,0,1,6.771,2.768c.711.519,1.292,1.885,1.762,3.8a70.421,70.421,0,0,1,1.423,10.737C361.927,593.4,361.919,602.8,361.894,606.153Z" transform="translate(-299.196 -518.721)" fill="#2a5232"/>
          <path id="Tracé_2712" data-name="Tracé 2712" d="M365.144,603.062a39.571,39.571,0,0,1-3.819-1.19c-.748-.27-1.509-.573-2.273-.9,0,0-.793-.572-2.3-1.435-.891-2.817-2.142-6.338-3.872-10.422a17.032,17.032,0,0,1-.932-4.865c-.155-1.983-.143-3.672-.229-3.709,0,0-6.374.053-13.149-.605a67.961,67.961,0,0,1-8.149-1.227c-3.643-.822-6.554-2.011-7.445-3.733a10.563,10.563,0,0,1-.687-2.257c-.11-.523-.2-1.047-.245-1.476a4.205,4.205,0,0,1-.033-.711,5.617,5.617,0,0,1,1.517-3.414,8.63,8.63,0,0,1,1.292-1.166,11.76,11.76,0,0,1,1.308-.83,13.206,13.206,0,0,1,1.558-.724c.36-.139.576-.2.576-.2l1.124.2c1.37.25,3.884.72,6.914,1.325l.041.008c.364.074.736.147,1.116.225q1.269.257,2.621.539c7.826,1.648,17.1,3.868,19.633,5.61a2.066,2.066,0,0,1,.233.188c1.533,1.4,2.645,5.957,3.447,11.309C364.412,590.441,364.923,598.573,365.144,603.062Z" transform="translate(-308.926 -516.689)" fill="#3c7548"/>
          <path id="Tracé_2713" data-name="Tracé 2713" d="M354.258,584.223c-1.562,2.792-3.189,5-9.179,6.035a88.383,88.383,0,0,0-13.77,3.537c-1.6.483-6.194-5.372-8.386-10.6a79.6,79.6,0,0,1-3.937-13.554c-.188-9.391,6.955-11.648,6.955-11.673,0,0,5.3,3.606,8.194,2.355,2.842-1.235,1.672-3.361,1.635-3.422l7.654,7.515a94.664,94.664,0,0,0,3.8,11.378C350.374,583.053,354.691,583.454,354.258,584.223Z" transform="translate(-318.262 -539.214)" fill="#f5e3cb"/>
          <path id="Tracé_2714" data-name="Tracé 2714" d="M327.036,557.31a29.549,29.549,0,0,1,.462,3.406c-3.451-.11-6.182-3.688-6.2-3.913.417-.225.834-1.014,1.672-1.46Z" transform="translate(-311.115 -544.032)" fill="#e39b7f"/>
          <path id="Tracé_2715" data-name="Tracé 2715" d="M328.237,565.708s-7.261-.2-7.065-4.726-.6-7.589,4.04-7.646,5.47,1.7,5.769,3.23S330.13,565.647,328.237,565.708Z" transform="translate(-311.51 -550.235)" fill="#eaad92"/>
          <path id="Tracé_2716" data-name="Tracé 2716" d="M323.24,563.6a2.447,2.447,0,0,1,.466-.94s-.536-1.472.029-1.8.867.924,1.116.687a6.222,6.222,0,0,0,1.672-2.829c.331-1.472,5.368-.438,5.965-.266a.8.8,0,0,0,.429-.029,1.655,1.655,0,0,0,.605-2.813c-.061-.053-.115-.1-.164-.151-.532-.54-4.24-4.154-8.48-2.4s-4.555,3.937-4.056,5.7c.327,1.161.429,3.4.994,4.906A.75.75,0,0,0,323.24,563.6Z" transform="translate(-313.125 -552.577)" fill="#461e10"/>
          <path id="Tracé_2717" data-name="Tracé 2717" d="M322.523,555.688a2.4,2.4,0,0,0,1.455.83.964.964,0,0,0,1.2-.593A8.363,8.363,0,0,0,322.523,555.688Z" transform="translate(-307.325 -542.991)" fill="#fff"/>
          <path id="Tracé_2718" data-name="Tracé 2718" d="M319.861,559.31s-1.247,2.478-.082,7.012c2.3,8.95,11.542,16.211,12.875,15.541s4.837-.577,2.944-4.641-9.559-19.065-9.559-19.065Z" transform="translate(-317.338 -535.341)" fill="#eaad92"/>
          <path id="Tracé_2719" data-name="Tracé 2719" d="M332.556,571.106c-2.42,1.349-4.195,2.429-7.9,2.421a24.966,24.966,0,0,1-5.086-.552s-2.862-11.644,2.486-14.04c1.844-.826,4.428-1.77,4.428-1.77S336.89,568.69,332.556,571.106Z" transform="translate(-318.806 -538.408)" fill="#f5e3cb"/>
          <path id="Tracé_2720" data-name="Tracé 2720" d="M340.354,564.058s-12.912-1.378-14.645-1.312-3.5,4.722-3.25,4.964,5.442.5,8.656.274a55.418,55.418,0,0,0,8.018-1.382Z" transform="translate(-307.596 -521.175)" fill="#eaad92"/>
        </g>
        <path id="Tracé_2721" data-name="Tracé 2721" d="M351.629,592.983a66.389,66.389,0,0,0-9.351-1.909,69.889,69.889,0,0,0-9.58-.576q-1.276.012-2.543-.024c-.589-.021-1.173-.049-1.758-.082a57.748,57.748,0,0,1-8.88-1.2l.135-5,.47-17.258s2-.654,4.722-1.263c.552-.127,1.132-.245,1.738-.364h0a36.083,36.083,0,0,1,5.916-.675c2.878-.049,5.475.45,6.771,2.057.11.143.229.294.356.462a48.239,48.239,0,0,1,2.637,4.044c1.251,2.1,2.645,4.661,3.986,7.421.752,1.554,1.492,3.173,2.175,4.8A58.685,58.685,0,0,1,351.629,592.983Z" transform="translate(-292.773 -515.363)" fill="#a7a7a7"/>
        <path id="Tracé_2722" data-name="Tracé 2722" d="M362.481,611.3a69.89,69.89,0,0,0-9.58-.576q-1.276.012-2.543-.024c-.589-.021-1.173-.049-1.758-.082a57.756,57.756,0,0,1-8.88-1.2c-15.61-3.386-27.876-13.419-26.662-30.869a66.77,66.77,0,0,1,1.909-11.861q.386-1.527.842-3.018h0q.871-2.857,1.979-5.589a7.035,7.035,0,0,1,1.917,3.042c1.864,5.818,5.188,16.22,8.647,27.1l.049.164q.3.938.6,1.881l.057.188h0l.033.1c.2-.082.4-.168.605-.254l.024-.012c.83-.344,1.766-.724,2.78-1.108h0c.523-.2,1.067-.4,1.631-.605,1.582-.572,3.291-1.137,5.021-1.619.769-.217,1.545-.421,2.314-.6.985-.229,1.967-.425,2.923-.572l.082-.012.335-.045.11-.016h0q.957-.129,1.864-.184h0c.364-.021.72-.029,1.067-.029a10.7,10.7,0,0,1,3.557.519,4.734,4.734,0,0,1,2.572,1.987q.19.319.417.736c.393.728.859,1.668,1.366,2.776v0c.781,1.7,1.664,3.786,2.539,6.088.76,1.987,1.517,4.13,2.208,6.317C361.287,606.384,361.974,608.9,362.481,611.3Z" transform="translate(-312.976 -535.588)" fill="#8a8a8a"/>
        <path id="Tracé_2723" data-name="Tracé 2723" d="M316.284,558.077q-1.1,2.729-1.979,5.589h0q-.454,1.491-.842,3.018c2.621,10.181,6.677,25.709,6.677,25.709l1.079-.286c1.958-.524,5.924-1.578,6.337-1.652l.033,0c-3.721-11.673-7.392-23.133-9.387-29.348a7.033,7.033,0,0,0-1.914-3.025Z" transform="translate(-311.471 -535.588)" fill="#b7b7b7"/>
        <g id="Groupe_13309" data-name="Groupe 13309" transform="translate(40.891 30.814)">
          <path id="Tracé_2724" data-name="Tracé 2724" d="M339.716,565.579H322.977a1.333,1.333,0,0,1,1.333-1.333h15.406Z" transform="translate(-322.977 -547.348)" fill="#282f47"/>
          <path id="Tracé_2725" data-name="Tracé 2725" d="M331.876,560.113h25.882l-6.208,18.232H325.5Z" transform="translate(-315.185 -560.113)" fill="#282f47"/>
          <path id="Tracé_2726" data-name="Tracé 2726" d="M357.852,560.113l-6.208,18.232H325.593l6.376-18.232Z" transform="translate(-314.897 -560.113)" fill="#363c54"/>
          <path id="Tracé_2727" data-name="Tracé 2727" d="M332,563.253a1.68,1.68,0,0,1-1.554,1.263.973.973,0,0,1-.969-1.263,1.68,1.68,0,0,1,1.554-1.26A.971.971,0,0,1,332,563.253Z" transform="translate(-303 -554.306)" fill="#fff"/>
        </g>
      </g>
      <g id="Groupe_13312" data-name="Groupe 13312" transform="translate(161.007 220.899)">
        <g id="Groupe_13311" data-name="Groupe 13311">
          <path id="Tracé_2728" data-name="Tracé 2728" d="M361.562,561.8c-.781-12.723-9.7-14.846-17.9-14.841s-16.219,4.256-15.831,13.823c.168,4.129,1.321,7.715,4.056,10.258l-3.083,7.715,6.28-5.585a23.471,23.471,0,0,0,10.054,1.856C357.7,575.024,362.061,569.987,361.562,561.8Z" transform="translate(-327.814 -546.96)" fill="#3c7548"/>
        </g>
      </g>
      <g id="Groupe_13314" data-name="Groupe 13314" transform="translate(140.744 215.285)">
        <g id="Groupe_13313" data-name="Groupe 13313">
          <path id="Tracé_2729" data-name="Tracé 2729" d="M322.889,557.722c.638-10.4,7.932-12.139,14.637-12.135s13.259,3.479,12.94,11.3c-.139,3.377-1.079,6.309-3.316,8.386l2.519,6.309-5.131-4.567a19.175,19.175,0,0,1-8.218,1.517C326.045,568.532,322.48,564.411,322.889,557.722Z" transform="translate(-322.857 -545.587)" fill="#e3bac6"/>
        </g>
      </g>
      <g id="Groupe_13315" data-name="Groupe 13315" transform="translate(169.235 231.096)">
        <rect id="Rectangle_2823" data-name="Rectangle 2823" width="14.434" height="1.117" fill="#fff"/>
        <rect id="Rectangle_2824" data-name="Rectangle 2824" width="6.353" height="1.117" transform="translate(15.853)" fill="#fff"/>
        <rect id="Rectangle_2825" data-name="Rectangle 2825" width="9.39" height="1.117" transform="translate(0 2.994)" fill="#fff"/>
        <rect id="Rectangle_2826" data-name="Rectangle 2826" width="7.557" height="1.117" transform="translate(11.787 2.994)" fill="#fff"/>
        <rect id="Rectangle_2827" data-name="Rectangle 2827" width="7.644" height="1.117" transform="translate(0 5.989)" fill="#fff"/>
        <rect id="Rectangle_2828" data-name="Rectangle 2828" width="9.177" height="1.117" transform="translate(9.852 5.989)" fill="#fff"/>
      </g>
    </g>
    <circle id="Ellipse_3464" data-name="Ellipse 3464" cx="1.714" cy="1.714" r="1.714" transform="translate(174.469 374.341)" fill="#f2468b"/>
    <path id="Tracé_2730" data-name="Tracé 2730" d="M391.205,607.595s-7.444,14.9-15.006,25.174c-3.008,4.093-6.037,7.455-8.623,8.855a20.614,20.614,0,0,0-6.443,5.864,47.089,47.089,0,0,0-6.706,13.769L335.086,632a40.46,40.46,0,0,0,1.49-11.579c-.028-6.391-1.49-12.071,1.494-21.8,3.979-12.986,7.961-23.819,7.957-24.859-.014-5.237,2.079-11.832,2.346-12.622a2.626,2.626,0,0,1,2.221-.859,3.462,3.462,0,0,1,2.984,2.821,32.177,32.177,0,0,1-.392,16.2c.728,7.368-1.466,12.837.073,14.286.059.055.163.031.315-.066,2.665-1.712,19.214-25.836,21.251-26.356C376.979,566.606,391.205,607.595,391.205,607.595Z" transform="translate(-158.133 -294.078)" fill="#eaad92"/>
    <path id="Tracé_2731" data-name="Tracé 2731" d="M384.8,597.193s-.076,3.733-.263,9.888c-.01.326-.021.655-.031.991-.048,1.639-.107,3.431-.173,5.355-.118,3.431-8.21,29.548-8.38,33.693-7.157.3-40.292.163-50.824.163.679-1.442,14.753-29.95,15.412-31.343,4.145-8.765,7.836-16.493,10.556-22.159h0l.021-.045.01-.024c2.925-6.1,4.717-9.8,4.717-9.8l.184.007a77.7,77.7,0,0,1,10.446,1.231c.274.052.548.1.825.163,6.058,1.223,12.858,3.5,15.907,7.725a8.427,8.427,0,0,1,.482.742,8.216,8.216,0,0,1,.818,1.885A8.111,8.111,0,0,1,384.8,597.193Z" transform="translate(-182.686 -235.803)" fill="#3c7548"/>
    <path id="Tracé_2732" data-name="Tracé 2732" d="M368.761,565.853l-5.989,8.779-5.878,8.616a1.345,1.345,0,0,1-1.22.541c-1.411-.135-3.157-2.169-4.516-3.3l-.138-.114a4.241,4.241,0,0,1-.561-5.954l8.979-10.858h0l2.665-3.219a4.243,4.243,0,0,1,5.957-.565l.135.115A4.242,4.242,0,0,1,368.761,565.853Z" transform="translate(-122.611 -297.686)" fill="#eaad92"/>
    <path id="Tracé_2733" data-name="Tracé 2733" d="M363.905,582.475c-3.008,4.093-6.037,7.455-8.623,8.855a20.612,20.612,0,0,0-6.443,5.864c-2.038-.95-4.36-2.062-6.633-3.168a3.784,3.784,0,0,1-.163-6.727l.08-.041c2.537-1.452,5.14-6.581,5.14-6.581Z" transform="translate(-145.838 -243.784)" fill="#de7e49" opacity="0.5"/>
    <path id="Tracé_2734" data-name="Tracé 2734" d="M340,560.655l-1.567,6.325a3.312,3.312,0,0,0,2.249.125C341.555,566.671,342.276,560.995,340,560.655Z" transform="translate(-149.889 -293.148)" fill="#ffbd8f"/>
    <path id="Tracé_2735" data-name="Tracé 2735" d="M332.621,596.053s9.531,9.128,15.956,12.653l4.866-3.452v5.091s9.569,1.695,12.587,0V596.462l-26.876-13.471Z" transform="translate(-164.209 -238.076)" fill="#2a5232"/>
    <path id="Tracé_2736" data-name="Tracé 2736" d="M343.785,580.609s-6.054,9.055-12.071,18.739c0,0,12.681,8.723,19.553,11.281l9.018-10.328L359,612.732s7.978,2.908,11.679,2.149c0,0-.288-11.326-.284-18.714C370.394,596.166,348.512,590.067,343.785,580.609Z" transform="translate(-166.447 -243.949)" fill="#3c7548"/>
    <g id="Groupe_13324" data-name="Groupe 13324" transform="translate(193.232 255.566)">
      <g id="Groupe_13318" data-name="Groupe 13318">
        <rect id="Rectangle_2829" data-name="Rectangle 2829" width="45.746" height="86.115" rx="1.819" fill="#363c54"/>
        <g id="Groupe_13317" data-name="Groupe 13317" transform="translate(2.266 2.135)">
          <path id="Tracé_2737" data-name="Tracé 2737" d="M381.651,562.286v72.346a4.458,4.458,0,0,1-4.429,4.464H344.866a4.458,4.458,0,0,1-4.429-4.464V562.286a4.457,4.457,0,0,1,4.429-4.46h32.355A4.457,4.457,0,0,1,381.651,562.286Z" transform="translate(-340.437 -557.826)" fill="#faffff"/>
          <path id="Tracé_2738" data-name="Tracé 2738" d="M377.222,557.826,345.268,639.1h-.4a4.458,4.458,0,0,1-4.429-4.464V562.286a4.457,4.457,0,0,1,4.429-4.46Z" transform="translate(-340.437 -557.826)" fill="#fff"/>
        </g>
      </g>
      <g id="Groupe_13323" data-name="Groupe 13323" transform="translate(13.36 15.055)">
        <path id="Tracé_2739" data-name="Tracé 2739" d="M346.383,564.338" transform="translate(-336.87 -554.69)" fill="#424242"/>
        <g id="Groupe_13319" data-name="Groupe 13319" transform="translate(4.531)">
          <path id="Tracé_2740" data-name="Tracé 2740" d="M352,564.573a3.286,3.286,0,0,0-6.55,0l-.014,1.3a.68.68,0,0,0,.707.652H351.3a.68.68,0,0,0,.707-.652Zm-2.027-1.608a.274.274,0,0,1-.215.1.26.26,0,0,1-.17-.059,1.33,1.33,0,0,0-1.715-.01.271.271,0,0,1-.385-.024.273.273,0,0,1,.021-.385,1.862,1.862,0,0,1,2.419-.011A.275.275,0,0,1,349.971,562.965Z" transform="translate(-343.74 -561.554)" fill="#5f5f5f"/>
          <path id="Tracé_2741" data-name="Tracé 2741" d="M354.464,562.708a.65.65,0,0,0-.821.416c0,.01-.35,1-1.053,1h-2.575l-.087.007-.087-.007h-2.575c-.7,0-1.047-.984-1.053-1a.649.649,0,1,0-1.234.406,2.592,2.592,0,0,0,2.287,1.9h2.575l.087-.007.087.007h2.575a2.6,2.6,0,0,0,2.291-1.9A.654.654,0,0,0,354.464,562.708Z" transform="translate(-344.945 -558.788)" fill="#5f5f5f"/>
        </g>
        <g id="Groupe_13321" data-name="Groupe 13321" transform="translate(1.833 7.011)">
          <g id="Groupe_13320" data-name="Groupe 13320">
            <path id="Tracé_2742" data-name="Tracé 2742" d="M347.681,564.468a2.622,2.622,0,1,1-2.623,2.623,2.625,2.625,0,0,1,2.623-2.623m0-.891a3.512,3.512,0,1,0,3.511,3.514,3.514,3.514,0,0,0-3.511-3.514Z" transform="translate(-344.167 -563.577)" fill="#c8c8c8"/>
            <path id="Tracé_2743" data-name="Tracé 2743" d="M350.083,564.468a2.622,2.622,0,1,1-2.62,2.623,2.628,2.628,0,0,1,2.62-2.623m0-.891a3.512,3.512,0,1,0,3.514,3.514,3.511,3.511,0,0,0-3.514-3.514Z" transform="translate(-338.237 -563.577)" fill="#c8c8c8"/>
          </g>
          <path id="Tracé_2744" data-name="Tracé 2744" d="M347.083,564.216a.984.984,0,0,0-.984.984v1.865h.478V565.38a.506.506,0,0,1,1.012,0v1.685h.482V565.2A.987.987,0,0,0,347.083,564.216Z" transform="translate(-339.403 -562.001)" fill="#c8c8c8"/>
        </g>
        <g id="Groupe_13322" data-name="Groupe 13322" transform="translate(0 15.883)">
          <path id="Tracé_2745" data-name="Tracé 2745" d="M343.638,566.137h.617l.78,1.653.783-1.653h.61l-1.116,2.149v1.22h-.555v-1.22Z" transform="translate(-343.638 -566.137)" fill="#5f5f5f"/>
          <path id="Tracé_2746" data-name="Tracé 2746" d="M345.7,569.085a1.3,1.3,0,0,1-1.334-1.383,1.279,1.279,0,0,1,1.334-1.376,1.244,1.244,0,0,1,1.3,1.314,1.768,1.768,0,0,1-.017.27h-2.045a.735.735,0,0,0,.762.71.648.648,0,0,0,.631-.374h.6A1.221,1.221,0,0,1,345.7,569.085Zm-.756-1.622h1.48a.694.694,0,0,0-.749-.672A.725.725,0,0,0,344.945,567.463Z" transform="translate(-341.843 -565.671)" fill="#5f5f5f"/>
          <path id="Tracé_2747" data-name="Tracé 2747" d="M346.357,569.085a1.008,1.008,0,0,1-1.116-.863h.572a.489.489,0,0,0,.534.4c.319,0,.489-.139.489-.322,0-.523-1.549-.222-1.549-1.2,0-.426.4-.769,1.026-.769a.913.913,0,0,1,1.033.856h-.551a.443.443,0,0,0-.5-.391c-.3,0-.451.121-.451.3,0,.537,1.508.236,1.535,1.2C347.379,568.745,346.988,569.085,346.357,569.085Z" transform="translate(-339.686 -565.671)" fill="#5f5f5f"/>
          <path id="Tracé_2748" data-name="Tracé 2748" d="M347.382,569.506H346.03v-3.369h1.286c.714,0,1.092.392,1.092.866a.789.789,0,0,1-.572.773.836.836,0,0,1,.652.825C348.487,569.114,348.068,569.506,347.382,569.506Zm-.114-2.918h-.683v.963h.683c.36,0,.579-.17.579-.478S347.628,566.588,347.267,566.588Zm.045,1.414h-.728v1.054h.749c.371,0,.6-.187.6-.513A.548.548,0,0,0,347.312,568Z" transform="translate(-337.74 -566.137)" fill="#5f5f5f"/>
          <path id="Tracé_2749" data-name="Tracé 2749" d="M348.2,569.085a1.305,1.305,0,0,1-1.341-1.383,1.364,1.364,0,1,1,2.728,0A1.339,1.339,0,0,1,348.2,569.085Zm0-.482a.821.821,0,0,0,.818-.9.808.808,0,0,0-.8-.9.8.8,0,0,0-.79.9C347.425,568.309,347.782,568.6,348.2,568.6Z" transform="translate(-335.694 -565.671)" fill="#5f5f5f"/>
          <path id="Tracé_2750" data-name="Tracé 2750" d="M348.879,569.085a1.008,1.008,0,0,1-1.116-.863h.572a.49.49,0,0,0,.534.4c.322,0,.492-.139.492-.322,0-.523-1.553-.222-1.553-1.2,0-.426.4-.769,1.029-.769a.915.915,0,0,1,1.033.856h-.555c-.017-.232-.2-.391-.5-.391s-.451.121-.451.3c0,.537,1.508.236,1.539,1.2C349.9,568.745,349.51,569.085,348.879,569.085Z" transform="translate(-333.467 -565.671)" fill="#5f5f5f"/>
          <path id="Tracé_2751" data-name="Tracé 2751" d="M349.627,569.085a1.008,1.008,0,0,1-1.116-.863h.572a.49.49,0,0,0,.534.4c.319,0,.489-.139.489-.322,0-.523-1.553-.222-1.553-1.2,0-.426.4-.769,1.029-.769a.913.913,0,0,1,1.033.856h-.551a.443.443,0,0,0-.5-.391c-.3,0-.454.121-.454.3,0,.537,1.511.236,1.539,1.2C350.649,568.745,350.258,569.085,349.627,569.085Z" transform="translate(-331.623 -565.671)" fill="#5f5f5f"/>
        </g>
      </g>
    </g>
    <g id="Groupe_13325" data-name="Groupe 13325" transform="translate(207.232 308.03)">
      <path id="Tracé_2752" data-name="Tracé 2752" d="M398.3,647.934l-26.592,3.985-6.1.028s-9.836-6.481-13.665-11.184c-.731-.9-3.4-8.643-5.462-14.933-1.282-3.927-2.325-7.288-2.5-8.058-.281-1.227-.132-7.95.028-13l0-.069c.087-2.8.177-5.067.2-5.58l0-.107h0c.052-.028,1.663-.891,3.816.662,2.125,1.532,3.6,11.953,4.2,13.825.582,1.816,7.43,9.8,7.857,10.3l.021.024V611.215l-8.356-22.36s-6.054-9.936-4.641-14.577a2.37,2.37,0,0,1,2.492-1.917q.135.005.26.021a1.747,1.747,0,0,1,1.241.755s5.854,7.635,6.647,8.754c1.778,2.5,6.567,10.66,6.567,10.66l5.6.236a3.712,3.712,0,0,1,2.384.995c1.993,1.861,6.29,5.888,6.817,6.488v0l0,.007.007,0c.655.676,7.85,3.757,11.256,6.761h0a6.215,6.215,0,0,1,1.56,1.889C393.556,612.428,398.3,647.934,398.3,647.934Z" transform="translate(-343.823 -572.32)" fill="#eaad92"/>
      <path id="Tracé_2753" data-name="Tracé 2753" d="M349.737,578.186s5.191,8.474,5.881,8.855,3.358.918,3.663,0S349.737,578.186,349.737,578.186Z" transform="translate(-329.24 -557.954)" fill="#e39b7f"/>
      <path id="Tracé_2754" data-name="Tracé 2754" d="M365.273,587.181c-.062-.017-3.708-1.015-5.3-1.365-1.566-.346-5.767-5.174-5.964-5.4C354.63,581.078,361.86,584.166,365.273,587.181Z" transform="translate(-318.704 -552.455)" fill="#e39b7f"/>
      <path id="Tracé_2755" data-name="Tracé 2755" d="M348.522,596.183V583.571s2.994,5.012,3.223,7.76S350.5,598.529,348.522,596.183Z" transform="translate(-332.235 -544.676)" fill="#e39b7f"/>
      <path id="Tracé_2756" data-name="Tracé 2756" d="M346.475,577.574a22.552,22.552,0,0,1-1.49-2.877,1.431,1.431,0,0,1,.2-1.106,2.472,2.472,0,0,1,.787-.814,2.591,2.591,0,0,1,.551-.3,2.112,2.112,0,0,1,.707-.132.76.76,0,0,1,.6.353v0a21.886,21.886,0,0,1,1.625,2.721,1.4,1.4,0,0,1-.239,1.719l-.211.153-1.078.787A1.024,1.024,0,0,1,346.475,577.574Z" transform="translate(-341.06 -572.348)" fill="#ffd0b1"/>
      <path id="Tracé_2757" data-name="Tracé 2757" d="M346.475,577.113a22.553,22.553,0,0,1-1.49-2.877,1.43,1.43,0,0,1,.2-1.106,2.469,2.469,0,0,1,.229-.17,2.743,2.743,0,0,1,.551-.3,2.2,2.2,0,0,1,.707-.128.747.747,0,0,1,.6.35v0a21.939,21.939,0,0,1,1.625,2.724,1.646,1.646,0,0,1,.107,1.224l-1.078.787A1.024,1.024,0,0,1,346.475,577.113Z" transform="translate(-341.06 -571.887)" fill="#ffbd8f"/>
      <path id="Tracé_2758" data-name="Tracé 2758" d="M380.109,608.547l-10.29,5.33-6.1.028s-9.836-6.481-13.665-11.184c-.731-.9-3.4-8.643-5.462-14.933h0c.274.832,6.01,13.052,7.645,14.438s10.206,9.475,12.577,9.392C367.161,611.538,379.911,608.592,380.109,608.547Z" transform="translate(-341.933 -534.278)" fill="#e39b7f"/>
      <path id="Tracé_2759" data-name="Tracé 2759" d="M350.108,600.406s24.222-9.787,32.342-6.446c0,0,6.942,19.085,11.818,30.1-14.473,0-38.33.083-38.33.083Z" transform="translate(-328.325 -520.775)" fill="#3c7548"/>
      <path id="Tracé_2760" data-name="Tracé 2760" d="M344.081,580.051l-.2,5.756a2.952,2.952,0,0,0,1.9-.315C346.461,584.98,346.1,579.986,344.081,580.051Z" transform="translate(-343.691 -553.355)" fill="#ffbd8f"/>
    </g>
  </g>
</svg>
