<svg xmlns="http://www.w3.org/2000/svg" width="63.172" height="27" viewBox="0 0 63.172 27">
  <g id="Groupe_13968" data-name="Groupe 13968" transform="translate(14053.172 15013)">
    <rect id="Rectangle_9335" data-name="Rectangle 9335" width="63.172" height="27" rx="13" transform="translate(-14053.172 -15013)" fill="#e94f37"/>
    <path id="Tracé_11105" data-name="Tracé 11105" d="M.9-8.316H3.876A2.866,2.866,0,0,1,5.844-7.7a2.029,2.029,0,0,1,.7,1.59,1.843,1.843,0,0,1-1.6,1.836,2.066,2.066,0,0,1,1.3.72A2.051,2.051,0,0,1,6.732-2.2,1.972,1.972,0,0,1,5.994-.624,2.956,2.956,0,0,1,4.02,0H.9Zm1.092.876V-4.7H3.828A1.756,1.756,0,0,0,5.01-5.07a1.245,1.245,0,0,0,.426-1,1.263,1.263,0,0,0-.426-1A1.738,1.738,0,0,0,3.828-7.44Zm0,6.576H3.96A1.816,1.816,0,0,0,5.2-1.26a1.372,1.372,0,0,0,.45-1.086,1.325,1.325,0,0,0-.486-1.086,1.98,1.98,0,0,0-1.29-.4H1.992ZM11,.108A3.032,3.032,0,0,1,8.7-.828,3.444,3.444,0,0,1,7.812-3.3a3.4,3.4,0,0,1,.9-2.466,3.1,3.1,0,0,1,2.334-.93,3.091,3.091,0,0,1,2.3.882,3.07,3.07,0,0,1,.87,2.25,4.108,4.108,0,0,1-.048.648H8.928a2.265,2.265,0,0,0,.618,1.554A1.974,1.974,0,0,0,11-.792a2.039,2.039,0,0,0,1.134-.3,1.782,1.782,0,0,0,.678-.792h1.176A3.024,3.024,0,0,1,12.918-.456,3.13,3.13,0,0,1,11,.108ZM13.08-3.708a2.056,2.056,0,0,0-.6-1.518,2.013,2.013,0,0,0-1.458-.57,2,2,0,0,0-1.446.558,2.234,2.234,0,0,0-.636,1.53Zm-.408-3.456L11-8.2,9.348-7.164v-.924l1.656-1,1.668,1ZM17.736-.888h.9V0h-1.1a1.506,1.506,0,0,1-1.716-1.692V-5.7h-.852v-.888h.852V-8.22h1.1v1.632h1.7V-5.7h-1.7v4.008a.868.868,0,0,0,.18.624A.889.889,0,0,0,17.736-.888ZM24.318-1.5a2.454,2.454,0,0,0,.654-1.788,2.454,2.454,0,0,0-.654-1.788,2.115,2.115,0,0,0-1.572-.672,2.153,2.153,0,0,0-1.572.648,2.371,2.371,0,0,0-.654,1.764,2.525,2.525,0,0,0,.66,1.812,2.093,2.093,0,0,0,1.572.7A2.108,2.108,0,0,0,24.318-1.5ZM22.548.108A2.941,2.941,0,0,1,20.3-.858a3.483,3.483,0,0,1-.9-2.472A3.368,3.368,0,0,1,20.3-5.766a2.99,2.99,0,0,1,2.25-.93,2.7,2.7,0,0,1,1.47.4,2.6,2.6,0,0,1,.954,1.032v-1.32h1.1V0h-1.1V-1.344a2.617,2.617,0,0,1-.954,1.05A2.673,2.673,0,0,1,22.548.108Z" transform="translate(-14025 -14994.916)" fill="#fff"/>
    <g id="Groupe_13969" data-name="Groupe 13969" transform="translate(-14045.172 -15007)">
      <g id="Groupe_13973" data-name="Groupe 13973">
        <g id="Groupe_13975" data-name="Groupe 13975">
          <path id="Tracé_11100" data-name="Tracé 11100" d="M12.076,193.1q-1.123-2.251-2.25-4.5a.353.353,0,0,0-.091-.137,8,8,0,0,0-.892-.281,4.043,4.043,0,0,0-2.415.223l-.25.105a.2.2,0,0,1-.009.021,3.479,3.479,0,0,0-.537.311c-.508.333-1,.686-1.525,1a3.088,3.088,0,0,1-2.341.343.277.277,0,0,0-.049.055c-.51,1.033-1.063,2.045-1.533,3.1a2.26,2.26,0,0,0,1.139,2.927c.212.1.442.129.657.212h8.4c.014-.039.049-.027.076-.032a2.128,2.128,0,0,0,1.261-.666,2.253,2.253,0,0,0,.361-2.674m-7.73,1.549a1.366,1.366,0,1,1,1.375-1.368,1.386,1.386,0,0,1-1.375,1.368m3.2-.465c0,.111,0,.223,0,.334.005.094-.019.137-.125.134-.223-.007-.446-.005-.668,0-.092,0-.125-.027-.123-.121.005-.222.006-.445,0-.667,0-.1.037-.132.133-.126s.223,0,.358,0c.12.018.306-.067.4.034s.02.271.024.411M8,192.822a1.33,1.33,0,0,1-1.36-1.37,1.363,1.363,0,0,1,2.725.006A1.329,1.329,0,0,1,8,192.822" transform="translate(0 -180.938)" fill="#3c7548"/>
          <path id="Tracé_11101" data-name="Tracé 11101" d="M53.067,3.018c0,.592,0,1.183,0,1.775a.585.585,0,0,0,.065.275q.574,1.138,1.143,2.278a.356.356,0,0,1,.068.182,8,8,0,0,0-.892-.281,4.043,4.043,0,0,0-2.415.223l-.25.105a.2.2,0,0,1-.009.021,3.48,3.48,0,0,0-.537.311c-.508.333-1,.686-1.525,1a3.088,3.088,0,0,1-2.341.343.39.39,0,0,1,.072-.2q.995-1.987,1.992-3.973a.617.617,0,0,0,.069-.29q-.005-.956,0-1.911c0-.1-.018-.152-.134-.165A1.36,1.36,0,0,1,47.853.158a1.144,1.144,0,0,1,.426-.14A.088.088,0,0,0,48.331,0h4.937a.159.159,0,0,0,.067.019,1.361,1.361,0,0,1,0,2.67c-.273.051-.273.049-.273.329" transform="translate(-44.607)" fill="#ebebf0"/>
          <path id="Tracé_11102" data-name="Tracé 11102" d="M175.9,240.7a1.351,1.351,0,0,1,1.36,1.362,1.363,1.363,0,1,1-2.725-.006A1.351,1.351,0,0,1,175.9,240.7" transform="translate(-167.894 -231.545)" fill="#47b75e"/>
          <path id="Tracé_11103" data-name="Tracé 11103" d="M174.794,336.07c.12.019.305-.066.4.034s.02.271.024.411c0,.111,0,.223,0,.333.005.094-.019.137-.125.134-.223-.007-.446-.006-.668,0-.092,0-.125-.027-.123-.121.005-.222.006-.445,0-.667,0-.1.037-.132.133-.126.111.007.223,0,.358,0" transform="translate(-167.671 -323.269)" fill="#47b75e"/>
          <path id="Tracé_11104" data-name="Tracé 11104" d="M78.4,289.962a1.369,1.369,0,1,1,1.363,1.364,1.386,1.386,0,0,1-1.363-1.364" transform="translate(-75.418 -277.613)" fill="#47b75e"/>
        </g>
        <g id="Groupe_13974" data-name="Groupe 13974">
          <rect id="Rectangle_9334" data-name="Rectangle 9334" width="12.357" height="15.535" fill="none"/>
        </g>
      </g>
    </g>
  </g>
</svg>
