<svg xmlns="http://www.w3.org/2000/svg" width="32" height="32" viewBox="0 0 32 32"><defs><style>.a{opacity:0.1;}.b{fill:none;}.c{fill:#5c6360;}</style></defs><g transform="translate(-302 -582)"><g transform="translate(0 169)"><g transform="translate(-38 162)"><rect class="a" width="32" height="32" rx="4" transform="translate(340 251)"/></g></g><g transform="translate(308.302 588.302)"><g transform="translate(-0.034 -0.034)"><rect class="b" width="20" height="20" transform="translate(-0.268 -0.268)"/></g><g transform="translate(1.616 1.616)"><path class="c" d="M10.083,2a8.083,8.083,0,1,0,8.083,8.083A8.086,8.086,0,0,0,10.083,2Zm0,14.549a6.464,6.464,0,0,1-6.466-6.466,6.387,6.387,0,0,1,1.366-3.96l9.061,9.061A6.387,6.387,0,0,1,10.083,16.549Zm5.1-2.506L6.122,4.982a6.387,6.387,0,0,1,3.96-1.366,6.464,6.464,0,0,1,6.466,6.466A6.387,6.387,0,0,1,15.183,14.043Z" transform="translate(-2 -2)"/></g></g></g></svg>