<svg version="1.2" xmlns="http://www.w3.org/2000/svg" viewBox="0 0 24 24" width="24" height="24"><style>.a{fill:#474747}</style><path fill-rule="evenodd" class="a" d="m16 7.8c0.3-0.3 0.8-0.3 1.1 0l3.4 3.7c0.3 0.3 0.3 0.7 0 1l-3.4 3.7c-0.3 0.3-0.8 0.3-1.1 0-0.3-0.3-0.3-0.8 0-1.1l2.2-2.3h-6.9c-0.4 0-0.8-0.4-0.8-0.8 0-0.4 0.4-0.7 0.8-0.7h6.9l-2.2-2.4c-0.3-0.3-0.3-0.8 0-1.1z"/><path fill-rule="evenodd" class="a" d="m3.3 4c0-0.4 0.3-0.8 0.7-0.8l9.5 0.1c0.4 0 0.7 0.3 0.7 0.7v3c0 0.4-0.3 0.8-0.7 0.8-0.5 0-0.8-0.4-0.8-0.8v-2.3h-7.9v14.6h7.9v-2.3c0-0.4 0.3-0.7 0.8-0.7 0.4 0 0.7 0.3 0.7 0.7v3c0 0.4-0.3 0.8-0.7 0.8h-9.5c-0.4 0-0.7-0.4-0.7-0.8z"/></svg>