<svg version="1.2" xmlns="http://www.w3.org/2000/svg" viewBox="0 0 24 24" width="24" height="24"><style>.a{fill:#fff}.b{fill:none;stroke:#757575;stroke-linejoin:round}</style><path class="a" d="m0 0h24v24h-24z"/><path class="b" d="m12 21c-5 0-9-4-9-9 0-5 4-9 9-9 5 0 9 4 9 9 0 5-4 9-9 9z"/><path class="b" d="m12 3c0 0-3.5 3-3.5 9 0 6 3.5 9 3.5 9"/><path class="b" d="m12 3c0 0 3.5 3 3.5 9 0 6-3.5 9-3.5 9"/><path class="b" d="m3 12h18"/><path class="b" d="m19.5 7.5h-15"/><path class="b" d="m19.5 16.5h-15"/></svg>