<svg xmlns="http://www.w3.org/2000/svg" xmlns:xlink="http://www.w3.org/1999/xlink" width="24" height="24" viewBox="0 0 24 24">
  <defs>
    <clipPath id="clip-path">
      <rect id="Rectangle_2834" data-name="Rectangle 2834" width="24" height="24" transform="translate(-90.304 330.739)" fill="none"/>
    </clipPath>
  </defs>
  <g id="Groupe_13216" data-name="Groupe 13216" transform="translate(90.305 -330.739)">
    <g id="Groupe_13215" data-name="Groupe 13215" clip-path="url(#clip-path)">
      <g id="Groupe_13214" data-name="Groupe 13214">
        <path id="Tracé_2708" data-name="Tracé 2708" d="M-83.46,336.761c.132-.008.2.1.289.166q2.325,1.738,4.642,3.488a.311.311,0,0,0,.456,0q2.326-1.764,4.667-3.508c.082-.062.174-.111.261-.166q.01,2.058.02,4.117c0,.554.013,1.109.02,1.664l-.034.085-4.6,3.439c-.559.418-.558.42-1.126-.008l-4.591-3.456Q-83.459,339.671-83.46,336.761Z" fill="#e33935"/>
        <path id="Tracé_2709" data-name="Tracé 2709" d="M-73.139,342.608l.034-.085a1.2,1.2,0,0,0,.389-.255q2.146-1.586,4.287-3.176c.008.115.022.229.023.344q0,4.608,0,9.216a1.451,1.451,0,0,1-1.635,1.62c-.912,0-1.824-.014-2.736.007-.3.007-.36-.1-.359-.374.01-2.3.006-4.592.005-6.888C-73.131,342.88-73.136,342.744-73.139,342.608Z" fill="#4cad4f"/>
        <path id="Tracé_2710" data-name="Tracé 2710" d="M-83.522,342.579c.006.094.02.187.02.281,0,2.367,0,4.735.007,7.1,0,.262-.068.332-.33.328-.974-.016-1.948,0-2.923-.008a1.389,1.389,0,0,1-1.443-1.417q-.01-4.794,0-9.586a1.315,1.315,0,0,1,.024-.186c.042.03.085.06.127.092Z" fill="#1e87e4"/>
        <path id="Tracé_2711" data-name="Tracé 2711" d="M-83.522,342.579l-4.52-3.393c-.042-.032-.085-.062-.127-.092a12.679,12.679,0,0,1,0-2.2,1.984,1.984,0,0,1,2.919-1.462,10.54,10.54,0,0,1,1.786,1.325q0,2.912,0,5.822Z" fill="#c42828"/>
        <path id="Tracé_2712" data-name="Tracé 2712" d="M-68.429,339.092q-2.144,1.588-4.287,3.176a1.2,1.2,0,0,1-.389.255c-.007-.555-.017-1.11-.02-1.664q-.012-2.06-.02-4.117a12.1,12.1,0,0,1,1.767-1.3,1.99,1.99,0,0,1,2.963,1.671A17.14,17.14,0,0,1-68.429,339.092Z" fill="#f9be2d"/>
      </g>
    </g>
  </g>
</svg>
