<svg xmlns="http://www.w3.org/2000/svg" xmlns:xlink="http://www.w3.org/1999/xlink" width="24" height="24" viewBox="0 0 24 24">
  <defs>
    <clipPath id="clip-path">
      <rect id="Rectangle_2840" data-name="Rectangle 2840" width="24" height="24" transform="translate(-360.565 330.739)" fill="none"/>
    </clipPath>
  </defs>
  <g id="Groupe_13231" data-name="Groupe 13231" transform="translate(360.565 -330.739)">
    <g id="Groupe_13230" data-name="Groupe 13230" clip-path="url(#clip-path)">
      <g id="Groupe_13229" data-name="Groupe 13229">
        <path id="Tracé_2752" data-name="Tracé 2752" d="M-358.3,347.866V334.287c.026-.025.026-.025.031-.047a1.516,1.516,0,0,1,1.2-1.2c.017-.005.047,0,.047-.031h13.562v4.536c0,.024,0,.048,0,.073-.038,0-.076,0-.113,0h-9.991c-.137,0-.122-.014-.122.122v10.007c0,.035,0,.07,0,.105v.012l-.056,0h-4.5C-358.256,347.863-358.277,347.865-358.3,347.866Z" fill="#4284f3"/>
        <path id="Tracé_2753" data-name="Tracé 2753" d="M-338.832,337.613v10.253a.029.029,0,0,0-.013,0c-.038,0-.076,0-.113,0h-4.479l-.008-.013q0-5.084,0-10.165c0-.019,0-.038,0-.057.032-.022.068-.011.1-.011h4.417Z" fill="#fabb04"/>
        <path id="Tracé_2754" data-name="Tracé 2754" d="M-343.439,352.473h-10.236q0-2.244,0-4.487c0-.04,0-.08-.006-.121v-.011c.029,0,.059.005.089.005h10.052a.217.217,0,0,0,.1-.009l.008.013c0,.035,0,.07,0,.1q0,2.129,0,4.256c0,.078,0,.157,0,.235Z" fill="#34a753"/>
        <path id="Tracé_2755" data-name="Tracé 2755" d="M-353.682,347.865c0,.041.006.081.006.121q0,2.244,0,4.487h-3.359c-.005-.044-.044-.032-.069-.039a1.525,1.525,0,0,1-1.162-1.172c0-.022,0-.053-.034-.055v-3.341c.022,0,.043,0,.065,0h4.5Z" fill="#187f38"/>
        <path id="Tracé_2756" data-name="Tracé 2756" d="M-338.832,337.613l-.1,0h-4.417c-.034,0-.07-.011-.1.011l-.012-.014c0-.025,0-.049,0-.073v-4.536h3.358c-.013.038.021.028.035.031a1.52,1.52,0,0,1,1.2,1.192c.005.017,0,.05.032.043Z" fill="#1967d1"/>
        <path id="Tracé_2757" data-name="Tracé 2757" d="M-343.459,337.614l.012.014c0,.019,0,.038,0,.057q0,5.082,0,10.165a.217.217,0,0,1-.1.009h-10.052c-.03,0-.06,0-.089-.005,0-.036,0-.071,0-.106V337.741c0-.136-.015-.122.122-.122h9.991C-343.535,337.619-343.5,337.616-343.459,337.614Zm-7.49,5.082c0,.124,0,.249,0,.373,0,.055.013.075.071.074.182,0,.363-.005.544,0a1.2,1.2,0,0,1,.758.286.872.872,0,0,1,.052,1.271,1.182,1.182,0,0,1-1.415.166,1.254,1.254,0,0,1-.529-.732c-.011-.038-.011-.08-.076-.053q-.391.166-.786.325c-.039.016-.045.032-.033.072a2.056,2.056,0,0,0,.475.829,2.272,2.272,0,0,0,2.743.326,1.7,1.7,0,0,0,.822-1.805,1.52,1.52,0,0,0-.9-1.117c-.025-.012-.061-.013-.063-.053s.033-.046.057-.06a1.559,1.559,0,0,0,.511-.488,1.513,1.513,0,0,0-.329-1.943,2.066,2.066,0,0,0-1.476-.448,1.862,1.862,0,0,0-1.687,1.171c-.028.06-.015.087.047.111.243.1.485.2.725.3.06.026.083.02.111-.044a.939.939,0,0,1,.8-.641,1.145,1.145,0,0,1,.541.068.723.723,0,0,1,.5.645.77.77,0,0,1-.382.761,1.032,1.032,0,0,1-.5.159c-.173.007-.346.006-.519.005-.049,0-.067.015-.065.065C-350.947,342.447-350.949,342.572-350.949,342.7Zm4.809-1.531a.219.219,0,0,1,.011.111q0,2.217,0,4.435c0,.085.023.1.1.1.246-.005.492,0,.738,0,.133,0,.118.012.118-.116v-5.547c0-.076,0-.152,0-.227,0-.055-.019-.069-.07-.069-.182,0-.363,0-.544,0a.154.154,0,0,0-.1.031q-.828.6-1.657,1.194c-.044.031-.047.053-.018.1.14.209.279.418.415.629.03.047.051.047.093.016.246-.18.494-.358.742-.537Z" fill="#fdfdfd"/>
        <path id="Tracé_2758" data-name="Tracé 2758" d="M-338.845,347.867c-.018.02-.034.042-.053.061l-4.479,4.479a.767.767,0,0,1-.061.052c0-.078,0-.157,0-.235q0-2.127,0-4.256c0-.035,0-.07,0-.1h4.479C-338.921,347.863-338.883,347.866-338.845,347.867Z" fill="#e94335"/>
        <path id="Tracé_2759" data-name="Tracé 2759" d="M-350.949,342.7c0-.124,0-.249,0-.373,0-.05.016-.065.065-.065.173,0,.346,0,.519-.005a1.032,1.032,0,0,0,.5-.159.77.77,0,0,0,.382-.761.723.723,0,0,0-.5-.645,1.145,1.145,0,0,0-.541-.068.939.939,0,0,0-.8.641c-.028.064-.051.07-.111.044-.24-.1-.482-.2-.725-.3-.062-.024-.075-.051-.047-.111a1.862,1.862,0,0,1,1.687-1.171,2.066,2.066,0,0,1,1.476.448,1.513,1.513,0,0,1,.329,1.943,1.559,1.559,0,0,1-.511.488c-.024.014-.06.021-.057.06s.038.041.063.053a1.52,1.52,0,0,1,.9,1.117,1.7,1.7,0,0,1-.822,1.805,2.272,2.272,0,0,1-2.743-.326,2.056,2.056,0,0,1-.475-.829c-.012-.04-.006-.056.033-.072q.395-.159.786-.325c.065-.027.065.015.076.053a1.254,1.254,0,0,0,.529.732,1.182,1.182,0,0,0,1.415-.166.872.872,0,0,0-.052-1.271,1.2,1.2,0,0,0-.758-.286c-.181-.007-.362,0-.544,0-.058,0-.073-.019-.071-.074C-350.947,342.945-350.949,342.82-350.949,342.7Z" fill="#4385f3"/>
        <path id="Tracé_2760" data-name="Tracé 2760" d="M-346.14,341.165l-.165.118c-.248.179-.5.357-.742.537-.042.031-.063.031-.093-.016-.136-.211-.275-.42-.415-.629-.029-.043-.026-.065.018-.1q.829-.6,1.657-1.194a.154.154,0,0,1,.1-.031c.181,0,.362,0,.544,0,.051,0,.073.014.07.069,0,.075,0,.151,0,.227V345.7c0,.128.015.115-.118.116-.246,0-.492,0-.738,0-.081,0-.1-.018-.1-.1q0-2.217,0-4.435A.219.219,0,0,0-346.14,341.165Z" fill="#4385f3"/>
      </g>
    </g>
  </g>
</svg>
