<?xml version="1.0" encoding="utf-8"?>
<!-- Generator: Adobe Illustrator 27.3.1, SVG Export Plug-In . SVG Version: 6.00 Build 0)  -->
<svg version="1.1" id="Layer_1" xmlns="http://www.w3.org/2000/svg" xmlns:xlink="http://www.w3.org/1999/xlink" x="0px" y="0px"
	 viewBox="0 0 50 50" style="enable-background:new 0 0 50 50;" xml:space="preserve">
<style type="text/css">
	.st0{fill:#3C7548;}
	.st1{fill:#FFFFFF;}
</style>
<g id="Groupe_13361" transform="translate(15810 10981)">
	<g>
		<path id="Rectangle_2558_00000149354993490853463570000014609748813847716248_" d="M-15800-10981h30c5.5,0,10,4.5,10,10v30
			c0,5.5-4.5,10-10,10h-30c-5.5,0-10-4.5-10-10v-30C-15810-10976.5-15805.5-10981-15800-10981z"/>
		<path d="M-15777.6-10954.5c0,1.4-0.5,2.5-1.5,3.4c-0.5,0.5-1,0.9-1.5,1.3c-2.4,2-4.8,4-7.2,5.9c-0.7,0.6-1.5,1-2.4,1.1
			c-1,0.1-1.9,0-2.8-0.5c-1.8-0.9-2.9-2.4-3.3-4.4c-0.3-1.6,0.1-3,1.3-4.2c0.7-0.7,1.4-1.3,2.1-1.9c0.2-0.2,0.5-0.2,0.8-0.1
			c0.3,0.2,0.4,0.4,0.4,0.7c0,0.2-0.1,0.4-0.3,0.5c-0.6,0.5-1.2,1.1-1.8,1.6s-1,1.2-1.1,2c-0.1,0.7,0,1.3,0.3,2
			c0.4,1,1.1,1.8,2.1,2.3c1.3,0.7,2.5,0.6,3.7-0.3c0.9-0.7,1.7-1.4,2.6-2.1c1.9-1.6,3.9-3.2,5.8-4.8c0.5-0.4,0.9-1,1.2-1.6
			c0.3-0.8,0.2-1.6-0.1-2.3c-0.6-1.4-1.7-2.3-3.2-2.7c-0.9-0.2-1.8,0-2.6,0.5c-0.9,0.6-1.7,1.2-2.5,2c-0.3,0.3-0.8,0.2-1.1-0.1
			s-0.2-0.8,0.1-1.1c0.6-0.6,1.3-1.1,2.1-1.6c0.4-0.3,0.8-0.6,1.3-0.8c1.3-0.6,2.6-0.6,3.9-0.1c1.9,0.8,3.1,2.1,3.7,4
			c0.1,0.2,0.1,0.4,0.1,0.6C-15777.6-10954.8-15777.6-10954.6-15777.6-10954.5z"/>
		<path d="M-15792.4-10957.7c0-1.3,0.5-2.4,1.4-3.3c0.6-0.6,1.3-1.1,1.9-1.7c2.2-1.9,4.4-3.7,6.7-5.5c0.7-0.6,1.5-1,2.5-1.1
			c1.1-0.2,2.2,0,3.2,0.5c1.7,1,2.8,2.4,3.1,4.4c0.2,1.5-0.2,2.8-1.1,3.9c-0.7,0.7-1.4,1.5-2.2,2.1c-0.4,0.4-1.1,0.2-1.2-0.3
			c-0.1-0.3,0-0.6,0.2-0.8c0.7-0.5,1.2-1.2,1.8-1.8c1-1,1.2-2.1,0.8-3.4c-0.3-1.1-1-1.9-1.9-2.6c-1.3-0.8-2.6-0.8-3.8,0
			c-0.5,0.3-1,0.7-1.5,1.1c-2.5,1.9-4.8,3.9-7.2,6c-0.6,0.5-1,1.1-1.1,1.8c-0.2,0.7-0.1,1.4,0.2,2c0.6,1.4,1.6,2.3,3.1,2.6
			c1.1,0.3,2,0,2.9-0.6c0.6-0.5,1.2-1,1.8-1.5c0.4-0.4,1.1-0.2,1.3,0.4c0.1,0.3,0,0.5-0.2,0.7c-0.7,0.6-1.3,1.1-2,1.6
			c-0.9,0.7-2,1-3.1,0.9s-2.1-0.4-2.9-1.1c-1.2-0.9-2-2-2.3-3.4C-15792.4-10957-15792.4-10957.4-15792.4-10957.7L-15792.4-10957.7z"
			/>
	</g>
	<g>
		<path id="Rectangle_2558_00000033364523582878077570000014718141150499601286_" class="st0" d="M-15800-10981h30
			c5.5,0,10,4.5,10,10v30c0,5.5-4.5,10-10,10h-30c-5.5,0-10-4.5-10-10v-30C-15810-10976.5-15805.5-10981-15800-10981z"/>
		<g id="Layer_1-2">
			<g>
				<path class="st1" d="M-15778.2-10955.1c0,1.3-0.5,2.2-1.3,3.1c-0.4,0.4-0.9,0.8-1.4,1.2c-2.1,1.8-4.3,3.5-6.4,5.3
					c-0.6,0.5-1.3,0.9-2.2,1c-0.9,0.1-1.7,0-2.5-0.4c-1.6-0.8-2.6-2.1-2.9-3.9c-0.3-1.4,0.1-2.7,1.2-3.8c0.6-0.6,1.3-1.2,1.9-1.7
					c0.2-0.2,0.5-0.2,0.7-0.1c0.3,0.1,0.4,0.4,0.4,0.6c0,0.2-0.1,0.3-0.2,0.5c-0.5,0.5-1.1,1-1.6,1.5c-0.5,0.5-0.9,1.1-1,1.8
					c-0.1,0.6,0,1.2,0.3,1.8c0.4,0.9,1,1.6,1.9,2.1c1.1,0.6,2.2,0.5,3.3-0.3c0.8-0.6,1.5-1.2,2.3-1.9c1.7-1.4,3.4-2.9,5.1-4.3
					c0.5-0.4,0.8-0.9,1-1.4c0.2-0.7,0.2-1.4-0.1-2.1c-0.6-1.3-1.5-2.1-2.9-2.4c-0.8-0.2-1.6,0-2.3,0.5c-0.8,0.6-1.5,1.1-2.2,1.7
					c-0.3,0.3-0.7,0.2-1-0.1c-0.2-0.3-0.2-0.7,0.1-0.9c0.6-0.5,1.2-1,1.8-1.4c0.4-0.3,0.7-0.5,1.1-0.7c1.1-0.5,2.3-0.6,3.5-0.1
					c1.7,0.7,2.8,1.9,3.3,3.6c0.1,0.2,0.1,0.4,0.1,0.5C-15778.3-10955.4-15778.3-10955.2-15778.2-10955.1L-15778.2-10955.1z"/>
				<path class="st1" d="M-15791.5-10958c0-1.2,0.4-2.1,1.3-2.9c0.5-0.5,1.1-1,1.7-1.5c1.9-1.7,4-3.3,6-4.9c0.6-0.5,1.4-0.9,2.2-1
					c1-0.2,1.9,0,2.8,0.5c1.5,0.9,2.5,2.2,2.8,3.9c0.2,1.3-0.1,2.5-1,3.4c-0.6,0.7-1.2,1.3-1.9,1.9c-0.4,0.3-0.9,0.2-1.1-0.3
					c-0.1-0.3,0-0.5,0.2-0.7c0.6-0.5,1.1-1,1.6-1.6c0.9-0.9,1.1-1.9,0.7-3c-0.3-1-0.9-1.7-1.7-2.3c-1.1-0.7-2.3-0.7-3.4,0
					c-0.5,0.3-0.9,0.7-1.3,1c-2.2,1.7-4.3,3.5-6.4,5.3c-0.5,0.4-0.9,0.9-1,1.6c-0.1,0.6-0.1,1.2,0.2,1.8c0.5,1.2,1.4,2,2.7,2.4
					c0.9,0.2,1.8,0,2.6-0.6c0.5-0.4,1-0.9,1.6-1.3c0.4-0.3,1-0.2,1.1,0.3c0.1,0.3,0,0.5-0.2,0.7c-0.6,0.5-1.2,1-1.8,1.5
					c-0.8,0.6-1.8,0.9-2.8,0.8c-1-0.1-1.8-0.4-2.6-1c-1-0.8-1.8-1.8-2.1-3C-15791.4-10957.3-15791.4-10957.7-15791.5-10958
					L-15791.5-10958L-15791.5-10958z"/>
			</g>
		</g>
	</g>
</g>
</svg>
