<svg xmlns="http://www.w3.org/2000/svg" xmlns:xlink="http://www.w3.org/1999/xlink" width="134" height="95" viewBox="0 0 134 95">
  <defs>
    <clipPath id="clip-path">
      <rect id="Rectangle_2832" data-name="Rectangle 2832" width="134" height="82" transform="translate(258 489)" fill="#fff" stroke="#707070" stroke-width="1"/>
    </clipPath>
  </defs>
  <g id="Groupe_13182" data-name="Groupe 13182" transform="translate(14144 9329)">
    <g id="Groupe_13181" data-name="Groupe 13181" transform="translate(-14122.297 -9329)">
      <path id="Tracé_2027" data-name="Tracé 2027" d="M2123.851,800.25a1.534,1.534,0,1,0,1.533,1.536A1.536,1.536,0,0,0,2123.851,800.25Zm11.489-3.594a2.2,2.2,0,1,0,2.2,2.2A2.221,2.221,0,0,0,2135.339,796.656Zm0,0a2.2,2.2,0,1,0,2.2,2.2A2.221,2.221,0,0,0,2135.339,796.656Zm0,0a2.2,2.2,0,1,0,2.2,2.2A2.221,2.221,0,0,0,2135.339,796.656Zm0,0a2.2,2.2,0,1,0,2.2,2.2A2.221,2.221,0,0,0,2135.339,796.656Zm0,0a2.2,2.2,0,1,0,2.2,2.2A2.221,2.221,0,0,0,2135.339,796.656Zm0,0a2.2,2.2,0,1,0,2.2,2.2A2.221,2.221,0,0,0,2135.339,796.656Zm0,0a2.2,2.2,0,1,0,2.2,2.2A2.221,2.221,0,0,0,2135.339,796.656Zm5.457,1.22a3.421,3.421,0,0,1-1.065-.03c-.281-.1-.325-.387-.427-.631s-.269-.468-.15-.737c.143-.328.552-.6.8-.85.269-.271-.178-.552-.367-.74-.172-.175-.347-.348-.522-.523-.076-.076-.185-.229-.306-.229-.153,0-.318.241-.412.335-.146.146-.291.291-.436.434a.529.529,0,0,1-.621.126c-.254-.131-.641-.182-.835-.4-.244-.274-.13-.845-.13-1.173,0-.16.032-.4-.2-.4H2134.8c-.131,0-.353-.039-.416.113a1.722,1.722,0,0,0-.015.6c0,.173.015.355,0,.525a.516.516,0,0,1-.333.476c-.269.1-.658.372-.956.311-.355-.071-.663-.53-.9-.767-.118-.118-.244-.249-.4-.094-.133.133-.266.266-.4.4s-.929.73-.7.961a5.189,5.189,0,0,0,.744.747c.273.286.066.6-.056.892-.1.246-.143.532-.427.633a3.666,3.666,0,0,1-1.138.03c-.4,0-.264.638-.264.912,0,.207-.138,1.043.208,1.043a4.961,4.961,0,0,1,1.148.017c.279.069.345.311.436.55.1.266.321.542.192.838-.148.34-.574.626-.831.882s.446.737.592.885c.195.192.547.742.831.456.247-.244.587-.754.951-.826.31-.059.685.207.966.311a.51.51,0,0,1,.33.454,5.555,5.555,0,0,0,0,1.072c0,.325.983.185,1.171.185h.582c.212,0,.2-.2.2-.35,0-.33-.114-.9.1-1.193.185-.249.6-.3.868-.436a.517.517,0,0,1,.594.1l.463.463c.094.094.259.335.412.335s.293-.217.382-.306l.535-.535a2.017,2.017,0,0,0,.333-.333c.167-.168-.086-.35-.195-.458-.266-.266-.836-.646-.668-1.089.148-.4.281-1.018.8-1.018.207,0,1.2.14,1.2-.185v-1.58C2141.146,797.862,2140.937,797.876,2140.8,797.876Zm-2.652,2.546a3.216,3.216,0,1,1-.8-4.074A3.245,3.245,0,0,1,2138.144,800.423Zm-2.8-3.766a2.2,2.2,0,1,0,2.2,2.2A2.221,2.221,0,0,0,2135.339,796.656Zm0,0a2.2,2.2,0,1,0,2.2,2.2A2.221,2.221,0,0,0,2135.339,796.656Zm0,0a2.2,2.2,0,1,0,2.2,2.2A2.221,2.221,0,0,0,2135.339,796.656Zm0,0a2.2,2.2,0,1,0,2.2,2.2A2.221,2.221,0,0,0,2135.339,796.656Zm-11.489,3.594a1.534,1.534,0,1,0,1.533,1.536A1.536,1.536,0,0,0,2123.851,800.25Zm0,0a1.534,1.534,0,1,0,1.533,1.536A1.536,1.536,0,0,0,2123.851,800.25Zm11.489-3.594a2.2,2.2,0,1,0,2.2,2.2A2.221,2.221,0,0,0,2135.339,796.656Zm0,0a2.2,2.2,0,1,0,2.2,2.2A2.221,2.221,0,0,0,2135.339,796.656Zm0,0a2.2,2.2,0,1,0,2.2,2.2A2.221,2.221,0,0,0,2135.339,796.656Zm0,0a2.2,2.2,0,1,0,2.2,2.2A2.221,2.221,0,0,0,2135.339,796.656Zm0,0a2.2,2.2,0,1,0,2.2,2.2A2.221,2.221,0,0,0,2135.339,796.656Zm5.457,1.22a3.421,3.421,0,0,1-1.065-.03c-.281-.1-.325-.387-.427-.631s-.269-.468-.15-.737c.143-.328.552-.6.8-.85.269-.271-.178-.552-.367-.74-.172-.175-.347-.348-.522-.523-.076-.076-.185-.229-.306-.229-.153,0-.318.241-.412.335-.146.146-.291.291-.436.434a.529.529,0,0,1-.621.126c-.254-.131-.641-.182-.835-.4-.244-.274-.13-.845-.13-1.173,0-.16.032-.4-.2-.4H2134.8c-.131,0-.353-.039-.416.113a1.722,1.722,0,0,0-.015.6c0,.173.015.355,0,.525a.516.516,0,0,1-.333.476c-.269.1-.658.372-.956.311-.355-.071-.663-.53-.9-.767-.118-.118-.244-.249-.4-.094-.133.133-.266.266-.4.4s-.929.73-.7.961a5.189,5.189,0,0,0,.744.747c.273.286.066.6-.056.892-.1.246-.143.532-.427.633a3.666,3.666,0,0,1-1.138.03c-.4,0-.264.638-.264.912,0,.207-.138,1.043.208,1.043a4.961,4.961,0,0,1,1.148.017c.279.069.345.311.436.55.1.266.321.542.192.838-.148.34-.574.626-.831.882s.446.737.592.885c.195.192.547.742.831.456.247-.244.587-.754.951-.826.31-.059.685.207.966.311a.51.51,0,0,1,.33.454,5.555,5.555,0,0,0,0,1.072c0,.325.983.185,1.171.185h.582c.212,0,.2-.2.2-.35,0-.33-.114-.9.1-1.193.185-.249.6-.3.868-.436a.517.517,0,0,1,.594.1l.463.463c.094.094.259.335.412.335s.293-.217.382-.306l.535-.535a2.017,2.017,0,0,0,.333-.333c.167-.168-.086-.35-.195-.458-.266-.266-.836-.646-.668-1.089.148-.4.281-1.018.8-1.018.207,0,1.2.14,1.2-.185v-1.58C2141.146,797.862,2140.937,797.876,2140.8,797.876Zm-2.652,2.546a3.216,3.216,0,1,1-.8-4.074A3.245,3.245,0,0,1,2138.144,800.423Zm-2.8-3.766a2.2,2.2,0,1,0,2.2,2.2A2.221,2.221,0,0,0,2135.339,796.656Zm0,0a2.2,2.2,0,1,0,2.2,2.2A2.221,2.221,0,0,0,2135.339,796.656Zm0,0a2.2,2.2,0,1,0,2.2,2.2A2.221,2.221,0,0,0,2135.339,796.656Zm0,0a2.2,2.2,0,1,0,2.2,2.2A2.221,2.221,0,0,0,2135.339,796.656Zm11.148,3.594a1.534,1.534,0,1,0,1.536,1.536A1.535,1.535,0,0,0,2146.487,800.25Zm-11.148-3.594a2.2,2.2,0,1,0,2.2,2.2A2.221,2.221,0,0,0,2135.339,796.656Zm0,0a2.2,2.2,0,1,0,2.2,2.2A2.221,2.221,0,0,0,2135.339,796.656Zm0,0a2.2,2.2,0,1,0,2.2,2.2A2.221,2.221,0,0,0,2135.339,796.656Zm0,0a2.2,2.2,0,1,0,2.2,2.2A2.221,2.221,0,0,0,2135.339,796.656Zm0,0a2.2,2.2,0,1,0,2.2,2.2A2.221,2.221,0,0,0,2135.339,796.656Zm5.457,1.22a3.421,3.421,0,0,1-1.065-.03c-.281-.1-.325-.387-.427-.631s-.269-.468-.15-.737c.143-.328.552-.6.8-.85.269-.271-.178-.552-.367-.74-.172-.175-.347-.348-.522-.523-.076-.076-.185-.229-.306-.229-.153,0-.318.241-.412.335-.146.146-.291.291-.436.434a.529.529,0,0,1-.621.126c-.254-.131-.641-.182-.835-.4-.244-.274-.13-.845-.13-1.173,0-.16.032-.4-.2-.4H2134.8c-.131,0-.353-.039-.416.113a1.722,1.722,0,0,0-.015.6c0,.173.015.355,0,.525a.516.516,0,0,1-.333.476c-.269.1-.658.372-.956.311-.355-.071-.663-.53-.9-.767-.118-.118-.244-.249-.4-.094-.133.133-.266.266-.4.4s-.929.73-.7.961a5.189,5.189,0,0,0,.744.747c.273.286.066.6-.056.892-.1.246-.143.532-.427.633a3.666,3.666,0,0,1-1.138.03c-.4,0-.264.638-.264.912,0,.207-.138,1.043.208,1.043a4.961,4.961,0,0,1,1.148.017c.279.069.345.311.436.55.1.266.321.542.192.838-.148.34-.574.626-.831.882s.446.737.592.885c.195.192.547.742.831.456.247-.244.587-.754.951-.826.31-.059.685.207.966.311a.51.51,0,0,1,.33.454,5.555,5.555,0,0,0,0,1.072c0,.325.983.185,1.171.185h.582c.212,0,.2-.2.2-.35,0-.33-.114-.9.1-1.193.185-.249.6-.3.868-.436a.517.517,0,0,1,.594.1l.463.463c.094.094.259.335.412.335s.293-.217.382-.306l.535-.535a2.017,2.017,0,0,0,.333-.333c.167-.168-.086-.35-.195-.458-.266-.266-.836-.646-.668-1.089.148-.4.281-1.018.8-1.018.207,0,1.2.14,1.2-.185v-1.58C2141.146,797.862,2140.937,797.876,2140.8,797.876Zm-2.652,2.546a3.216,3.216,0,1,1-.8-4.074A3.245,3.245,0,0,1,2138.144,800.423Zm-2.8-3.766a2.2,2.2,0,1,0,2.2,2.2A2.221,2.221,0,0,0,2135.339,796.656Zm0,0a2.2,2.2,0,1,0,2.2,2.2A2.221,2.221,0,0,0,2135.339,796.656Zm0,0a2.2,2.2,0,1,0,2.2,2.2A2.221,2.221,0,0,0,2135.339,796.656Zm0,0a2.2,2.2,0,1,0,2.2,2.2A2.221,2.221,0,0,0,2135.339,796.656Zm-11.489,3.594a1.534,1.534,0,1,0,1.533,1.536A1.536,1.536,0,0,0,2123.851,800.25Zm22.789,5.42c-.36.01-.932.177-.983.36a.534.534,0,0,1-.131.224l-2.031,2.028a.5.5,0,0,1-.357.15h-3.34a.341.341,0,0,0-.343.34.348.348,0,0,0,.343.362h3.84l1.109-1.109a.508.508,0,0,1,.868.357v4.254a.507.507,0,0,1-.508.508H2141.9a.031.031,0,0,0-.027.027l-.69,5.095a.569.569,0,0,0,.486.638c.049.005.074.007.1.007a.572.572,0,0,0,.562-.49l.5-3.685a.507.507,0,0,1,.5-.439h3.7a.588.588,0,0,0,.586-.587.239.239,0,0,1,0-.042l.022-.409v-6.593A1,1,0,0,0,2146.64,805.67Zm-22.789-5.42a1.534,1.534,0,1,0,1.533,1.536A1.536,1.536,0,0,0,2123.851,800.25Zm11.489-3.594a2.2,2.2,0,1,0,2.2,2.2A2.221,2.221,0,0,0,2135.339,796.656Zm0,0a2.2,2.2,0,1,0,2.2,2.2A2.221,2.221,0,0,0,2135.339,796.656Zm0,0a2.2,2.2,0,1,0,2.2,2.2A2.221,2.221,0,0,0,2135.339,796.656Zm5.457,1.22a3.421,3.421,0,0,1-1.065-.03c-.281-.1-.325-.387-.427-.631s-.269-.468-.15-.737c.143-.328.552-.6.8-.85.269-.271-.178-.552-.367-.74-.172-.175-.347-.348-.522-.523-.076-.076-.185-.229-.306-.229-.153,0-.318.241-.412.335-.146.146-.291.291-.436.434a.529.529,0,0,1-.621.126c-.254-.131-.641-.182-.835-.4-.244-.274-.13-.845-.13-1.173,0-.16.032-.4-.2-.4H2134.8c-.131,0-.353-.039-.416.113a1.722,1.722,0,0,0-.015.6c0,.173.015.355,0,.525a.516.516,0,0,1-.333.476c-.269.1-.658.372-.956.311-.355-.071-.663-.53-.9-.767-.118-.118-.244-.249-.4-.094-.133.133-.266.266-.4.4s-.929.73-.7.961a5.189,5.189,0,0,0,.744.747c.273.286.066.6-.056.892-.1.246-.143.532-.427.633a3.666,3.666,0,0,1-1.138.03c-.4,0-.264.638-.264.912,0,.207-.138,1.043.208,1.043a4.961,4.961,0,0,1,1.148.017c.279.069.345.311.436.55.1.266.321.542.192.838-.148.34-.574.626-.831.882s.446.737.592.885c.195.192.547.742.831.456.247-.244.587-.754.951-.826.31-.059.685.207.966.311a.51.51,0,0,1,.33.454,5.555,5.555,0,0,0,0,1.072c0,.325.983.185,1.171.185h.582c.212,0,.2-.2.2-.35,0-.33-.114-.9.1-1.193.185-.249.6-.3.868-.436a.517.517,0,0,1,.594.1l.463.463c.094.094.259.335.412.335s.293-.217.382-.306l.535-.535a2.017,2.017,0,0,0,.333-.333c.167-.168-.086-.35-.195-.458-.266-.266-.836-.646-.668-1.089.148-.4.281-1.018.8-1.018.207,0,1.2.14,1.2-.185v-1.58C2141.146,797.862,2140.937,797.876,2140.8,797.876Zm-2.652,2.546a3.216,3.216,0,1,1-.8-4.074A3.245,3.245,0,0,1,2138.144,800.423Zm-2.8-3.766a2.2,2.2,0,1,0,2.2,2.2A2.221,2.221,0,0,0,2135.339,796.656Zm0,0a2.2,2.2,0,1,0,2.2,2.2A2.221,2.221,0,0,0,2135.339,796.656Zm11.148,3.594a1.534,1.534,0,1,0,1.536,1.536A1.535,1.535,0,0,0,2146.487,800.25Zm0,0a1.534,1.534,0,1,0,1.536,1.536A1.535,1.535,0,0,0,2146.487,800.25Zm.153,5.42c-.36.01-.932.177-.983.36a.534.534,0,0,1-.131.224l-2.031,2.028a.5.5,0,0,1-.357.15h-3.34a.341.341,0,0,0-.343.34.348.348,0,0,0,.343.362h3.84l1.109-1.109a.508.508,0,0,1,.868.357v4.254a.507.507,0,0,1-.508.508H2141.9a.031.031,0,0,0-.027.027l-.69,5.095a.569.569,0,0,0,.486.638c.049.005.074.007.1.007a.572.572,0,0,0,.562-.49l.5-3.685a.507.507,0,0,1,.5-.439h3.7a.588.588,0,0,0,.586-.587.239.239,0,0,1,0-.042l.022-.409v-6.593A1,1,0,0,0,2146.64,805.67Zm-11.3-9.013a2.2,2.2,0,1,0,2.2,2.2A2.221,2.221,0,0,0,2135.339,796.656Zm0,0a2.2,2.2,0,1,0,2.2,2.2A2.221,2.221,0,0,0,2135.339,796.656Zm0,0a2.2,2.2,0,1,0,2.2,2.2A2.221,2.221,0,0,0,2135.339,796.656Zm5.457,1.22a3.421,3.421,0,0,1-1.065-.03c-.281-.1-.325-.387-.427-.631s-.269-.468-.15-.737c.143-.328.552-.6.8-.85.269-.271-.178-.552-.367-.74-.172-.175-.347-.348-.522-.523-.076-.076-.185-.229-.306-.229-.153,0-.318.241-.412.335-.146.146-.291.291-.436.434a.529.529,0,0,1-.621.126c-.254-.131-.641-.182-.835-.4-.244-.274-.13-.845-.13-1.173,0-.16.032-.4-.2-.4H2134.8c-.131,0-.353-.039-.416.113a1.722,1.722,0,0,0-.015.6c0,.173.015.355,0,.525a.516.516,0,0,1-.333.476c-.269.1-.658.372-.956.311-.355-.071-.663-.53-.9-.767-.118-.118-.244-.249-.4-.094-.133.133-.266.266-.4.4s-.929.73-.7.961a5.189,5.189,0,0,0,.744.747c.273.286.066.6-.056.892-.1.246-.143.532-.427.633a3.666,3.666,0,0,1-1.138.03c-.4,0-.264.638-.264.912,0,.207-.138,1.043.208,1.043a4.961,4.961,0,0,1,1.148.017c.279.069.345.311.436.55.1.266.321.542.192.838-.148.34-.574.626-.831.882s.446.737.592.885c.195.192.547.742.831.456.247-.244.587-.754.951-.826.31-.059.685.207.966.311a.51.51,0,0,1,.33.454,5.555,5.555,0,0,0,0,1.072c0,.325.983.185,1.171.185h.582c.212,0,.2-.2.2-.35,0-.33-.114-.9.1-1.193.185-.249.6-.3.868-.436a.517.517,0,0,1,.594.1l.463.463c.094.094.259.335.412.335s.293-.217.382-.306l.535-.535a2.017,2.017,0,0,0,.333-.333c.167-.168-.086-.35-.195-.458-.266-.266-.836-.646-.668-1.089.148-.4.281-1.018.8-1.018.207,0,1.2.14,1.2-.185v-1.58C2141.146,797.862,2140.937,797.876,2140.8,797.876Zm-2.652,2.546a3.216,3.216,0,1,1-.8-4.074A3.245,3.245,0,0,1,2138.144,800.423Zm-2.8-3.766a2.2,2.2,0,1,0,2.2,2.2A2.221,2.221,0,0,0,2135.339,796.656Zm0,0a2.2,2.2,0,1,0,2.2,2.2A2.221,2.221,0,0,0,2135.339,796.656Zm-11.489,3.594a1.534,1.534,0,1,0,1.533,1.536A1.536,1.536,0,0,0,2123.851,800.25Zm22.789,5.42c-.36.01-.932.177-.983.36a.534.534,0,0,1-.131.224l-2.031,2.028a.5.5,0,0,1-.357.15h-3.34a.341.341,0,0,0-.343.34.348.348,0,0,0,.343.362h3.84l1.109-1.109a.508.508,0,0,1,.868.357v4.254a.507.507,0,0,1-.508.508H2141.9a.031.031,0,0,0-.027.027l-.69,5.095a.569.569,0,0,0,.486.638c.049.005.074.007.1.007a.572.572,0,0,0,.562-.49l.5-3.685a.507.507,0,0,1,.5-.439h3.7a.588.588,0,0,0,.586-.587.239.239,0,0,1,0-.042l.022-.409v-6.593A1,1,0,0,0,2146.64,805.67Zm-22.789-5.42a1.534,1.534,0,1,0,1.533,1.536A1.536,1.536,0,0,0,2123.851,800.25Zm11.489-3.594a2.2,2.2,0,1,0,2.2,2.2A2.221,2.221,0,0,0,2135.339,796.656Zm5.457,1.22a3.421,3.421,0,0,1-1.065-.03c-.281-.1-.325-.387-.427-.631s-.269-.468-.15-.737c.143-.328.552-.6.8-.85.269-.271-.178-.552-.367-.74-.172-.175-.347-.348-.522-.523-.076-.076-.185-.229-.306-.229-.153,0-.318.241-.412.335-.146.146-.291.291-.436.434a.529.529,0,0,1-.621.126c-.254-.131-.641-.182-.835-.4-.244-.274-.13-.845-.13-1.173,0-.16.032-.4-.2-.4H2134.8c-.131,0-.353-.039-.416.113a1.722,1.722,0,0,0-.015.6c0,.173.015.355,0,.525a.516.516,0,0,1-.333.476c-.269.1-.658.372-.956.311-.355-.071-.663-.53-.9-.767-.118-.118-.244-.249-.4-.094-.133.133-.266.266-.4.4s-.929.73-.7.961a5.189,5.189,0,0,0,.744.747c.273.286.066.6-.056.892-.1.246-.143.532-.427.633a3.666,3.666,0,0,1-1.138.03c-.4,0-.264.638-.264.912,0,.207-.138,1.043.208,1.043a4.961,4.961,0,0,1,1.148.017c.279.069.345.311.436.55.1.266.321.542.192.838-.148.34-.574.626-.831.882s.446.737.592.885c.195.192.547.742.831.456.247-.244.587-.754.951-.826.31-.059.685.207.966.311a.51.51,0,0,1,.33.454,5.555,5.555,0,0,0,0,1.072c0,.325.983.185,1.171.185h.582c.212,0,.2-.2.2-.35,0-.33-.114-.9.1-1.193.185-.249.6-.3.868-.436a.517.517,0,0,1,.594.1l.463.463c.094.094.259.335.412.335s.293-.217.382-.306l.535-.535a2.017,2.017,0,0,0,.333-.333c.167-.168-.086-.35-.195-.458-.266-.266-.836-.646-.668-1.089.148-.4.281-1.018.8-1.018.207,0,1.2.14,1.2-.185v-1.58C2141.146,797.862,2140.937,797.876,2140.8,797.876Zm-2.652,2.546a3.216,3.216,0,1,1-.8-4.074A3.245,3.245,0,0,1,2138.144,800.423Zm8.343-.173a1.534,1.534,0,1,0,1.536,1.536A1.535,1.535,0,0,0,2146.487,800.25Zm0,3.069a1.534,1.534,0,1,0-1.533-1.533A1.535,1.535,0,0,0,2146.487,803.319Zm1.126,10.394a.239.239,0,0,1,0-.042l.022-.409v-6.593a1,1,0,0,0-1-1c-.36.01-.932.177-.983.36a.534.534,0,0,1-.131.224l-2.031,2.028a.5.5,0,0,1-.357.15h-3.34a.341.341,0,0,0-.343.34.348.348,0,0,0,.343.362h3.84l1.109-1.109a.508.508,0,0,1,.868.357v4.254a.507.507,0,0,1-.508.508H2141.9a.031.031,0,0,0-.027.027l-.69,5.095a.569.569,0,0,0,.486.638c.049.005.074.007.1.007a.572.572,0,0,0,.562-.49l.5-3.685a.507.507,0,0,1,.5-.439h3.7A.588.588,0,0,0,2147.614,813.712Zm-12.274-12.661a2.2,2.2,0,1,0-2.2-2.2A2.22,2.22,0,0,0,2135.339,801.051Zm-5.587-1.22a4.961,4.961,0,0,1,1.148.017c.279.069.345.311.436.55.1.266.321.542.192.838-.148.34-.574.626-.831.882s.446.737.592.885c.195.192.547.742.831.456.247-.244.587-.754.951-.826.31-.059.685.207.966.311a.51.51,0,0,1,.33.454,5.555,5.555,0,0,0,0,1.072c0,.325.983.185,1.171.185h.582c.212,0,.2-.2.2-.35,0-.33-.114-.9.1-1.193.185-.249.6-.3.868-.436a.517.517,0,0,1,.594.1l.463.463c.094.094.259.335.412.335s.293-.217.382-.306l.535-.535a2.017,2.017,0,0,0,.333-.333c.167-.168-.086-.35-.195-.458-.266-.266-.836-.646-.668-1.089.148-.4.281-1.018.8-1.018.207,0,1.2.14,1.2-.185v-1.58c0-.2-.21-.19-.35-.19a3.421,3.421,0,0,1-1.065-.03c-.281-.1-.325-.387-.427-.631s-.269-.468-.15-.737c.143-.328.552-.6.8-.85.269-.271-.178-.552-.367-.74-.172-.175-.347-.348-.522-.523-.076-.076-.185-.229-.306-.229-.153,0-.318.241-.412.335-.146.146-.291.291-.436.434a.529.529,0,0,1-.621.126c-.254-.131-.641-.182-.835-.4-.244-.274-.13-.845-.13-1.173,0-.16.032-.4-.2-.4H2134.8c-.131,0-.353-.039-.416.113a1.722,1.722,0,0,0-.015.6c0,.173.015.355,0,.525a.516.516,0,0,1-.333.476c-.269.1-.658.372-.956.311-.355-.071-.663-.53-.9-.767-.118-.118-.244-.249-.4-.094-.133.133-.266.266-.4.4s-.929.73-.7.961a5.189,5.189,0,0,0,.744.747c.273.286.066.6-.056.892-.1.246-.143.532-.427.633a3.666,3.666,0,0,1-1.138.03c-.4,0-.264.638-.264.912C2129.544,799,2129.406,799.831,2129.752,799.831Zm2.423-1.533a3.214,3.214,0,1,1,2.083,3.581A3.247,3.247,0,0,1,2132.175,798.3Zm-8.324,5.021a1.534,1.534,0,1,0-1.535-1.533A1.535,1.535,0,0,0,2123.851,803.319Zm11.326-22.74a25.4,25.4,0,1,0,25.4,25.4A25.4,25.4,0,0,0,2135.177,780.579Zm11.311,18.656a2.55,2.55,0,1,1-2.549,2.551A2.553,2.553,0,0,1,2146.487,799.234Zm-17.694-1.922c.4-.5.991-.451,1.565-.451.254,0-.138-.316-.192-.37a1.918,1.918,0,0,1-.463-.6,1.351,1.351,0,0,1,.475-1.513l.9-.9a1.231,1.231,0,0,1,1.777.074c.116.113.335.449.5.385.057-.049,0-.505,0-.587a1.232,1.232,0,0,1,1.2-1.311c.409-.015.821,0,1.227,0a1.419,1.419,0,0,1,1.39.6,1.542,1.542,0,0,1,.165.826c0,.035-.007.594.079.505.377-.377.717-.811,1.3-.831a1.707,1.707,0,0,1,1.269.715,5.8,5.8,0,0,1,.922.971c.4.66.044,1.247-.429,1.72-.1.1-.4.32-.108.32h.594a1.214,1.214,0,0,1,1.2,1.109c.025.291,0,.592,0,.885s.02.591,0,.885a1.214,1.214,0,0,1-1.1,1.1c-.229.017-.461,0-.69,0-.264,0-.034.175.064.274.463.463.863,1,.523,1.683a4.537,4.537,0,0,1-.925,1.008c-.389.392-.754.821-1.373.769a1.369,1.369,0,0,1-.86-.463c-.108-.106-.306-.412-.456-.35-.071.076,0,.525,0,.638a1.265,1.265,0,0,1-.263.816,1.6,1.6,0,0,1-1.408.449,8.421,8.421,0,0,1-1.3-.015,1.273,1.273,0,0,1-1.016-1.407c0-.049.03-.616-.1-.488l-.451.451a1.228,1.228,0,0,1-1.78-.037l-.976-.976a1.238,1.238,0,0,1-.151-1.711c.148-.173.32-.325.481-.486.187-.187-.1-.155-.239-.155-.631,0-1.257-.084-1.526-.754a3.871,3.871,0,0,1-.086-1.37A2.113,2.113,0,0,1,2128.793,797.312Zm-4.942,1.922a2.55,2.55,0,1,1-2.551,2.551A2.552,2.552,0,0,1,2123.851,799.234Zm2.053,17.433h-1.88v2.753a.508.508,0,0,1-1.016,0v-2.753H2123a2.915,2.915,0,0,1-2.669-1.743.443.443,0,0,1-.035-.123l-.555-3.468a.508.508,0,0,1,1-.16l.542,3.4a1.9,1.9,0,0,0,1.713,1.079h2.9a.508.508,0,0,1,0,1.015Zm3.948,2.635a1.567,1.567,0,0,1-1.045.609,1.739,1.739,0,0,1-.234.017,1.591,1.591,0,0,1-1.568-1.368l-.441-3.246h-3.253a1.605,1.605,0,0,1-1.6-1.6l-.022-.392,0-6.652a2.017,2.017,0,0,1,2.013-2.014h.049c.155.007,1.486.079,1.863,1l1.8,1.8h3.125a1.367,1.367,0,0,1,0,2.733h-4.05a.514.514,0,0,1-.36-.148l-.392-.392v2.482h2.7a1.047,1.047,0,0,1,1.033.9l.69,5.1A1.574,1.574,0,0,1,2129.853,819.3Zm6,.118a.508.508,0,1,1-1.015,0v-7.574h-4.525a.508.508,0,1,1,0-1.016h10.069a.508.508,0,1,1,0,1.016h-4.528Zm7.481-.86a1.589,1.589,0,0,1-1.568,1.368,1.557,1.557,0,0,1-.212-.015,1.588,1.588,0,0,1-1.378-1.782l.69-5.1a1.049,1.049,0,0,1,1.033-.9h2.7v-2.519l-.392.392a.515.515,0,0,1-.36.148h-4.05a1.367,1.367,0,0,1,0-2.733h3.13l1.8-1.8c.392-.917,1.864-.961,1.878-.961a2.025,2.025,0,0,1,2.046,2.014v6.623l-.025.439a1.6,1.6,0,0,1-1.6,1.585h-3.254Zm7.273-6.837-.552,3.088a.381.381,0,0,1-.035.113,2.909,2.909,0,0,1-2.667,1.743h-.007v2.753a.508.508,0,0,1-1.016,0v-2.753h-1.883a.508.508,0,1,1,0-1.015h2.906a1.9,1.9,0,0,0,1.716-1.082l.54-3.024a.507.507,0,1,1,1,.177Zm-26.755-11.473a1.534,1.534,0,1,0,1.533,1.536A1.536,1.536,0,0,0,2123.851,800.25Zm11.489-3.594a2.2,2.2,0,1,0,2.2,2.2A2.221,2.221,0,0,0,2135.339,796.656Zm0,0a2.2,2.2,0,1,0,2.2,2.2A2.221,2.221,0,0,0,2135.339,796.656Zm5.457,1.22a3.421,3.421,0,0,1-1.065-.03c-.281-.1-.325-.387-.427-.631s-.269-.468-.15-.737c.143-.328.552-.6.8-.85.269-.271-.178-.552-.367-.74-.172-.175-.347-.348-.522-.523-.076-.076-.185-.229-.306-.229-.153,0-.318.241-.412.335-.146.146-.291.291-.436.434a.529.529,0,0,1-.621.126c-.254-.131-.641-.182-.835-.4-.244-.274-.13-.845-.13-1.173,0-.16.032-.4-.2-.4H2134.8c-.131,0-.353-.039-.416.113a1.722,1.722,0,0,0-.015.6c0,.173.015.355,0,.525a.516.516,0,0,1-.333.476c-.269.1-.658.372-.956.311-.355-.071-.663-.53-.9-.767-.118-.118-.244-.249-.4-.094-.133.133-.266.266-.4.4s-.929.73-.7.961a5.189,5.189,0,0,0,.744.747c.273.286.066.6-.056.892-.1.246-.143.532-.427.633a3.666,3.666,0,0,1-1.138.03c-.4,0-.264.638-.264.912,0,.207-.138,1.043.208,1.043a4.961,4.961,0,0,1,1.148.017c.279.069.345.311.436.55.1.266.321.542.192.838-.148.34-.574.626-.831.882s.446.737.592.885c.195.192.547.742.831.456.247-.244.587-.754.951-.826.31-.059.685.207.966.311a.51.51,0,0,1,.33.454,5.555,5.555,0,0,0,0,1.072c0,.325.983.185,1.171.185h.582c.212,0,.2-.2.2-.35,0-.33-.114-.9.1-1.193.185-.249.6-.3.868-.436a.517.517,0,0,1,.594.1l.463.463c.094.094.259.335.412.335s.293-.217.382-.306l.535-.535a2.017,2.017,0,0,0,.333-.333c.167-.168-.086-.35-.195-.458-.266-.266-.836-.646-.668-1.089.148-.4.281-1.018.8-1.018.207,0,1.2.14,1.2-.185v-1.58C2141.146,797.862,2140.937,797.876,2140.8,797.876Zm-2.652,2.546a3.216,3.216,0,1,1-.8-4.074A3.245,3.245,0,0,1,2138.144,800.423Zm-2.8-3.766a2.2,2.2,0,1,0,2.2,2.2A2.221,2.221,0,0,0,2135.339,796.656Zm11.3,9.013c-.36.01-.932.177-.983.36a.534.534,0,0,1-.131.224l-2.031,2.028a.5.5,0,0,1-.357.15h-3.34a.341.341,0,0,0-.343.34.348.348,0,0,0,.343.362h3.84l1.109-1.109a.508.508,0,0,1,.868.357v4.254a.507.507,0,0,1-.508.508H2141.9a.031.031,0,0,0-.027.027l-.69,5.095a.569.569,0,0,0,.486.638c.049.005.074.007.1.007a.572.572,0,0,0,.562-.49l.5-3.685a.507.507,0,0,1,.5-.439h3.7a.588.588,0,0,0,.586-.587.239.239,0,0,1,0-.042l.022-.409v-6.593A1,1,0,0,0,2146.64,805.67Zm-.153-5.42a1.534,1.534,0,1,0,1.536,1.536A1.535,1.535,0,0,0,2146.487,800.25Zm0,0a1.534,1.534,0,1,0,1.536,1.536A1.535,1.535,0,0,0,2146.487,800.25Zm-11.148-3.594a2.2,2.2,0,1,0,2.2,2.2A2.221,2.221,0,0,0,2135.339,796.656Zm0,0a2.2,2.2,0,1,0,2.2,2.2A2.221,2.221,0,0,0,2135.339,796.656Zm5.457,1.22a3.421,3.421,0,0,1-1.065-.03c-.281-.1-.325-.387-.427-.631s-.269-.468-.15-.737c.143-.328.552-.6.8-.85.269-.271-.178-.552-.367-.74-.172-.175-.347-.348-.522-.523-.076-.076-.185-.229-.306-.229-.153,0-.318.241-.412.335-.146.146-.291.291-.436.434a.529.529,0,0,1-.621.126c-.254-.131-.641-.182-.835-.4-.244-.274-.13-.845-.13-1.173,0-.16.032-.4-.2-.4H2134.8c-.131,0-.353-.039-.416.113a1.722,1.722,0,0,0-.015.6c0,.173.015.355,0,.525a.516.516,0,0,1-.333.476c-.269.1-.658.372-.956.311-.355-.071-.663-.53-.9-.767-.118-.118-.244-.249-.4-.094-.133.133-.266.266-.4.4s-.929.73-.7.961a5.189,5.189,0,0,0,.744.747c.273.286.066.6-.056.892-.1.246-.143.532-.427.633a3.666,3.666,0,0,1-1.138.03c-.4,0-.264.638-.264.912,0,.207-.138,1.043.208,1.043a4.961,4.961,0,0,1,1.148.017c.279.069.345.311.436.55.1.266.321.542.192.838-.148.34-.574.626-.831.882s.446.737.592.885c.195.192.547.742.831.456.247-.244.587-.754.951-.826.31-.059.685.207.966.311a.51.51,0,0,1,.33.454,5.555,5.555,0,0,0,0,1.072c0,.325.983.185,1.171.185h.582c.212,0,.2-.2.2-.35,0-.33-.114-.9.1-1.193.185-.249.6-.3.868-.436a.517.517,0,0,1,.594.1l.463.463c.094.094.259.335.412.335s.293-.217.382-.306l.535-.535a2.017,2.017,0,0,0,.333-.333c.167-.168-.086-.35-.195-.458-.266-.266-.836-.646-.668-1.089.148-.4.281-1.018.8-1.018.207,0,1.2.14,1.2-.185v-1.58C2141.146,797.862,2140.937,797.876,2140.8,797.876Zm-2.652,2.546a3.216,3.216,0,1,1-.8-4.074A3.245,3.245,0,0,1,2138.144,800.423Zm-2.8-3.766a2.2,2.2,0,1,0,2.2,2.2A2.221,2.221,0,0,0,2135.339,796.656Zm-11.489,3.594a1.534,1.534,0,1,0,1.533,1.536A1.536,1.536,0,0,0,2123.851,800.25Zm22.789,5.42c-.36.01-.932.177-.983.36a.534.534,0,0,1-.131.224l-2.031,2.028a.5.5,0,0,1-.357.15h-3.34a.341.341,0,0,0-.343.34.348.348,0,0,0,.343.362h3.84l1.109-1.109a.508.508,0,0,1,.868.357v4.254a.507.507,0,0,1-.508.508H2141.9a.031.031,0,0,0-.027.027l-.69,5.095a.569.569,0,0,0,.486.638c.049.005.074.007.1.007a.572.572,0,0,0,.562-.49l.5-3.685a.507.507,0,0,1,.5-.439h3.7a.588.588,0,0,0,.586-.587.239.239,0,0,1,0-.042l.022-.409v-6.593A1,1,0,0,0,2146.64,805.67Zm-22.789-5.42a1.534,1.534,0,1,0,1.533,1.536A1.536,1.536,0,0,0,2123.851,800.25Zm11.489-3.594a2.2,2.2,0,1,0,2.2,2.2A2.221,2.221,0,0,0,2135.339,796.656Zm0,0a2.2,2.2,0,1,0,2.2,2.2A2.221,2.221,0,0,0,2135.339,796.656Zm0,0a2.2,2.2,0,1,0,2.2,2.2A2.221,2.221,0,0,0,2135.339,796.656Zm0,0a2.2,2.2,0,1,0,2.2,2.2A2.221,2.221,0,0,0,2135.339,796.656Zm5.457,1.22a3.421,3.421,0,0,1-1.065-.03c-.281-.1-.325-.387-.427-.631s-.269-.468-.15-.737c.143-.328.552-.6.8-.85.269-.271-.178-.552-.367-.74-.172-.175-.347-.348-.522-.523-.076-.076-.185-.229-.306-.229-.153,0-.318.241-.412.335-.146.146-.291.291-.436.434a.529.529,0,0,1-.621.126c-.254-.131-.641-.182-.835-.4-.244-.274-.13-.845-.13-1.173,0-.16.032-.4-.2-.4H2134.8c-.131,0-.353-.039-.416.113a1.722,1.722,0,0,0-.015.6c0,.173.015.355,0,.525a.516.516,0,0,1-.333.476c-.269.1-.658.372-.956.311-.355-.071-.663-.53-.9-.767-.118-.118-.244-.249-.4-.094-.133.133-.266.266-.4.4s-.929.73-.7.961a5.189,5.189,0,0,0,.744.747c.273.286.066.6-.056.892-.1.246-.143.532-.427.633a3.666,3.666,0,0,1-1.138.03c-.4,0-.264.638-.264.912,0,.207-.138,1.043.208,1.043a4.961,4.961,0,0,1,1.148.017c.279.069.345.311.436.55.1.266.321.542.192.838-.148.34-.574.626-.831.882s.446.737.592.885c.195.192.547.742.831.456.247-.244.587-.754.951-.826.31-.059.685.207.966.311a.51.51,0,0,1,.33.454,5.555,5.555,0,0,0,0,1.072c0,.325.983.185,1.171.185h.582c.212,0,.2-.2.2-.35,0-.33-.114-.9.1-1.193.185-.249.6-.3.868-.436a.517.517,0,0,1,.594.1l.463.463c.094.094.259.335.412.335s.293-.217.382-.306l.535-.535a2.017,2.017,0,0,0,.333-.333c.167-.168-.086-.35-.195-.458-.266-.266-.836-.646-.668-1.089.148-.4.281-1.018.8-1.018.207,0,1.2.14,1.2-.185v-1.58C2141.146,797.862,2140.937,797.876,2140.8,797.876Zm-2.652,2.546a3.216,3.216,0,1,1-.8-4.074A3.245,3.245,0,0,1,2138.144,800.423Zm-2.8-3.766a2.2,2.2,0,1,0,2.2,2.2A2.221,2.221,0,0,0,2135.339,796.656Zm0,0a2.2,2.2,0,1,0,2.2,2.2A2.221,2.221,0,0,0,2135.339,796.656Zm0,0a2.2,2.2,0,1,0,2.2,2.2A2.221,2.221,0,0,0,2135.339,796.656Zm11.3,9.013c-.36.01-.932.177-.983.36a.534.534,0,0,1-.131.224l-2.031,2.028a.5.5,0,0,1-.357.15h-3.34a.341.341,0,0,0-.343.34.348.348,0,0,0,.343.362h3.84l1.109-1.109a.508.508,0,0,1,.868.357v4.254a.507.507,0,0,1-.508.508H2141.9a.031.031,0,0,0-.027.027l-.69,5.095a.569.569,0,0,0,.486.638c.049.005.074.007.1.007a.572.572,0,0,0,.562-.49l.5-3.685a.507.507,0,0,1,.5-.439h3.7a.588.588,0,0,0,.586-.587.239.239,0,0,1,0-.042l.022-.409v-6.593A1,1,0,0,0,2146.64,805.67Zm-.153-5.42a1.534,1.534,0,1,0,1.536,1.536A1.535,1.535,0,0,0,2146.487,800.25Zm0,0a1.534,1.534,0,1,0,1.536,1.536A1.535,1.535,0,0,0,2146.487,800.25Zm-11.148-3.594a2.2,2.2,0,1,0,2.2,2.2A2.221,2.221,0,0,0,2135.339,796.656Zm0,0a2.2,2.2,0,1,0,2.2,2.2A2.221,2.221,0,0,0,2135.339,796.656Zm0,0a2.2,2.2,0,1,0,2.2,2.2A2.221,2.221,0,0,0,2135.339,796.656Zm0,0a2.2,2.2,0,1,0,2.2,2.2A2.221,2.221,0,0,0,2135.339,796.656Zm5.457,1.22a3.421,3.421,0,0,1-1.065-.03c-.281-.1-.325-.387-.427-.631s-.269-.468-.15-.737c.143-.328.552-.6.8-.85.269-.271-.178-.552-.367-.74-.172-.175-.347-.348-.522-.523-.076-.076-.185-.229-.306-.229-.153,0-.318.241-.412.335-.146.146-.291.291-.436.434a.529.529,0,0,1-.621.126c-.254-.131-.641-.182-.835-.4-.244-.274-.13-.845-.13-1.173,0-.16.032-.4-.2-.4H2134.8c-.131,0-.353-.039-.416.113a1.722,1.722,0,0,0-.015.6c0,.173.015.355,0,.525a.516.516,0,0,1-.333.476c-.269.1-.658.372-.956.311-.355-.071-.663-.53-.9-.767-.118-.118-.244-.249-.4-.094-.133.133-.266.266-.4.4s-.929.73-.7.961a5.189,5.189,0,0,0,.744.747c.273.286.066.6-.056.892-.1.246-.143.532-.427.633a3.666,3.666,0,0,1-1.138.03c-.4,0-.264.638-.264.912,0,.207-.138,1.043.208,1.043a4.961,4.961,0,0,1,1.148.017c.279.069.345.311.436.55.1.266.321.542.192.838-.148.34-.574.626-.831.882s.446.737.592.885c.195.192.547.742.831.456.247-.244.587-.754.951-.826.31-.059.685.207.966.311a.51.51,0,0,1,.33.454,5.555,5.555,0,0,0,0,1.072c0,.325.983.185,1.171.185h.582c.212,0,.2-.2.2-.35,0-.33-.114-.9.1-1.193.185-.249.6-.3.868-.436a.517.517,0,0,1,.594.1l.463.463c.094.094.259.335.412.335s.293-.217.382-.306l.535-.535a2.017,2.017,0,0,0,.333-.333c.167-.168-.086-.35-.195-.458-.266-.266-.836-.646-.668-1.089.148-.4.281-1.018.8-1.018.207,0,1.2.14,1.2-.185v-1.58C2141.146,797.862,2140.937,797.876,2140.8,797.876Zm-2.652,2.546a3.216,3.216,0,1,1-.8-4.074A3.245,3.245,0,0,1,2138.144,800.423Zm-2.8-3.766a2.2,2.2,0,1,0,2.2,2.2A2.221,2.221,0,0,0,2135.339,796.656Zm0,0a2.2,2.2,0,1,0,2.2,2.2A2.221,2.221,0,0,0,2135.339,796.656Zm0,0a2.2,2.2,0,1,0,2.2,2.2A2.221,2.221,0,0,0,2135.339,796.656Zm-11.489,3.594a1.534,1.534,0,1,0,1.533,1.536A1.536,1.536,0,0,0,2123.851,800.25Zm0,0a1.534,1.534,0,1,0,1.533,1.536A1.536,1.536,0,0,0,2123.851,800.25Zm11.489-3.594a2.2,2.2,0,1,0,2.2,2.2A2.221,2.221,0,0,0,2135.339,796.656Zm0,0a2.2,2.2,0,1,0,2.2,2.2A2.221,2.221,0,0,0,2135.339,796.656Zm0,0a2.2,2.2,0,1,0,2.2,2.2A2.221,2.221,0,0,0,2135.339,796.656Zm0,0a2.2,2.2,0,1,0,2.2,2.2A2.221,2.221,0,0,0,2135.339,796.656Zm0,0a2.2,2.2,0,1,0,2.2,2.2A2.221,2.221,0,0,0,2135.339,796.656Zm0,0a2.2,2.2,0,1,0,2.2,2.2A2.221,2.221,0,0,0,2135.339,796.656Zm0,0a2.2,2.2,0,1,0,2.2,2.2A2.221,2.221,0,0,0,2135.339,796.656Zm5.457,1.22a3.421,3.421,0,0,1-1.065-.03c-.281-.1-.325-.387-.427-.631s-.269-.468-.15-.737c.143-.328.552-.6.8-.85.269-.271-.178-.552-.367-.74-.172-.175-.347-.348-.522-.523-.076-.076-.185-.229-.306-.229-.153,0-.318.241-.412.335-.146.146-.291.291-.436.434a.529.529,0,0,1-.621.126c-.254-.131-.641-.182-.835-.4-.244-.274-.13-.845-.13-1.173,0-.16.032-.4-.2-.4H2134.8c-.131,0-.353-.039-.416.113a1.722,1.722,0,0,0-.015.6c0,.173.015.355,0,.525a.516.516,0,0,1-.333.476c-.269.1-.658.372-.956.311-.355-.071-.663-.53-.9-.767-.118-.118-.244-.249-.4-.094-.133.133-.266.266-.4.4s-.929.73-.7.961a5.189,5.189,0,0,0,.744.747c.273.286.066.6-.056.892-.1.246-.143.532-.427.633a3.666,3.666,0,0,1-1.138.03c-.4,0-.264.638-.264.912,0,.207-.138,1.043.208,1.043a4.961,4.961,0,0,1,1.148.017c.279.069.345.311.436.55.1.266.321.542.192.838-.148.34-.574.626-.831.882s.446.737.592.885c.195.192.547.742.831.456.247-.244.587-.754.951-.826.31-.059.685.207.966.311a.51.51,0,0,1,.33.454,5.555,5.555,0,0,0,0,1.072c0,.325.983.185,1.171.185h.582c.212,0,.2-.2.2-.35,0-.33-.114-.9.1-1.193.185-.249.6-.3.868-.436a.517.517,0,0,1,.594.1l.463.463c.094.094.259.335.412.335s.293-.217.382-.306l.535-.535a2.017,2.017,0,0,0,.333-.333c.167-.168-.086-.35-.195-.458-.266-.266-.836-.646-.668-1.089.148-.4.281-1.018.8-1.018.207,0,1.2.14,1.2-.185v-1.58C2141.146,797.862,2140.937,797.876,2140.8,797.876Zm-2.652,2.546a3.216,3.216,0,1,1-.8-4.074A3.245,3.245,0,0,1,2138.144,800.423Zm-2.8-3.766a2.2,2.2,0,1,0,2.2,2.2A2.221,2.221,0,0,0,2135.339,796.656Zm0,0a2.2,2.2,0,1,0,2.2,2.2A2.221,2.221,0,0,0,2135.339,796.656Zm0,0a2.2,2.2,0,1,0,2.2,2.2A2.221,2.221,0,0,0,2135.339,796.656Zm0,0a2.2,2.2,0,1,0,2.2,2.2A2.221,2.221,0,0,0,2135.339,796.656Zm0,0a2.2,2.2,0,1,0,2.2,2.2A2.221,2.221,0,0,0,2135.339,796.656Zm0,0a2.2,2.2,0,1,0,2.2,2.2A2.221,2.221,0,0,0,2135.339,796.656Zm0,0a2.2,2.2,0,1,0,2.2,2.2A2.221,2.221,0,0,0,2135.339,796.656Zm0,0a2.2,2.2,0,1,0,2.2,2.2A2.221,2.221,0,0,0,2135.339,796.656Zm0,0a2.2,2.2,0,1,0,2.2,2.2A2.221,2.221,0,0,0,2135.339,796.656Zm0,0a2.2,2.2,0,1,0,2.2,2.2A2.221,2.221,0,0,0,2135.339,796.656Zm0,0a2.2,2.2,0,1,0,2.2,2.2A2.221,2.221,0,0,0,2135.339,796.656Zm5.457,1.22a3.421,3.421,0,0,1-1.065-.03c-.281-.1-.325-.387-.427-.631s-.269-.468-.15-.737c.143-.328.552-.6.8-.85.269-.271-.178-.552-.367-.74-.172-.175-.347-.348-.522-.523-.076-.076-.185-.229-.306-.229-.153,0-.318.241-.412.335-.146.146-.291.291-.436.434a.529.529,0,0,1-.621.126c-.254-.131-.641-.182-.835-.4-.244-.274-.13-.845-.13-1.173,0-.16.032-.4-.2-.4H2134.8c-.131,0-.353-.039-.416.113a1.722,1.722,0,0,0-.015.6c0,.173.015.355,0,.525a.516.516,0,0,1-.333.476c-.269.1-.658.372-.956.311-.355-.071-.663-.53-.9-.767-.118-.118-.244-.249-.4-.094-.133.133-.266.266-.4.4s-.929.73-.7.961a5.189,5.189,0,0,0,.744.747c.273.286.066.6-.056.892-.1.246-.143.532-.427.633a3.666,3.666,0,0,1-1.138.03c-.4,0-.264.638-.264.912,0,.207-.138,1.043.208,1.043a4.961,4.961,0,0,1,1.148.017c.279.069.345.311.436.55.1.266.321.542.192.838-.148.34-.574.626-.831.882s.446.737.592.885c.195.192.547.742.831.456.247-.244.587-.754.951-.826.31-.059.685.207.966.311a.51.51,0,0,1,.33.454,5.555,5.555,0,0,0,0,1.072c0,.325.983.185,1.171.185h.582c.212,0,.2-.2.2-.35,0-.33-.114-.9.1-1.193.185-.249.6-.3.868-.436a.517.517,0,0,1,.594.1l.463.463c.094.094.259.335.412.335s.293-.217.382-.306l.535-.535a2.017,2.017,0,0,0,.333-.333c.167-.168-.086-.35-.195-.458-.266-.266-.836-.646-.668-1.089.148-.4.281-1.018.8-1.018.207,0,1.2.14,1.2-.185v-1.58C2141.146,797.862,2140.937,797.876,2140.8,797.876Zm-2.652,2.546a3.216,3.216,0,1,1-.8-4.074A3.245,3.245,0,0,1,2138.144,800.423Zm-2.8-3.766a2.2,2.2,0,1,0,2.2,2.2A2.221,2.221,0,0,0,2135.339,796.656Zm0,0a2.2,2.2,0,1,0,2.2,2.2A2.221,2.221,0,0,0,2135.339,796.656Zm0,0a2.2,2.2,0,1,0,2.2,2.2A2.221,2.221,0,0,0,2135.339,796.656Zm0,0a2.2,2.2,0,1,0,2.2,2.2A2.221,2.221,0,0,0,2135.339,796.656Zm-11.489,3.594a1.534,1.534,0,1,0,1.533,1.536A1.536,1.536,0,0,0,2123.851,800.25Zm0,0a1.534,1.534,0,1,0,1.533,1.536A1.536,1.536,0,0,0,2123.851,800.25Z" transform="translate(-2106.373 -777.178)" fill="rgba(255,255,255,0.45)"/>
      <path id="Tracé_2028" data-name="Tracé 2028" d="M2168.673,894.976a.566.566,0,0,1-.111.419.578.578,0,0,1-.4.222.569.569,0,0,1-.636-.485l-.5-3.685a.507.507,0,0,0-.5-.439h-3.7a.588.588,0,0,1-.586-.587v-.042l-.025-.38v-6.623a1,1,0,0,1,1.013-1c.362.012.9.17.969.4a.524.524,0,0,0,.13.224l2.031,2.029a.5.5,0,0,0,.358.15h3.337a.349.349,0,0,1,.345.357.342.342,0,0,1-.343.345h-3.84l-1.109-1.109a.508.508,0,0,0-.868.36v4.215a.507.507,0,0,0,.508.508h3.209a.029.029,0,0,1,.027.025Z" transform="translate(-2145.888 -853.887)" fill="rgba(255,255,255,0.45)"/>
      <path id="Tracé_2029" data-name="Tracé 2029" d="M2130.08,767.265a29.083,29.083,0,0,0-5.3-.486h0a29.152,29.152,0,0,0-4.427.338.247.247,0,0,0,.076.488,28.473,28.473,0,0,1,4.35-.333h0a28.524,28.524,0,0,1,5.211.478.263.263,0,0,0,.044,0,.247.247,0,0,0,.047-.49Zm-11.831.51a.249.249,0,0,0-.3-.182,28.618,28.618,0,0,0-7.47,2.98.247.247,0,0,0-.091.338.244.244,0,0,0,.214.123.234.234,0,0,0,.121-.032,28.188,28.188,0,0,1,7.343-2.931A.245.245,0,0,0,2118.249,767.775Zm22.412,3.776a28.621,28.621,0,0,0-7.029-3.386.247.247,0,0,0-.15.471,28.105,28.105,0,0,1,6.906,3.327.253.253,0,0,0,.135.039.246.246,0,0,0,.138-.451Zm-33.471,1.531a.247.247,0,0,0-.345-.039,29,29,0,0,0-5.39,5.637.245.245,0,0,0,.054.345.237.237,0,0,0,.143.047.243.243,0,0,0,.2-.1,28.58,28.58,0,0,1,5.3-5.543A.242.242,0,0,0,2107.19,773.081Zm42.088,7.35a28.86,28.86,0,0,0-5.146-6.181.246.246,0,0,0-.33.365,28.37,28.37,0,0,1,5.058,6.076.251.251,0,0,0,.21.116.256.256,0,0,0,.13-.037A.245.245,0,0,0,2149.278,780.431Zm-49.45,1.25a.247.247,0,0,0-.335.1,28.552,28.552,0,0,0-3.152,9.211.246.246,0,0,0,.2.283l.039,0a.246.246,0,0,0,.242-.207,28.109,28.109,0,0,1,3.1-9.053A.244.244,0,0,0,2099.828,781.681Zm50.648.88a.246.246,0,1,0-.438.222,28.123,28.123,0,0,1,2.817,9.142.245.245,0,0,0,.244.214.152.152,0,0,0,.032,0,.247.247,0,0,0,.212-.276A28.52,28.52,0,0,0,2150.475,782.561Zm-53.421,18.779a28.473,28.473,0,0,1-.587-5.758c0-.712.027-1.427.079-2.13a.246.246,0,1,0-.491-.037c-.054.715-.081,1.442-.081,2.166a28.884,28.884,0,0,0,.6,5.856.245.245,0,0,0,.241.2.329.329,0,0,0,.049,0A.247.247,0,0,0,2097.055,801.339Zm56.277-6.068a.247.247,0,0,0-.246.247v.064a28.3,28.3,0,0,1-1.031,7.594.251.251,0,0,0,.173.306.309.309,0,0,0,.067.007.245.245,0,0,0,.237-.18,28.9,28.9,0,0,0,1.047-7.727v-.064A.245.245,0,0,0,2153.332,795.271Zm-51.446,16.967a28.2,28.2,0,0,1-3.633-6.748.247.247,0,0,0-.463.173,28.744,28.744,0,0,0,3.7,6.867.245.245,0,0,0,.343.054A.246.246,0,0,0,2101.886,812.239Zm49.021-5.119a.244.244,0,0,0-.325.123,28.273,28.273,0,0,1-4.234,6.674.246.246,0,1,0,.375.32,28.86,28.86,0,0,0,4.309-6.793A.243.243,0,0,0,2150.907,807.119Zm-39.073,13.645a28.36,28.36,0,0,1-7.646-5.755.246.246,0,0,0-.348-.01.249.249,0,0,0-.01.35,28.774,28.774,0,0,0,7.777,5.851.234.234,0,0,0,.113.03.247.247,0,0,0,.114-.466Zm33.23-5.082a.246.246,0,0,0-.35,0,28.234,28.234,0,0,1-7.828,5.5.25.25,0,0,0-.116.33.246.246,0,0,0,.222.141.23.23,0,0,0,.106-.025,28.747,28.747,0,0,0,7.964-5.593A.245.245,0,0,0,2145.063,815.682Zm-23.388,8.04a28.193,28.193,0,0,1-7.661-1.95.247.247,0,1,0-.187.456,28.721,28.721,0,0,0,7.794,1.984h.027a.246.246,0,0,0,.027-.49Zm12.173-1.055a.245.245,0,0,0-.311-.158,28.287,28.287,0,0,1-7.544,1.355.247.247,0,0,0,.012.493h.01a28.807,28.807,0,0,0,7.676-1.38A.244.244,0,0,0,2133.848,822.667Z" transform="translate(-2095.975 -766.779)" fill="rgba(255,255,255,0.45)"/>
    </g>
    <g id="Groupe_de_masques_13" data-name="Groupe de masques 13" transform="translate(-14402 -9805)" clip-path="url(#clip-path)">
      <g id="Groupe_13180" data-name="Groupe 13180" transform="translate(-123.269 -724.74)">
        <g id="Groupe_13169" data-name="Groupe 13169" transform="translate(451.342 1225.014)">
          <path id="Tracé_2493" data-name="Tracé 2493" d="M673.469,1225.108l-60.918,33.657,1.868,5.151,7.093,19.548,67.43-21.039c7.413-4.358,4.849-19.725-.733-28.093C684.7,1229.067,678.72,1224.28,673.469,1225.108Z" transform="translate(-598.641 -1225.014)" fill="#e3bac6"/>
          <path id="Tracé_2494" data-name="Tracé 2494" d="M673.469,1225.108l-60.918,33.657,1.868,5.151c3.7,2.188,7.366,4.388,7.366,4.388s20.224-17.745,39.393-25.888c10.25-4.353,22.059-7.909,27.031-8.084C684.7,1229.067,678.72,1224.28,673.469,1225.108Z" transform="translate(-598.641 -1225.014)" fill="#ffd1de"/>
          <ellipse id="Ellipse_3459" data-name="Ellipse 3459" cx="5.391" cy="13.14" rx="5.391" ry="13.14" transform="translate(8.868 35.594) rotate(-20.073)" fill="#bf9da6"/>
          <ellipse id="Ellipse_3460" data-name="Ellipse 3460" cx="4.235" cy="10.754" rx="4.235" ry="10.754" transform="translate(10.607 37.499) rotate(-20.073)" fill="#e3bac6"/>
          <path id="Tracé_2495" data-name="Tracé 2495" d="M607.385,1331.1a6.558,6.558,0,0,0-1.909-1.644,1.716,1.716,0,0,0-1.371-.17c-1.888.689-1.762,5.783.282,11.376s5.232,9.568,7.119,8.879a1.714,1.714,0,0,0,.938-1.014,6.553,6.553,0,0,0,.4-2.489,27.348,27.348,0,0,0-5.459-14.939Z" transform="translate(-592.326 -1292.259)" fill="#bf9da6"/>
          <path id="Tracé_2496" data-name="Tracé 2496" d="M608.848,1326.907l-2.309.844a1.718,1.718,0,0,1,1.371.17,6.556,6.556,0,0,1,1.909,1.644,27.346,27.346,0,0,1,5.459,14.939,6.555,6.555,0,0,1-.4,2.488,1.716,1.716,0,0,1-.938,1.014l2.309-.844c1.888-.69,1.761-5.784-.283-11.377S610.736,1326.217,608.848,1326.907Z" transform="translate(-594.761 -1290.723)" fill="#ffd1de"/>
          <path id="Tracé_2497" data-name="Tracé 2497" d="M609.573,1337.236a5.061,5.061,0,0,0-1.473-1.268,1.326,1.326,0,0,0-1.058-.131c-1.458.532-1.36,4.463.218,8.78s4.037,7.385,5.495,6.853a1.324,1.324,0,0,0,.724-.783,5.066,5.066,0,0,0,.308-1.921,21.112,21.112,0,0,0-4.213-11.53Z" transform="translate(-594.419 -1296.497)" fill="#ffd1de"/>
          <ellipse id="Ellipse_3461" data-name="Ellipse 3461" cx="6.691" cy="4.566" rx="6.691" ry="4.566" transform="translate(0 43.701) rotate(-25.258)" fill="#fff"/>
          <path id="Tracé_2498" data-name="Tracé 2498" d="M583.005,1358.422l-4.186-8.925,12.1-5.71,4.186,8.925Z" transform="translate(-576.871 -1301.667)" fill="#fff"/>
          <ellipse id="Ellipse_3462" data-name="Ellipse 3462" cx="6.691" cy="4.566" rx="6.691" ry="4.566" transform="translate(3.896 52.013) rotate(-25.257)" fill="#ffd1de"/>
          <path id="Tracé_2499" data-name="Tracé 2499" d="M601.089,1372.269c-2.007.947-4.158.6-4.8-.765s.457-3.248,2.464-4.2,4.158-.6,4.8.766S603.1,1371.322,601.089,1372.269Z" transform="translate(-588.024 -1316.5)" fill="#fff"/>
          <path id="Tracé_2500" data-name="Tracé 2500" d="M604.081,1373.825c-.969.457-2.007.292-2.318-.37s.22-1.567,1.189-2.024,2.006-.292,2.318.369S605.049,1373.369,604.081,1373.825Z" transform="translate(-591.62 -1319.341)" fill="#e3bac6"/>
          <path id="Tracé_2501" data-name="Tracé 2501" d="M582.555,1357.116a8.385,8.385,0,0,1,4.806-4.807,11.074,11.074,0,0,1,7.661-.126l-.909-1.938s-2.727-2.145-7.764.148-4.67,4.853-4.67,4.853Z" transform="translate(-578.712 -1305.246)" fill="#ffd1de"/>
        </g>
        <g id="Groupe_13179" data-name="Groupe 13179" transform="translate(384.312 1254.297)">
          <path id="Tracé_2502" data-name="Tracé 2502" d="M497.726,1343.659a1.884,1.884,0,1,0-.936-2.689A2.024,2.024,0,0,0,497.726,1343.659Z" transform="translate(-456.76 -1328.572)" fill="#bf9da6"/>
          <path id="Tracé_2503" data-name="Tracé 2503" d="M496.867,1345.772a1.884,1.884,0,1,0-.936-2.689A2.023,2.023,0,0,0,496.867,1345.772Z" transform="translate(-456.206 -1329.936)" fill="#fff"/>
          <path id="Tracé_2504" data-name="Tracé 2504" d="M498.952,1346.617a1.052,1.052,0,1,0-.523-1.5A1.131,1.131,0,0,0,498.952,1346.617Z" transform="translate(-457.88 -1331.494)" fill="#bf9da6"/>
          <path id="Tracé_2505" data-name="Tracé 2505" d="M500.176,1347.113a.564.564,0,1,0-.281-.806A.606.606,0,0,0,500.176,1347.113Z" transform="translate(-458.863 -1332.409)" fill="#3d3466"/>
          <g id="Groupe_13170" data-name="Groupe 13170" transform="translate(21.845 2.164)">
            <path id="Tracé_2506" data-name="Tracé 2506" d="M447.762,1316.956a1.73,1.73,0,1,0-.86-2.47A1.859,1.859,0,0,0,447.762,1316.956Z" transform="translate(-446.421 -1313.689)" fill="#bf9da6"/>
            <path id="Tracé_2507" data-name="Tracé 2507" d="M446.973,1318.9a1.73,1.73,0,1,0-.86-2.471A1.859,1.859,0,0,0,446.973,1318.9Z" transform="translate(-445.912 -1314.942)" fill="#fff"/>
            <path id="Tracé_2508" data-name="Tracé 2508" d="M448.888,1319.674a.967.967,0,1,0-.48-1.381A1.039,1.039,0,0,0,448.888,1319.674Z" transform="translate(-447.45 -1316.374)" fill="#bf9da6"/>
            <path id="Tracé_2509" data-name="Tracé 2509" d="M450.013,1320.13a.518.518,0,1,0-.258-.74A.558.558,0,0,0,450.013,1320.13Z" transform="translate(-448.353 -1317.214)" fill="#fff"/>
          </g>
          <path id="Tracé_2510" data-name="Tracé 2510" d="M426.918,1309.812l6.912,3.538.938-1.693,1.376-2.482s-1.456-.594-1.742-.7a17,17,0,0,0-1.951-.641c-2.331-.49-3.68-.193-4.462.305a2.463,2.463,0,0,0-.439.353l-.029.03A2.161,2.161,0,0,0,426.918,1309.812Z" transform="translate(-411.809 -1307.587)" fill="#ffd1de"/>
          <g id="Groupe_13171" data-name="Groupe 13171" transform="translate(30.615 6.649)">
            <path id="Tracé_2511" data-name="Tracé 2511" d="M472.492,1329.6a1.73,1.73,0,1,0-.86-2.47A1.859,1.859,0,0,0,472.492,1329.6Z" transform="translate(-471.151 -1326.335)" fill="#bf9da6"/>
            <path id="Tracé_2512" data-name="Tracé 2512" d="M471.7,1331.544a1.73,1.73,0,1,0-.86-2.471A1.859,1.859,0,0,0,471.7,1331.544Z" transform="translate(-470.642 -1327.588)" fill="#fff"/>
            <path id="Tracé_2513" data-name="Tracé 2513" d="M473.619,1332.32a.967.967,0,1,0-.481-1.38A1.039,1.039,0,0,0,473.619,1332.32Z" transform="translate(-472.18 -1329.02)" fill="#bf9da6"/>
            <path id="Tracé_2514" data-name="Tracé 2514" d="M474.743,1332.776a.518.518,0,1,0-.258-.74A.557.557,0,0,0,474.743,1332.776Z" transform="translate(-473.084 -1329.86)" fill="#fff"/>
          </g>
          <path id="Tracé_2515" data-name="Tracé 2515" d="M450.2,1318.522l7.323,4.263a23.516,23.516,0,0,0,1.31-2.376c.7-1.385,1.387-2.827,1.387-2.827L452.9,1314s-.733,1.191-1.434,2.351C450.827,1317.406,450.217,1318.432,450.2,1318.522Z" transform="translate(-426.837 -1311.729)" fill="#ffd1de"/>
          <path id="Tracé_2516" data-name="Tracé 2516" d="M475.766,1332.069l6.867,4.446,1.66-2.944,1.844-3.271-.055-.03-7.5-3.279s-.8,1.5-1.6,2.94C476.52,1330.766,476.062,1331.58,475.766,1332.069Z" transform="translate(-443.334 -1320.11)" fill="#ffd1de"/>
          <path id="Tracé_2517" data-name="Tracé 2517" d="M475.766,1337.419l6.867,4.446,1.66-2.944a6.628,6.628,0,0,1-3.885-1.023,15.246,15.246,0,0,1-3.426-2.617C476.52,1336.116,476.062,1336.93,475.766,1337.419Z" transform="translate(-443.334 -1325.46)" fill="#e3bac6"/>
          <path id="Tracé_2518" data-name="Tracé 2518" d="M451.464,1320.633c-.637,1.051-1.247,2.077-1.26,2.167l7.323,4.263a23.446,23.446,0,0,0,1.31-2.376,8.274,8.274,0,0,1-3.756-1.282A18.885,18.885,0,0,1,451.464,1320.633Z" transform="translate(-426.837 -1316.007)" fill="#e3bac6"/>
          <path id="Tracé_2519" data-name="Tracé 2519" d="M426.918,1310.824l6.912,3.538.938-1.693a8.3,8.3,0,0,1-3.73-1.28,19.668,19.668,0,0,1-3.048-2.234,2.458,2.458,0,0,0-.439.353l-.029.03A2.16,2.16,0,0,0,426.918,1310.824Z" transform="translate(-411.809 -1308.599)" fill="#e3bac6"/>
          <circle id="Ellipse_3463" data-name="Ellipse 3463" cx="3.054" cy="3.054" r="3.054" transform="matrix(0.999, -0.054, 0.054, 0.999, 40.894, 12.341)" fill="#bf9da6"/>
          <path id="Tracé_2520" data-name="Tracé 2520" d="M489.776,1358.942a2.129,2.129,0,1,0-1.375-2.91A2.287,2.287,0,0,0,489.776,1358.942Z" transform="translate(-451.386 -1338.089)" fill="#bf9da6"/>
          <path id="Tracé_2521" data-name="Tracé 2521" d="M489.065,1361.421a2.129,2.129,0,1,0-1.375-2.91A2.287,2.287,0,0,0,489.065,1361.421Z" transform="translate(-450.927 -1339.689)" fill="#fff"/>
          <path id="Tracé_2522" data-name="Tracé 2522" d="M491.355,1362.308a1.19,1.19,0,1,0-.768-1.626A1.279,1.279,0,0,0,491.355,1362.308Z" transform="translate(-452.841 -1341.427)" fill="#bf9da6"/>
          <path id="Tracé_2523" data-name="Tracé 2523" d="M492.7,1362.829a.638.638,0,1,0-.412-.872A.685.685,0,0,0,492.7,1362.829Z" transform="translate(-453.965 -1342.448)" fill="#3d3466"/>
          <g id="Groupe_13172" data-name="Groupe 13172" transform="translate(15.606 8.377)">
            <path id="Tracé_2524" data-name="Tracé 2524" d="M430.382,1334.968a1.956,1.956,0,1,0-1.263-2.673A2.1,2.1,0,0,0,430.382,1334.968Z" transform="translate(-428.742 -1331.209)" fill="#bf9da6"/>
            <path id="Tracé_2525" data-name="Tracé 2525" d="M429.728,1337.246a1.956,1.956,0,1,0-1.263-2.674A2.1,2.1,0,0,0,429.728,1337.246Z" transform="translate(-428.32 -1332.679)" fill="#fff"/>
            <path id="Tracé_2526" data-name="Tracé 2526" d="M431.831,1338.061a1.093,1.093,0,1,0-.706-1.494A1.174,1.174,0,0,0,431.831,1338.061Z" transform="translate(-430.078 -1334.275)" fill="#bf9da6"/>
            <path id="Tracé_2527" data-name="Tracé 2527" d="M433.066,1338.539a.586.586,0,1,0-.378-.8A.63.63,0,0,0,433.066,1338.539Z" transform="translate(-431.111 -1335.213)" fill="#fff"/>
          </g>
          <path id="Tracé_2528" data-name="Tracé 2528" d="M406.256,1329l8.194,3.147.708-1.677,1.392-3.294s-1.709-.492-2.042-.574a19.11,19.11,0,0,0-2.269-.486c-3.091-.313-4.588.4-5.311,1.189-.043.046-.082.093-.119.139l-.029.038A2.441,2.441,0,0,0,406.256,1329Z" transform="translate(-398.473 -1319.496)" fill="#ffd1de"/>
          <path id="Tracé_2529" data-name="Tracé 2529" d="M433.405,1338.621c.01,0,.013,0,.01-.007S433.41,1338.615,433.405,1338.621Z" transform="translate(-415.995 -1327.611)" fill="#2aa3a3"/>
          <path id="Tracé_2530" data-name="Tracé 2530" d="M406.256,1331.3l8.194,3.147.708-1.677a17.017,17.017,0,0,1-4.368-1.105,21.648,21.648,0,0,1-3.862-2.058c-.043.046-.082.093-.119.139l-.029.038A2.44,2.44,0,0,0,406.256,1331.3Z" transform="translate(-398.473 -1321.799)" fill="#e3bac6"/>
          <g id="Groupe_13173" data-name="Groupe 13173" transform="translate(25.598 11.678)">
            <ellipse id="Ellipse_3464" data-name="Ellipse 3464" cx="1.936" cy="2.235" rx="1.936" ry="2.235" transform="matrix(0.404, -0.915, 0.915, 0.404, 0, 3.542)" fill="#bf9da6"/>
            <path id="Tracé_2531" data-name="Tracé 2531" d="M459.044,1348.488a1.956,1.956,0,1,0-1.263-2.673A2.1,2.1,0,0,0,459.044,1348.488Z" transform="translate(-457.23 -1343.235)" fill="#fff"/>
            <path id="Tracé_2532" data-name="Tracé 2532" d="M461.146,1349.3a1.093,1.093,0,1,0-.706-1.494A1.174,1.174,0,0,0,461.146,1349.3Z" transform="translate(-458.989 -1344.832)" fill="#bf9da6"/>
            <path id="Tracé_2533" data-name="Tracé 2533" d="M462.382,1349.781a.586.586,0,1,0-.379-.8A.63.63,0,0,0,462.382,1349.781Z" transform="translate(-460.021 -1345.769)" fill="#fff"/>
          </g>
          <path id="Tracé_2534" data-name="Tracé 2534" d="M433.982,1336.238l8.743,3.912a27.176,27.176,0,0,0,1.22-2.915c.609-1.613,1.186-3.258,1.186-3.258l-8.664-3.141s-.71,1.486-1.37,2.9C434.522,1334.965,433.986,1336.138,433.982,1336.238Z" transform="translate(-416.367 -1322.592)" fill="#ffd1de"/>
          <path id="Tracé_2535" data-name="Tracé 2535" d="M464.462,1348.365l7.142,3.611,1.11.562.04-.093,1.336-3.1,1.816-4.214c-.022-.009-.044-.019-.066-.027l-8.823-2.784s-.683,1.682-1.383,3.348C465.194,1346.712,464.749,1347.751,464.462,1348.365Z" transform="translate(-436.038 -1330.002)" fill="#ffd1de"/>
          <path id="Tracé_2536" data-name="Tracé 2536" d="M493.1,1362.231c.009,0,.012,0,.009-.007S493.109,1362.224,493.1,1362.231Z" transform="translate(-454.524 -1342.848)" fill="#2aa3a3"/>
          <path id="Tracé_2537" data-name="Tracé 2537" d="M464.462,1354.458l7.142,3.611,1.15.469,1.336-3.1a16.85,16.85,0,0,1-4.509-1.322,21.766,21.766,0,0,1-3.947-2.356C465.194,1352.8,464.749,1353.844,464.462,1354.458Z" transform="translate(-436.038 -1336.095)" fill="#e3bac6"/>
          <path id="Tracé_2538" data-name="Tracé 2538" d="M463.686,1348.928c.01,0,.013,0,.01-.007S463.691,1348.921,463.686,1348.928Z" transform="translate(-435.537 -1334.262)" fill="#2aa3a3"/>
          <path id="Tracé_2539" data-name="Tracé 2539" d="M433.982,1341.516l8.743,3.912a27.2,27.2,0,0,0,1.22-2.915,16.834,16.834,0,0,1-4.521-1.121,21.946,21.946,0,0,1-4.328-2.377C434.522,1340.243,433.986,1341.416,433.982,1341.516Z" transform="translate(-416.367 -1327.87)" fill="#e3bac6"/>
          <circle id="Ellipse_3465" data-name="Ellipse 3465" cx="3.054" cy="3.054" r="3.054" transform="translate(38.83 17.049) rotate(-3.111)" fill="#bf9da6"/>
          <path id="Tracé_2540" data-name="Tracé 2540" d="M484.474,1375.706a2.384,2.384,0,1,0-2.006-2.994A2.561,2.561,0,0,0,484.474,1375.706Z" transform="translate(-447.611 -1348.539)" fill="#bf9da6"/>
          <ellipse id="Ellipse_3466" data-name="Ellipse 3466" cx="2.36" cy="2.724" rx="2.36" ry="2.724" transform="translate(34.101 27.464) rotate(-74.72)" fill="#fff"/>
          <path id="Tracé_2541" data-name="Tracé 2541" d="M486.541,1379.482a1.332,1.332,0,1,0-1.121-1.673A1.431,1.431,0,0,0,486.541,1379.482Z" transform="translate(-449.538 -1352.304)" fill="#bf9da6"/>
          <path id="Tracé_2542" data-name="Tracé 2542" d="M487.976,1380.017a.714.714,0,1,0-.6-.9A.767.767,0,0,0,487.976,1380.017Z" transform="translate(-450.812 -1353.43)" fill="#3d3466"/>
          <g id="Groupe_13174" data-name="Groupe 13174" transform="translate(9.97 16.743)">
            <path id="Tracé_2543" data-name="Tracé 2543" d="M414.679,1359.083a2.19,2.19,0,1,0-1.843-2.751A2.353,2.353,0,0,0,414.679,1359.083Z" transform="translate(-412.647 -1354.799)" fill="#bf9da6"/>
            <path id="Tracé_2544" data-name="Tracé 2544" d="M414.334,1361.713a2.19,2.19,0,1,0-1.843-2.75A2.353,2.353,0,0,0,414.334,1361.713Z" transform="translate(-412.424 -1356.496)" fill="#fff"/>
            <path id="Tracé_2545" data-name="Tracé 2545" d="M416.579,1362.552a1.224,1.224,0,1,0-1.029-1.537A1.315,1.315,0,0,0,416.579,1362.552Z" transform="translate(-414.417 -1358.258)" fill="#bf9da6"/>
            <path id="Tracé_2546" data-name="Tracé 2546" d="M417.9,1363.044a.656.656,0,1,0-.552-.824A.705.705,0,0,0,417.9,1363.044Z" transform="translate(-415.587 -1359.292)" fill="#fff"/>
          </g>
          <path id="Tracé_2547" data-name="Tracé 2547" d="M387.315,1355.46l9.6,2.123.5-1.969.994-3.884s-1.974-.262-2.356-.3a21.58,21.58,0,0,0-2.593-.161c-3.238.156-4.795,1.064-5.534,2a3.043,3.043,0,0,0-.258.379l-.026.047A2.731,2.731,0,0,0,387.315,1355.46Z" transform="translate(-386.229 -1335.777)" fill="#ffd1de"/>
          <g id="Groupe_13175" data-name="Groupe 13175" transform="translate(21.762 18.873)">
            <ellipse id="Ellipse_3467" data-name="Ellipse 3467" cx="2.168" cy="2.502" rx="2.168" ry="2.502" transform="matrix(0.264, -0.965, 0.965, 0.264, 0, 4.182)" fill="#bf9da6"/>
            <path id="Tracé_2548" data-name="Tracé 2548" d="M448.663,1369.292a2.19,2.19,0,1,0-1.843-2.751A2.353,2.353,0,0,0,448.663,1369.292Z" transform="translate(-446.371 -1363.517)" fill="#fff"/>
            <path id="Tracé_2549" data-name="Tracé 2549" d="M450.908,1370.13a1.224,1.224,0,1,0-1.03-1.537A1.315,1.315,0,0,0,450.908,1370.13Z" transform="translate(-448.364 -1365.279)" fill="#bf9da6"/>
            <path id="Tracé_2550" data-name="Tracé 2550" d="M452.226,1370.623a.656.656,0,1,0-.552-.824A.705.705,0,0,0,452.226,1370.623Z" transform="translate(-449.534 -1366.313)" fill="#fff"/>
          </g>
          <path id="Tracé_2551" data-name="Tracé 2551" d="M420.01,1359.787l10.331,2.88a26.424,26.424,0,0,0,.773-3c.44-2.013.864-4.231.864-4.231l-10.116-2.038s-.493,1.615-.971,3.224C420.438,1358.148,420,1359.671,420.01,1359.787Z" transform="translate(-407.35 -1337.15)" fill="#ffd1de"/>
          <path id="Tracé_2552" data-name="Tracé 2552" d="M455.971,1368.13l9.831,3.248.849-3.221,1.454-5.509-.078-.019-10.232-1.618s-.526,2.179-1.05,4.232C456.457,1366.371,456.17,1367.461,455.971,1368.13Z" transform="translate(-430.558 -1342.066)" fill="#ffd1de"/>
          <path id="Tracé_2553" data-name="Tracé 2553" d="M488.6,1381.025c.01,0,.013-.006.009-.009S488.6,1381.017,488.6,1381.025Z" transform="translate(-451.614 -1354.975)" fill="#2aa3a3"/>
          <path id="Tracé_2554" data-name="Tracé 2554" d="M455.971,1375.832l9.831,3.248.849-3.221a18.393,18.393,0,0,1-4.7-.688,23.77,23.77,0,0,1-5.208-2.226C456.457,1374.074,456.17,1375.163,455.971,1375.832Z" transform="translate(-430.558 -1349.768)" fill="#e3bac6"/>
          <path id="Tracé_2555" data-name="Tracé 2555" d="M453.568,1370.932c.01,0,.013-.006.009-.009S453.572,1370.924,453.568,1370.932Z" transform="translate(-429.008 -1348.462)" fill="#fff"/>
          <path id="Tracé_2556" data-name="Tracé 2556" d="M420.01,1365.654l10.331,2.88a26.435,26.435,0,0,0,.773-3,18.3,18.3,0,0,1-4.792-.689,23.728,23.728,0,0,1-5.431-2.356C420.438,1364.015,420,1365.538,420.01,1365.654Z" transform="translate(-407.35 -1343.016)" fill="#e3bac6"/>
          <path id="Tracé_2557" data-name="Tracé 2557" d="M416.671,1363.425c.01,0,.013-.006.009-.009S416.675,1363.417,416.671,1363.425Z" transform="translate(-405.195 -1343.617)" fill="#2aa3a3"/>
          <path id="Tracé_2558" data-name="Tracé 2558" d="M387.315,1359.1l9.6,2.123.5-1.969a17.556,17.556,0,0,1-5.3-.676,23.265,23.265,0,0,1-4.19-1.671,3.024,3.024,0,0,0-.258.379l-.026.047A2.731,2.731,0,0,0,387.315,1359.1Z" transform="translate(-386.229 -1339.419)" fill="#e3bac6"/>
          <circle id="Ellipse_3468" data-name="Ellipse 3468" cx="3.054" cy="3.054" r="3.054" transform="translate(37.056 23.565)" fill="#bf9da6"/>
          <ellipse id="Ellipse_3469" data-name="Ellipse 3469" cx="2.335" cy="2.696" rx="2.335" ry="2.696" transform="translate(33.766 32.716) rotate(-88.029)" fill="#3d3466"/>
          <path id="Tracé_2559" data-name="Tracé 2559" d="M484.566,1392.451a1.318,1.318,0,1,0-1.46-1.356A1.416,1.416,0,0,0,484.566,1392.451Z" transform="translate(-448.07 -1360.672)" fill="#6d64af"/>
          <path id="Tracé_2560" data-name="Tracé 2560" d="M485.858,1392.948a.707.707,0,1,0-.783-.727A.759.759,0,0,0,485.858,1392.948Z" transform="translate(-449.341 -1361.773)" fill="#3d3466"/>
          <g id="Groupe_13176" data-name="Groupe 13176" transform="translate(8.611 27.261)">
            <path id="Tracé_2561" data-name="Tracé 2561" d="M411,1388.75a2.168,2.168,0,1,0-2.4-2.229A2.329,2.329,0,0,0,411,1388.75Z" transform="translate(-408.594 -1384.46)" fill="#bf9da6"/>
            <path id="Tracé_2562" data-name="Tracé 2562" d="M411.264,1391.362a2.168,2.168,0,1,0-2.4-2.229A2.329,2.329,0,0,0,411.264,1391.362Z" transform="translate(-408.766 -1386.146)" fill="#fff"/>
            <path id="Tracé_2563" data-name="Tracé 2563" d="M413.285,1392.139a1.211,1.211,0,1,0-1.342-1.245A1.3,1.3,0,0,0,413.285,1392.139Z" transform="translate(-410.755 -1387.869)" fill="#bf9da6"/>
            <path id="Tracé_2564" data-name="Tracé 2564" d="M414.472,1392.595a.649.649,0,1,0-.72-.668A.7.7,0,0,0,414.472,1392.595Z" transform="translate(-411.923 -1388.881)" fill="#fff"/>
          </g>
          <path id="Tracé_2565" data-name="Tracé 2565" d="M384.506,1388.783l9.727-.141.035-1.926.074-4.053s-1.96.2-2.336.252a21.346,21.346,0,0,0-2.534.436c-3.127.9-4.413,2.153-4.9,3.228a3.073,3.073,0,0,0-.141.378c0,.017-.01.035-.015.051A2.706,2.706,0,0,0,384.506,1388.783Z" transform="translate(-384.312 -1356.039)" fill="#ffd1de"/>
          <g id="Groupe_13177" data-name="Groupe 13177" transform="translate(20.949 27.076)">
            <path id="Tracé_2566" data-name="Tracé 2566" d="M445.788,1388.228a2.168,2.168,0,1,0-2.4-2.229A2.329,2.329,0,0,0,445.788,1388.228Z" transform="translate(-443.385 -1383.938)" fill="#bf9da6"/>
            <path id="Tracé_2567" data-name="Tracé 2567" d="M446.055,1390.84a2.168,2.168,0,1,0-2.4-2.229A2.329,2.329,0,0,0,446.055,1390.84Z" transform="translate(-443.557 -1385.624)" fill="#fff"/>
            <path id="Tracé_2568" data-name="Tracé 2568" d="M448.076,1391.617a1.211,1.211,0,1,0-1.342-1.245A1.3,1.3,0,0,0,448.076,1391.617Z" transform="translate(-445.546 -1387.347)" fill="#bf9da6"/>
            <path id="Tracé_2569" data-name="Tracé 2569" d="M449.263,1392.073a.649.649,0,1,0-.72-.668A.7.7,0,0,0,449.263,1392.073Z" transform="translate(-446.714 -1388.359)" fill="#fff"/>
          </g>
          <path id="Tracé_2570" data-name="Tracé 2570" d="M418.172,1387.913l10.607.42a18.882,18.882,0,0,0,.07-2.3c-.016-2.2-.14-5.038-.14-5.038l-10.208.341s-.16,2.491-.26,4.409C418.181,1386.888,418.142,1387.829,418.172,1387.913Z" transform="translate(-406.158 -1354.96)" fill="#ffd1de"/>
          <path id="Tracé_2571" data-name="Tracé 2571" d="M455.03,1386.982l10.208.89.075-2.914.155-6.02h-.079l-10.224.773s-.012,2.742-.061,5.01C455.085,1385.613,455.062,1386.432,455.03,1386.982Z" transform="translate(-429.951 -1353.634)" fill="#ffd1de"/>
          <path id="Tracé_2572" data-name="Tracé 2572" d="M485.787,1395.326c.007,0,.01-.008.006-.01S485.788,1395.318,485.787,1395.326Z" transform="translate(-449.801 -1364.204)" fill="#2aa3a3"/>
          <path id="Tracé_2573" data-name="Tracé 2573" d="M455.03,1397.505l10.208.89.075-2.914a18.183,18.183,0,0,1-4.952.547,23.693,23.693,0,0,1-5.257-.785C455.085,1396.136,455.062,1396.956,455.03,1397.505Z" transform="translate(-429.951 -1364.157)" fill="#e3bac6"/>
          <path id="Tracé_2574" data-name="Tracé 2574" d="M449.743,1394.691c.007,0,.01-.008.006-.01S449.744,1394.683,449.743,1394.691Z" transform="translate(-426.539 -1363.794)" fill="#2aa3a3"/>
          <path id="Tracé_2575" data-name="Tracé 2575" d="M418.172,1396.558l10.607.42a18.888,18.888,0,0,0,.07-2.3,18.03,18.03,0,0,1-5.062.577,23.807,23.807,0,0,1-5.546-.864C418.181,1395.532,418.142,1396.474,418.172,1396.558Z" transform="translate(-406.158 -1363.604)" fill="#e3bac6"/>
          <path id="Tracé_2576" data-name="Tracé 2576" d="M414.312,1393.458c.007-.005.01-.009.006-.01S414.313,1393.45,414.312,1393.458Z" transform="translate(-403.673 -1362.999)" fill="#2aa3a3"/>
          <path id="Tracé_2577" data-name="Tracé 2577" d="M384.506,1395.908l9.727-.141.035-1.926a18.253,18.253,0,0,1-4.893.53,23.448,23.448,0,0,1-4.8-.668,3.074,3.074,0,0,0-.141.378c0,.017-.01.034-.015.051A2.705,2.705,0,0,0,384.506,1395.908Z" transform="translate(-384.312 -1363.164)" fill="#e3bac6"/>
          <circle id="Ellipse_3470" data-name="Ellipse 3470" cx="3.054" cy="3.054" r="3.054" transform="matrix(0.836, -0.549, 0.549, 0.836, 36.393, 28.34)" fill="#3d3466"/>
          <path id="Tracé_2578" data-name="Tracé 2578" d="M495.446,1352.95c.051,0,25.875-4.271,27.939-4.5,4.655,1.079,14.178-15.807,11.155-19.252-2.474-4.871-4.629-8.411-9.213-9.54-3.521-.867-8.474-.312-16.107,2.152a40.186,40.186,0,0,0-8.159,3.752c-5.316,3.2-10.17,21.315-7.271,26.2A2.251,2.251,0,0,0,495.446,1352.95Z" transform="translate(-454.406 -1315.131)" fill="#ffd1de"/>
          <path id="Tracé_2579" data-name="Tracé 2579" d="M497.026,1353.648c.051,0,25.875-4.271,27.939-4.5,4.655,1.079,14.178-15.807,11.155-19.252-2.474-4.871-4.629-8.41-9.213-9.54,2.164,2.783,3.94,8.036-1.4,16.561-7.252,11.57-24.574,14.787-30.133,15.538A2.251,2.251,0,0,0,497.026,1353.648Z" transform="translate(-455.986 -1315.83)" fill="#e3bac6"/>
          <path id="Tracé_2580" data-name="Tracé 2580" d="M535.775,1366.583s-6.1-3.735-15.232.627-.993,9.415,2.531,9.579C532.914,1377.247,542.058,1369.936,535.775,1366.583Z" transform="translate(-469.531 -1344.7)" fill="#bf9da6"/>
          <path id="Tracé_2581" data-name="Tracé 2581" d="M537.828,1378a3.923,3.923,0,0,0,5,1.98,3.733,3.733,0,0,0,1.852-5.112,3.9,3.9,0,0,0-5.207-1.885A3.752,3.752,0,0,0,537.828,1378Z" transform="translate(-483.136 -1349.542)" fill="#fff"/>
          <path id="Tracé_2582" data-name="Tracé 2582" d="M507.275,1381.649l5.34.539,9.464-1.794c.346-3.589-.949-6.509-3.206-10.068l-8.977,2.243-4.3,3.458Z" transform="translate(-462.587 -1348.077)" fill="#ffd1de"/>
          <path id="Tracé_2583" data-name="Tracé 2583" d="M507.2,1385.841l5.337.54a18.053,18.053,0,0,0-2.719-9.615l-4.294,3.456Z" transform="translate(-462.538 -1352.233)" fill="#e3bac6"/>
          <g id="Groupe_13178" data-name="Groupe 13178" transform="translate(41.937 26.65)">
            <path id="Tracé_2584" data-name="Tracé 2584" d="M507.871,1386.814c-.379-1.909-1.9-3.28-3.355-3.05-1.422.223-2.236,1.889-1.853,3.712s1.811,3.153,3.229,3.014C507.345,1390.348,508.247,1388.707,507.871,1386.814Z" transform="translate(-502.568 -1383.383)" fill="#6d64af"/>
            <path id="Tracé_2585" data-name="Tracé 2585" d="M510.926,1385.839c-.378-1.93-1.92-3.312-3.407-3.076-1.45.23-2.287,1.917-1.9,3.759.38,1.827,1.831,3.183,3.276,3.04C510.373,1389.415,511.3,1387.753,510.926,1385.839Z" transform="translate(-504.475 -1382.737)" fill="#fff"/>
            <path id="Tracé_2586" data-name="Tracé 2586" d="M511.847,1388.783a1.909,1.909,0,0,0-1.887-1.714,1.627,1.627,0,0,0-1.079,2.1,1.925,1.925,0,0,0,1.846,1.7C511.551,1390.775,512.058,1389.843,511.847,1388.783Z" transform="translate(-506.609 -1385.524)" fill="#6d64af"/>
            <path id="Tracé_2587" data-name="Tracé 2587" d="M512.417,1390.5a1.025,1.025,0,0,0-1.007-.918.87.87,0,0,0-.584,1.122,1.03,1.03,0,0,0,1,.914C512.262,1391.564,512.53,1391.064,512.417,1390.5Z" transform="translate(-507.88 -1387.149)" fill="#3d3466"/>
          </g>
          <path id="Tracé_2588" data-name="Tracé 2588" d="M481.553,1388.5l4.388.069,8.67-1.358a25.674,25.674,0,0,0-3.206-9.349l-8.093,2.407-3.365,3.094Z" transform="translate(-446.032 -1352.942)" fill="#ffd1de"/>
          <path id="Tracé_2589" data-name="Tracé 2589" d="M481.553,1392.882l4.388.069a20.586,20.586,0,0,0-2.628-8.3l-3.365,3.095Z" transform="translate(-446.032 -1357.321)" fill="#e3bac6"/>
          <path id="Tracé_2590" data-name="Tracé 2590" d="M481.567,1394.205c-.567-1.695-1.991-2.771-3.153-2.406-1.135.357-1.588,1.961-1.036,3.583s1.907,2.694,3.057,2.408C481.612,1397.5,482.131,1395.893,481.567,1394.205Z" transform="translate(-444.223 -1361.889)" fill="#6d64af"/>
          <path id="Tracé_2591" data-name="Tracé 2591" d="M483.956,1392.977c-.57-1.712-2.015-2.8-3.2-2.421-1.156.365-1.622,1.988-1.066,3.626s1.929,2.716,3.1,2.424C483.99,1396.306,484.524,1394.682,483.956,1392.977Z" transform="translate(-445.716 -1361.085)" fill="#fff"/>
          <path id="Tracé_2592" data-name="Tracé 2592" d="M484.829,1395.762c-.317-.946-1.115-1.552-1.774-1.353s-.92,1.1-.608,2.026,1.088,1.527,1.744,1.354S485.145,1396.705,484.829,1395.762Z" transform="translate(-447.561 -1363.595)" fill="#6d64af"/>
          <path id="Tracé_2593" data-name="Tracé 2593" d="M485.364,1397.385c-.169-.5-.594-.829-.948-.726s-.5.589-.329,1.087.587.822.939.726S485.532,1397.888,485.364,1397.385Z" transform="translate(-448.659 -1365.059)" fill="#3d3466"/>
          <path id="Tracé_2594" data-name="Tracé 2594" d="M472.485,1386.754a28.562,28.562,0,0,1,2.727,7.754l-9.113,2.614s-1.923-3.685.474-6.518A12.4,12.4,0,0,1,472.485,1386.754Z" transform="translate(-436.624 -1358.679)" fill="#ffd1de"/>
        </g>
      </g>
    </g>
  </g>
</svg>
