<svg xmlns="http://www.w3.org/2000/svg" xmlns:xlink="http://www.w3.org/1999/xlink" width="145" height="105.993" viewBox="0 0 145 105.993">
  <defs>
    <clipPath id="clip-path">
      <rect id="Rectangle_2833" data-name="Rectangle 2833" width="145" height="66" transform="translate(218 683)" fill="#fff" stroke="#707070" stroke-width="1"/>
    </clipPath>
  </defs>
  <g id="Groupe_13196" data-name="Groupe 13196" transform="translate(14184 9617.993)">
    <g id="Groupe_13195" data-name="Groupe 13195" transform="translate(-14116 -9617.493)">
      <path id="Tracé_2030" data-name="Tracé 2030" d="M2549.441,1236.089v4a.5.5,0,0,1-.366.5.5.5,0,0,1-.449-.132.466.466,0,0,1-.129-.225.449.449,0,0,0,.012-.1l0-3.627a.5.5,0,0,0-1,0l0,3.627a.486.486,0,0,0,.01.1.009.009,0,0,1,0,.007c0,.02,0,.039,0,.061s0,.022,0,.034l-.076,8.374a.449.449,0,0,0,.02.142.346.346,0,0,1-.234.425.538.538,0,0,1-.522-.1l-.212-7.216a.5.5,0,0,0-.5-.488.5.5,0,0,0-.349.142.506.506,0,0,0-.154.344l-.271,7.152a.358.358,0,0,1-.166.139.529.529,0,0,1-.324.044l-.037-.012a.347.347,0,0,1-.208-.163.352.352,0,0,1-.029-.263.434.434,0,0,0,.02-.139l-.034-7.25V1236.5a.5.5,0,0,0-1,0l0,3.627a.632.632,0,0,1-.012.095.451.451,0,0,1-.129.229.475.475,0,0,1-.814-.366v-4a1.44,1.44,0,0,1,1.439-1.439h4.1A1.443,1.443,0,0,1,2549.441,1236.089Z" transform="translate(-2517.452 -1206.568)" fill="rgba(255,255,255,0.45)" stroke="rgba(0,0,0,0)" stroke-width="1"/>
      <path id="Tracé_2031" data-name="Tracé 2031" d="M2478.857,1152.725a1.537,1.537,0,1,0,1.537,1.537A1.54,1.54,0,0,0,2478.857,1152.725Zm0,0a1.537,1.537,0,1,0,1.537,1.537A1.54,1.54,0,0,0,2478.857,1152.725Zm0,0a1.537,1.537,0,1,0,1.537,1.537A1.54,1.54,0,0,0,2478.857,1152.725Zm0,0a1.537,1.537,0,1,0,1.537,1.537A1.54,1.54,0,0,0,2478.857,1152.725Zm-.007-19.4a25.14,25.14,0,1,0,25.138,25.14A25.14,25.14,0,0,0,2478.85,1133.33Zm-2.315,11.643,1.993-1.617h0v0l.012-.007a.009.009,0,0,1,.005,0,.368.368,0,0,1,.039-.027.165.165,0,0,1,.027-.017c.008,0,.015,0,.02-.01l.042-.015a.158.158,0,0,1,.029-.012c.007,0,.017,0,.024,0a.11.11,0,0,1,.039-.007l.032-.007h.029l.02,0,.017,0h.029l.032.007a.112.112,0,0,1,.039.007c.007,0,.017,0,.024,0a.158.158,0,0,1,.029.012l.042.015s.012,0,.02.01a.165.165,0,0,1,.027.017.368.368,0,0,1,.039.027.009.009,0,0,1,.005,0l.012.007v0h0l1.993,1.617a.5.5,0,1,1-.632.781l-1.181-.956v5.086a.5.5,0,1,1-1,0V1144.8l-1.181.956a.5.5,0,1,1-.632-.781Zm2.323,6.747a2.542,2.542,0,1,1-2.542,2.542A2.545,2.545,0,0,1,2478.857,1151.72Zm-7.735,7.081h-5.088l.956,1.181a.5.5,0,0,1-.39.82.5.5,0,0,1-.39-.188l-1.615-2h0v0s-.008-.012-.012-.017a.259.259,0,0,1-.027-.042l-.017-.024c0-.007,0-.012-.007-.02a.3.3,0,0,1-.017-.044c-.005-.01-.007-.017-.012-.027a.073.073,0,0,0-.005-.022c0-.015,0-.029-.007-.044a.121.121,0,0,1,0-.029v-.027c0-.007,0-.015,0-.022s0-.012,0-.02v-.027a.122.122,0,0,1,0-.029c0-.015.005-.029.007-.044a.072.072,0,0,0,.005-.022.235.235,0,0,1,.012-.027.3.3,0,0,1,.017-.044c0-.007,0-.015.007-.019a.276.276,0,0,1,.017-.024.259.259,0,0,1,.027-.042.091.091,0,0,1,.012-.017v0a0,0,0,0,0,0,0l1.615-2a.5.5,0,1,1,.781.634l-.956,1.178h5.088a.5.5,0,0,1,0,1Zm1.827-6.1a.5.5,0,0,1-.71,0l-3.6-3.6-.159,1.512a.506.506,0,0,1-.5.449.414.414,0,0,1-.054,0,.5.5,0,0,1-.446-.551l.268-2.554v0c0-.007,0-.015,0-.025s.008-.049.015-.073a.118.118,0,0,0,.012-.027c0-.007.007-.015.01-.022a.3.3,0,0,1,.017-.041.308.308,0,0,1,.025-.034l.029-.046a.229.229,0,0,1,.027-.025s0-.007.005-.01.007,0,.01-.007a.278.278,0,0,0,.027-.027l.039-.025c.012-.01.027-.019.042-.029a.285.285,0,0,0,.039-.017l.022-.007a.131.131,0,0,1,.027-.012.717.717,0,0,1,.1-.022l2.552-.266a.5.5,0,0,1,.1,1l-1.51.159,3.6,3.6A.5.5,0,0,1,2472.949,1152.7Zm10.389,10.782a1.505,1.505,0,0,1-1.164,1.481,1.467,1.467,0,0,1-.307.032,1.525,1.525,0,0,1-.468-.08l-.073,7.135a1.353,1.353,0,0,1-.946,1.588,1.625,1.625,0,0,1-.447.061,1.439,1.439,0,0,1-1.117-.485,1.384,1.384,0,0,1-.461.339,1.513,1.513,0,0,1-1.042.09l-.039-.012a1.322,1.322,0,0,1-.788-.634,1.35,1.35,0,0,1-.137-.949l-.029-7.14a1.529,1.529,0,0,1-.492.088,1.471,1.471,0,0,1-.308-.032,1.5,1.5,0,0,1-1.164-1.481v-4a2.447,2.447,0,0,1,2.444-2.444h4.1a2.451,2.451,0,0,1,2.442,2.444Zm1.764-10.635a.5.5,0,0,1-.354-.856l3.6-3.6-1.51-.159a.5.5,0,1,1,.1-1l2.552.266a.724.724,0,0,1,.1.022l.017.007.012,0,.017.007.044.02a.213.213,0,0,1,.029.019.345.345,0,0,1,.049.034c.01.007.017.017.027.024s.007,0,.01.007,0,0,0,.007a.293.293,0,0,1,.027.029.17.17,0,0,1,.024.034.3.3,0,0,1,.029.046.206.206,0,0,1,.017.039.067.067,0,0,1,.01.02.123.123,0,0,0,.012.029c.008.024.01.049.015.073,0,.007,0,.015,0,.025v0l.269,2.554a.5.5,0,0,1-.447.551.407.407,0,0,1-.053,0,.5.5,0,0,1-.5-.449l-.159-1.512-3.6,3.6A.5.5,0,0,1,2485.1,1152.847Zm8.113,5.474v.027a.134.134,0,0,1,0,.029l-.008.044a.08.08,0,0,0,0,.022.245.245,0,0,1-.012.027.361.361,0,0,1-.017.044l-.007.02-.017.024a.227.227,0,0,1-.027.042l0,0a.052.052,0,0,1-.01.015v0h0l-1.615,2a.5.5,0,0,1-.708.076.5.5,0,0,1-.073-.707l.956-1.181h-5.088a.5.5,0,0,1,0-1h5.088l-.956-1.178a.5.5,0,1,1,.781-.634l1.615,2a0,0,0,0,0,0,0v0a.051.051,0,0,1,.01.015s0,0,0,0a.227.227,0,0,1,.027.042.232.232,0,0,1,.017.024.178.178,0,0,1,.007.019.34.34,0,0,1,.017.042c.005.01.007.019.012.029a.079.079,0,0,0,0,.022l.008.044a.136.136,0,0,1,0,.029v.027c0,.007,0,.012,0,.02S2493.215,1158.314,2493.215,1158.321Zm-14.358-2.522a1.537,1.537,0,1,0-1.537-1.537A1.538,1.538,0,0,0,2478.857,1155.8Zm0-3.073a1.537,1.537,0,1,0,1.537,1.537A1.54,1.54,0,0,0,2478.857,1152.725Zm0,0a1.537,1.537,0,1,0,1.537,1.537A1.54,1.54,0,0,0,2478.857,1152.725Zm0,0a1.537,1.537,0,1,0,1.537,1.537A1.54,1.54,0,0,0,2478.857,1152.725Zm0,0a1.537,1.537,0,1,0,1.537,1.537A1.54,1.54,0,0,0,2478.857,1152.725Z" transform="translate(-2450.344 -1129.964)" fill="rgba(255,255,255,0.45)" stroke="rgba(0,0,0,0)" stroke-width="1"/>
      <path id="Tracé_2032" data-name="Tracé 2032" d="M2473.661,1120.013a28.757,28.757,0,0,0-5.245-.483h0a28.817,28.817,0,0,0-4.381.337.243.243,0,1,0,.073.48,28.528,28.528,0,0,1,4.308-.329h0a28.193,28.193,0,0,1,5.154.476.3.3,0,0,0,.046,0,.244.244,0,0,0,.044-.483Zm-11.709.5a.243.243,0,0,0-.3-.178,28.366,28.366,0,0,0-7.394,2.949.244.244,0,0,0,.244.422,27.909,27.909,0,0,1,7.267-2.9A.244.244,0,0,0,2461.952,1120.516Zm22.181,3.737a28.368,28.368,0,0,0-6.957-3.349.243.243,0,0,0-.149.463,27.972,27.972,0,0,1,6.838,3.293.244.244,0,0,0,.134.039.242.242,0,0,0,.134-.446Zm-33.124,1.517a.243.243,0,0,0-.344-.039,28.632,28.632,0,0,0-5.335,5.579.244.244,0,0,0,.2.388.244.244,0,0,0,.2-.1,28.174,28.174,0,0,1,5.245-5.486A.244.244,0,0,0,2451.009,1125.77Zm41.654,7.272a28.738,28.738,0,0,0-5.094-6.118.246.246,0,0,0-.346.017.243.243,0,0,0,.017.344,28.175,28.175,0,0,1,5.008,6.013.241.241,0,0,0,.208.117.222.222,0,0,0,.127-.039A.242.242,0,0,0,2492.663,1133.042Zm-48.943,1.237a.244.244,0,0,0-.329.1,28.192,28.192,0,0,0-3.12,9.116.241.241,0,0,0,.2.278.234.234,0,0,0,.039,0,.244.244,0,0,0,.241-.207,27.813,27.813,0,0,1,3.066-8.957A.243.243,0,0,0,2443.72,1134.278Zm50.129.871a.245.245,0,0,0-.437.222,27.72,27.72,0,0,1,2.788,9.045.246.246,0,0,0,.241.215l.032,0a.244.244,0,0,0,.212-.273A28.305,28.305,0,0,0,2493.849,1135.149Zm-52.871,18.588a28.2,28.2,0,0,1-.581-5.7c0-.7.027-1.412.078-2.107a.244.244,0,0,0-.488-.037c-.052.707-.078,1.429-.078,2.144a28.634,28.634,0,0,0,.59,5.8.243.243,0,0,0,.239.2.385.385,0,0,0,.049,0A.245.245,0,0,0,2440.979,1153.737Zm55.7-6.008a.245.245,0,0,0-.244.244v.063a28.128,28.128,0,0,1-1.019,7.518.243.243,0,0,0,.171.3.209.209,0,0,0,.066.01.245.245,0,0,0,.234-.178,28.6,28.6,0,0,0,1.037-7.65v-.063A.245.245,0,0,0,2496.676,1147.729Zm-50.917,16.795a27.961,27.961,0,0,1-3.6-6.679.242.242,0,0,0-.312-.144.246.246,0,0,0-.144.315,28.451,28.451,0,0,0,3.659,6.8.244.244,0,0,0,.2.1.244.244,0,0,0,.2-.388Zm48.516-5.069a.243.243,0,0,0-.322.122,28.143,28.143,0,0,1-4.191,6.606.244.244,0,0,0,.185.4.246.246,0,0,0,.186-.085,28.51,28.51,0,0,0,4.264-6.723A.244.244,0,0,0,2494.276,1159.455Zm-38.674,13.5a28.006,28.006,0,0,1-7.564-5.693.244.244,0,0,0-.356.334,28.548,28.548,0,0,0,7.7,5.793.224.224,0,0,0,.112.027.244.244,0,0,0,.11-.461Zm32.89-5.03a.246.246,0,0,0-.346,0,28.022,28.022,0,0,1-7.748,5.44.244.244,0,0,0,.1.464.259.259,0,0,0,.1-.022,28.5,28.5,0,0,0,7.882-5.535A.249.249,0,0,0,2488.492,1167.929Zm-23.147,7.96a27.945,27.945,0,0,1-7.584-1.929.243.243,0,0,0-.186.449,28.258,28.258,0,0,0,7.716,1.964.1.1,0,0,0,.027,0,.244.244,0,0,0,.027-.485Zm12.048-1.047a.244.244,0,0,0-.307-.156,27.95,27.95,0,0,1-7.467,1.342.244.244,0,0,0,.01.488h.012a28.407,28.407,0,0,0,7.6-1.366A.242.242,0,0,0,2477.393,1174.842Z" transform="translate(-2439.91 -1119.53)" fill="rgba(255,255,255,0.45)" stroke="rgba(0,0,0,0)" stroke-width="1"/>
    </g>
    <g id="Groupe_de_masques_14" data-name="Groupe de masques 14" transform="translate(-14402 -10261)" clip-path="url(#clip-path)">
      <g id="Groupe_13194" data-name="Groupe 13194">
        <g id="Groupe_13183" data-name="Groupe 13183" transform="translate(211.708 789.714) rotate(-73)">
          <path id="Tracé_2595" data-name="Tracé 2595" d="M632.607,1225.108l60.918,33.658-1.868,5.151-7.093,19.548-67.43-21.039c-7.413-4.358-4.849-19.725.733-28.093C621.38,1229.067,627.356,1224.28,632.607,1225.108Z" transform="translate(-612.551 -1225.014)" fill="#e3bac6"/>
          <path id="Tracé_2596" data-name="Tracé 2596" d="M627.291,1225.108l60.918,33.658-1.868,5.151c-3.7,2.188-7.366,4.388-7.366,4.388s-20.224-17.745-39.393-25.888c-10.25-4.353-22.059-7.909-27.031-8.084C616.064,1229.067,622.04,1224.28,627.291,1225.108Z" transform="translate(-607.235 -1225.014)" fill="#ffd1de"/>
          <ellipse id="Ellipse_3471" data-name="Ellipse 3471" cx="5.391" cy="13.14" rx="5.391" ry="13.14" transform="translate(76.997 60.277) rotate(-159.927)" fill="#bf9da6"/>
          <ellipse id="Ellipse_3472" data-name="Ellipse 3472" cx="4.235" cy="10.754" rx="4.235" ry="10.754" transform="translate(76.896 57.7) rotate(-159.927)" fill="#e3bac6"/>
          <path id="Tracé_2597" data-name="Tracé 2597" d="M608.226,1331.1a6.558,6.558,0,0,1,1.909-1.644,1.716,1.716,0,0,1,1.371-.17c1.888.689,1.762,5.783-.282,11.376s-5.232,9.568-7.119,8.879a1.714,1.714,0,0,1-.938-1.014,6.554,6.554,0,0,1-.4-2.489,27.348,27.348,0,0,1,5.459-14.939Z" transform="translate(-528.4 -1292.258)" fill="#bf9da6"/>
          <path id="Tracé_2598" data-name="Tracé 2598" d="M615.278,1326.907l2.309.844a1.718,1.718,0,0,0-1.371.17,6.556,6.556,0,0,0-1.909,1.644,27.346,27.346,0,0,0-5.459,14.939,6.555,6.555,0,0,0,.4,2.488,1.716,1.716,0,0,0,.938,1.014l-2.309-.844c-1.888-.69-1.762-5.784.283-11.377S613.39,1326.217,615.278,1326.907Z" transform="translate(-534.48 -1290.722)" fill="#ffd1de"/>
          <path id="Tracé_2599" data-name="Tracé 2599" d="M610.223,1337.236a5.061,5.061,0,0,1,1.473-1.268,1.326,1.326,0,0,1,1.058-.131c1.458.532,1.36,4.463-.218,8.78s-4.037,7.385-5.495,6.853a1.324,1.324,0,0,1-.724-.783,5.066,5.066,0,0,1-.308-1.921,21.112,21.112,0,0,1,4.213-11.53Z" transform="translate(-530.493 -1296.497)" fill="#ffd1de"/>
          <ellipse id="Ellipse_3473" data-name="Ellipse 3473" cx="6.691" cy="4.566" rx="6.691" ry="4.566" transform="translate(90.988 51.96) rotate(-154.742)" fill="#fff"/>
          <path id="Tracé_2600" data-name="Tracé 2600" d="M590.922,1358.422l4.186-8.925-12.1-5.71-4.186,8.925Z" transform="translate(-502.171 -1301.666)" fill="#fff"/>
          <ellipse id="Ellipse_3474" data-name="Ellipse 3474" cx="6.691" cy="4.566" rx="6.691" ry="4.566" transform="translate(87.092 60.272) rotate(-154.743)" fill="#ffd1de"/>
          <path id="Tracé_2601" data-name="Tracé 2601" d="M598.75,1372.269c2.007.947,4.158.6,4.8-.765s-.457-3.248-2.464-4.2-4.158-.6-4.8.766S596.742,1371.322,598.75,1372.269Z" transform="translate(-516.931 -1316.5)" fill="#fff"/>
          <path id="Tracé_2602" data-name="Tracé 2602" d="M602.952,1373.825c.969.457,2.007.292,2.318-.37s-.22-1.567-1.189-2.024-2.006-.292-2.318.369S601.983,1373.369,602.952,1373.825Z" transform="translate(-520.527 -1319.34)" fill="#e3bac6"/>
          <path id="Tracé_2603" data-name="Tracé 2603" d="M594.139,1357.116a8.385,8.385,0,0,0-4.806-4.807,11.074,11.074,0,0,0-7.661-.126l.909-1.938s2.727-2.145,7.764.148,4.67,4.853,4.67,4.853Z" transform="translate(-503.097 -1305.246)" fill="#ffd1de"/>
        </g>
        <g id="Groupe_13193" data-name="Groupe 13193" transform="translate(280.157 696.301)">
          <path id="Tracé_2604" data-name="Tracé 2604" d="M499.585,1343.658a1.884,1.884,0,1,1,.936-2.689A2.024,2.024,0,0,1,499.585,1343.658Z" transform="translate(-459.835 -1328.571)" fill="#bf9da6"/>
          <path id="Tracé_2605" data-name="Tracé 2605" d="M498.727,1345.772a1.884,1.884,0,1,1,.936-2.689A2.023,2.023,0,0,1,498.727,1345.772Z" transform="translate(-458.672 -1329.936)" fill="#fff"/>
          <path id="Tracé_2606" data-name="Tracé 2606" d="M499.991,1346.617a1.052,1.052,0,1,1,.523-1.5A1.131,1.131,0,0,1,499.991,1346.617Z" transform="translate(-460.346 -1331.494)" fill="#bf9da6"/>
          <path id="Tracé_2607" data-name="Tracé 2607" d="M500.733,1347.113a.564.564,0,1,1,.281-.806A.606.606,0,0,1,500.733,1347.113Z" transform="translate(-461.329 -1332.409)" fill="#3d3466"/>
          <g id="Groupe_13184" data-name="Groupe 13184" transform="translate(54.76 2.164)">
            <path id="Tracé_2608" data-name="Tracé 2608" d="M449.47,1316.956a1.73,1.73,0,1,1,.86-2.47A1.859,1.859,0,0,1,449.47,1316.956Z" transform="translate(-446.701 -1313.689)" fill="#bf9da6"/>
            <path id="Tracé_2609" data-name="Tracé 2609" d="M448.681,1318.9a1.73,1.73,0,1,1,.86-2.471A1.859,1.859,0,0,1,448.681,1318.9Z" transform="translate(-445.632 -1314.942)" fill="#fff"/>
            <path id="Tracé_2610" data-name="Tracé 2610" d="M449.843,1319.674a.967.967,0,1,1,.48-1.381A1.039,1.039,0,0,1,449.843,1319.674Z" transform="translate(-447.171 -1316.374)" fill="#bf9da6"/>
            <path id="Tracé_2611" data-name="Tracé 2611" d="M450.525,1320.13a.518.518,0,1,1,.258-.74A.558.558,0,0,1,450.525,1320.13Z" transform="translate(-448.074 -1317.214)" fill="#fff"/>
          </g>
          <path id="Tracé_2612" data-name="Tracé 2612" d="M436.144,1309.812l-6.912,3.538-.938-1.693-1.376-2.482s1.456-.594,1.742-.7a17,17,0,0,1,1.951-.641c2.331-.49,3.68-.193,4.462.305a2.463,2.463,0,0,1,.439.353l.029.03A2.161,2.161,0,0,1,436.144,1309.812Z" transform="translate(-370.538 -1307.587)" fill="#ffd1de"/>
          <g id="Groupe_13185" data-name="Groupe 13185" transform="translate(45.99 6.649)">
            <path id="Tracé_2613" data-name="Tracé 2613" d="M474.2,1329.6a1.73,1.73,0,1,1,.86-2.47A1.859,1.859,0,0,1,474.2,1329.6Z" transform="translate(-471.431 -1326.335)" fill="#bf9da6"/>
            <path id="Tracé_2614" data-name="Tracé 2614" d="M473.411,1331.544a1.73,1.73,0,1,1,.86-2.471A1.859,1.859,0,0,1,473.411,1331.544Z" transform="translate(-470.362 -1327.588)" fill="#fff"/>
            <path id="Tracé_2615" data-name="Tracé 2615" d="M474.573,1332.32a.967.967,0,1,1,.481-1.38A1.039,1.039,0,0,1,474.573,1332.32Z" transform="translate(-471.901 -1329.02)" fill="#bf9da6"/>
            <path id="Tracé_2616" data-name="Tracé 2616" d="M475.255,1332.776a.518.518,0,1,1,.258-.74A.557.557,0,0,1,475.255,1332.776Z" transform="translate(-472.804 -1329.86)" fill="#fff"/>
          </g>
          <path id="Tracé_2617" data-name="Tracé 2617" d="M460.224,1318.522l-7.323,4.263a23.516,23.516,0,0,1-1.31-2.376c-.7-1.385-1.387-2.827-1.387-2.827L457.53,1314s.733,1.191,1.434,2.351C459.6,1317.406,460.211,1318.432,460.224,1318.522Z" transform="translate(-402.876 -1311.728)" fill="#ffd1de"/>
          <path id="Tracé_2618" data-name="Tracé 2618" d="M486.137,1332.069l-6.867,4.446-1.66-2.944-1.844-3.271.055-.03,7.5-3.279s.8,1.5,1.6,2.94C485.383,1330.766,485.84,1331.58,486.137,1332.069Z" transform="translate(-437.853 -1320.11)" fill="#ffd1de"/>
          <path id="Tracé_2619" data-name="Tracé 2619" d="M484.293,1337.419l-6.867,4.446-1.66-2.944a6.628,6.628,0,0,0,3.885-1.023,15.246,15.246,0,0,0,3.426-2.617C483.539,1336.116,484,1336.93,484.293,1337.419Z" transform="translate(-436.009 -1325.46)" fill="#e3bac6"/>
          <path id="Tracé_2620" data-name="Tracé 2620" d="M457.578,1320.633c.637,1.051,1.247,2.077,1.26,2.167l-7.323,4.263a23.446,23.446,0,0,1-1.31-2.376,8.274,8.274,0,0,0,3.756-1.282A18.885,18.885,0,0,0,457.578,1320.633Z" transform="translate(-401.489 -1316.007)" fill="#e3bac6"/>
          <path id="Tracé_2621" data-name="Tracé 2621" d="M434.769,1310.824l-6.912,3.538-.938-1.693a8.3,8.3,0,0,0,3.73-1.28,19.668,19.668,0,0,0,3.048-2.234,2.458,2.458,0,0,1,.439.353l.029.03A2.16,2.16,0,0,1,434.769,1310.824Z" transform="translate(-369.162 -1308.599)" fill="#e3bac6"/>
          <ellipse id="Ellipse_3475" data-name="Ellipse 3475" cx="3.054" cy="3.054" rx="3.054" ry="3.054" transform="matrix(-0.999, -0.054, 0.054, -0.999, 39.491, 18.44)" fill="#bf9da6"/>
          <path id="Tracé_2622" data-name="Tracé 2622" d="M491.477,1358.942a2.129,2.129,0,1,1,1.375-2.91A2.287,2.287,0,0,1,491.477,1358.942Z" transform="translate(-449.151 -1338.089)" fill="#bf9da6"/>
          <path id="Tracé_2623" data-name="Tracé 2623" d="M490.766,1361.421a2.129,2.129,0,1,1,1.375-2.91A2.287,2.287,0,0,1,490.766,1361.421Z" transform="translate(-448.188 -1339.689)" fill="#fff"/>
          <path id="Tracé_2624" data-name="Tracé 2624" d="M492.305,1362.308a1.19,1.19,0,1,1,.768-1.626A1.279,1.279,0,0,1,492.305,1362.308Z" transform="translate(-450.103 -1341.427)" fill="#bf9da6"/>
          <path id="Tracé_2625" data-name="Tracé 2625" d="M493.209,1362.829a.638.638,0,1,1,.412-.872A.685.685,0,0,1,493.209,1362.829Z" transform="translate(-451.226 -1342.448)" fill="#3d3466"/>
          <g id="Groupe_13186" data-name="Groupe 13186" transform="translate(60.498 8.377)">
            <path id="Tracé_2626" data-name="Tracé 2626" d="M431.945,1334.968a1.956,1.956,0,1,1,1.263-2.673A2.1,2.1,0,0,1,431.945,1334.968Z" transform="translate(-428.974 -1331.209)" fill="#bf9da6"/>
            <path id="Tracé_2627" data-name="Tracé 2627" d="M431.291,1337.246a1.956,1.956,0,1,1,1.263-2.674A2.1,2.1,0,0,1,431.291,1337.246Z" transform="translate(-428.088 -1332.679)" fill="#fff"/>
            <path id="Tracé_2628" data-name="Tracé 2628" d="M432.7,1338.061a1.093,1.093,0,1,1,.706-1.494A1.174,1.174,0,0,1,432.7,1338.061Z" transform="translate(-429.847 -1334.275)" fill="#bf9da6"/>
            <path id="Tracé_2629" data-name="Tracé 2629" d="M433.535,1338.539a.586.586,0,1,1,.378-.8A.63.63,0,0,1,433.535,1338.539Z" transform="translate(-430.879 -1335.213)" fill="#fff"/>
          </g>
          <path id="Tracé_2630" data-name="Tracé 2630" d="M416.548,1329l-8.194,3.147-.708-1.677-1.392-3.294s1.709-.492,2.042-.574a19.111,19.111,0,0,1,2.269-.486c3.091-.313,4.588.4,5.311,1.189.043.046.082.093.119.139l.029.038A2.441,2.441,0,0,1,416.548,1329Z" transform="translate(-343.615 -1319.496)" fill="#ffd1de"/>
          <path id="Tracé_2631" data-name="Tracé 2631" d="M433.416,1338.621c-.01,0-.013,0-.01-.007S433.411,1338.614,433.416,1338.621Z" transform="translate(-370.11 -1327.61)" fill="#2aa3a3"/>
          <path id="Tracé_2632" data-name="Tracé 2632" d="M415.157,1331.3l-8.194,3.147-.708-1.677a17.017,17.017,0,0,0,4.368-1.105,21.648,21.648,0,0,0,3.862-2.058c.043.046.082.093.119.139l.029.038A2.44,2.44,0,0,1,415.157,1331.3Z" transform="translate(-342.223 -1321.799)" fill="#e3bac6"/>
          <g id="Groupe_13187" data-name="Groupe 13187" transform="translate(49.466 11.678)">
            <ellipse id="Ellipse_3476" data-name="Ellipse 3476" cx="1.936" cy="2.235" rx="1.936" ry="2.235" transform="translate(1.563 5.347) rotate(-113.81)" fill="#bf9da6"/>
            <path id="Tracé_2633" data-name="Tracé 2633" d="M460.607,1348.488a1.956,1.956,0,1,1,1.263-2.674A2.1,2.1,0,0,1,460.607,1348.488Z" transform="translate(-456.767 -1343.235)" fill="#fff"/>
            <path id="Tracé_2634" data-name="Tracé 2634" d="M462.02,1349.3a1.093,1.093,0,1,1,.706-1.494A1.174,1.174,0,0,1,462.02,1349.3Z" transform="translate(-458.525 -1344.832)" fill="#bf9da6"/>
            <path id="Tracé_2635" data-name="Tracé 2635" d="M462.85,1349.781a.586.586,0,1,1,.379-.8A.63.63,0,0,1,462.85,1349.781Z" transform="translate(-459.558 -1345.769)" fill="#fff"/>
          </g>
          <path id="Tracé_2636" data-name="Tracé 2636" d="M445.13,1336.238l-8.743,3.912a27.176,27.176,0,0,1-1.22-2.915c-.609-1.613-1.186-3.258-1.186-3.258l8.664-3.141s.71,1.486,1.37,2.9C444.59,1334.965,445.126,1336.138,445.13,1336.238Z" transform="translate(-382.028 -1322.592)" fill="#ffd1de"/>
          <path id="Tracé_2637" data-name="Tracé 2637" d="M475.905,1348.365l-7.142,3.611-1.11.562-.04-.093-1.336-3.1-1.816-4.214c.022-.009.044-.019.066-.027l8.823-2.784s.683,1.682,1.383,3.348C475.173,1346.712,475.618,1347.751,475.905,1348.365Z" transform="translate(-423.613 -1330.002)" fill="#ffd1de"/>
          <path id="Tracé_2638" data-name="Tracé 2638" d="M493.115,1362.231c-.009,0-.012,0-.009-.007S493.112,1362.224,493.115,1362.231Z" transform="translate(-450.981 -1342.848)" fill="#2aa3a3"/>
          <path id="Tracé_2639" data-name="Tracé 2639" d="M474.089,1354.458l-7.142,3.611-1.15.469-1.336-3.1a16.851,16.851,0,0,0,4.509-1.322,21.766,21.766,0,0,0,3.947-2.356C473.357,1352.8,473.8,1353.844,474.089,1354.458Z" transform="translate(-421.797 -1336.095)" fill="#e3bac6"/>
          <path id="Tracé_2640" data-name="Tracé 2640" d="M463.7,1348.928c-.01,0-.013,0-.01-.007S463.692,1348.921,463.7,1348.928Z" transform="translate(-411.129 -1334.262)" fill="#2aa3a3"/>
          <path id="Tracé_2641" data-name="Tracé 2641" d="M443.944,1341.516l-8.743,3.912a27.2,27.2,0,0,1-1.22-2.915,16.834,16.834,0,0,0,4.521-1.121,21.946,21.946,0,0,0,4.328-2.377C443.4,1340.243,443.941,1341.416,443.944,1341.516Z" transform="translate(-380.843 -1327.87)" fill="#e3bac6"/>
          <ellipse id="Ellipse_3477" data-name="Ellipse 3477" cx="3.054" cy="3.054" rx="3.054" ry="3.054" transform="matrix(-0.999, -0.054, 0.054, -0.999, 41.554, 23.148)" fill="#bf9da6"/>
          <path id="Tracé_2642" data-name="Tracé 2642" d="M485.717,1375.706a2.384,2.384,0,1,1,2.006-2.994A2.561,2.561,0,0,1,485.717,1375.706Z" transform="translate(-441.863 -1348.539)" fill="#bf9da6"/>
          <ellipse id="Ellipse_3478" data-name="Ellipse 3478" cx="2.36" cy="2.724" rx="2.36" ry="2.724" transform="translate(41.359 28.9) rotate(-105.28)" fill="#fff"/>
          <path id="Tracé_2643" data-name="Tracé 2643" d="M487.236,1379.481a1.332,1.332,0,1,1,1.121-1.673A1.431,1.431,0,0,1,487.236,1379.481Z" transform="translate(-443.524 -1352.304)" fill="#bf9da6"/>
          <path id="Tracé_2644" data-name="Tracé 2644" d="M488.349,1380.017a.714.714,0,1,1,.6-.9A.767.767,0,0,1,488.349,1380.017Z" transform="translate(-444.797 -1353.429)" fill="#3d3466"/>
          <g id="Groupe_13188" data-name="Groupe 13188" transform="translate(65.662 16.743)">
            <path id="Tracé_2645" data-name="Tracé 2645" d="M415.822,1359.083a2.19,2.19,0,1,1,1.843-2.751A2.353,2.353,0,0,1,415.822,1359.083Z" transform="translate(-412.769 -1354.799)" fill="#bf9da6"/>
            <path id="Tracé_2646" data-name="Tracé 2646" d="M415.477,1361.713a2.19,2.19,0,1,1,1.843-2.75A2.353,2.353,0,0,1,415.477,1361.713Z" transform="translate(-412.302 -1356.496)" fill="#fff"/>
            <path id="Tracé_2647" data-name="Tracé 2647" d="M417.218,1362.552a1.224,1.224,0,1,1,1.029-1.537A1.315,1.315,0,0,1,417.218,1362.552Z" transform="translate(-414.295 -1358.258)" fill="#bf9da6"/>
            <path id="Tracé_2648" data-name="Tracé 2648" d="M418.239,1363.044a.656.656,0,1,1,.552-.824A.705.705,0,0,1,418.239,1363.044Z" transform="translate(-415.465 -1359.292)" fill="#fff"/>
          </g>
          <path id="Tracé_2649" data-name="Tracé 2649" d="M398.377,1355.46l-9.6,2.123-.5-1.969-.994-3.884s1.974-.262,2.356-.3a21.58,21.58,0,0,1,2.593-.161c3.238.156,4.8,1.064,5.534,2a3.043,3.043,0,0,1,.258.379l.026.047A2.731,2.731,0,0,1,398.377,1355.46Z" transform="translate(-318.747 -1335.777)" fill="#ffd1de"/>
          <g id="Groupe_13189" data-name="Groupe 13189" transform="translate(52.984 18.873)">
            <ellipse id="Ellipse_3479" data-name="Ellipse 3479" cx="2.168" cy="2.503" rx="2.168" ry="2.503" transform="matrix(-0.264, -0.965, 0.965, -0.264, 1.142, 5.501)" fill="#bf9da6"/>
            <path id="Tracé_2650" data-name="Tracé 2650" d="M449.8,1369.292a2.19,2.19,0,1,1,1.843-2.751A2.353,2.353,0,0,1,449.8,1369.292Z" transform="translate(-446.126 -1363.517)" fill="#fff"/>
            <path id="Tracé_2651" data-name="Tracé 2651" d="M451.546,1370.13a1.224,1.224,0,1,1,1.03-1.537A1.315,1.315,0,0,1,451.546,1370.13Z" transform="translate(-448.119 -1365.279)" fill="#bf9da6"/>
            <path id="Tracé_2652" data-name="Tracé 2652" d="M452.568,1370.623a.656.656,0,1,1,.552-.824A.705.705,0,0,1,452.568,1370.623Z" transform="translate(-449.289 -1366.313)" fill="#fff"/>
          </g>
          <path id="Tracé_2653" data-name="Tracé 2653" d="M431.979,1359.787l-10.332,2.88a26.424,26.424,0,0,1-.773-3c-.44-2.013-.864-4.231-.864-4.231l10.116-2.038s.493,1.615.971,3.224C431.552,1358.148,431.993,1359.671,431.979,1359.787Z" transform="translate(-363.923 -1337.15)" fill="#ffd1de"/>
          <path id="Tracé_2654" data-name="Tracé 2654" d="M468.105,1368.13l-9.831,3.248-.849-3.221-1.454-5.509.078-.019,10.232-1.618s.526,2.179,1.05,4.232C467.619,1366.371,467.906,1367.461,468.105,1368.13Z" transform="translate(-412.802 -1342.066)" fill="#ffd1de"/>
          <path id="Tracé_2655" data-name="Tracé 2655" d="M488.608,1381.024c-.01,0-.013-.006-.009-.009S488.6,1381.017,488.608,1381.024Z" transform="translate(-444.874 -1354.975)" fill="#2aa3a3"/>
          <path id="Tracé_2656" data-name="Tracé 2656" d="M466.651,1375.832l-9.831,3.248-.849-3.221a18.393,18.393,0,0,0,4.7-.688,23.77,23.77,0,0,0,5.208-2.226C466.165,1374.073,466.452,1375.163,466.651,1375.832Z" transform="translate(-411.348 -1349.768)" fill="#e3bac6"/>
          <path id="Tracé_2657" data-name="Tracé 2657" d="M453.579,1370.932c-.01,0-.013-.006-.009-.009S453.575,1370.924,453.579,1370.932Z" transform="translate(-397.423 -1348.462)" fill="#fff"/>
          <path id="Tracé_2658" data-name="Tracé 2658" d="M431.115,1365.654l-10.332,2.88a26.435,26.435,0,0,1-.773-3,18.3,18.3,0,0,0,4.792-.689,23.728,23.728,0,0,0,5.431-2.356C430.688,1364.015,431.128,1365.538,431.115,1365.654Z" transform="translate(-363.059 -1343.016)" fill="#e3bac6"/>
          <path id="Tracé_2659" data-name="Tracé 2659" d="M416.682,1363.425c-.01,0-.013-.006-.009-.009S416.678,1363.417,416.682,1363.425Z" transform="translate(-347.441 -1343.617)" fill="#2aa3a3"/>
          <path id="Tracé_2660" data-name="Tracé 2660" d="M397.382,1359.1l-9.6,2.123-.5-1.969a17.556,17.556,0,0,0,5.3-.676,23.265,23.265,0,0,0,4.19-1.671,3.024,3.024,0,0,1,.258.379l.026.047A2.731,2.731,0,0,1,397.382,1359.1Z" transform="translate(-317.752 -1339.418)" fill="#e3bac6"/>
          <ellipse id="Ellipse_3480" data-name="Ellipse 3480" cx="3.054" cy="3.054" rx="3.054" ry="3.054" transform="translate(37.553 23.565)" fill="#bf9da6"/>
          <ellipse id="Ellipse_3481" data-name="Ellipse 3481" cx="2.335" cy="2.696" rx="2.335" ry="2.696" transform="matrix(-0.034, -0.999, 0.999, -0.034, 41.561, 32.902)" fill="#3d3466"/>
          <path id="Tracé_2661" data-name="Tracé 2661" d="M484.656,1392.451a1.318,1.318,0,1,1,1.46-1.356A1.416,1.416,0,0,1,484.656,1392.451Z" transform="translate(-440.436 -1360.672)" fill="#6d64af"/>
          <path id="Tracé_2662" data-name="Tracé 2662" d="M485.907,1392.948a.707.707,0,1,1,.783-.727A.759.759,0,0,1,485.907,1392.948Z" transform="translate(-441.708 -1361.773)" fill="#3d3466"/>
          <g id="Groupe_13190" data-name="Groupe 13190" transform="translate(67.057 27.262)">
            <path id="Tracé_2663" data-name="Tracé 2663" d="M411.144,1388.75a2.168,2.168,0,1,1,2.4-2.229A2.329,2.329,0,0,1,411.144,1388.75Z" transform="translate(-408.499 -1384.46)" fill="#bf9da6"/>
            <path id="Tracé_2664" data-name="Tracé 2664" d="M411.411,1391.362a2.168,2.168,0,1,1,2.4-2.229A2.329,2.329,0,0,1,411.411,1391.362Z" transform="translate(-408.861 -1386.146)" fill="#fff"/>
            <path id="Tracé_2665" data-name="Tracé 2665" d="M413.367,1392.139a1.211,1.211,0,1,1,1.342-1.245A1.3,1.3,0,0,1,413.367,1392.139Z" transform="translate(-410.849 -1387.869)" fill="#bf9da6"/>
            <path id="Tracé_2666" data-name="Tracé 2666" d="M414.516,1392.595a.649.649,0,1,1,.72-.668A.7.7,0,0,1,414.516,1392.595Z" transform="translate(-412.017 -1388.881)" fill="#fff"/>
          </g>
          <path id="Tracé_2667" data-name="Tracé 2667" d="M394.148,1388.783l-9.727-.141-.035-1.926-.074-4.053s1.96.2,2.336.252a21.348,21.348,0,0,1,2.534.436c3.127.9,4.413,2.153,4.9,3.228a3.073,3.073,0,0,1,.141.378c0,.017.01.035.015.051A2.706,2.706,0,0,1,394.148,1388.783Z" transform="translate(-313.626 -1356.039)" fill="#ffd1de"/>
          <g id="Groupe_13191" data-name="Groupe 13191" transform="translate(54.719 27.076)">
            <path id="Tracé_2668" data-name="Tracé 2668" d="M445.935,1388.228a2.168,2.168,0,1,1,2.4-2.229A2.329,2.329,0,0,1,445.935,1388.228Z" transform="translate(-443.29 -1383.938)" fill="#bf9da6"/>
            <path id="Tracé_2669" data-name="Tracé 2669" d="M446.2,1390.84a2.168,2.168,0,1,1,2.4-2.229A2.329,2.329,0,0,1,446.2,1390.84Z" transform="translate(-443.652 -1385.624)" fill="#fff"/>
            <path id="Tracé_2670" data-name="Tracé 2670" d="M448.159,1391.617a1.211,1.211,0,1,1,1.342-1.245A1.3,1.3,0,0,1,448.159,1391.617Z" transform="translate(-445.641 -1387.347)" fill="#bf9da6"/>
            <path id="Tracé_2671" data-name="Tracé 2671" d="M449.307,1392.073a.649.649,0,1,1,.72-.668A.7.7,0,0,1,449.307,1392.073Z" transform="translate(-446.809 -1388.359)" fill="#fff"/>
          </g>
          <path id="Tracé_2672" data-name="Tracé 2672" d="M428.84,1387.913l-10.607.42a18.882,18.882,0,0,1-.07-2.3c.016-2.2.14-5.038.14-5.038l10.208.341s.16,2.491.26,4.409C428.832,1386.888,428.87,1387.829,428.84,1387.913Z" transform="translate(-360.139 -1354.96)" fill="#ffd1de"/>
          <path id="Tracé_2673" data-name="Tracé 2673" d="M465.468,1386.982l-10.208.89-.075-2.914-.155-6.02h.079l10.224.773s.012,2.742.061,5.01C465.413,1385.613,465.436,1386.432,465.468,1386.982Z" transform="translate(-409.831 -1353.634)" fill="#ffd1de"/>
          <path id="Tracé_2674" data-name="Tracé 2674" d="M485.795,1395.326c-.007,0-.01-.008-.006-.01S485.793,1395.318,485.795,1395.326Z" transform="translate(-441.065 -1364.204)" fill="#2aa3a3"/>
          <path id="Tracé_2675" data-name="Tracé 2675" d="M465.313,1397.505l-10.208.89-.075-2.914a18.183,18.183,0,0,0,4.952.547,23.693,23.693,0,0,0,5.257-.785C465.258,1396.136,465.281,1396.956,465.313,1397.505Z" transform="translate(-409.676 -1364.157)" fill="#e3bac6"/>
          <path id="Tracé_2676" data-name="Tracé 2676" d="M449.751,1394.691c-.007,0-.01-.008-.006-.01S449.749,1394.683,449.751,1394.691Z" transform="translate(-392.239 -1363.794)" fill="#2aa3a3"/>
          <path id="Tracé_2677" data-name="Tracé 2677" d="M428.84,1396.558l-10.607.42a18.888,18.888,0,0,1-.07-2.3,18.03,18.03,0,0,0,5.062.577,23.807,23.807,0,0,0,5.546-.864C428.832,1395.532,428.87,1396.474,428.84,1396.558Z" transform="translate(-360.139 -1363.604)" fill="#e3bac6"/>
          <path id="Tracé_2678" data-name="Tracé 2678" d="M414.32,1393.458c-.007-.005-.01-.009-.006-.01S414.318,1393.45,414.32,1393.458Z" transform="translate(-344.242 -1362.999)" fill="#2aa3a3"/>
          <path id="Tracé_2679" data-name="Tracé 2679" d="M394.074,1395.908l-9.727-.141-.035-1.926a18.253,18.253,0,0,0,4.893.53,23.448,23.448,0,0,0,4.8-.668,3.074,3.074,0,0,1,.141.378c0,.017.01.034.015.051A2.705,2.705,0,0,1,394.074,1395.908Z" transform="translate(-313.552 -1363.164)" fill="#e3bac6"/>
          <ellipse id="Ellipse_3482" data-name="Ellipse 3482" cx="3.054" cy="3.054" rx="3.054" ry="3.054" transform="translate(40.972 33.446) rotate(-146.724)" fill="#3d3466"/>
          <path id="Tracé_2680" data-name="Tracé 2680" d="M532.6,1352.95c-.051,0-25.875-4.271-27.939-4.5-4.655,1.079-14.178-15.807-11.155-19.252,2.474-4.871,4.629-8.411,9.213-9.54,3.521-.867,8.474-.312,16.107,2.152a40.185,40.185,0,0,1,8.159,3.752c5.316,3.2,10.17,21.315,7.271,26.2A2.251,2.251,0,0,1,532.6,1352.95Z" transform="translate(-492.923 -1315.131)" fill="#ffd1de"/>
          <path id="Tracé_2681" data-name="Tracé 2681" d="M535.046,1353.648c-.051,0-25.875-4.271-27.939-4.5-4.655,1.079-14.178-15.807-11.155-19.252,2.474-4.871,4.629-8.41,9.213-9.54-2.164,2.783-3.94,8.036,1.4,16.561,7.252,11.57,24.574,14.788,30.133,15.538A2.251,2.251,0,0,1,535.046,1353.648Z" transform="translate(-495.371 -1315.83)" fill="#e3bac6"/>
          <path id="Tracé_2682" data-name="Tracé 2682" d="M518.425,1366.583s6.1-3.735,15.232.627.993,9.415-2.531,9.579C521.287,1377.247,512.142,1369.936,518.425,1366.583Z" transform="translate(-503.953 -1344.7)" fill="#bf9da6"/>
          <path id="Tracé_2683" data-name="Tracé 2683" d="M544.685,1378a3.923,3.923,0,0,1-5,1.98,3.733,3.733,0,0,1-1.852-5.112,3.9,3.9,0,0,1,5.207-1.885A3.752,3.752,0,0,1,544.685,1378Z" transform="translate(-518.661 -1349.542)" fill="#fff"/>
          <path id="Tracé_2684" data-name="Tracé 2684" d="M520.458,1381.649l-5.34.539-9.464-1.794c-.346-3.589.949-6.509,3.206-10.068l8.977,2.243,4.3,3.458Z" transform="translate(-484.431 -1348.077)" fill="#ffd1de"/>
          <path id="Tracé_2685" data-name="Tracé 2685" d="M510.86,1385.841l-5.337.54a18.053,18.053,0,0,1,2.719-9.615l4.294,3.456Z" transform="translate(-474.805 -1352.233)" fill="#e3bac6"/>
          <g id="Groupe_13192" data-name="Groupe 13192" transform="translate(32.244 26.651)">
            <path id="Tracé_2686" data-name="Tracé 2686" d="M502.654,1386.814c.379-1.909,1.9-3.28,3.355-3.05,1.422.223,2.236,1.889,1.853,3.712s-1.811,3.153-3.229,3.014C503.18,1390.348,502.278,1388.707,502.654,1386.814Z" transform="translate(-501.422 -1383.383)" fill="#6d64af"/>
            <path id="Tracé_2687" data-name="Tracé 2687" d="M505.606,1385.839c.378-1.93,1.92-3.312,3.407-3.076,1.45.23,2.287,1.917,1.9,3.759-.38,1.827-1.831,3.183-3.276,3.04C506.158,1389.415,505.231,1387.753,505.606,1385.839Z" transform="translate(-505.523 -1382.737)" fill="#fff"/>
            <path id="Tracé_2688" data-name="Tracé 2688" d="M508.878,1388.783a1.909,1.909,0,0,1,1.887-1.714,1.627,1.627,0,0,1,1.079,2.1,1.925,1.925,0,0,1-1.846,1.7C509.174,1390.775,508.667,1389.843,508.878,1388.783Z" transform="translate(-507.581 -1385.524)" fill="#6d64af"/>
            <path id="Tracé_2689" data-name="Tracé 2689" d="M510.825,1390.5a1.025,1.025,0,0,1,1.007-.918.87.87,0,0,1,.584,1.122,1.03,1.03,0,0,1-1,.914C510.98,1391.564,510.712,1391.064,510.825,1390.5Z" transform="translate(-508.827 -1387.149)" fill="#3d3466"/>
          </g>
          <path id="Tracé_2690" data-name="Tracé 2690" d="M493.005,1388.5l-4.388.069-8.67-1.358a25.676,25.676,0,0,1,3.206-9.349l8.093,2.407,3.365,3.095Z" transform="translate(-447.81 -1352.942)" fill="#ffd1de"/>
          <path id="Tracé_2691" data-name="Tracé 2691" d="M484.335,1392.882l-4.388.069a20.586,20.586,0,0,1,2.628-8.3l3.365,3.095Z" transform="translate(-439.14 -1357.321)" fill="#e3bac6"/>
          <path id="Tracé_2692" data-name="Tracé 2692" d="M477.372,1394.205c.567-1.695,1.991-2.771,3.153-2.406,1.135.357,1.588,1.961,1.036,3.583s-1.907,2.694-3.057,2.408C477.327,1397.5,476.808,1395.893,477.372,1394.205Z" transform="translate(-434.001 -1361.889)" fill="#6d64af"/>
          <path id="Tracé_2693" data-name="Tracé 2693" d="M479.686,1392.977c.57-1.712,2.015-2.8,3.2-2.421,1.156.365,1.622,1.988,1.066,3.626s-1.929,2.716-3.1,2.424C479.652,1396.306,479.118,1394.682,479.686,1392.977Z" transform="translate(-437.21 -1361.085)" fill="#fff"/>
          <path id="Tracé_2694" data-name="Tracé 2694" d="M482.445,1395.762c.317-.946,1.115-1.552,1.774-1.353s.92,1.1.608,2.026-1.088,1.527-1.744,1.354S482.129,1396.705,482.445,1395.762Z" transform="translate(-438.997 -1363.594)" fill="#6d64af"/>
          <path id="Tracé_2695" data-name="Tracé 2695" d="M484.086,1397.385c.169-.5.594-.829.948-.726s.5.589.329,1.087-.587.822-.939.726S483.917,1397.888,484.086,1397.385Z" transform="translate(-440.075 -1365.059)" fill="#3d3466"/>
          <path id="Tracé_2696" data-name="Tracé 2696" d="M468.1,1386.754a28.562,28.562,0,0,0-2.727,7.754l9.113,2.614s1.923-3.685-.474-6.518A12.4,12.4,0,0,0,468.1,1386.754Z" transform="translate(-423.242 -1358.679)" fill="#ffd1de"/>
        </g>
      </g>
    </g>
  </g>
</svg>
