<svg xmlns="http://www.w3.org/2000/svg" xmlns:xlink="http://www.w3.org/1999/xlink" width="24" height="24" viewBox="0 0 24 24">
  <defs>
    <clipPath id="clip-path">
      <rect id="Rectangle_2835" data-name="Rectangle 2835" width="24" height="24" transform="translate(-137.725 330.739)" fill="none"/>
    </clipPath>
  </defs>
  <g id="Groupe_13222" data-name="Groupe 13222" transform="translate(137.725 -330.739)">
    <g id="Groupe_13218" data-name="Groupe 13218" clip-path="url(#clip-path)">
      <g id="Groupe_13217" data-name="Groupe 13217">
        <path id="Tracé_2713" data-name="Tracé 2713" d="M-135.333,347.042v-8.606l.006.007,0,0a.121.121,0,0,0,.019-.027.823.823,0,0,1,.885-.6h4.424c.036,0,.072,0,.108,0a.181.181,0,0,0,.114.015h3.491a.782.782,0,0,1,.774.779q0,3.682,0,7.366c0,.111.024.223.013.332-.019.189-.009.378-.013.567a.772.772,0,0,1-.326.618.829.829,0,0,1-.525.16c-.6,0-1.209,0-1.813,0h-2.614l-.108,0h-3.573a.82.82,0,0,1-.832-.583C-135.3,347.06-135.294,347.023-135.333,347.042Zm2.438-4.236a2.485,2.485,0,0,0,.027.455,2.518,2.518,0,0,0,.842,1.6,1.959,1.959,0,0,0,.6.357,2.832,2.832,0,0,0,1.445.137,2.219,2.219,0,0,0,1.739-1.259,3.171,3.171,0,0,0,.169-2.349,2.187,2.187,0,0,0-1.411-1.51,2.65,2.65,0,0,0-1.35-.109,2.238,2.238,0,0,0-1.834,1.422A3.105,3.105,0,0,0-132.9,342.806Z" fill="#117ad4"/>
        <path id="Tracé_2714" data-name="Tracé 2714" d="M-130.786,347.659h2.614c.6,0,1.209,0,1.813,0a.829.829,0,0,0,.525-.16.772.772,0,0,0,.326-.618c0-.189-.006-.378.013-.567.011-.109-.013-.221-.013-.332q0-3.684,0-7.366a.782.782,0,0,0-.774-.779h-3.491a.181.181,0,0,1-.114-.015l0-.1c1.3,0,2.6,0,3.908,0a.762.762,0,0,1,.389.106c.076.044.077.044.077-.042,0-.4,0-.807,0-1.211,0-.088-.028-.105-.109-.105q-2.135,0-4.267,0,0-.714,0-1.428a.815.815,0,0,1,.576-.811c.018-.006.048,0,.043-.035h11.629c0,.051.048.037.072.047a.757.757,0,0,1,.527.661c.04.521.014,1.044.012,1.567h-4.2l-.033,0-.117,0h-3.643c-.133,0-.267,0-.4,0-.048,0-.07.013-.069.066,0,.462,0,.924,0,1.387a.865.865,0,0,0,.052.432.57.57,0,0,1,.045.26c0,.562,0,1.124,0,1.685,0,.07.015.1.092.1a1.344,1.344,0,0,1,.142,0h0q0,1.854,0,3.708c0,.234,0,.234.235.234h3.525c.133,0,.131,0,.134.137.008.425-.019.851.015,1.277.005.071.027.072.079.042.126-.07.254-.138.38-.207.3-.165.605-.331.908-.494.269-.146.54-.287.809-.432.164-.088.326-.179.489-.269.015-.008.034-.016.03-.035s-.026-.016-.041-.018c-.049-.007-.1.014-.147-.017l.067,0h.739c-.027.023-.032.03-.039.034l-1.761.956-1.263.683c-.638.347-1.277.692-1.913,1.042a1.679,1.679,0,0,1-.508.177.507.507,0,0,1-.054-.021c-.337-.188-.673-.379-1.011-.565-.224-.123-.442-.257-.673-.365a1,1,0,0,0-.156-.1c-.058-.034-.08-.03-.079.046,0,.333,0,.667,0,1a.453.453,0,0,1-.007.091.775.775,0,0,1-.809.66h-4.573Z" fill="#0358a6"/>
        <path id="Tracé_2715" data-name="Tracé 2715" d="M-125.157,346.258c.231.108.449.242.673.365.338.186.674.377,1.011.565a.507.507,0,0,0,.054.021.383.383,0,0,0,.041.029q.61.344,1.222.686.816.456,1.632.91l1.885,1.057q.917.513,1.835,1.025a2.127,2.127,0,0,0,.324.17.692.692,0,0,1-.337.166c-.02.006-.056-.01-.052.034h-13.15l.006-.006,0-.005c-.008-.018-.026-.017-.042-.021a.912.912,0,0,1-.734-.941q0-.663,0-1.326c0-.242,0-.484,0-.725q2.4,0,4.8,0a.8.8,0,0,0,.23-.031.808.808,0,0,0,.592-.788Z" fill="#28a7e9"/>
        <path id="Tracé_2716" data-name="Tracé 2716" d="M-116.48,351.086a2.127,2.127,0,0,1-.324-.17q-.918-.51-1.835-1.025l-1.885-1.057q-.814-.456-1.632-.91-.612-.342-1.222-.686a.383.383,0,0,1-.041-.029,1.679,1.679,0,0,0,.508-.177c.636-.35,1.275-.7,1.913-1.042l1.263-.683,1.761-.956c.007,0,.012-.011.039-.034h-.739c.005-.041.04-.051.069-.066.105-.056.212-.111.317-.168l1.259-.686a3.127,3.127,0,0,1,.006.349c0,.088.005.091.08.05.161-.087.319-.18.482-.262a.609.609,0,0,0,.344-.319v7.369a.087.087,0,0,0-.037.056A.809.809,0,0,1-116.48,351.086Z" fill="#117ad4"/>
        <path id="Tracé_2717" data-name="Tracé 2717" d="M-117.018,342.4a.826.826,0,0,1,.2.1c.153.083.3.171.456.255a.457.457,0,0,1,.2.2c.008.016.011.047.044.028v.234a.609.609,0,0,1-.344.319c-.163.082-.321.175-.482.262-.075.041-.078.038-.08-.05a3.127,3.127,0,0,0-.006-.349c0-.147,0-.3,0-.442C-117.021,342.768-117.033,342.582-117.018,342.4Z" fill="#0358a6"/>
        <path id="Tracé_2718" data-name="Tracé 2718" d="M-132.9,342.806a3.105,3.105,0,0,1,.229-1.258,2.238,2.238,0,0,1,1.834-1.422,2.65,2.65,0,0,1,1.35.109,2.187,2.187,0,0,1,1.411,1.51,3.171,3.171,0,0,1-.169,2.349,2.219,2.219,0,0,1-1.739,1.259,2.832,2.832,0,0,1-1.445-.137,1.959,1.959,0,0,1-.6-.357,2.518,2.518,0,0,1-.842-1.6A2.485,2.485,0,0,1-132.9,342.806Zm3.912-.072a2.7,2.7,0,0,0-.084-.669,1.469,1.469,0,0,0-.54-.867,1.37,1.37,0,0,0-2.03.563,2.357,2.357,0,0,0-.056,1.837,1.3,1.3,0,0,0,1.143.913,1.318,1.318,0,0,0,1.4-.831A2.417,2.417,0,0,0-128.983,342.734Z" fill="#fdfdfe"/>
        <path id="Tracé_2719" data-name="Tracé 2719" d="M-118.741,344.319c.046.031.1.01.147.017.015,0,.037,0,.041.018s-.015.027-.03.035c-.163.09-.325.181-.489.269-.269.145-.54.286-.809.432-.3.163-.605.329-.908.494-.126.069-.254.137-.38.207-.052.03-.074.029-.079-.042-.034-.426-.007-.852-.015-1.277,0-.137,0-.137-.134-.137h-3.525c-.235,0-.235,0-.235-.234q0-1.854,0-3.708l.092,0h3.8v3.8c0,.127,0,.127.126.127Z" fill="#117ad4"/>
        <path id="Tracé_2720" data-name="Tracé 2720" d="M-117.027,336.467c0,.019,0,.038,0,.058v3.807c0,.02,0,.039,0,.059h-4.236v-3.923l.033,0Z" fill="#50d8fe"/>
        <path id="Tracé_2721" data-name="Tracé 2721" d="M-121.263,340.391h4.236q0,.848,0,1.7c0,.1,0,.2.005.308-.015.186,0,.372-.006.559,0,.147,0,.3,0,.442l-1.259.686c-.1.057-.212.112-.317.168-.029.015-.064.025-.069.066l-.067,0h-2.4c-.126,0-.126,0-.126-.127Z" fill="#28a7e9"/>
        <path id="Tracé_2722" data-name="Tracé 2722" d="M-121.262,336.468v3.923h-3.8l-.092,0h0c0-.585,0-1.171,0-1.757a.986.986,0,0,0-.041-.287.715.715,0,0,0-.29-.43c0-.463,0-.925,0-1.387,0-.053.021-.067.069-.066.134,0,.268,0,.4,0h3.643Z" fill="#28a7e9"/>
        <path id="Tracé_2723" data-name="Tracé 2723" d="M-129.883,337.717v-1.251q2.133,0,4.267,0c.081,0,.11.017.109.105-.005.4,0,.808,0,1.211,0,.086,0,.086-.077.042a.762.762,0,0,0-.389-.106C-127.278,337.719-128.58,337.717-129.883,337.717Z" fill="#117ad4"/>
        <path id="Tracé_2724" data-name="Tracé 2724" d="M-130.78,348.262v-.3h4.573a.775.775,0,0,0,.809-.66.453.453,0,0,0,.007-.091c0-.334,0-.668,0-1,0-.076.021-.08.079-.046a1,1,0,0,1,.156.1v1.185a.808.808,0,0,1-.592.788.8.8,0,0,1-.23.031Q-128.379,348.26-130.78,348.262Z" fill="#117ad4"/>
        <path id="Tracé_2725" data-name="Tracé 2725" d="M-125.487,337.918a.715.715,0,0,1,.29.43.986.986,0,0,1,.041.287c0,.586,0,1.172,0,1.757a1.344,1.344,0,0,0-.142,0c-.077.008-.092-.027-.092-.1,0-.561,0-1.123,0-1.685a.57.57,0,0,0-.045-.26A.865.865,0,0,1-125.487,337.918Z" fill="#117ad4"/>
        <path id="Tracé_2726" data-name="Tracé 2726" d="M-128.983,342.734a2.417,2.417,0,0,1-.167.946,1.318,1.318,0,0,1-1.4.831,1.3,1.3,0,0,1-1.143-.913,2.357,2.357,0,0,1,.056-1.837,1.37,1.37,0,0,1,2.03-.563,1.469,1.469,0,0,1,.54.867A2.7,2.7,0,0,1-128.983,342.734Z" fill="#117ad4"/>
      </g>
    </g>
  </g>
</svg>
