<svg xmlns="http://www.w3.org/2000/svg" width="32" height="32" viewBox="0 0 32 32"><defs><style>.a,.b{fill:#3c7548;}.a{opacity:0.1;}</style></defs><rect class="a" width="32" height="32" rx="4"/><g transform="translate(7.96 8.287)"><path class="b" d="M66.408,287.867c.647-.479,1.29-.964,1.935-1.447q1.21-.906,2.421-1.812a.765.765,0,0,1,.67-.134.783.783,0,0,1,.615.645.82.82,0,0,1-.371.848c-.515.383-1.032.765-1.542,1.154a7.381,7.381,0,0,0-.755.588,14.675,14.675,0,0,1,2.933.2,11.665,11.665,0,0,1,9.52,11.476.787.787,0,0,1-.183.514.8.8,0,0,1-.914.253.815.815,0,0,1-.532-.77,9.729,9.729,0,0,0-.325-2.524,9.958,9.958,0,0,0-4.914-6.291,9.734,9.734,0,0,0-3.336-1.121,13.475,13.475,0,0,0-2.248-.1,3.353,3.353,0,0,0,.5.4c.628.477,1.265.942,1.886,1.427a.786.786,0,0,1,.09,1.154.825.825,0,0,1-1.192.057q-2.127-1.6-4.258-3.193A.826.826,0,0,1,66.408,287.867Z" transform="translate(-66.082 -284.448)"/></g></svg>