<svg id="Layer_2" width="15" height="15" xmlns="http://www.w3.org/2000/svg" viewBox="0 0 15 15"><defs><style>.cls-1{isolation:isolate;opacity:.1;}.cls-1,.cls-2{fill:#ff5a5f;}.cls-1,.cls-2,.cls-3{stroke-width:0px;}.cls-3{fill:#fff;}</style></defs><g id="Layer_2-2"><g id="Layer_1-2"><g id="Groupe_13897"><circle id="Ellipse_3496" class="cls-3" cx="7.5" cy="7.5" r="7.5"/><path class="cls-1" d="M13.66,7.45c0,3.43-2.78,6.21-6.21,6.21S1.23,10.88,1.23,7.45,4.01,1.23,7.45,1.23c1.71,0,3.27.69,4.39,1.82,1.12,1.13,1.82,2.68,1.82,4.4Z"/></g><path class="cls-2" d="M7.5,3.73v-1.41l-1.89,1.89,1.89,1.89v-1.41c1.56,0,2.83,1.27,2.83,2.83,0,.46-.11.91-.33,1.32l.69.69c1.11-1.76.59-4.08-1.17-5.19-.6-.38-1.31-.59-2.02-.58v-.03ZM7.5,10.33c-1.56,0-2.83-1.27-2.83-2.83,0-.46.11-.91.33-1.32l-.69-.69c-1.11,1.76-.59,4.08,1.17,5.19.6.38,1.31.59,2.02.58v1.41l1.89-1.89-1.89-1.89v1.44Z"/></g></g></svg>