<svg xmlns="http://www.w3.org/2000/svg" width="32" height="32" viewBox="0 0 32 32"><defs><style>.a,.c{fill:#ff5a5f;}.a{opacity:0.1;}.b{fill:none;}</style></defs><g transform="translate(-302 -248)"><g transform="translate(-38 -3)"><rect class="a" width="32" height="32" rx="4" transform="translate(340 251)"/></g><g transform="translate(305.99 252)"><path class="b" d="M.01,0h24V24H.01V0Z"/><path class="c" d="M12,4V1L8,5l4,4V6a6,6,0,0,1,6,6,5.87,5.87,0,0,1-.7,2.8l1.46,1.46A7.986,7.986,0,0,0,12,4Zm0,14a6,6,0,0,1-6-6,5.87,5.87,0,0,1,.7-2.8L5.24,7.74A7.986,7.986,0,0,0,12,20v3l4-4-4-4Z"/></g></g></svg>