<svg xmlns="http://www.w3.org/2000/svg" width="50" height="50" viewBox="0 0 50 50">
  <g id="Groupe_12447" data-name="Groupe 12447" transform="translate(15810 10981)">
    <rect id="Rectangle_2558" data-name="Rectangle 2558" width="50" height="50" rx="10" transform="translate(-15810 -10981)" fill="rgba(255,255,255,0)"/>
    <g id="settings" transform="translate(-15811.998 -10981.998)">
      <path id="Tracé_42" data-name="Tracé 42" d="M187.549,183.764a3.785,3.785,0,1,0-3.785,3.785A3.785,3.785,0,0,0,187.549,183.764Zm-6.973,0a3.188,3.188,0,1,1,3.188,3.188A3.188,3.188,0,0,1,180.576,183.764Z" transform="translate(-156.766 -156.766)" fill="#5c6360"/>
      <g id="Groupe_66" data-name="Groupe 66" transform="translate(14.998 14.998)">
        <path id="Tracé_43" data-name="Tracé 43" d="M229.006,227.514a1.493,1.493,0,1,0-1.493,1.493A1.493,1.493,0,0,0,229.006,227.514Zm-2.388,0a.9.9,0,1,1,.9.9A.9.9,0,0,1,226.618,227.514Z" transform="translate(-215.514 -215.514)" fill="#5c6360"/>
        <path id="Tracé_44" data-name="Tracé 44" d="M88.976,80.224a8.752,8.752,0,1,0,8.752,8.752A8.762,8.762,0,0,0,88.976,80.224Zm0,16.907a8.155,8.155,0,1,1,8.155-8.155A8.164,8.164,0,0,1,88.976,97.131Z" transform="translate(-76.976 -76.976)" fill="#5c6360"/>
        <path id="Tracé_45" data-name="Tracé 45" d="M37.567,28.3a10.95,10.95,0,0,0-.079-3.067L38.764,24a.3.3,0,0,0,.067-.335L37.44,20.489a.3.3,0,0,0-.3-.178l-1.769.13a9.834,9.834,0,0,0-2.223-2.117l.052-1.768a.3.3,0,0,0-.191-.287l-3.238-1.25a.3.3,0,0,0-.334.084L28.3,16.43a10.949,10.949,0,0,0-3.068.079L24,15.233a.3.3,0,0,0-.335-.067l-3.181,1.391a.3.3,0,0,0-.178.3l.13,1.769a9.833,9.833,0,0,0-2.117,2.223l-1.768-.052a.3.3,0,0,0-.287.191l-1.25,3.238a.3.3,0,0,0,.084.334L16.429,25.7a10.95,10.95,0,0,0,.079,3.067l-1.276,1.224a.3.3,0,0,0-.067.335l1.392,3.181a.3.3,0,0,0,.3.178l1.769-.13a9.833,9.833,0,0,0,2.223,2.117l-.052,1.768a.3.3,0,0,0,.191.287l3.238,1.25a.3.3,0,0,0,.334-.084L25.7,37.567a10.946,10.946,0,0,0,3.067-.079l1.224,1.277a.3.3,0,0,0,.335.067l3.181-1.392a.3.3,0,0,0,.178-.3l-.13-1.769a9.833,9.833,0,0,0,2.117-2.223l1.768.052a.3.3,0,0,0,.287-.191l1.25-3.238a.3.3,0,0,0-.084-.334Zm-.32,4.3-1.72-.051a.3.3,0,0,0-.257.133,9.243,9.243,0,0,1-2.2,2.311.3.3,0,0,0-.12.262l.126,1.72-2.8,1.223-1.19-1.241a.3.3,0,0,0-.269-.087,10.353,10.353,0,0,1-3.2.083.3.3,0,0,0-.265.1L24.24,38.345l-2.844-1.1.051-1.72a.3.3,0,0,0-.133-.257A9.245,9.245,0,0,1,19,33.069a.3.3,0,0,0-.262-.12l-1.72.127-1.224-2.8,1.241-1.19a.3.3,0,0,0,.087-.269,10.353,10.353,0,0,1-.083-3.2.3.3,0,0,0-.1-.265L15.651,24.24l1.1-2.844,1.72.051a.3.3,0,0,0,.257-.133A9.243,9.243,0,0,1,20.927,19a.3.3,0,0,0,.12-.262l-.126-1.72,2.8-1.223,1.19,1.241a.3.3,0,0,0,.269.087,10.353,10.353,0,0,1,3.2-.083.3.3,0,0,0,.265-.1l1.112-1.289,2.844,1.1-.051,1.72a.3.3,0,0,0,.133.257,9.245,9.245,0,0,1,2.312,2.2.3.3,0,0,0,.262.12l1.72-.126,1.223,2.8-1.241,1.19a.3.3,0,0,0-.087.269,10.355,10.355,0,0,1,.083,3.2.3.3,0,0,0,.1.265l1.289,1.112Z" transform="translate(-14.998 -14.998)" fill="#5c6360"/>
      </g>
      <path id="Tracé_46" data-name="Tracé 46" d="M109.848,150.261a.3.3,0,0,0-.422,0,7.362,7.362,0,0,0-2.113,5.179.3.3,0,1,0,.6,0,6.768,6.768,0,0,1,1.943-4.761A.3.3,0,0,0,109.848,150.261Z" transform="translate(-87.717 -128.447)" fill="#5c6360"/>
      <path id="Tracé_47" data-name="Tracé 47" d="M165.1,132.637a.3.3,0,0,0,.178-.059c.08-.06.163-.119.246-.175a.3.3,0,1,0-.336-.494c-.09.061-.18.125-.268.19a.3.3,0,0,0,.179.538Z" transform="translate(-142.345 -111.039)" fill="#5c6360"/>
      <path id="Tracé_48" data-name="Tracé 48" d="M140.687,133.941a6.077,6.077,0,0,0-5.9,4.513.3.3,0,0,0,.287.369h.007a.3.3,0,0,0,.286-.221,5.478,5.478,0,1,1-.155,1.983.3.3,0,0,0-.295-.269h-.006a.3.3,0,0,0-.294.329,6.075,6.075,0,1,0,6.067-6.7Z" transform="translate(-113.664 -113.02)" fill="#5c6360"/>
    </g>
  </g>
</svg>
