<svg xmlns="http://www.w3.org/2000/svg" xmlns:xlink="http://www.w3.org/1999/xlink" width="298" height="298" viewBox="0 0 298 298">
  <defs>
    <clipPath id="clip-path">
      <rect id="Rectangle_9250" data-name="Rectangle 9250" width="298" height="298" fill="none"/>
    </clipPath>
  </defs>
  <g id="Groupe_13624" data-name="Groupe 13624" transform="translate(-1.877 -250.695)">
    <g id="Groupe_13513" data-name="Groupe 13513" transform="translate(1.877 250.695)" clip-path="url(#clip-path)">
      <g id="Groupe_13500" data-name="Groupe 13500" transform="translate(99.758 22.568)">
        <path id="Tracé_3541" data-name="Tracé 3541" d="M146.837,288.193c-1.077-10.625-12.409-19.348-21-19.348s-19.923,8.723-21,19.348l-.092,8.31a4.373,4.373,0,0,0,4.543,4.183h33.1a4.372,4.372,0,0,0,4.538-4.183Zm-13-10.3a1.76,1.76,0,0,1-2.469.29,8.489,8.489,0,0,0-10.986-.061,1.759,1.759,0,0,1-2.334-2.632,11.944,11.944,0,0,1,15.5-.062A1.754,1.754,0,0,1,133.835,277.888Z" transform="translate(-76.595 -268.845)" fill="#3c7548"/>
        <path id="Tracé_3542" data-name="Tracé 3542" d="M157.042,289.1a4.162,4.162,0,0,0-5.262,2.658c-.022.065-2.234,6.43-6.758,6.43H128.515a3.736,3.736,0,0,1-1.1,0H110.9c-4.5,0-6.713-6.3-6.757-6.428a4.175,4.175,0,0,0-7.929,2.616c1.478,4.516,6.234,12.162,14.686,12.162h16.506a3.736,3.736,0,0,1,1.1,0h16.506c8.452,0,13.208-7.646,14.686-12.162A4.184,4.184,0,0,0,157.042,289.1Z" transform="translate(-78.721 -263.966)" fill="#3c7548"/>
        <path id="Tracé_3543" data-name="Tracé 3543" d="M121.708,334.18" transform="translate(-72.466 -252.941)" fill="#304e36"/>
        <g id="Groupe_13499" data-name="Groupe 13499" transform="translate(0 44.956)">
          <path id="Tracé_3544" data-name="Tracé 3544" d="M104.632,310.714a16.812,16.812,0,1,1-16.812,16.812,16.83,16.83,0,0,1,16.812-16.812m0-5.714a22.525,22.525,0,1,0,22.524,22.526A22.526,22.526,0,0,0,104.632,305Z" transform="translate(-82.106 -305)" fill="#e3bac6"/>
          <path id="Tracé_3545" data-name="Tracé 3545" d="M147.6,310.714a16.812,16.812,0,1,1-16.812,16.812A16.832,16.832,0,0,1,147.6,310.714m0-5.714a22.525,22.525,0,1,0,22.526,22.526A22.525,22.525,0,0,0,147.6,305Z" transform="translate(-71.646 -305)" fill="#e3bac6"/>
        </g>
        <path id="Tracé_3546" data-name="Tracé 3546" d="M122.943,316.412a6.319,6.319,0,0,0-6.318,6.319v11.96h3.084v-10.8a3.237,3.237,0,1,1,6.473,0v10.8h3.085v-11.96A6.321,6.321,0,0,0,122.943,316.412Z" transform="translate(-73.704 -257.266)" fill="#e3bac6"/>
      </g>
      <rect id="Rectangle_9249" data-name="Rectangle 9249" width="49.98" height="58.907" transform="translate(124.01 150.45)" fill="#e5e5e5"/>
      <g id="Groupe_13508" data-name="Groupe 13508" transform="translate(119.25 150.327)">
        <g id="Groupe_13505" data-name="Groupe 13505" transform="translate(18.942)">
          <g id="Groupe_13501" data-name="Groupe 13501" transform="translate(0 0.124)">
            <path id="Tracé_3547" data-name="Tracé 3547" d="M130.276,371.693H117.383l-4.366,8.138,6.749,13.1h8.128l6.749-13.1Z" transform="translate(-113.016 -371.693)" fill="#3c7548"/>
          </g>
          <g id="Groupe_13504" data-name="Groupe 13504" transform="translate(0.463)">
            <g id="Groupe_13502" data-name="Groupe 13502">
              <path id="Tracé_3548" data-name="Tracé 3548" d="M114.957,383.9l8.766-11.9v-.411l-10.334,9.492Z" transform="translate(-113.388 -371.593)" fill="#6d0303"/>
            </g>
            <g id="Groupe_13503" data-name="Groupe 13503" transform="translate(10.366)">
              <path id="Tracé_3549" data-name="Tracé 3549" d="M130.491,383.9,121.725,372v-.411l10.334,9.492Z" transform="translate(-121.725 -371.593)" fill="#6d0303"/>
            </g>
          </g>
          <path id="Tracé_3550" data-name="Tracé 3550" d="M127.893,388.77h-8.128l-6.749,49.215h21.626Z" transform="translate(-113.016 -367.412)" fill="#3c7548"/>
        </g>
        <path id="Tracé_3551" data-name="Tracé 3551" d="M118.733,475.056h13.152V444.038l-34.1-54.412Z" transform="translate(-97.782 -367.203)" fill="#302f30"/>
        <g id="Groupe_13506" data-name="Groupe 13506" transform="translate(24.471 68.64)">
          <path id="Tracé_3552" data-name="Tracé 3552" d="M121.959,426.8s-3.985,6.027-4.2,6.87c-.639,2.554-.062,30.823-.062,30.823Z" transform="translate(-117.463 -426.796)" fill="#231f20" opacity="0"/>
          <path id="Tracé_3553" data-name="Tracé 3553" d="M121.986,426.844s-3.9,6.013-4.128,6.9c-.706,2.772-.134,30.732-.134,30.732Z" transform="translate(-117.453 -426.784)" fill="#231f20" opacity="0.048"/>
          <path id="Tracé_3554" data-name="Tracé 3554" d="M122.014,426.892s-3.82,6-4.061,6.931c-.775,2.99-.205,30.643-.205,30.643Z" transform="translate(-117.443 -426.773)" fill="#231f20" opacity="0.095"/>
          <path id="Tracé_3555" data-name="Tracé 3555" d="M122.041,426.94s-3.738,5.984-3.993,6.962c-.844,3.208-.279,30.552-.279,30.552Z" transform="translate(-117.433 -426.761)" fill="#231f20" opacity="0.143"/>
          <path id="Tracé_3556" data-name="Tracé 3556" d="M122.07,426.987a80.063,80.063,0,0,0-3.925,6.994c-.913,3.426-.351,30.461-.351,30.461Z" transform="translate(-117.424 -426.749)" fill="#231f20" opacity="0.19"/>
          <path id="Tracé_3557" data-name="Tracé 3557" d="M122.1,427.035s-3.574,5.957-3.858,7.024c-.98,3.643-.423,30.372-.423,30.372Z" transform="translate(-117.415 -426.738)" fill="#231f20" opacity="0.238"/>
          <path id="Tracé_3558" data-name="Tracé 3558" d="M122.126,427.083s-3.492,5.942-3.79,7.055c-1.049,3.861-.495,30.281-.495,30.281Z" transform="translate(-117.406 -426.726)" fill="#231f20" opacity="0.286"/>
          <path id="Tracé_3559" data-name="Tracé 3559" d="M122.155,427.131s-3.408,5.929-3.723,7.086c-1.118,4.078-.567,30.19-.567,30.19Z" transform="translate(-117.398 -426.714)" fill="#231f20" opacity="0.333"/>
          <path id="Tracé_3560" data-name="Tracé 3560" d="M122.183,427.179s-3.325,5.914-3.654,7.116c-1.185,4.3-.639,30.1-.639,30.1Z" transform="translate(-117.39 -426.703)" fill="#231f20" opacity="0.381"/>
          <path id="Tracé_3561" data-name="Tracé 3561" d="M122.212,427.226s-3.243,5.9-3.586,7.148c-1.255,4.515-.711,30.01-.711,30.01Z" transform="translate(-117.381 -426.691)" fill="#231f20" opacity="0.429"/>
          <path id="Tracé_3562" data-name="Tracé 3562" d="M122.242,427.274s-3.161,5.886-3.519,7.18c-1.323,4.732-.783,29.919-.783,29.919Z" transform="translate(-117.373 -426.68)" fill="#231f20" opacity="0.476"/>
          <path id="Tracé_3563" data-name="Tracé 3563" d="M122.271,427.322s-3.077,5.873-3.452,7.211c-1.39,4.95-.855,29.828-.855,29.828Z" transform="translate(-117.365 -426.668)" fill="#231f20" opacity="0.524"/>
          <path id="Tracé_3564" data-name="Tracé 3564" d="M122.3,427.37s-3,5.858-3.383,7.24c-1.46,5.169-.928,29.739-.928,29.739Z" transform="translate(-117.358 -426.656)" fill="#231f20" opacity="0.571"/>
          <path id="Tracé_3565" data-name="Tracé 3565" d="M122.33,427.418s-2.913,5.843-3.316,7.271c-1.528,5.387-1,29.648-1,29.648Z" transform="translate(-117.35 -426.645)" fill="#231f20" opacity="0.619"/>
          <path id="Tracé_3566" data-name="Tracé 3566" d="M122.36,427.465s-2.831,5.83-3.248,7.3c-1.6,5.6-1.073,29.557-1.073,29.557Z" transform="translate(-117.343 -426.633)" fill="#231f20" opacity="0.667"/>
          <path id="Tracé_3567" data-name="Tracé 3567" d="M122.39,427.513s-2.749,5.815-3.181,7.334c-1.665,5.822-1.145,29.468-1.145,29.468Z" transform="translate(-117.335 -426.621)" fill="#231f20" opacity="0.714"/>
          <path id="Tracé_3568" data-name="Tracé 3568" d="M122.42,427.561s-2.666,5.8-3.114,7.365c-1.733,6.039-1.216,29.377-1.216,29.377Z" transform="translate(-117.328 -426.61)" fill="#231f20" opacity="0.762"/>
          <path id="Tracé_3569" data-name="Tracé 3569" d="M122.45,427.609s-2.584,5.787-3.045,7.4c-1.8,6.257-1.289,29.286-1.289,29.286Z" transform="translate(-117.32 -426.598)" fill="#231f20" opacity="0.81"/>
          <path id="Tracé_3570" data-name="Tracé 3570" d="M122.48,427.657s-2.5,5.773-2.978,7.426c-1.87,6.476-1.362,29.2-1.362,29.2Z" transform="translate(-117.313 -426.586)" fill="#231f20" opacity="0.857"/>
          <path id="Tracé_3571" data-name="Tracé 3571" d="M122.51,427.7s-2.42,5.76-2.911,7.458c-1.938,6.693-1.432,29.106-1.432,29.106Z" transform="translate(-117.306 -426.575)" fill="#231f20" opacity="0.905"/>
          <path id="Tracé_3572" data-name="Tracé 3572" d="M122.54,427.752s-2.336,5.746-2.842,7.489c-2.007,6.911-1.506,29.015-1.506,29.015Z" transform="translate(-117.299 -426.563)" fill="#231f20" opacity="0.952"/>
          <path id="Tracé_3573" data-name="Tracé 3573" d="M122.57,427.8s-2.254,5.731-2.775,7.519c-2.075,7.13-1.578,28.926-1.578,28.926Z" transform="translate(-117.292 -426.552)" fill="#231f20"/>
        </g>
        <path id="Tracé_3574" data-name="Tracé 3574" d="M122.56,492.309l-4.353-17.253V444.038l34.1-54.412Z" transform="translate(-92.81 -367.203)" fill="#302f30"/>
        <g id="Groupe_13507" data-name="Groupe 13507" transform="translate(24.791 98.974)">
          <path id="Tracé_3575" data-name="Tracé 3575" d="M118.283,451.192l2.447,12.537,2.447,12.537-.54,1.057-2.37-12-2.37-12Z" transform="translate(-117.677 -451.192)" fill="#231f20" opacity="0"/>
          <path id="Tracé_3576" data-name="Tracé 3576" d="M118.253,451.28l.056.224,2.392,12.25.121.621,1.268,6.495,1.05,5.375-.505,1.055-2.366-11.949-.2-1.017L117.9,453.4Z" transform="translate(-117.676 -451.17)" fill="#231f20" opacity="0.048"/>
          <path id="Tracé_3577" data-name="Tracé 3577" d="M118.222,451.369l.064.2,2.385,12.208.121.62,1.264,6.47,1.046,5.355-.47,1.054-2.362-11.9-.2-1.013-2.16-10.882Z" transform="translate(-117.674 -451.148)" fill="#231f20" opacity="0.095"/>
          <path id="Tracé_3578" data-name="Tracé 3578" d="M118.191,451.458l.072.183,2.378,12.166.121.618,1.26,6.445,1.043,5.336-.434,1.052-2.358-11.85-.2-1.01-2.156-10.835Z" transform="translate(-117.672 -451.127)" fill="#231f20" opacity="0.143"/>
          <path id="Tracé_3579" data-name="Tracé 3579" d="M118.161,451.547l.08.163,2.371,12.123.121.617,1.256,6.421,1.04,5.316-.4,1.05-2.354-11.8-.2-1.006-2.151-10.787Z" transform="translate(-117.67 -451.105)" fill="#231f20" opacity="0.19"/>
          <path id="Tracé_3580" data-name="Tracé 3580" d="M118.13,451.636l.088.142,2.364,12.081.12.615,1.252,6.4,1.036,5.3-.364,1.048-2.35-11.751-.2-1-2.147-10.739Z" transform="translate(-117.669 -451.083)" fill="#231f20" opacity="0.238"/>
          <path id="Tracé_3581" data-name="Tracé 3581" d="M118.1,451.725l.1.122,2.357,12.039.12.614,1.247,6.371,1.033,5.276-.328,1.047-2.345-11.7-.2-1L117.938,453.8Z" transform="translate(-117.667 -451.062)" fill="#231f20" opacity="0.286"/>
          <path id="Tracé_3582" data-name="Tracé 3582" d="M118.069,451.814l.1.1,2.35,12,.12.613,1.243,6.346,1.03,5.256-.293,1.045-2.341-11.652-.2-1-2.138-10.643Z" transform="translate(-117.665 -451.04)" fill="#231f20" opacity="0.333"/>
          <path id="Tracé_3583" data-name="Tracé 3583" d="M118.039,451.9l.113.081,2.343,11.954.12.611,1.239,6.321,1.027,5.237-.258,1.043-2.337-11.6-.2-.992-2.134-10.6Z" transform="translate(-117.664 -451.019)" fill="#231f20" opacity="0.381"/>
          <path id="Tracé_3584" data-name="Tracé 3584" d="M118.008,451.991l.121.06,2.336,11.912.12.61,1.235,6.3,1.023,5.217-.222,1.041-2.333-11.553-.2-.989-2.129-10.547Z" transform="translate(-117.662 -450.997)" fill="#231f20" opacity="0.429"/>
          <path id="Tracé_3585" data-name="Tracé 3585" d="M117.977,452.08l.129.04,2.33,11.87.119.609,1.231,6.272,1.02,5.2-.187,1.04-2.329-11.5-.2-.985-2.125-10.5Z" transform="translate(-117.66 -450.975)" fill="#231f20" opacity="0.476"/>
          <path id="Tracé_3586" data-name="Tracé 3586" d="M117.952,452.169l.137.019,2.323,11.828.119.607,1.227,6.247,1.017,5.177-.152,1.038L120.3,465.631l-.2-.981L117.978,454.2Z" transform="translate(-117.663 -450.954)" fill="#231f20" opacity="0.524"/>
          <path id="Tracé_3587" data-name="Tracé 3587" d="M117.929,452.258h.145l2.316,11.785.119.606,1.223,6.222,1.013,5.157-.116,1.036-2.32-11.405-.2-.978-2.116-10.4Z" transform="translate(-117.669 -450.932)" fill="#231f20" opacity="0.571"/>
          <path id="Tracé_3588" data-name="Tracé 3588" d="M117.906,452.351l.153-.022,2.309,11.743.119.6,1.218,6.2,1.01,5.137-.081,1.034-2.316-11.356-.2-.974-2.112-10.356Z" transform="translate(-117.675 -450.915)" fill="#231f20" opacity="0.619"/>
          <path id="Tracé_3589" data-name="Tracé 3589" d="M117.882,452.444l.161-.042,2.3,11.7.119.6,1.214,6.173L122.685,476l-.046,1.033-2.312-11.306-.2-.971-2.108-10.308Z" transform="translate(-117.68 -450.897)" fill="#231f20" opacity="0.667"/>
          <path id="Tracé_3590" data-name="Tracé 3590" d="M117.859,452.537l.169-.063,2.295,11.659.118.6,1.21,6.148,1,5.1-.01,1.031-2.308-11.257-.2-.967-2.1-10.26Z" transform="translate(-117.686 -450.88)" fill="#231f20" opacity="0.714"/>
          <path id="Tracé_3591" data-name="Tracé 3591" d="M117.836,452.629l.177-.083,2.288,11.616.118.6,1.206,6.123,1,5.078.025,1.029-2.3-11.207-.2-.964-2.1-10.212Z" transform="translate(-117.692 -450.862)" fill="#231f20" opacity="0.762"/>
          <path id="Tracé_3592" data-name="Tracé 3592" d="M117.813,452.722l.186-.1,2.281,11.574.118.6,1.2,6.1,1,5.058.06,1.027-2.3-11.158-.2-.96-2.094-10.164Z" transform="translate(-117.697 -450.844)" fill="#231f20" opacity="0.81"/>
          <path id="Tracé_3593" data-name="Tracé 3593" d="M117.79,452.815l.194-.124,2.274,11.532.118.6,1.2,6.074.994,5.038.1,1.026-2.3-11.108-.2-.957-2.09-10.116Z" transform="translate(-117.703 -450.827)" fill="#231f20" opacity="0.857"/>
          <path id="Tracé_3594" data-name="Tracé 3594" d="M117.766,452.908l.2-.145,2.267,11.489.118.6,1.194,6.049.99,5.018.131,1.024-2.291-11.059-.2-.953-2.086-10.069Z" transform="translate(-117.709 -450.809)" fill="#231f20" opacity="0.905"/>
          <path id="Tracé_3595" data-name="Tracé 3595" d="M117.743,453l.21-.165,2.26,11.447.117.6,1.189,6.024.987,5,.166,1.022-2.287-11.009-.2-.95-2.081-10.021Z" transform="translate(-117.714 -450.791)" fill="#231f20" opacity="0.952"/>
          <path id="Tracé_3596" data-name="Tracé 3596" d="M117.72,453.094l.218-.186,2.37,12,1.185,6,1.185,6L120.2,465Z" transform="translate(-117.72 -450.774)" fill="#231f20"/>
        </g>
      </g>
      <g id="Groupe_13509" data-name="Groupe 13509" transform="translate(99.906 143.282)">
        <path id="Tracé_3597" data-name="Tracé 3597" d="M121.707,498.078l25.281-132.15,21.031,20.637-7.937,3.968,10.72,11.508Z" transform="translate(-72.614 -365.927)" fill="#414042"/>
        <path id="Tracé_3598" data-name="Tracé 3598" d="M131.317,498.078l-25.281-132.15L85,386.564l7.936,3.968L82.225,402.041Z" transform="translate(-82.225 -365.927)" fill="#414042"/>
      </g>
      <g id="Groupe_13512" data-name="Groupe 13512" transform="translate(146.017 223.653)">
        <g id="Groupe_13510" data-name="Groupe 13510">
          <path id="Tracé_3599" data-name="Tracé 3599" d="M125.276,433.868a2.984,2.984,0,1,1-2.985-2.982A2.984,2.984,0,0,1,125.276,433.868Z" transform="translate(-119.309 -430.487)" fill="#231f20" opacity="0"/>
          <path id="Tracé_3600" data-name="Tracé 3600" d="M125.276,433.853a2.984,2.984,0,1,1-2.985-2.983A2.984,2.984,0,0,1,125.276,433.853Z" transform="translate(-119.309 -430.491)" fill="#231f20" opacity="0.048"/>
          <path id="Tracé_3601" data-name="Tracé 3601" d="M125.276,433.838a2.984,2.984,0,1,1-2.985-2.983A2.983,2.983,0,0,1,125.276,433.838Z" transform="translate(-119.309 -430.494)" fill="#231f20" opacity="0.095"/>
          <path id="Tracé_3602" data-name="Tracé 3602" d="M125.276,433.823a2.984,2.984,0,1,1-2.985-2.983A2.984,2.984,0,0,1,125.276,433.823Z" transform="translate(-119.309 -430.498)" fill="#231f20" opacity="0.143"/>
          <path id="Tracé_3603" data-name="Tracé 3603" d="M125.276,433.807a2.984,2.984,0,1,1-2.985-2.982A2.984,2.984,0,0,1,125.276,433.807Z" transform="translate(-119.309 -430.502)" fill="#231f20" opacity="0.19"/>
          <path id="Tracé_3604" data-name="Tracé 3604" d="M125.276,433.792a2.984,2.984,0,1,1-2.985-2.983A2.984,2.984,0,0,1,125.276,433.792Z" transform="translate(-119.309 -430.506)" fill="#231f20" opacity="0.238"/>
          <path id="Tracé_3605" data-name="Tracé 3605" d="M125.276,433.777a2.984,2.984,0,1,1-2.985-2.983A2.984,2.984,0,0,1,125.276,433.777Z" transform="translate(-119.309 -430.509)" fill="#231f20" opacity="0.286"/>
          <path id="Tracé_3606" data-name="Tracé 3606" d="M125.276,433.762a2.984,2.984,0,1,1-2.985-2.983A2.984,2.984,0,0,1,125.276,433.762Z" transform="translate(-119.309 -430.513)" fill="#231f20" opacity="0.333"/>
          <path id="Tracé_3607" data-name="Tracé 3607" d="M125.276,433.747a2.984,2.984,0,1,1-2.985-2.983A2.984,2.984,0,0,1,125.276,433.747Z" transform="translate(-119.309 -430.517)" fill="#231f20" opacity="0.381"/>
          <path id="Tracé_3608" data-name="Tracé 3608" d="M125.276,433.732a2.984,2.984,0,1,1-2.985-2.984A2.984,2.984,0,0,1,125.276,433.732Z" transform="translate(-119.309 -430.52)" fill="#231f20" opacity="0.429"/>
          <path id="Tracé_3609" data-name="Tracé 3609" d="M125.276,433.717a2.984,2.984,0,1,1-2.985-2.984A2.984,2.984,0,0,1,125.276,433.717Z" transform="translate(-119.309 -430.524)" fill="#231f20" opacity="0.476"/>
          <path id="Tracé_3610" data-name="Tracé 3610" d="M125.276,433.7a2.984,2.984,0,1,1-2.985-2.984A2.984,2.984,0,0,1,125.276,433.7Z" transform="translate(-119.309 -430.528)" fill="#231f20" opacity="0.524"/>
          <path id="Tracé_3611" data-name="Tracé 3611" d="M125.276,433.687a2.984,2.984,0,1,1-2.985-2.984A2.984,2.984,0,0,1,125.276,433.687Z" transform="translate(-119.309 -430.531)" fill="#231f20" opacity="0.571"/>
          <path id="Tracé_3612" data-name="Tracé 3612" d="M125.276,433.672a2.984,2.984,0,1,1-2.985-2.985A2.984,2.984,0,0,1,125.276,433.672Z" transform="translate(-119.309 -430.535)" fill="#231f20" opacity="0.619"/>
          <path id="Tracé_3613" data-name="Tracé 3613" d="M125.276,433.657a2.984,2.984,0,1,1-2.985-2.985A2.983,2.983,0,0,1,125.276,433.657Z" transform="translate(-119.309 -430.539)" fill="#231f20" opacity="0.667"/>
          <path id="Tracé_3614" data-name="Tracé 3614" d="M125.276,433.642a2.984,2.984,0,1,1-2.985-2.985A2.983,2.983,0,0,1,125.276,433.642Z" transform="translate(-119.309 -430.543)" fill="#231f20" opacity="0.714"/>
          <path id="Tracé_3615" data-name="Tracé 3615" d="M125.276,433.628a2.984,2.984,0,1,1-2.985-2.987A2.983,2.983,0,0,1,125.276,433.628Z" transform="translate(-119.309 -430.547)" fill="#231f20" opacity="0.762"/>
          <path id="Tracé_3616" data-name="Tracé 3616" d="M125.276,433.613a2.984,2.984,0,1,1-2.985-2.987A2.983,2.983,0,0,1,125.276,433.613Z" transform="translate(-119.309 -430.55)" fill="#231f20" opacity="0.81"/>
          <path id="Tracé_3617" data-name="Tracé 3617" d="M125.276,433.6a2.984,2.984,0,1,1-2.985-2.987A2.983,2.983,0,0,1,125.276,433.6Z" transform="translate(-119.309 -430.554)" fill="#231f20" opacity="0.857"/>
          <path id="Tracé_3618" data-name="Tracé 3618" d="M125.276,433.583a2.984,2.984,0,1,1-2.985-2.987A2.983,2.983,0,0,1,125.276,433.583Z" transform="translate(-119.309 -430.557)" fill="#231f20" opacity="0.905"/>
          <path id="Tracé_3619" data-name="Tracé 3619" d="M125.276,433.567a2.984,2.984,0,1,1-2.985-2.987A2.983,2.983,0,0,1,125.276,433.567Z" transform="translate(-119.309 -430.561)" fill="#231f20" opacity="0.952"/>
          <path id="Tracé_3620" data-name="Tracé 3620" d="M125.276,433.552a2.984,2.984,0,1,1-2.985-2.987A2.983,2.983,0,0,1,125.276,433.552Z" transform="translate(-119.309 -430.565)" fill="#231f20"/>
        </g>
        <g id="Groupe_13511" data-name="Groupe 13511" transform="translate(0 21.419)">
          <path id="Tracé_3621" data-name="Tracé 3621" d="M125.276,451.095a2.984,2.984,0,1,1-2.985-2.988A2.983,2.983,0,0,1,125.276,451.095Z" transform="translate(-119.309 -447.714)" fill="#231f20" opacity="0"/>
          <path id="Tracé_3622" data-name="Tracé 3622" d="M125.276,451.079a2.984,2.984,0,1,1-2.985-2.987A2.983,2.983,0,0,1,125.276,451.079Z" transform="translate(-119.309 -447.718)" fill="#231f20" opacity="0.048"/>
          <path id="Tracé_3623" data-name="Tracé 3623" d="M125.276,451.064a2.984,2.984,0,1,1-2.985-2.987A2.983,2.983,0,0,1,125.276,451.064Z" transform="translate(-119.309 -447.721)" fill="#231f20" opacity="0.095"/>
          <path id="Tracé_3624" data-name="Tracé 3624" d="M125.276,451.049a2.984,2.984,0,1,1-2.985-2.987A2.983,2.983,0,0,1,125.276,451.049Z" transform="translate(-119.309 -447.725)" fill="#231f20" opacity="0.143"/>
          <path id="Tracé_3625" data-name="Tracé 3625" d="M125.276,451.034a2.984,2.984,0,1,1-2.985-2.987A2.983,2.983,0,0,1,125.276,451.034Z" transform="translate(-119.309 -447.729)" fill="#231f20" opacity="0.19"/>
          <path id="Tracé_3626" data-name="Tracé 3626" d="M125.276,451.017a2.984,2.984,0,1,1-2.985-2.985A2.984,2.984,0,0,1,125.276,451.017Z" transform="translate(-119.309 -447.732)" fill="#231f20" opacity="0.238"/>
          <path id="Tracé_3627" data-name="Tracé 3627" d="M125.276,451a2.984,2.984,0,1,1-2.985-2.985A2.983,2.983,0,0,1,125.276,451Z" transform="translate(-119.309 -447.736)" fill="#231f20" opacity="0.286"/>
          <path id="Tracé_3628" data-name="Tracé 3628" d="M125.276,450.987A2.984,2.984,0,1,1,122.291,448,2.983,2.983,0,0,1,125.276,450.987Z" transform="translate(-119.309 -447.74)" fill="#231f20" opacity="0.333"/>
          <path id="Tracé_3629" data-name="Tracé 3629" d="M125.276,450.972a2.984,2.984,0,1,1-2.985-2.985A2.983,2.983,0,0,1,125.276,450.972Z" transform="translate(-119.309 -447.743)" fill="#231f20" opacity="0.381"/>
          <path id="Tracé_3630" data-name="Tracé 3630" d="M125.276,450.956a2.984,2.984,0,1,1-2.985-2.984A2.984,2.984,0,0,1,125.276,450.956Z" transform="translate(-119.309 -447.747)" fill="#231f20" opacity="0.429"/>
          <path id="Tracé_3631" data-name="Tracé 3631" d="M125.276,450.941a2.984,2.984,0,1,1-2.985-2.984A2.984,2.984,0,0,1,125.276,450.941Z" transform="translate(-119.309 -447.751)" fill="#231f20" opacity="0.476"/>
          <path id="Tracé_3632" data-name="Tracé 3632" d="M125.276,450.926a2.984,2.984,0,1,1-2.985-2.984A2.984,2.984,0,0,1,125.276,450.926Z" transform="translate(-119.309 -447.754)" fill="#231f20" opacity="0.524"/>
          <path id="Tracé_3633" data-name="Tracé 3633" d="M125.276,450.911a2.984,2.984,0,1,1-2.985-2.984A2.984,2.984,0,0,1,125.276,450.911Z" transform="translate(-119.309 -447.758)" fill="#231f20" opacity="0.571"/>
          <path id="Tracé_3634" data-name="Tracé 3634" d="M125.276,450.895a2.984,2.984,0,1,1-2.985-2.983A2.984,2.984,0,0,1,125.276,450.895Z" transform="translate(-119.309 -447.762)" fill="#231f20" opacity="0.619"/>
          <path id="Tracé_3635" data-name="Tracé 3635" d="M125.276,450.88a2.984,2.984,0,1,1-2.985-2.983A2.984,2.984,0,0,1,125.276,450.88Z" transform="translate(-119.309 -447.765)" fill="#231f20" opacity="0.667"/>
          <path id="Tracé_3636" data-name="Tracé 3636" d="M125.276,450.865a2.984,2.984,0,1,1-2.985-2.983A2.984,2.984,0,0,1,125.276,450.865Z" transform="translate(-119.309 -447.769)" fill="#231f20" opacity="0.714"/>
          <path id="Tracé_3637" data-name="Tracé 3637" d="M125.276,450.85a2.984,2.984,0,1,1-2.985-2.984A2.984,2.984,0,0,1,125.276,450.85Z" transform="translate(-119.309 -447.773)" fill="#231f20" opacity="0.762"/>
          <path id="Tracé_3638" data-name="Tracé 3638" d="M125.276,450.834a2.984,2.984,0,1,1-2.985-2.983A2.984,2.984,0,0,1,125.276,450.834Z" transform="translate(-119.309 -447.776)" fill="#231f20" opacity="0.81"/>
          <path id="Tracé_3639" data-name="Tracé 3639" d="M125.276,450.819a2.984,2.984,0,1,1-2.985-2.983A2.984,2.984,0,0,1,125.276,450.819Z" transform="translate(-119.309 -447.78)" fill="#231f20" opacity="0.857"/>
          <path id="Tracé_3640" data-name="Tracé 3640" d="M125.276,450.8a2.984,2.984,0,1,1-2.985-2.983A2.984,2.984,0,0,1,125.276,450.8Z" transform="translate(-119.309 -447.784)" fill="#231f20" opacity="0.905"/>
          <path id="Tracé_3641" data-name="Tracé 3641" d="M125.276,450.789a2.984,2.984,0,1,1-2.985-2.983A2.984,2.984,0,0,1,125.276,450.789Z" transform="translate(-119.309 -447.787)" fill="#231f20" opacity="0.952"/>
          <path id="Tracé_3642" data-name="Tracé 3642" d="M125.276,450.773a2.984,2.984,0,1,1-2.985-2.982A2.984,2.984,0,0,1,125.276,450.773Z" transform="translate(-119.309 -447.791)" fill="#231f20"/>
        </g>
      </g>
      <path id="Tracé_3643" data-name="Tracé 3643" d="M151.181,355.719a64,64,0,0,1-11.155,11.508,76.991,76.991,0,0,1-13.375,8.23,77.116,77.116,0,0,1-13.37-8.23,64.085,64.085,0,0,1-11.156-11.508,92.253,92.253,0,0,0,0,23.017c1.3,9.324,5.556,23.019,5.556,23.019l18.971-25.888,18.975,25.888s4.255-13.7,5.556-23.019A92.391,92.391,0,0,0,151.181,355.719Z" transform="translate(22.347 -225.13)" fill="#f2f2f2"/>
    </g>
  </g>
</svg>
