<svg xmlns="http://www.w3.org/2000/svg" xmlns:xlink="http://www.w3.org/1999/xlink" width="298" height="298" viewBox="0 0 298 298">
  <defs>
    <clipPath id="clip-path">
      <rect id="Rectangle_2943" data-name="Rectangle 2943" width="298" height="298" fill="none"/>
    </clipPath>
  </defs>
  <g id="Groupe_13622" data-name="Groupe 13622" transform="translate(-315.092 -248.863)">
    <g id="Groupe_13343" data-name="Groupe 13343" transform="translate(315.093 248.863)" clip-path="url(#clip-path)">
      <g id="Groupe_13342" data-name="Groupe 13342" transform="translate(24.903 57.71)">
        <path id="Tracé_3144" data-name="Tracé 3144" d="M365.718,365.359H389.5a.463.463,0,0,1,.46.465V382.9a.461.461,0,0,1-.46.463H365.718a.46.46,0,0,1-.459-.463V365.824A.462.462,0,0,1,365.718,365.359Z" transform="translate(-327.784 -278.216)" fill="#f7f7f7" fill-rule="evenodd"/>
        <g id="Groupe_13307" data-name="Groupe 13307" transform="translate(112.11 8.354)">
          <path id="Tracé_3145" data-name="Tracé 3145" d="M449.909,306.9c6.988,4.22,10.35,13.191,7.616,21.76A20.164,20.164,0,0,1,456,332.222l-15.8-9.484Z" transform="translate(-421.651 -300.801)" fill="#e1bc29" fill-rule="evenodd"/>
          <path id="Tracé_3146" data-name="Tracé 3146" d="M449.19,302.8a17.044,17.044,0,0,1,2.376.961l-9.992,14.017-16.025,3.515a19.919,19.919,0,0,1,.95-5.924C429.668,305.436,439.827,299.808,449.19,302.8Z" transform="translate(-425.218 -301.995)" fill="#e3bac6" fill-rule="evenodd"/>
          <path id="Tracé_3147" data-name="Tracé 3147" d="M460.5,336.672a18.433,18.433,0,0,1-13.295,7.412l-.265-3.729-.239-4.459-.532-8.435Z" transform="translate(-420.198 -295.796)" fill="#e5e5e5" fill-rule="evenodd"/>
          <path id="Tracé_3148" data-name="Tracé 3148" d="M442.054,322.268l-.2,17.185a16.875,16.875,0,0,1-4.844-.8,17.592,17.592,0,0,1-11.723-13.23Z" transform="translate(-425.283 -297.06)" fill="#e15554" fill-rule="evenodd"/>
          <path id="Tracé_3149" data-name="Tracé 3149" d="M451.1,321.212h0a.532.532,0,0,1-.607.444L441,320.19a.532.532,0,0,1-.444-.607h0a.532.532,0,0,1,.607-.444l9.5,1.466A.532.532,0,0,1,451.1,321.212Z" transform="translate(-421.568 -297.823)" fill="#e5e5e5" fill-rule="evenodd"/>
          <path id="Tracé_3150" data-name="Tracé 3150" d="M441.423,322.374h0a.461.461,0,0,1-.562-.33l-3.69-14.215a.459.459,0,0,1,.329-.561h0a.459.459,0,0,1,.561.33l3.692,14.215A.461.461,0,0,1,441.423,322.374Z" transform="translate(-422.393 -300.714)" fill="#e5e5e5" fill-rule="evenodd"/>
          <path id="Tracé_3151" data-name="Tracé 3151" d="M435.036,308.1h0a.49.49,0,0,1-.678-.144l-1.149-1.773a.49.49,0,0,1,.145-.678h0a.49.49,0,0,1,.678.144l1.149,1.773A.49.49,0,0,1,435.036,308.1Z" transform="translate(-423.373 -301.159)" fill="#fff" fill-rule="evenodd"/>
          <path id="Tracé_3152" data-name="Tracé 3152" d="M452.733,338.743h0a.489.489,0,0,1-.657-.22l-.943-1.891a.489.489,0,0,1,.22-.657h0a.491.491,0,0,1,.658.22l.941,1.89A.49.49,0,0,1,452.733,338.743Z" transform="translate(-419.003 -293.736)" fill="#e15554" fill-rule="evenodd"/>
          <path id="Tracé_3153" data-name="Tracé 3153" d="M454.528,317.451h0a.49.49,0,0,1-.424.547l-2.1.269a.491.491,0,0,1-.55-.424h0a.492.492,0,0,1,.425-.548l2.094-.267A.49.49,0,0,1,454.528,317.451Z" transform="translate(-418.912 -298.336)" fill="#fff" fill-rule="evenodd"/>
          <path id="Tracé_3154" data-name="Tracé 3154" d="M431.131,332.7h0a.491.491,0,0,1-.082-.689l1.3-1.662a.491.491,0,0,1,.689-.082h0a.49.49,0,0,1,.083.688l-1.3,1.662A.492.492,0,0,1,431.131,332.7Z" transform="translate(-423.905 -295.138)" fill="#fff" fill-rule="evenodd"/>
          <path id="Tracé_3155" data-name="Tracé 3155" d="M454.59,336.971h0a.242.242,0,0,1-.341-.035l-.75-.921a.242.242,0,0,1,.035-.341h0a.243.243,0,0,1,.341.035l.75.921A.242.242,0,0,1,454.59,336.971Z" transform="translate(-418.428 -293.81)" fill="#e15554" fill-rule="evenodd"/>
          <path id="Tracé_3156" data-name="Tracé 3156" d="M456.415,335.266h0a.243.243,0,0,1-.341.039l-.93-.739a.243.243,0,0,1-.039-.341h0a.241.241,0,0,1,.339-.039l.931.739A.243.243,0,0,1,456.415,335.266Z" transform="translate(-418.037 -294.171)" fill="#e15554" fill-rule="evenodd"/>
          <path id="Tracé_3157" data-name="Tracé 3157" d="M450.24,339.235h0a.244.244,0,0,1-.307-.154l-.376-1.127a.242.242,0,0,1,.153-.306h0a.241.241,0,0,1,.306.152l.377,1.128A.244.244,0,0,1,450.24,339.235Z" transform="translate(-419.377 -293.319)" fill="#e15554" fill-rule="evenodd"/>
          <path id="Tracé_3158" data-name="Tracé 3158" d="M447.364,339.942h0a.242.242,0,0,1-.251-.233l-.046-1.187a.24.24,0,0,1,.233-.251h0a.242.242,0,0,1,.251.233l.046,1.187A.243.243,0,0,1,447.364,339.942Z" transform="translate(-419.98 -293.164)" fill="#e15554" fill-rule="evenodd"/>
          <path id="Tracé_3159" data-name="Tracé 3159" d="M433.88,334.06h0a.243.243,0,0,1-.128-.318l.466-1.093a.244.244,0,0,1,.318-.127h0a.241.241,0,0,1,.127.318l-.466,1.093A.242.242,0,0,1,433.88,334.06Z" transform="translate(-423.226 -294.569)" fill="#fff" fill-rule="evenodd"/>
          <path id="Tracé_3160" data-name="Tracé 3160" d="M428.9,330.226h0a.242.242,0,0,1,.032-.341l.915-.757a.241.241,0,0,1,.341.031h0a.242.242,0,0,1-.031.341l-.916.759A.242.242,0,0,1,428.9,330.226Z" transform="translate(-424.415 -295.404)" fill="#fff" fill-rule="evenodd"/>
          <path id="Tracé_3161" data-name="Tracé 3161" d="M436.852,335.147h0a.243.243,0,0,1-.2-.276l.178-1.175a.243.243,0,0,1,.276-.2h0a.243.243,0,0,1,.2.276l-.177,1.175A.244.244,0,0,1,436.852,335.147Z" transform="translate(-422.517 -294.328)" fill="#fff" fill-rule="evenodd"/>
          <path id="Tracé_3162" data-name="Tracé 3162" d="M430.58,308.3h0a.243.243,0,0,1,.339-.049l.951.711a.244.244,0,0,1,.05.339h0a.241.241,0,0,1-.338.048l-.954-.711A.243.243,0,0,1,430.58,308.3Z" transform="translate(-424.005 -300.482)" fill="#fff" fill-rule="evenodd"/>
          <path id="Tracé_3163" data-name="Tracé 3163" d="M437.141,304.222h0a.244.244,0,0,1,.3.169l.315,1.146a.241.241,0,0,1-.169.3h0a.24.24,0,0,1-.3-.169l-.316-1.146A.243.243,0,0,1,437.141,304.222Z" transform="translate(-422.44 -301.455)" fill="#fff" fill-rule="evenodd"/>
          <path id="Tracé_3164" data-name="Tracé 3164" d="M440.786,303.656h0a.242.242,0,0,1,.224.259l-.082,1.185a.244.244,0,0,1-.259.225h0a.243.243,0,0,1-.225-.259l.083-1.185A.243.243,0,0,1,440.786,303.656Z" transform="translate(-421.593 -301.59)" fill="#fff" fill-rule="evenodd"/>
          <path id="Tracé_3165" data-name="Tracé 3165" d="M444.112,304.149h0a.242.242,0,0,1,.159.3l-.352,1.134a.241.241,0,0,1-.3.159h0a.241.241,0,0,1-.159-.3l.352-1.135A.242.242,0,0,1,444.112,304.149Z" transform="translate(-420.862 -301.473)" fill="#fff" fill-rule="evenodd"/>
          <path id="Tracé_3166" data-name="Tracé 3166" d="M428.6,311.649h0a.242.242,0,0,1,.313-.138l1.107.431a.241.241,0,0,1,.138.313h0a.242.242,0,0,1-.313.138l-1.108-.431A.241.241,0,0,1,428.6,311.649Z" transform="translate(-424.481 -299.682)" fill="#fff" fill-rule="evenodd"/>
          <path id="Tracé_3167" data-name="Tracé 3167" d="M427.616,315.39h0a.241.241,0,0,1,.252-.231l1.186.048a.245.245,0,0,1,.233.252h0a.245.245,0,0,1-.252.233l-1.187-.05A.242.242,0,0,1,427.616,315.39Z" transform="translate(-424.715 -298.79)" fill="#fff" fill-rule="evenodd"/>
          <path id="Tracé_3168" data-name="Tracé 3168" d="M452.063,321.19h0a.242.242,0,0,1,.292-.179l1.154.281a.242.242,0,0,1,.179.292h0a.242.242,0,0,1-.293.178l-1.154-.28A.241.241,0,0,1,452.063,321.19Z" transform="translate(-418.766 -297.367)" fill="#fff" fill-rule="evenodd"/>
          <path id="Tracé_3169" data-name="Tracé 3169" d="M451.391,324.581h0a.242.242,0,0,1,.327-.1l1.051.557a.242.242,0,0,1,.1.327h0a.244.244,0,0,1-.328.1l-1.049-.557A.242.242,0,0,1,451.391,324.581Z" transform="translate(-418.935 -296.528)" fill="#fff" fill-rule="evenodd"/>
          <path id="Tracé_3170" data-name="Tracé 3170" d="M450.922,314.256h0a.243.243,0,0,1,.1-.328l1.049-.557a.242.242,0,0,1,.327.1h0a.244.244,0,0,1-.1.328l-1.049.557A.242.242,0,0,1,450.922,314.256Z" transform="translate(-419.049 -299.232)" fill="#fff" fill-rule="evenodd"/>
          <path id="Tracé_3171" data-name="Tracé 3171" d="M448.82,311.19h0a.241.241,0,0,1-.01-.342l.816-.864a.243.243,0,0,1,.342-.01h0a.242.242,0,0,1,.01.342l-.816.864A.242.242,0,0,1,448.82,311.19Z" transform="translate(-419.572 -300.068)" fill="#fff" fill-rule="evenodd"/>
          <path id="Tracé_3172" data-name="Tracé 3172" d="M449.19,302.8a17.044,17.044,0,0,1,2.376.961l-.661.929s-1.441-1.345-6.492-1.61a17.226,17.226,0,0,0-10.154,3.069,19.1,19.1,0,0,0-6.433,8.43,19.348,19.348,0,0,0-1.235,6.5l-1.042.215a19.919,19.919,0,0,1,.95-5.924C429.668,305.436,439.827,299.808,449.19,302.8Z" transform="translate(-425.218 -301.995)" fill="#e5e5e5" fill-rule="evenodd"/>
          <path id="Tracé_3173" data-name="Tracé 3173" d="M448.086,306.9c6.988,4.22,10.35,13.191,7.616,21.76a20.162,20.162,0,0,1-1.528,3.564l-.74-.438a18.44,18.44,0,0,0,1.958-5.332,19.1,19.1,0,0,0-.085-7.766,18.149,18.149,0,0,0-2.973-6.711,21.14,21.14,0,0,0-4.643-4.441Z" transform="translate(-419.828 -300.801)" fill="#e5e5e5" fill-rule="evenodd"/>
          <path id="Tracé_3174" data-name="Tracé 3174" d="M460.311,334.947a18.428,18.428,0,0,1-13.283,7.427l-.066-.768a14.593,14.593,0,0,0,2.8-.4,16.8,16.8,0,0,0,4.006-1.58,18.7,18.7,0,0,0,3.128-2.111,21.38,21.38,0,0,0,2.833-2.972Z" transform="translate(-420.006 -294.071)" fill="#cfcfcf" fill-rule="evenodd"/>
          <path id="Tracé_3175" data-name="Tracé 3175" d="M441.86,338l-.01.875a16.876,16.876,0,0,1-4.844-.8,17.592,17.592,0,0,1-11.723-13.23l1.1-.208a15.687,15.687,0,0,0,1.252,4.353,13.865,13.865,0,0,0,3.579,4.658,18.216,18.216,0,0,0,5.252,3.278A14.088,14.088,0,0,0,441.86,338Z" transform="translate(-425.283 -296.483)" fill="#e5e5e5" fill-rule="evenodd"/>
          <path id="Tracé_3176" data-name="Tracé 3176" d="M441.116,318.835a.933.933,0,1,1-1.233.583A.966.966,0,0,1,441.116,318.835Z" transform="translate(-421.739 -297.908)" fill="#e5e5e5" fill-rule="evenodd"/>
        </g>
        <path id="Tracé_3177" data-name="Tracé 3177" d="M402.051,358.659h4.272a1.069,1.069,0,0,1,1.1,1.035h0a1.07,1.07,0,0,1-1.1,1.036h-4.272a1.07,1.07,0,0,1-1.1-1.036h0A1.069,1.069,0,0,1,402.051,358.659Z" transform="translate(-319.096 -279.847)" fill="#e15554" fill-rule="evenodd"/>
        <path id="Tracé_3178" data-name="Tracé 3178" d="M405.241,360.324l-2.672,0v.579s.431.015.732.035c.369.025.668.057,1.036.1.23.027.9.142.9.142Z" transform="translate(-318.702 -279.443)" fill="#ff7675" fill-rule="evenodd"/>
        <g id="Groupe_13310" data-name="Groupe 13310" transform="translate(182.619 108.774)">
          <g id="Groupe_13308" data-name="Groupe 13308">
            <path id="Tracé_3179" data-name="Tracé 3179" d="M486.408,382.818l-.132,1.906c-.006.1.144.121.15.022l.132-1.906c.006-.1-.144-.119-.15-.022Z" transform="translate(-480.945 -382.756)"/>
            <path id="Tracé_3180" data-name="Tracé 3180" d="M483.592,384.265l.95,1.058c.065.072.189-.016.123-.088l-.95-1.058c-.065-.072-.189.016-.123.088Z" transform="translate(-481.603 -382.417)"/>
            <path id="Tracé_3181" data-name="Tracé 3181" d="M482.071,387.828l1.567,0c.1,0,.08-.152-.017-.152l-1.567,0c-.1,0-.08.152.017.152Z" transform="translate(-481.989 -381.558)"/>
          </g>
          <g id="Groupe_13309" data-name="Groupe 13309" transform="translate(3.935 2.273)">
            <path id="Tracé_3182" data-name="Tracé 3182" d="M486.365,386.207h48.544a.941.941,0,0,1,.938.945V422a.943.943,0,0,1-.938.946H486.365a.942.942,0,0,1-.938-.946V387.152A.941.941,0,0,1,486.365,386.207Z" transform="translate(-485.086 -384.189)" fill="#e15554" fill-rule="evenodd" opacity="0.46"/>
            <path id="Tracé_3183" data-name="Tracé 3183" d="M486.366,386.207H534.91a.941.941,0,0,1,.938.945l0,3.861-50.429.017.008-3.878A.941.941,0,0,1,486.366,386.207Z" transform="translate(-485.088 -384.189)" fill="#e15554" fill-rule="evenodd"/>
            <path id="Tracé_3184" data-name="Tracé 3184" d="M486.107,393.17h49.146a.949.949,0,0,1,.952.945v3.866a.95.95,0,0,1-.952.946H486.107a.95.95,0,0,1-.954-.946v-3.866A.95.95,0,0,1,486.107,393.17Z" transform="translate(-485.153 -382.494)" fill="#e3bac6" fill-rule="evenodd"/>
            <path id="Tracé_3185" data-name="Tracé 3185" d="M488.553,395.721a1.484,1.484,0,1,1,1.483,1.507A1.494,1.494,0,0,1,488.553,395.721Z" transform="translate(-484.325 -382.24)" fill="#fff" fill-rule="evenodd"/>
            <path id="Tracé_3186" data-name="Tracé 3186" d="M520.419,395.635a1.484,1.484,0,1,1,1.483,1.506A1.495,1.495,0,0,1,520.419,395.635Z" transform="translate(-476.569 -382.261)" fill="#3c7548" fill-rule="evenodd"/>
            <path id="Tracé_3187" data-name="Tracé 3187" d="M504.484,395.691a1.484,1.484,0,1,1,1.483,1.508A1.5,1.5,0,0,1,504.484,395.691Z" transform="translate(-480.448 -382.247)" fill="#fff" fill-rule="evenodd"/>
            <path id="Tracé_3188" data-name="Tracé 3188" d="M493.736,395.734a1.484,1.484,0,1,1,1.483,1.506A1.5,1.5,0,0,1,493.736,395.734Z" transform="translate(-483.064 -382.237)" fill="#3c7548" fill-rule="evenodd"/>
            <path id="Tracé_3189" data-name="Tracé 3189" d="M498.906,395.677a1.484,1.484,0,1,1,1.485,1.507A1.5,1.5,0,0,1,498.906,395.677Z" transform="translate(-481.805 -382.251)" fill="#fff" fill-rule="evenodd"/>
            <path id="Tracé_3190" data-name="Tracé 3190" d="M509.714,395.709a1.484,1.484,0,1,1,1.485,1.507A1.495,1.495,0,0,1,509.714,395.709Z" transform="translate(-479.174 -382.243)" fill="#fff" fill-rule="evenodd"/>
            <path id="Tracé_3191" data-name="Tracé 3191" d="M514.98,395.684a1.484,1.484,0,1,1,1.485,1.508A1.495,1.495,0,0,1,514.98,395.684Z" transform="translate(-477.893 -382.249)" fill="#3c7548" fill-rule="evenodd"/>
            <path id="Tracé_3192" data-name="Tracé 3192" d="M488.438,403.354a1.484,1.484,0,1,1,1.483,1.506A1.5,1.5,0,0,1,488.438,403.354Z" transform="translate(-484.353 -380.382)" fill="#fff" fill-rule="evenodd"/>
            <path id="Tracé_3193" data-name="Tracé 3193" d="M520.3,403.267a1.484,1.484,0,1,1,1.483,1.506A1.495,1.495,0,0,1,520.3,403.267Z" transform="translate(-476.597 -380.403)" fill="#e1bc29" fill-rule="evenodd"/>
            <path id="Tracé_3194" data-name="Tracé 3194" d="M504.369,403.324a1.484,1.484,0,1,1,1.483,1.507A1.5,1.5,0,0,1,504.369,403.324Z" transform="translate(-480.476 -380.389)" fill="#fff" fill-rule="evenodd"/>
            <path id="Tracé_3195" data-name="Tracé 3195" d="M493.621,403.366a1.484,1.484,0,1,1,1.483,1.507A1.5,1.5,0,0,1,493.621,403.366Z" transform="translate(-483.092 -380.379)" fill="#fff" fill-rule="evenodd"/>
            <path id="Tracé_3196" data-name="Tracé 3196" d="M498.791,403.309a1.484,1.484,0,1,1,1.485,1.507A1.5,1.5,0,0,1,498.791,403.309Z" transform="translate(-481.833 -380.393)" fill="#fff" fill-rule="evenodd"/>
            <path id="Tracé_3197" data-name="Tracé 3197" d="M509.6,403.341a1.484,1.484,0,1,1,1.483,1.507A1.5,1.5,0,0,1,509.6,403.341Z" transform="translate(-479.203 -380.385)" fill="#fff" fill-rule="evenodd"/>
            <path id="Tracé_3198" data-name="Tracé 3198" d="M514.865,403.316a1.484,1.484,0,1,1,1.485,1.507A1.495,1.495,0,0,1,514.865,403.316Z" transform="translate(-477.921 -380.391)" fill="#e1bc29" fill-rule="evenodd"/>
            <path id="Tracé_3199" data-name="Tracé 3199" d="M488.436,410.712a1.484,1.484,0,1,1,1.483,1.508A1.5,1.5,0,0,1,488.436,410.712Z" transform="translate(-484.354 -378.591)" fill="#fff" fill-rule="evenodd"/>
            <path id="Tracé_3200" data-name="Tracé 3200" d="M520.3,410.626a1.484,1.484,0,1,1,1.483,1.507A1.495,1.495,0,0,1,520.3,410.626Z" transform="translate(-476.597 -378.612)" fill="#3c7548" fill-rule="evenodd"/>
            <path id="Tracé_3201" data-name="Tracé 3201" d="M504.367,410.683a1.484,1.484,0,1,1,1.483,1.507A1.5,1.5,0,0,1,504.367,410.683Z" transform="translate(-480.476 -378.598)" fill="#fff" fill-rule="evenodd"/>
            <path id="Tracé_3202" data-name="Tracé 3202" d="M493.619,410.725a1.484,1.484,0,1,1,1.483,1.507A1.494,1.494,0,0,1,493.619,410.725Z" transform="translate(-483.092 -378.587)" fill="#fff" fill-rule="evenodd"/>
            <path id="Tracé_3203" data-name="Tracé 3203" d="M498.789,410.669a1.484,1.484,0,1,1,1.485,1.506A1.495,1.495,0,0,1,498.789,410.669Z" transform="translate(-481.834 -378.601)" fill="#fff" fill-rule="evenodd"/>
            <path id="Tracé_3204" data-name="Tracé 3204" d="M509.6,410.7a1.484,1.484,0,1,1,1.483,1.508A1.494,1.494,0,0,1,509.6,410.7Z" transform="translate(-479.203 -378.594)" fill="#3c7548" fill-rule="evenodd"/>
            <path id="Tracé_3205" data-name="Tracé 3205" d="M514.863,410.676a1.484,1.484,0,1,1,1.483,1.507A1.495,1.495,0,0,1,514.863,410.676Z" transform="translate(-477.921 -378.6)" fill="#3c7548" fill-rule="evenodd"/>
            <path id="Tracé_3206" data-name="Tracé 3206" d="M520.227,403.305a1.484,1.484,0,1,1,1.483,1.506A1.5,1.5,0,0,1,520.227,403.305Z" transform="translate(-476.615 -380.394)" fill="#3c7548" fill-rule="evenodd"/>
            <path id="Tracé_3207" data-name="Tracé 3207" d="M514.788,403.355a1.484,1.484,0,1,1,1.485,1.507A1.5,1.5,0,0,1,514.788,403.355Z" transform="translate(-477.939 -380.382)" fill="#3c7548" fill-rule="evenodd"/>
            <path id="Tracé_3208" data-name="Tracé 3208" d="M499.024,399.123l0-6.1a.446.446,0,0,0-.292-.417.433.433,0,0,0-.179-.039h-6.105a.435.435,0,0,0-.184.042.445.445,0,0,0-.276.413l0,6.1a.447.447,0,0,0,.276.413.427.427,0,0,0,.2.053h6.1a.445.445,0,0,0,.414-.282A.435.435,0,0,0,499.024,399.123Zm-6.145-5.665h5.246l0,5.237h-5.246Z" transform="translate(-483.49 -382.642)" fill="#3c7548" fill-rule="evenodd"/>
            <path id="Tracé_3209" data-name="Tracé 3209" d="M493.267,388.14a1.506,1.506,0,1,1,1.5,1.328A1.419,1.419,0,0,1,493.267,388.14Z" transform="translate(-483.178 -384.042)" fill="#fff" fill-rule="evenodd"/>
            <path id="Tracé_3210" data-name="Tracé 3210" d="M514.983,388.061a1.506,1.506,0,1,1,1.5,1.328A1.419,1.419,0,0,1,514.983,388.061Z" transform="translate(-477.892 -384.061)" fill="#fff" fill-rule="evenodd"/>
            <path id="Tracé_3211" data-name="Tracé 3211" d="M494.62,384.6h0a.733.733,0,0,1,.732.731v3.36a.733.733,0,0,1-.732.731h0a.731.731,0,0,1-.73-.731v-3.36A.731.731,0,0,1,494.62,384.6Z" transform="translate(-483.026 -384.581)" fill="#fff" fill-rule="evenodd"/>
            <path id="Tracé_3212" data-name="Tracé 3212" d="M516.329,384.584h0a.73.73,0,0,1,.73.731v3.36a.729.729,0,0,1-.73.73h0a.73.73,0,0,1-.731-.73v-3.36A.731.731,0,0,1,516.329,384.584Z" transform="translate(-477.742 -384.584)" fill="#fff" fill-rule="evenodd"/>
          </g>
        </g>
        <g id="Groupe_13313" data-name="Groupe 13313" transform="translate(188.958)">
          <g id="Groupe_13311" data-name="Groupe 13311" transform="translate(5.557)">
            <path id="Tracé_3213" data-name="Tracé 3213" d="M499.574,331.478c-.439-.068-.163.014-.53-.763-.632-1.344-5.752,2.355-6.115.916-1.034-4.1,4.255-15.58,7.763-18.66.333-.292-.315,2.156-.24,2.89a5.964,5.964,0,0,0,.5,2.125,8.792,8.792,0,0,1,1.332-3.9c2.537-4.4,3.934-5.158,5.584-7.984a25.63,25.63,0,0,1,2.006-3.46c.5-.438.252,2,.256,2.159a30.69,30.69,0,0,1-.392,4.575,6.738,6.738,0,0,1,.427-1.129,9.9,9.9,0,0,1,1.682-2.658,23.81,23.81,0,0,1,8.1-6.248c.274-.126,2.34-.8,2.65-.451a32.606,32.606,0,0,0-2.625,3.947,30.009,30.009,0,0,0-1.57,3.329c-.114.28,10.59-4.21,16.2-6.244,2.06-.746,8-4.943,8.256-4.621s-.633,2.029-.95,2.881c-.589,1.584-.858,3.283-1.374,4.892-.172.541-.506,1.757-.506,1.757a28.706,28.706,0,0,1,3.775-2.5c.157-.066.918-.514,1.125-.279a41.916,41.916,0,0,0-2.958,6.047c-1.554,4.121-2.566,9.93-5.056,14.313-.97,1.711-3.447,5.059-3.447,5.059a10.969,10.969,0,0,0,3.094-2.314,30.154,30.154,0,0,0,2.944-4.139c.216.014-.159,3.26-.346,4.005-.439,1.759-.745,3.524-1.345,5.246-2.146,6.15-8.143,12.131-14.082,14.634a12.9,12.9,0,0,0,6.456-2.519c.118-.085.274.952-2.289,3.444-4.478,4.352-13.5,5.953-17.168,2.561-1.984-1.839-.652-8.4-2.872-10.1-1.931-1.477-4.216-2.558-6.129-4.02a9.692,9.692,0,0,1-1.753-1.674A8.722,8.722,0,0,1,499.574,331.478Z" transform="translate(-491.253 -295.276)" fill="#e15554" fill-rule="evenodd"/>
            <path id="Tracé_3214" data-name="Tracé 3214" d="M502.761,328.242c-.292-.044-.111.01-.351-.5a14.494,14.494,0,0,1-.954-2.7c-.679-2.685-.332-6.729,2.008-8.756.221-.193.075.5.093.6a3.153,3.153,0,0,0,.555,1.651c.073.066.238.413.377.353a3.541,3.541,0,0,0,.043-.624,11.23,11.23,0,0,1,.515-1.651c.836-2.012,2.507-3.436,3.61-5.292.307-.515.472-1.076.747-1.605.019-.039.182-.459.261-.413a13.561,13.561,0,0,1,.377,1.8s4.354-2.805,6.348-3.7c.182-.083,1.542-.817,1.747-.587.046.052-.224.3-.259.347a7.519,7.519,0,0,0-.479.632c-.581.88-1.1,1.814-1.593,2.74-.183.343-.33.71-.475,1.061-.076.183,7.053-2.781,10.79-4.127a14.479,14.479,0,0,0,3.988-2,21.244,21.244,0,0,1,1.805-1.441c.062.072-.208.533-.244.613-.246.55-.471,1.115-.684,1.674-.4,1.041-.577,2.155-.924,3.212-.116.354-.321.7-.407,1.064-.04.162.236-.02.451-.236a6.585,6.585,0,0,1,2.131-1.323c.1-.042.612-.338.75-.185a9.4,9.4,0,0,1-.891,1.266,17.186,17.186,0,0,0-1.089,2.707c-1.071,3.11-1.485,6.474-3.15,9.354-.072.123-.943,1.578-.943,1.578a5.133,5.133,0,0,0,1.39-.686,5.578,5.578,0,0,0,1.073-1.137c.144.009-.02.285-.03.426a18.154,18.154,0,0,1-.291,2.224,25.365,25.365,0,0,1-.857,2.788,18.041,18.041,0,0,1-9.4,9.625,5.741,5.741,0,0,0,1.429.154,9.733,9.733,0,0,0,1.807-.484c.095-.035.592-.339.722-.286a6.134,6.134,0,0,1-1.187,1.214c-2.791,1.93-8.359,1.461-10.79-.759-1.318-1.2-1.053-3.038-2.527-4.148-1.282-.965-2.8-1.669-4.07-2.625a6.309,6.309,0,0,1-1.161-1.094A5.62,5.62,0,0,1,502.761,328.242Z" transform="translate(-489.221 -293.145)" fill="#fff" fill-rule="evenodd"/>
            <path id="Tracé_3215" data-name="Tracé 3215" d="M491.853,334.85a16.593,16.593,0,0,1,9.829-18.223c1.19-.527,5.5-5.107,6.838-5.369.495-.1-1.825,4.563-.073,3.283,1.549-1.133,4.148-4.052,4.578-4.068,1.792-.067-.6,3.329,1.057,3.778.986.266,5.9-5.348,6.658-4.571.821.838-1.185,4.1-.317,4.739.527.385,6.954-6.289,7.28-5.4.267.73-1.757,3.664-2.391,5.543-.691,2.045,4.4-3.547,4.1-1.909-.164.9-2.692,5.069-4.261,7.793-1.192,2.068,4.009-2.068,4.178-1.893.757.786-1.237,2.79-2.648,5.381-.468.858,2.115-1.359,1.9-.392-.129.566-3.193,4.514-3.151,4.73.157.8,3.095-1.232,3.128-.436.061,1.466-2.928,5.746-3.257,7.137a17.137,17.137,0,0,1-13.5,12.715C502.528,349.508,493.6,343.758,491.853,334.85Z" transform="translate(-491.555 -291.95)" fill="#e15554" fill-rule="evenodd"/>
            <path id="Tracé_3216" data-name="Tracé 3216" d="M493.5,332.845c-1.531-7.815,3.821-15.439,11.952-17.032s15.964,3.452,17.495,11.267S519.13,342.519,511,344.111,495.035,340.658,493.5,332.845Z" transform="translate(-491.145 -290.348)" fill="#fff" fill-rule="evenodd"/>
            <path id="Tracé_3217" data-name="Tracé 3217" d="M504.4,326.857a1.124,1.124,0,1,1,.7,1.384A1.1,1.1,0,0,1,504.4,326.857Z" transform="translate(-488.444 -287.757)" fill="#e15554" fill-rule="evenodd"/>
            <path id="Tracé_3218" data-name="Tracé 3218" d="M517.327,326.145h0a.407.407,0,0,1-.367.441l-11.329,1.066a.4.4,0,0,1-.441-.366h0a.406.406,0,0,1,.366-.441l11.329-1.066A.406.406,0,0,1,517.327,326.145Z" transform="translate(-488.237 -287.851)" fill="#e15554" fill-rule="evenodd"/>
            <path id="Tracé_3219" data-name="Tracé 3219" d="M506.249,326.822h0a.639.639,0,0,1,.163.888l-3.659,5.3a.642.642,0,0,1-.89.164h0a.64.64,0,0,1-.162-.89l3.659-5.3A.639.639,0,0,1,506.249,326.822Z" transform="translate(-489.114 -287.625)" fill="#e15554" fill-rule="evenodd"/>
            <path id="Tracé_3220" data-name="Tracé 3220" d="M511.979,318.121h0a.493.493,0,0,1,.148.683l-1.117,1.733a.493.493,0,0,1-.681.148h0a.494.494,0,0,1-.149-.683l1.117-1.733A.493.493,0,0,1,511.979,318.121Z" transform="translate(-487.041 -289.734)" fill="#e15554" fill-rule="evenodd"/>
            <path id="Tracé_3221" data-name="Tracé 3221" d="M501.118,333.95h0a.493.493,0,0,1,.1.691L500,336.3a.5.5,0,0,1-.693.1h0a.5.5,0,0,1-.1-.691l1.225-1.657A.493.493,0,0,1,501.118,333.95Z" transform="translate(-489.718 -285.886)" fill="#e15554" fill-rule="evenodd"/>
            <path id="Tracé_3222" data-name="Tracé 3222" d="M499.056,322.579h0a.493.493,0,0,1-.688.122l-1.69-1.181a.5.5,0,0,1-.121-.689h0a.5.5,0,0,1,.689-.122l1.689,1.181A.5.5,0,0,1,499.056,322.579Z" transform="translate(-490.36 -289.107)" fill="#e15554" fill-rule="evenodd"/>
            <path id="Tracé_3223" data-name="Tracé 3223" d="M514.906,333.1h0a.5.5,0,0,1-.689.122l-1.687-1.181a.5.5,0,0,1-.122-.689h0a.493.493,0,0,1,.688-.121l1.69,1.18A.5.5,0,0,1,514.906,333.1Z" transform="translate(-486.502 -286.546)" fill="#e15554" fill-rule="evenodd"/>
            <path id="Tracé_3224" data-name="Tracé 3224" d="M507.6,335.248h0a.356.356,0,0,1,.434.252l.369,1.368a.355.355,0,0,1-.251.435h0a.354.354,0,0,1-.434-.251l-.369-1.368A.357.357,0,0,1,507.6,335.248Z" transform="translate(-487.715 -285.549)" fill="#e15554" fill-rule="evenodd"/>
            <path id="Tracé_3225" data-name="Tracé 3225" d="M503.153,317.042h0a.356.356,0,0,1,.436.251l.368,1.368a.354.354,0,0,1-.25.435h0a.354.354,0,0,1-.434-.251l-.37-1.368A.357.357,0,0,1,503.153,317.042Z" transform="translate(-488.796 -289.981)" fill="#e15554" fill-rule="evenodd"/>
            <path id="Tracé_3226" data-name="Tracé 3226" d="M516.272,324.787h0a.356.356,0,0,1-.267.424l-1.383.316a.355.355,0,0,1-.424-.267h0a.354.354,0,0,1,.266-.425l1.383-.315A.355.355,0,0,1,516.272,324.787Z" transform="translate(-486.046 -288.16)" fill="#e15554" fill-rule="evenodd"/>
            <path id="Tracé_3227" data-name="Tracé 3227" d="M496.81,329.182h0a.356.356,0,0,1-.277.419l-1.391.279a.356.356,0,0,1-.417-.28h0a.352.352,0,0,1,.277-.417l1.391-.279A.352.352,0,0,1,496.81,329.182Z" transform="translate(-490.786 -287.092)" fill="#e15554" fill-rule="evenodd"/>
            <path id="Tracé_3228" data-name="Tracé 3228" d="M502.343,320.128h0a.337.337,0,0,1,.454.136l3.4,8.075a.339.339,0,0,1-.221.419h0a.339.339,0,0,1-.456-.136l-3.395-8.075A.338.338,0,0,1,502.343,320.128Z" transform="translate(-488.988 -289.235)" fill="#e15554" fill-rule="evenodd"/>
          </g>
          <g id="Groupe_13312" data-name="Groupe 13312" transform="translate(0 36.031)">
            <path id="Tracé_3229" data-name="Tracé 3229" d="M508.086,346c-4.228,2.364-9.342.661-13.016-1.961-3.92-2.8-7.316-7.257-7.751-12.185a10.111,10.111,0,0,1,2.333-7.433c.077-.092-.056-.224-.133-.131a10.237,10.237,0,0,0-2.431,6.687,14.129,14.129,0,0,0,2.058,6.879,19.431,19.431,0,0,0,11.693,9.115,10.115,10.115,0,0,0,7.342-.808.094.094,0,0,0-.094-.163Z" transform="translate(-487.087 -324.253)"/>
          </g>
        </g>
        <g id="Groupe_13318" data-name="Groupe 13318" transform="translate(0 14.66)">
          <path id="Tracé_3230" data-name="Tracé 3230" d="M341.043,311.313l1.385.865a.158.158,0,0,1,.05.215h0a.156.156,0,0,1-.215.048l-1.385-.867a.156.156,0,0,1-.05-.214h0A.156.156,0,0,1,341.043,311.313Z" transform="translate(-333.737 -306.038)" fill="#fff" fill-rule="evenodd"/>
          <path id="Tracé_3231" data-name="Tracé 3231" d="M341.913,343.61l.143.09a.155.155,0,0,1,.05.214h0a.155.155,0,0,1-.214.048l-.143-.09a.154.154,0,0,1-.048-.213h0A.153.153,0,0,1,341.913,343.61Z" transform="translate(-333.524 -298.176)" fill="#fff" fill-rule="evenodd"/>
          <g id="Groupe_13314" data-name="Groupe 13314" transform="translate(2.182 7.466)">
            <path id="Tracé_3232" data-name="Tracé 3232" d="M344.515,344.511a17.477,17.477,0,0,1,31.855-14.386,17.25,17.25,0,0,1,.945,11.6,16.674,16.674,0,0,1-4.608,7.929,18.723,18.723,0,0,1-5.11,3.5A17.428,17.428,0,0,1,344.515,344.511Z" transform="translate(-335.389 -311.404)" fill="#e1bc29" fill-rule="evenodd"/>
            <path id="Tracé_3233" data-name="Tracé 3233" d="M347.115,342.308a13.844,13.844,0,0,1,25.234-11.4c1.355,3,2.759,9.934-2.267,15.212a16.629,16.629,0,0,1-4.684,3.034A13.806,13.806,0,0,1,347.115,342.308Z" transform="translate(-334.679 -310.696)" fill="#fff" fill-rule="evenodd"/>
            <path id="Tracé_3234" data-name="Tracé 3234" d="M339.1,335.965c.5.342,3.177-3.828,5.585-7.354s5.321-7.535,4.818-7.877a9.4,9.4,0,0,0-10.751,3.751A9.11,9.11,0,0,0,339.1,335.965Z" transform="translate(-336.875 -311.32)" fill="#e1bc29" fill-rule="evenodd"/>
            <path id="Tracé_3235" data-name="Tracé 3235" d="M353.634,318.068c-.126.6,4.751,1.477,8.928,2.359s8.995,2.044,9.119,1.449a9.4,9.4,0,0,0-7.569-8.506A9.108,9.108,0,0,0,353.634,318.068Z" transform="translate(-332.796 -313.07)" fill="#e1bc29" fill-rule="evenodd"/>
            <path id="Tracé_3236" data-name="Tracé 3236" d="M347.549,318.7l5.1-2.445a1.244,1.244,0,0,1,1.66.583h0a1.244,1.244,0,0,1-.583,1.66l-5.1,2.445a1.243,1.243,0,0,1-1.659-.583h0A1.244,1.244,0,0,1,347.549,318.7Z" transform="translate(-334.449 -312.326)" fill="#e1bc29" fill-rule="evenodd"/>
            <path id="Tracé_3237" data-name="Tracé 3237" d="M367.716,340.22h0a1.071,1.071,0,0,1,1.464-.393l3.949,2.279a1.07,1.07,0,0,1,.392,1.462h0a1.071,1.071,0,0,1-1.464.393l-3.948-2.278A1.072,1.072,0,0,1,367.716,340.22Z" transform="translate(-329.403 -306.593)" fill="#e1bc29" fill-rule="evenodd"/>
            <path id="Tracé_3238" data-name="Tracé 3238" d="M354.715,346.088h0a1.071,1.071,0,0,1,.936,1.191l-.541,4.526a1.07,1.07,0,0,1-1.191.936h0a1.071,1.071,0,0,1-.936-1.19l.541-4.527A1.071,1.071,0,0,1,354.715,346.088Z" transform="translate(-332.956 -305.036)" fill="#e1bc29" fill-rule="evenodd"/>
            <path id="Tracé_3239" data-name="Tracé 3239" d="M349.647,317.908l.757-.349a1.6,1.6,0,0,1,2.125.782l1.3,2.823a1.6,1.6,0,0,1-.782,2.125l-.756.349a1.6,1.6,0,0,1-2.126-.782l-1.3-2.823A1.6,1.6,0,0,1,349.647,317.908Z" transform="translate(-333.992 -312.014)" fill="#e1bc29" fill-rule="evenodd"/>
            <path id="Tracé_3240" data-name="Tracé 3240" d="M341.817,326.154h0a1.367,1.367,0,0,1,1.885-.431l2.185,1.369a1.368,1.368,0,0,1,.431,1.885h0a1.367,1.367,0,0,1-1.885.431l-2.185-1.369A1.367,1.367,0,0,1,341.817,326.154Z" transform="translate(-335.723 -310.042)" fill="#e1bc29" fill-rule="evenodd"/>
            <path id="Tracé_3241" data-name="Tracé 3241" d="M360.969,317.069h0a1.367,1.367,0,0,1,1.046,1.626l-.546,2.519a1.368,1.368,0,0,1-1.626,1.047h0a1.367,1.367,0,0,1-1.046-1.626l.546-2.519A1.368,1.368,0,0,1,360.969,317.069Z" transform="translate(-331.546 -312.105)" fill="#e1bc29" fill-rule="evenodd"/>
            <path id="Tracé_3242" data-name="Tracé 3242" d="M337.933,331.458c-.448-.15-.885-2.325-.131-4.575s2.331-4.178,2.779-4.027.282,2.553-.473,4.8S338.379,331.608,337.933,331.458Z" transform="translate(-336.749 -310.691)" fill="#f7cf2d" fill-rule="evenodd"/>
            <path id="Tracé_3243" data-name="Tracé 3243" d="M355.246,316.474c-.1-.461,1.541-1.953,3.857-2.462s4.783-.144,4.884.316-2.045,1.553-4.363,2.062S355.347,316.934,355.246,316.474Z" transform="translate(-332.404 -312.901)" fill="#f7cf2d" fill-rule="evenodd"/>
            <path id="Tracé_3244" data-name="Tracé 3244" d="M356.6,334.775a1.132,1.132,0,1,1,1.554.128A1.1,1.1,0,0,1,356.6,334.775Z" transform="translate(-332.128 -308.226)" fill="#3c7548" fill-rule="evenodd"/>
            <path id="Tracé_3245" data-name="Tracé 3245" d="M348.722,328.879h0a.408.408,0,0,1,.558-.145l9.9,5.782a.408.408,0,0,1,.147.558h0a.407.407,0,0,1-.558.147l-9.9-5.782A.409.409,0,0,1,348.722,328.879Z" transform="translate(-334.005 -309.271)" fill="#3c7548" fill-rule="evenodd"/>
            <path id="Tracé_3246" data-name="Tracé 3246" d="M357.2,333.656h0a.643.643,0,0,1,.849.327l2.637,5.925a.644.644,0,0,1-.327.849h0a.643.643,0,0,1-.849-.327l-2.637-5.925A.644.644,0,0,1,357.2,333.656Z" transform="translate(-332.021 -308.073)" fill="#3c7548" fill-rule="evenodd"/>
            <path id="Tracé_3247" data-name="Tracé 3247" d="M352.9,324.338h0a.5.5,0,0,1,.665.231l.905,1.869a.5.5,0,0,1-.231.664h0a.5.5,0,0,1-.665-.23L352.667,325A.5.5,0,0,1,352.9,324.338Z" transform="translate(-333.043 -310.34)" fill="#3c7548" fill-rule="evenodd"/>
            <path id="Tracé_3248" data-name="Tracé 3248" d="M360.619,341.057h0a.5.5,0,0,1,.665.23l.905,1.869a.5.5,0,0,1-.231.665h0a.5.5,0,0,1-.665-.231l-.905-1.869A.5.5,0,0,1,360.619,341.057Z" transform="translate(-331.164 -306.27)" fill="#3c7548" fill-rule="evenodd"/>
            <path id="Tracé_3249" data-name="Tracé 3249" d="M350.278,336.377h0a.5.5,0,0,1-.256.657l-1.9.833a.5.5,0,0,1-.655-.256h0a.5.5,0,0,1,.256-.657l1.9-.833A.5.5,0,0,1,350.278,336.377Z" transform="translate(-334.307 -307.47)" fill="#3c7548" fill-rule="evenodd"/>
            <path id="Tracé_3250" data-name="Tracé 3250" d="M366.829,329.337h0a.5.5,0,0,1-.256.655l-1.9.833a.5.5,0,0,1-.655-.256h0a.5.5,0,0,1,.256-.655l1.9-.833A.5.5,0,0,1,366.829,329.337Z" transform="translate(-330.279 -309.183)" fill="#3c7548" fill-rule="evenodd"/>
          </g>
          <g id="Groupe_13315" data-name="Groupe 13315" transform="translate(0 14.881)">
            <path id="Tracé_3251" data-name="Tracé 3251" d="M335.749,331.559c-1.287-2.777.029-5.917,1.858-8.106,1.951-2.336,4.92-4.262,8.046-4.3a6.388,6.388,0,0,1,4.571,1.825c.055.052.144-.025.09-.078a6.473,6.473,0,0,0-4.1-1.85,8.91,8.91,0,0,0-4.431.967,12.277,12.277,0,0,0-6.3,6.931,6.387,6.387,0,0,0,.159,4.664.06.06,0,0,0,.107-.052Z" transform="translate(-335.12 -319.033)"/>
          </g>
          <g id="Groupe_13316" data-name="Groupe 13316" transform="translate(22.866 4.328)">
            <path id="Tracé_3252" data-name="Tracé 3252" d="M353.632,318.884c-.116-3.059,2.31-5.449,4.841-6.763,2.7-1.4,6.185-2.033,9.083-.863a6.384,6.384,0,0,1,3.513,3.447c.03.07.143.032.113-.037a6.468,6.468,0,0,0-3.066-3.288,8.912,8.912,0,0,0-4.461-.817,12.274,12.274,0,0,0-8.488,3.963,6.387,6.387,0,0,0-1.652,4.364.059.059,0,0,0,.118-.006Z" transform="translate(-353.51 -310.546)"/>
          </g>
          <g id="Groupe_13317" data-name="Groupe 13317" transform="translate(17.774)">
            <path id="Tracé_3253" data-name="Tracé 3253" d="M352.339,307.341l1.817,2.943a.18.18,0,0,0,.3-.193l-1.817-2.943a.18.18,0,0,0-.3.193Z" transform="translate(-348.71 -307.066)"/>
            <path id="Tracé_3254" data-name="Tracé 3254" d="M350.084,310.615l3.505,1.559c.211.095.384-.223.172-.317l-3.505-1.559c-.211-.095-.383.223-.172.317Z" transform="translate(-349.276 -306.283)"/>
            <path id="Tracé_3255" data-name="Tracé 3255" d="M349.544,313.765l2.594.8c.223.068.3-.283.085-.351l-2.594-.8c-.223-.068-.3.282-.085.351Z" transform="translate(-349.415 -305.522)"/>
          </g>
        </g>
        <g id="Groupe_13321" data-name="Groupe 13321" transform="translate(20.086 129.284)">
          <g id="Groupe_13319" data-name="Groupe 13319" transform="translate(4.293)">
            <path id="Tracé_3256" data-name="Tracé 3256" d="M360.353,434.948c-1.71-.532-.1-4.466-2.261-13.678-.642-2.729-3.358-10.049-3.366-12.837-.01-3.437,1.827-7.755,6.436-8.832a7.211,7.211,0,0,1,5.464,1.3c2.294,1.507,7.361,8.89,8.985,11.28,4.25,6.251,8.841,7.822,9.328,9.362C385.861,424.454,362.6,435.648,360.353,434.948Z" transform="translate(-354.726 -399.195)" fill="#e1bc29" fill-rule="evenodd"/>
            <path id="Tracé_3257" data-name="Tracé 3257" d="M358.828,430.274c-1.124-2.222,3.615-6.89,10.585-10.425s13.54-4.6,14.667-2.371-3.615,6.889-10.585,10.422S359.956,432.5,358.828,430.274Z" transform="translate(-353.768 -395.097)" fill="#ba9c22" fill-rule="evenodd"/>
            <path id="Tracé_3258" data-name="Tracé 3258" d="M357.937,399.308h0a.78.78,0,0,1,1.018.435l.747,1.861a.785.785,0,0,1-.435,1.018h0a.786.786,0,0,1-1.017-.435l-.745-1.863A.78.78,0,0,1,357.937,399.308Z" transform="translate(-354.063 -399.251)" fill="#e1bc29" fill-rule="evenodd"/>
            <path id="Tracé_3259" data-name="Tracé 3259" d="M364.654,421.319h0a.538.538,0,0,1,.627.438l.7,3.923a.542.542,0,0,1-.436.63h0a.544.544,0,0,1-.63-.44l-.705-3.924A.543.543,0,0,1,364.654,421.319Z" transform="translate(-352.419 -393.881)" fill="#e1bc29" fill-rule="evenodd"/>
            <path id="Tracé_3260" data-name="Tracé 3260" d="M363.579,427.07a2.631,2.631,0,1,1,2.607,2.269A2.455,2.455,0,0,1,363.579,427.07Z" transform="translate(-352.571 -393.032)" fill="#e1bc29" fill-rule="evenodd"/>
            <path id="Tracé_3261" data-name="Tracé 3261" d="M358.187,400.42a8.041,8.041,0,0,1,2.133-.819,7.211,7.211,0,0,1,5.464,1.3c2.294,1.507,7.361,8.89,8.985,11.28,4.25,6.251,8.689,7.545,9.176,9.084,0,0-.722-1.74-6.692-.265a15.27,15.27,0,0,0-2.464.735s-6.783-5.838-9.619-11.719A33.925,33.925,0,0,0,358.187,400.42Z" transform="translate(-353.884 -399.195)" fill="#e1bc29" fill-rule="evenodd"/>
            <path id="Tracé_3262" data-name="Tracé 3262" d="M367.055,407.756c-2.1-2.877-5.691-6.246-4.749-6.768s4.066,2.441,6.169,5.318,4.931,7.081,4.216,7.6S369.158,410.633,367.055,407.756Z" transform="translate(-352.918 -398.843)" fill="#f7cf2d" fill-rule="evenodd"/>
          </g>
          <g id="Groupe_13320" data-name="Groupe 13320" transform="translate(0 24.337)">
            <path id="Tracé_3263" data-name="Tracé 3263" d="M352.685,419.14l2.553,2.334a.18.18,0,0,0,.24-.269l-2.553-2.334c-.172-.157-.412.112-.24.269Z" transform="translate(-350.945 -418.824)"/>
            <path id="Tracé_3264" data-name="Tracé 3264" d="M351.412,422.905l3.8.542c.229.032.307-.32.077-.352l-3.8-.542c-.229-.032-.307.32-.077.352Z" transform="translate(-351.274 -417.916)"/>
            <path id="Tracé_3265" data-name="Tracé 3265" d="M351.755,426.082l2.713.056c.233.005.215-.356-.016-.361l-2.712-.056c-.233,0-.215.356.015.361Z" transform="translate(-351.201 -417.145)"/>
          </g>
        </g>
        <g id="Groupe_13322" data-name="Groupe 13322" transform="translate(39.308 86.484)">
          <path id="Tracé_3266" data-name="Tracé 3266" d="M366.79,370.286a.727.727,0,1,1,.727.737A.733.733,0,0,1,366.79,370.286Z" transform="translate(-366.719 -363.681)" fill="#e15554" fill-rule="evenodd" opacity="0.46"/>
          <path id="Tracé_3267" data-name="Tracé 3267" d="M374.6,370.27a.727.727,0,1,1,.727.739A.733.733,0,0,1,374.6,370.27Z" transform="translate(-364.819 -363.684)" fill="#e15554" fill-rule="evenodd" opacity="0.46"/>
          <path id="Tracé_3268" data-name="Tracé 3268" d="M369.329,370.292a.727.727,0,1,1,.727.737A.733.733,0,0,1,369.329,370.292Z" transform="translate(-366.101 -363.679)" fill="#e15554" fill-rule="evenodd" opacity="0.46"/>
          <path id="Tracé_3269" data-name="Tracé 3269" d="M371.862,370.263a.727.727,0,1,1,.727.739A.732.732,0,0,1,371.862,370.263Z" transform="translate(-365.485 -363.686)" fill="#e15554" fill-rule="evenodd" opacity="0.46"/>
          <path id="Tracé_3270" data-name="Tracé 3270" d="M377.157,370.28a.727.727,0,1,1,.727.737A.733.733,0,0,1,377.157,370.28Z" transform="translate(-364.196 -363.682)" fill="#e15554" fill-rule="evenodd" opacity="0.46"/>
          <path id="Tracé_3271" data-name="Tracé 3271" d="M379.737,370.268a.727.727,0,1,1,.727.737A.733.733,0,0,1,379.737,370.268Z" transform="translate(-363.568 -363.685)" fill="#e15554" fill-rule="evenodd" opacity="0.46"/>
          <path id="Tracé_3272" data-name="Tracé 3272" d="M366.734,374.024a.727.727,0,1,1,.726.739A.732.732,0,0,1,366.734,374.024Z" transform="translate(-366.733 -362.77)" fill="#e15554" fill-rule="evenodd" opacity="0.46"/>
          <path id="Tracé_3273" data-name="Tracé 3273" d="M374.539,374.011a.727.727,0,1,1,.727.737A.734.734,0,0,1,374.539,374.011Z" transform="translate(-364.833 -362.774)" fill="#e15554" fill-rule="evenodd" opacity="0.46"/>
          <path id="Tracé_3274" data-name="Tracé 3274" d="M369.273,374.03a.727.727,0,1,1,.727.739A.732.732,0,0,1,369.273,374.03Z" transform="translate(-366.115 -362.769)" fill="#e15554" fill-rule="evenodd" opacity="0.46"/>
          <path id="Tracé_3275" data-name="Tracé 3275" d="M371.806,374a.727.727,0,1,1,.727.737A.734.734,0,0,1,371.806,374Z" transform="translate(-365.498 -362.776)" fill="#e15554" fill-rule="evenodd" opacity="0.46"/>
          <path id="Tracé_3276" data-name="Tracé 3276" d="M377.1,374.018a.727.727,0,1,1,.727.739A.732.732,0,0,1,377.1,374.018Z" transform="translate(-364.209 -362.772)" fill="#e15554" fill-rule="evenodd" opacity="0.46"/>
          <path id="Tracé_3277" data-name="Tracé 3277" d="M379.681,374.007a.727.727,0,1,1,.727.739A.734.734,0,0,1,379.681,374.007Z" transform="translate(-363.581 -362.775)" fill="#e15554" fill-rule="evenodd" opacity="0.46"/>
          <path id="Tracé_3278" data-name="Tracé 3278" d="M366.733,377.631a.727.727,0,1,1,.726.737A.732.732,0,0,1,366.733,377.631Z" transform="translate(-366.733 -361.893)" fill="#e15554" fill-rule="evenodd" opacity="0.46"/>
          <path id="Tracé_3279" data-name="Tracé 3279" d="M374.538,377.616a.727.727,0,1,1,.726.739A.734.734,0,0,1,374.538,377.616Z" transform="translate(-364.833 -361.896)" fill="#e15554" fill-rule="evenodd" opacity="0.46"/>
          <path id="Tracé_3280" data-name="Tracé 3280" d="M369.272,377.637a.727.727,0,1,1,.727.737A.733.733,0,0,1,369.272,377.637Z" transform="translate(-366.115 -361.891)" fill="#e15554" fill-rule="evenodd" opacity="0.46"/>
          <path id="Tracé_3281" data-name="Tracé 3281" d="M371.8,377.609a.728.728,0,1,1,.727.739A.733.733,0,0,1,371.8,377.609Z" transform="translate(-365.498 -361.898)" fill="#e15554" fill-rule="evenodd" opacity="0.46"/>
          <path id="Tracé_3282" data-name="Tracé 3282" d="M377.1,377.625a.727.727,0,1,1,.727.737A.733.733,0,0,1,377.1,377.625Z" transform="translate(-364.21 -361.894)" fill="#e15554" fill-rule="evenodd" opacity="0.46"/>
          <path id="Tracé_3283" data-name="Tracé 3283" d="M379.68,377.613a.727.727,0,1,1,.727.737A.734.734,0,0,1,379.68,377.613Z" transform="translate(-363.582 -361.897)" fill="#e15554" fill-rule="evenodd" opacity="0.46"/>
          <path id="Tracé_3284" data-name="Tracé 3284" d="M369.1,366.57a.738.738,0,1,1,.734.65A.7.7,0,0,1,369.1,366.57Z" transform="translate(-366.157 -364.563)" fill="#fff" fill-rule="evenodd"/>
          <path id="Tracé_3285" data-name="Tracé 3285" d="M379.739,366.532a.738.738,0,1,1,.732.65A.7.7,0,0,1,379.739,366.532Z" transform="translate(-363.567 -364.573)" fill="#fff" fill-rule="evenodd"/>
          <path id="Tracé_3286" data-name="Tracé 3286" d="M369.763,364.835h0a.357.357,0,0,1,.358.357v1.646a.358.358,0,0,1-.358.358h0a.358.358,0,0,1-.358-.358v-1.646A.357.357,0,0,1,369.763,364.835Z" transform="translate(-366.083 -364.828)" fill="#fff" fill-rule="evenodd"/>
          <path id="Tracé_3287" data-name="Tracé 3287" d="M380.4,364.829h0a.358.358,0,0,1,.358.358v1.646a.358.358,0,0,1-.358.358h0a.358.358,0,0,1-.358-.358v-1.646A.358.358,0,0,1,380.4,364.829Z" transform="translate(-363.494 -364.829)" fill="#fff" fill-rule="evenodd"/>
        </g>
        <path id="Tracé_3288" data-name="Tracé 3288" d="M431.725,363.866a4.558,4.558,0,0,1,6.416.23,3.52,3.52,0,0,1,.885,1.707c.009.042.076.031.067-.011-.484-2.427-3.377-3.689-5.623-3.045a4.081,4.081,0,0,0-1.791,1.067c-.03.031.014.083.045.052Z" transform="translate(-311.618 -278.893)"/>
        <path id="Tracé_3289" data-name="Tracé 3289" d="M517.306,441.834H378.72a.174.174,0,0,0,0,.347H517.306a.174.174,0,0,0,0-.347Z" transform="translate(-324.548 -259.601)"/>
        <path id="Tracé_3290" data-name="Tracé 3290" d="M429.726,423.524s-.24-5.609-.378-7.538c-.49-6.974-1.265-13.934-1.7-20.907-.141-2.242-.341-4.51-.341-6.758,0-.363-.109-2.366-.109-2.366l1.935-.487a9.3,9.3,0,0,0,1.5,2.676,8.049,8.049,0,0,0,3.528,2.177c1.242.315,3.559.322,4.289-.332a1.565,1.565,0,0,0,.653-1.666s.761-.469.938-.425a1.613,1.613,0,0,0,1.711.139,7.635,7.635,0,0,0,.72-.441c.617.228.745,1.467.745,1.467s-.065,2.566-.057,2.856c.065,2.233.012,4.485-.146,6.711-.387,5.5-.724,10.988-1.166,16.482-.18,2.238-1.026,8.761-1.026,8.761Z" transform="translate(-312.707 -273.322)" fill="#e5e5e5" fill-rule="evenodd"/>
        <g id="Groupe_13324" data-name="Groupe 13324" transform="translate(61.02 74.369)">
          <g id="Groupe_13323" data-name="Groupe 13323">
            <path id="Tracé_3291" data-name="Tracé 3291" d="M441.464,432.459s-1.772-15.452-2.34-24.509c-.267-4.272-.538-7.677-.5-10.569.061-4.23.967-4.538.967-4.538-.083-1.717-1.713-.658-2.053-.937-.957-.793-2.149.114-2.707-.277-.517-.363-.644-1.238-1.211-1.636-1.6-1.124-3.416-1.956-4.821-3.431a64.735,64.735,0,0,0-4.759-4.714c-1.054-.893-4.164-3.1-4.622-4.275-.282-.726.109-1.568-.112-2.292s-1.034-.93-1.314-1.56a10.719,10.719,0,0,1-.38-2.824c-.4-3.178-.808-6.324-1.036-9.527a46.238,46.238,0,0,0-.536-4.7c-.052-.3.062-1.1-.282-1.279-.911-.463-3.075-.262-4.046-.221-1.173.047-5.084-.147-6.011.541-.593.439-.1,3.321-.045,4.693.147,3.713.492,8.335.492,8.335s.535,8,.933,8.884a68.322,68.322,0,0,0,6.009,10.659,60.474,60.474,0,0,0,6.695,8.3c-1.086.083-2.2.923-3.13,1.278a37.564,37.564,0,0,1-7.114,1.449c-.962.16-2.484,1.047-3.473.849-.817-.164-1.408-1.021-2.15-1.318s-1.273,1.033-1.273,1.033-11.827-8.653-14.017-9.2c-.627-.157-1.575,1.9-2.5,3.283a23.127,23.127,0,0,0-1.937,5.214c.816.817,5.378,4.669,7.667,6.5,1.189.951,4.734,4.386,6.723,5.306s5.365.741,6.629.65a48.944,48.944,0,0,1,10.9.338c.21.031.405.055.591.073-.362.786-.643,1.7-.812,2.078a103.836,103.836,0,0,0-4.565,12.445,62.715,62.715,0,0,0-2.252,11.756c-.091.9-.453,2.083-.062,2.939.634,1.394,2.944,2.534,4.19,3.189,2.192,1.155,4.556,1.986,6.815,3,1.707.767,3.612,1.916,5.5,2.126.829.092,1.64-4.034,1.813-4.628.353-1.216,1.508-2.97,1.188-4.251-.107-.428-1.083-1.1-1.374-1.44-1.887-2.175-3.51-2.168-2.753-5.5a82.293,82.293,0,0,1,3.127-9.38,33.022,33.022,0,0,1,1.44-3.044c.256,1.891.523,3.768.858,5.84.221,1.376.89,5.584.89,5.584a13.672,13.672,0,0,0,2,.688c2.431.383,4.811.492,7.255.689.321.025,1.575.306,1.575.306s-.109-.913-.312-2.353Z" transform="translate(-384.194 -355.086)" fill="#3c7548" fill-rule="evenodd"/>
            <path id="Tracé_3292" data-name="Tracé 3292" d="M460.966,401.79c-.964-.675-2.338-2.87-3.63-4.071a57.453,57.453,0,0,0,7-3.342c1.967-1.311,9.957-11.919,12.062-14.983,1.43-2.079,6.251-7.848,5.849-8.516-.637-1.062-4.8-4.478-5.791-5.207-.451-.329-1.749-1.375-2.278-1.3-.847.123-3.214,3.853-3.841,4.688-3.237,4.317-6.38,8.861-9.956,12.886-.806.905-1.5.277-1.94.858-.289.384-.012,1.232-.464,1.431-3.259,1.45-7.827,2.464-11.155,3.712-.681.256-1.174,1.349-1.864,1.287-1.548-.139-3.727,1.556-3.727,1.556a5.245,5.245,0,0,1-.722,1.408,3.594,3.594,0,0,1-1.39,1.023s.029,5.891-.158,10.169c-.409,9.41-.574,17.454-1.619,26.844l1.368.455c2.1.839,5.133.555,7.288.2.726-.121,2.238-.15,2.733-.846,1.194-1.669,1.307-5.837,1.628-7.876.578-3.658,1.177-7.3,1.84-10.93.367.2,1.093.52,1.543.714a7.738,7.738,0,0,0,1.823.78,13.978,13.978,0,0,1,4.165,1.3c.28.14,1.155.464,1.236.782.144.576-.451,1.371-.628,1.963-.53,1.767-1.584,5.793-1.129,6.823.725,1.634,12.381,2.229,15.619,1.825a7.707,7.707,0,0,0,4.1-1.957c1.56-1.337-.836-5.711-1.823-6.9A80.951,80.951,0,0,0,460.966,401.79Z" transform="translate(-371.257 -352.828)" fill="#3c7548" fill-rule="evenodd"/>
          </g>
        </g>
        <path id="Tracé_3293" data-name="Tracé 3293" d="M458.849,403.453a47.247,47.247,0,0,0-2.008,5.391c-.188.686-1.018,4.766-1.018,4.766s-5.215-1.148-5.206-1.767c.03-2.045,1-4.315,1.579-6.264a12.565,12.565,0,0,1,1.783-3.394C454.343,401.722,458.849,403.453,458.849,403.453Z" transform="translate(-307.007 -269.272)" fill="#e5e5e5" fill-rule="evenodd"/>
        <path id="Tracé_3294" data-name="Tracé 3294" d="M467.318,365.179a25.771,25.771,0,0,1,2.754-3.72c.466-.313,3.681,2.11,3.932,2.316,1.4,1.145,3.33,2.78,3.132,3.242-.235.547-2.719,3.911-2.719,3.911s-2.206-2.12-3.3-2.963S467.318,365.179,467.318,365.179Z" transform="translate(-302.941 -279.173)" fill="#e5e5e5" fill-rule="evenodd"/>
        <path id="Tracé_3295" data-name="Tracé 3295" d="M410.992,355.959a13.812,13.812,0,0,0,.124-3.225c-.086-.423-3.077-.467-3.591-.467-.725,0-4.347.136-4.63.467-.417.491-.15,3.243-.15,3.243s2.76-.092,3.09-.108C407.35,355.795,410.992,355.959,410.992,355.959Z" transform="translate(-318.68 -281.404)" fill="#e5e5e5" fill-rule="evenodd"/>
        <path id="Tracé_3296" data-name="Tracé 3296" d="M388.643,384.3s-3.039-1.926-3.478-1.781c-.827.275-1.831,2.367-2.187,3.147-.228.5-1.606,2.734-.993,3.225.527.423,3.189,2.1,3.189,2.1a29.462,29.462,0,0,1,1.49-3.49A28.763,28.763,0,0,1,388.643,384.3Z" transform="translate(-323.751 -274.042)" fill="#e5e5e5" fill-rule="evenodd"/>
        <path id="Tracé_3297" data-name="Tracé 3297" d="M470.044,363.767s.582-1.006.883-1.6a16.111,16.111,0,0,0,1.26-3.276c.261-.89.693-2.865.872-3.789.422-2.169,1.134-2.731,1.39-2.484.8.763.136,4.377.41,5.413.107.4.479,1.685.951,1.812a26.325,26.325,0,0,0,4.984.307c2.059-.008,7.943,0,7.943,0s-.812.757-.9.857a10.35,10.35,0,0,1-2.384,1.357c-.609.378-.613.94-1.071,1.391-.374.364-1.017.323-1.462.521a31.7,31.7,0,0,0-4.354,2.022c-.46.3-2.574,1.97-2.574,1.97s-1.338-1.248-2.343-2.053C472.563,365.339,470.044,363.767,470.044,363.767Z" transform="translate(-302.278 -281.332)" fill="#ffc48e" fill-rule="evenodd"/>
        <path id="Tracé_3298" data-name="Tracé 3298" d="M456.41,403.369s-1.517-.537-2.151-.708a23.936,23.936,0,0,0-6.721-1.039,22.5,22.5,0,0,0-5.5.647c-.96.286-3.273,1.194-3.317,2.183s1.4.174,1.3.266c-.448.424-2.31,1.383-2.318,2.013-.011.8,1.95.293,1.95.293s-1.058.379-.962,1.108,2.744-.021,2.744-.021-.969.359-.76.875,1.557.5,3,.332c1.233-.148,2.968-.323,3.846-.38a9.66,9.66,0,0,1,3.367.266,19.763,19.763,0,0,1,2.969,1.437s.974-3.319,1.077-3.6C455.813,404.6,456.41,403.369,456.41,403.369Z" transform="translate(-310.15 -269.392)" fill="#ffc48e" fill-rule="evenodd"/>
        <path id="Tracé_3299" data-name="Tracé 3299" d="M412.251,354.662a11.711,11.711,0,0,1,.093-2.648c.27-.9.908-1.677,1.237-2.568a10.48,10.48,0,0,0,.546-3.565c0-.671.042-1.716-.475-2.234-.206-.206-.448.047-.523.237a10.977,10.977,0,0,1-1.142,2.354,5.186,5.186,0,0,1-4.872,2.5,20.049,20.049,0,0,1-6.87-1.925c-.261-.132-.511-.271-.76-.428-2.573-1.63,1.655,1.015-.689-.429-.331-.2-1.608-1.659-1.926-.783-.28.77.214,1.4.333,2.115.056.334-.306.75-.214,1.189.173.819.926,1.021,1.4,1.592.311.374.18.872.453,1.26.254.363,2.662,1.192,3.63,1.579a8.1,8.1,0,0,1,2.016,1.859s3.432-.318,4.016-.333A21.8,21.8,0,0,1,412.251,354.662Z" transform="translate(-320.11 -283.52)" fill="#ffc48e" fill-rule="evenodd"/>
        <path id="Tracé_3300" data-name="Tracé 3300" d="M394.506,341.265a11.344,11.344,0,0,1,22.689,0,11.193,11.193,0,0,1-2.542,7.116s-.336-1.89-.8-1.414c-.286.293-.621,1.677-1.183,2.5a6.991,6.991,0,0,1-2.862,2.37,11.363,11.363,0,0,1-15.3-10.577Z" transform="translate(-320.665 -286.828)" fill="#e15554" fill-rule="evenodd"/>
        <path id="Tracé_3301" data-name="Tracé 3301" d="M448.687,409.261a10.924,10.924,0,0,1,.611-3.887,13.155,13.155,0,0,1,1.393-3.255c.144-.1,1.624.194,1.712.546.04.164-.921,1.578-1.414,3.128-.578,1.819-.819,3.828-1.038,4.046C449.783,410.006,448.718,409.426,448.687,409.261Z" transform="translate(-307.486 -269.273)" fill="#3c7548" fill-rule="evenodd"/>
        <path id="Tracé_3302" data-name="Tracé 3302" d="M449.252,403.8c.356-1.123,1.3-1.951,2.1-1.851s1.17,1.089.814,2.211-1.3,1.95-2.1,1.85S448.9,404.919,449.252,403.8Z" transform="translate(-307.372 -269.313)" fill="#fff" fill-rule="evenodd"/>
        <path id="Tracé_3303" data-name="Tracé 3303" d="M395.807,340.968a9.64,9.64,0,1,1,9.639,9.664A9.651,9.651,0,0,1,395.807,340.968Z" transform="translate(-320.348 -286.506)" fill="#fff" fill-rule="evenodd"/>
        <path id="Tracé_3304" data-name="Tracé 3304" d="M403.677,343.968h0a.338.338,0,0,1,.371.289V346.3a.338.338,0,0,1-.371.289h0a.337.337,0,0,1-.371-.289v-2.039A.337.337,0,0,1,403.677,343.968Z" transform="translate(-318.523 -283.423)" fill="#e15554" fill-rule="evenodd"/>
        <path id="Tracé_3305" data-name="Tracé 3305" d="M403.661,332.063h0a.337.337,0,0,1,.37.289v2.039a.337.337,0,0,1-.37.288h0a.338.338,0,0,1-.371-.288v-2.039A.338.338,0,0,1,403.661,332.063Z" transform="translate(-318.527 -286.321)" fill="#e15554" fill-rule="evenodd"/>
        <path id="Tracé_3306" data-name="Tracé 3306" d="M399.211,339.224h0a.337.337,0,0,1-.282.375l-2.038.034a.338.338,0,0,1-.3-.366h0a.34.34,0,0,1,.283-.376l2.038-.034A.336.336,0,0,1,399.211,339.224Z" transform="translate(-320.156 -284.667)" fill="#e15554" fill-rule="evenodd"/>
        <path id="Tracé_3307" data-name="Tracé 3307" d="M411.074,338.91h0a.338.338,0,0,1-.283.374l-2.038.035a.339.339,0,0,1-.3-.366h0a.337.337,0,0,1,.283-.375l2.037-.034A.337.337,0,0,1,411.074,338.91Z" transform="translate(-317.269 -284.744)" fill="#e15554" fill-rule="evenodd"/>
        <path id="Tracé_3308" data-name="Tracé 3308" d="M400.39,342.516h0a.337.337,0,0,1,.06.466l-1.434,1.45a.334.334,0,0,1-.465-.055h0a.338.338,0,0,1-.061-.466l1.432-1.45A.34.34,0,0,1,400.39,342.516Z" transform="translate(-319.712 -283.808)" fill="#e15554" fill-rule="evenodd"/>
        <path id="Tracé_3309" data-name="Tracé 3309" d="M408.918,334.173h0a.336.336,0,0,1,.06.466l-1.432,1.45a.337.337,0,0,1-.467-.055h0a.338.338,0,0,1-.06-.465l1.434-1.451A.338.338,0,0,1,408.918,334.173Z" transform="translate(-317.636 -285.838)" fill="#e15554" fill-rule="evenodd"/>
        <path id="Tracé_3310" data-name="Tracé 3310" d="M407.126,342.517h0a.337.337,0,0,1,.465-.055l1.435,1.45a.338.338,0,0,1-.061.466h0a.336.336,0,0,1-.466.055l-1.434-1.45A.338.338,0,0,1,407.126,342.517Z" transform="translate(-317.624 -283.807)" fill="#e15554" fill-rule="evenodd"/>
        <path id="Tracé_3311" data-name="Tracé 3311" d="M398.669,334.1h0a.336.336,0,0,1,.466-.055l1.434,1.45a.335.335,0,0,1-.061.465h0a.334.334,0,0,1-.465.055l-1.435-1.449A.339.339,0,0,1,398.669,334.1Z" transform="translate(-319.683 -285.857)" fill="#e15554" fill-rule="evenodd"/>
        <path id="Tracé_3312" data-name="Tracé 3312" d="M401.054,332.522h0a.339.339,0,0,1,.453.132l.756,1.892a.337.337,0,0,1-.236.407h0a.337.337,0,0,1-.451-.132l-.757-1.893A.338.338,0,0,1,401.054,332.522Z" transform="translate(-319.133 -286.217)" fill="#e15554" fill-rule="evenodd"/>
        <path id="Tracé_3313" data-name="Tracé 3313" d="M405.64,343.533h0a.337.337,0,0,1,.451.132l.756,1.892a.337.337,0,0,1-.236.407h0a.338.338,0,0,1-.451-.132l-.757-1.893A.341.341,0,0,1,405.64,343.533Z" transform="translate(-318.016 -283.538)" fill="#e15554" fill-rule="evenodd"/>
        <path id="Tracé_3314" data-name="Tracé 3314" d="M401.929,343.6h0a.337.337,0,0,1,.211.419l-.865,1.845a.336.336,0,0,1-.458.1h0a.335.335,0,0,1-.213-.419l.865-1.845A.338.338,0,0,1,401.929,343.6Z" transform="translate(-319.186 -283.524)" fill="#e15554" fill-rule="evenodd"/>
        <path id="Tracé_3315" data-name="Tracé 3315" d="M406.627,332.684h0a.339.339,0,0,1,.213.419l-.867,1.845a.337.337,0,0,1-.458.1h0a.336.336,0,0,1-.213-.419l.865-1.845A.337.337,0,0,1,406.627,332.684Z" transform="translate(-318.042 -286.181)" fill="#e15554" fill-rule="evenodd"/>
        <path id="Tracé_3316" data-name="Tracé 3316" d="M399.528,341.025h0a.336.336,0,0,1-.152.444l-1.925.67a.338.338,0,0,1-.4-.255h0a.338.338,0,0,1,.152-.445l1.926-.669A.335.335,0,0,1,399.528,341.025Z" transform="translate(-320.05 -284.205)" fill="#e15554" fill-rule="evenodd"/>
        <path id="Tracé_3317" data-name="Tracé 3317" d="M410.436,336.313h0a.338.338,0,0,1-.1.459l-1.845.868a.338.338,0,0,1-.42-.211h0a.34.34,0,0,1,.1-.459l1.845-.868A.337.337,0,0,1,410.436,336.313Z" transform="translate(-317.374 -285.344)" fill="#e15554" fill-rule="evenodd"/>
        <path id="Tracé_3318" data-name="Tracé 3318" d="M399.5,337.434h0a.338.338,0,0,1-.415.22l-1.859-.837a.338.338,0,0,1-.112-.456h0a.338.338,0,0,1,.417-.219l1.859.836A.336.336,0,0,1,399.5,337.434Z" transform="translate(-320.041 -285.333)" fill="#e15554" fill-rule="evenodd"/>
        <path id="Tracé_3319" data-name="Tracé 3319" d="M410.53,341.9h0a.338.338,0,0,1-.4.242l-1.9-.73a.336.336,0,0,1-.137-.449h0a.336.336,0,0,1,.4-.242l1.9.73A.339.339,0,0,1,410.53,341.9Z" transform="translate(-317.367 -284.217)" fill="#e15554" fill-rule="evenodd"/>
        <path id="Tracé_3320" data-name="Tracé 3320" d="M403.242,339.306a.653.653,0,1,1,.653.663A.658.658,0,0,1,403.242,339.306Z" transform="translate(-318.538 -284.72)" fill="#e15554" fill-rule="evenodd"/>
        <path id="Tracé_3321" data-name="Tracé 3321" d="M401.848,341.213s8.318-5.4,8.5-5.188-8.141,5.694-8.141,5.694c-.117.076-.24-.043-.316-.16h0C401.817,341.443,401.733,341.289,401.848,341.213Z" transform="translate(-318.891 -285.358)" fill="#e15554" fill-rule="evenodd"/>
        <path id="Tracé_3322" data-name="Tracé 3322" d="M401.741,336.743a2.326,2.326,0,1,1,2.326,2.3A2.313,2.313,0,0,1,401.741,336.743Z" transform="translate(-318.904 -285.741)" fill="#e15554" fill-rule="evenodd"/>
        <path id="Tracé_3323" data-name="Tracé 3323" d="M401.942,336.694a2.075,2.075,0,1,1,2.076,2.05A2.064,2.064,0,0,1,401.942,336.694Z" transform="translate(-318.855 -285.693)" fill="#fff" fill-rule="evenodd"/>
        <path id="Tracé_3324" data-name="Tracé 3324" d="M405.766,335.493a2.015,2.015,0,0,1,.261.995,2.08,2.08,0,0,1-3.817,1.114Z" transform="translate(-318.789 -285.486)" fill="#e4e1f0" fill-rule="evenodd"/>
        <path id="Tracé_3325" data-name="Tracé 3325" d="M403.5,336.26a.211.211,0,1,1,.211.2A.2.2,0,0,1,403.5,336.26Z" transform="translate(-318.476 -285.348)" fill="#e15554" fill-rule="evenodd"/>
        <path id="Tracé_3326" data-name="Tracé 3326" d="M403.129,336.474a18.536,18.536,0,0,1,2.229-.669,19.449,19.449,0,0,1-2.18.806c-.03.01-.05-.025-.061-.056h0C403.108,336.525,403.1,336.485,403.129,336.474Z" transform="translate(-318.571 -285.413)" fill="#e15554" fill-rule="evenodd"/>
        <path id="Tracé_3327" data-name="Tracé 3327" d="M403.616,334.8h0a.052.052,0,0,1,.051.053v.321a.051.051,0,0,1-.051.052h0a.053.053,0,0,1-.052-.052v-.321A.053.053,0,0,1,403.616,334.8Z" transform="translate(-318.46 -285.654)" fill="#e15554" fill-rule="evenodd"/>
        <path id="Tracé_3328" data-name="Tracé 3328" d="M403.643,337.465h0a.053.053,0,0,1,.052.052v.322a.053.053,0,0,1-.052.052h0a.052.052,0,0,1-.052-.052v-.322A.052.052,0,0,1,403.643,337.465Z" transform="translate(-318.453 -285.006)" fill="#e15554" fill-rule="evenodd"/>
        <path id="Tracé_3329" data-name="Tracé 3329" d="M402.569,336.31h0a.053.053,0,0,1-.052.052H402.2a.052.052,0,0,1-.052-.053h0a.053.053,0,0,1,.052-.052h.322A.053.053,0,0,1,402.569,336.31Z" transform="translate(-318.806 -285.3)" fill="#e15554" fill-rule="evenodd"/>
        <path id="Tracé_3330" data-name="Tracé 3330" d="M405.2,336.3h0a.053.053,0,0,1-.052.052h-.321a.051.051,0,0,1-.052-.052h0a.052.052,0,0,1,.052-.052h.321A.053.053,0,0,1,405.2,336.3Z" transform="translate(-318.165 -285.302)" fill="#e15554" fill-rule="evenodd"/>
        <path id="Tracé_3331" data-name="Tracé 3331" d="M404.705,337.36h0a.051.051,0,0,1-.073,0l-.219-.235a.05.05,0,0,1,0-.073h0a.053.053,0,0,1,.075,0l.22.234A.054.054,0,0,1,404.705,337.36Z" transform="translate(-318.257 -285.111)" fill="#e15554" fill-rule="evenodd"/>
        <path id="Tracé_3332" data-name="Tracé 3332" d="M402.89,335.541h0a.05.05,0,0,1-.072,0l-.221-.235a.051.051,0,0,1,0-.073h0a.051.051,0,0,1,.073,0l.221.235A.052.052,0,0,1,402.89,335.541Z" transform="translate(-318.699 -285.554)" fill="#e15554" fill-rule="evenodd"/>
        <path id="Tracé_3333" data-name="Tracé 3333" d="M402.541,337.311h0a.055.055,0,0,1,.006-.075l.246-.206a.051.051,0,0,1,.073.006h0a.051.051,0,0,1-.005.073l-.246.208A.053.053,0,0,1,402.541,337.311Z" transform="translate(-318.712 -285.115)" fill="#e15554" fill-rule="evenodd"/>
        <path id="Tracé_3334" data-name="Tracé 3334" d="M404.541,335.566h0a.052.052,0,0,1,.006-.075l.245-.206a.053.053,0,0,1,.075.006h0a.054.054,0,0,1-.006.073l-.245.208A.053.053,0,0,1,404.541,335.566Z" transform="translate(-318.225 -285.54)" fill="#e15554" fill-rule="evenodd"/>
        <path id="Tracé_3335" data-name="Tracé 3335" d="M403.905,327.754h0c.741,0,1.34.369,1.34.823v2.085c0,.455-.6.823-1.34.823h0c-.74,0-1.339-.368-1.339-.823v-2.085C402.566,328.123,403.165,327.754,403.905,327.754Z" transform="translate(-318.703 -287.37)" fill="#e15554" fill-rule="evenodd"/>
        <path id="Tracé_3336" data-name="Tracé 3336" d="M365.719,365.359H389.5a.463.463,0,0,1,.46.465v1.891l-24.707.009,0-1.9A.462.462,0,0,1,365.719,365.359Z" transform="translate(-327.785 -278.216)" fill="#e15554" fill-rule="evenodd" opacity="0.46"/>
        <path id="Tracé_3337" data-name="Tracé 3337" d="M382.4,369.979a.727.727,0,1,1,.726.739A.732.732,0,0,1,382.4,369.979Z" transform="translate(-323.611 -277.272)" fill="#e15554" fill-rule="evenodd" opacity="0.46"/>
        <path id="Tracé_3338" data-name="Tracé 3338" d="M382.345,373.717a.727.727,0,1,1,.727.739A.732.732,0,0,1,382.345,373.717Z" transform="translate(-323.625 -276.361)" fill="#e15554" fill-rule="evenodd" opacity="0.46"/>
        <path id="Tracé_3339" data-name="Tracé 3339" d="M382.344,377.324a.727.727,0,1,1,.727.737A.733.733,0,0,1,382.344,377.324Z" transform="translate(-323.625 -275.484)" fill="#e15554" fill-rule="evenodd" opacity="0.46"/>
        <path id="Tracé_3340" data-name="Tracé 3340" d="M388.084,384.093a12.064,12.064,0,0,1-3.24-1.8c-1.105-1.2-.992-2.3-2.187-3.449a12.915,12.915,0,0,0-2.653-1.8c-.191-.083-.952-.348-1.081-.123-.324.573.137,1.01.487,1.491a10.1,10.1,0,0,1,1.125,1.39c.091.172.454.56.109.667a7.031,7.031,0,0,1-2.436,0,28.788,28.788,0,0,0-4.848,0c-.622.03-4.764.091-4.764.091.071.574,1.291,1.2,1.792,1.447a9.467,9.467,0,0,1,1.645.587c.436.367.471.972.954,1.32.65.47,3.155.863,3.858,1.232,1.568.823,2.748,1.459,4.25,2.4.8.5,3.961,2.125,3.961,2.125s.628-1.5,1.155-2.622A23.621,23.621,0,0,1,388.084,384.093Z" transform="translate(-326.971 -275.424)" fill="#ffc48e" fill-rule="evenodd"/>
        <path id="Tracé_3341" data-name="Tracé 3341" d="M476.581,345.028a8.244,8.244,0,0,1,.986,2.662c0,.5-.955-.473-.955-.473s-1.021,1.041-1.022.545A7.756,7.756,0,0,1,476.581,345.028Z" transform="translate(-300.928 -283.165)" fill="#3c7548" fill-rule="evenodd"/>
        <g id="Groupe_13325" data-name="Groupe 13325" transform="translate(89.652 94.725)">
          <path id="Tracé_3342" data-name="Tracé 3342" d="M407.445,372.985a.223.223,0,0,1-.085-.429,24.872,24.872,0,0,1,3.445-1.092.223.223,0,1,1,.108.433,24.557,24.557,0,0,0-3.385,1.072A.223.223,0,0,1,407.445,372.985Z" transform="translate(-407.222 -371.457)" fill="#81c18c"/>
        </g>
        <g id="Groupe_13326" data-name="Groupe 13326" transform="translate(90.952 96.032)">
          <path id="Tracé_3343" data-name="Tracé 3343" d="M408.491,373.965a.224.224,0,0,1-.08-.433c.208-.078.415-.16.624-.241.7-.272,1.42-.555,2.155-.773a.223.223,0,0,1,.128.428c-.717.214-1.431.492-2.121.762-.209.081-.418.163-.627.242A.225.225,0,0,1,408.491,373.965Z" transform="translate(-408.267 -372.508)" fill="#81c18c"/>
        </g>
        <g id="Groupe_13327" data-name="Groupe 13327" transform="translate(108.102 112.466)">
          <path id="Tracé_3344" data-name="Tracé 3344" d="M430.732,420.714a.224.224,0,0,1-.208-.14c-1.929-4.822-3.632-11.939-5-17.659-.172-.717-.337-1.408-.495-2.059a7.957,7.957,0,0,0-2.272-3.685c-.466-.484-.747-.776-.688-1.071a7.784,7.784,0,0,1,1.3-1.752,28.779,28.779,0,0,0,2.808-3.8c.726-1.379,1.354-2.745,1.769-3.649.236-.512.405-.882.5-1.061a.223.223,0,0,1,.392.215c-.091.164-.266.547-.49,1.032-.417.909-1.048,2.282-1.781,3.671a28.383,28.383,0,0,1-2.857,3.872,15.878,15.878,0,0,0-1.2,1.552,3.284,3.284,0,0,0,.568.678,8.469,8.469,0,0,1,2.385,3.889c.158.653.323,1.343.495,2.062,1.294,5.4,3.066,12.8,4.984,17.6a.223.223,0,0,1-.208.306Z" transform="translate(-422.06 -385.725)" fill="#81c18c"/>
        </g>
        <g id="Groupe_13328" data-name="Groupe 13328" transform="translate(131.135 114.019)">
          <path id="Tracé_3345" data-name="Tracé 3345" d="M440.807,404.842a.2.2,0,0,1-.053-.006.224.224,0,0,1-.163-.271,24.081,24.081,0,0,1,2.142-5.757,8.563,8.563,0,0,1,1.93-2.489c.327-.308.564-.532.536-.689a26.587,26.587,0,0,0-1.375-2.612,46.559,46.559,0,0,1-2.912-5.75.223.223,0,1,1,.423-.141,46.442,46.442,0,0,0,2.88,5.672,19.6,19.6,0,0,1,1.424,2.749c.072.4-.239.69-.669,1.1a8.036,8.036,0,0,0-1.838,2.366,23.673,23.673,0,0,0-2.108,5.663A.222.222,0,0,1,440.807,404.842Z" transform="translate(-440.584 -386.974)" fill="#81c18c"/>
        </g>
        <g id="Groupe_13329" data-name="Groupe 13329" transform="translate(109.627 111.884)">
          <path id="Tracé_3346" data-name="Tracé 3346" d="M423.51,389a.231.231,0,0,1-.119-.034.224.224,0,0,1-.07-.308c1.772-2.808,2.7-3.348,2.734-3.37a.223.223,0,0,1,.22.388c-.017.011-.9.557-2.576,3.22A.223.223,0,0,1,423.51,389Z" transform="translate(-423.286 -385.257)" fill="#81c18c"/>
        </g>
        <g id="Groupe_13330" data-name="Groupe 13330" transform="translate(134.781 112.14)">
          <path id="Tracé_3347" data-name="Tracé 3347" d="M446.12,389.186a.223.223,0,0,1-.208-.141,6.351,6.351,0,0,0-2.311-3.184.223.223,0,1,1,.276-.351,6.791,6.791,0,0,1,2.45,3.37.223.223,0,0,1-.124.29A.21.21,0,0,1,446.12,389.186Z" transform="translate(-443.516 -385.463)" fill="#81c18c"/>
        </g>
        <g id="Groupe_13331" data-name="Groupe 13331" transform="translate(135.687 110.78)">
          <path id="Tracé_3348" data-name="Tracé 3348" d="M447.305,388.385a.224.224,0,0,1-.2-.122l-.036-.071a7.767,7.767,0,0,0-2.719-3.409.223.223,0,1,1,.233-.382,8.118,8.118,0,0,1,2.883,3.587l.036.071a.222.222,0,0,1-.1.3A.214.214,0,0,1,447.305,388.385Z" transform="translate(-444.244 -384.369)" fill="#81c18c"/>
        </g>
        <g id="Groupe_13332" data-name="Groupe 13332" transform="translate(97.962 114.664)">
          <path id="Tracé_3349" data-name="Tracé 3349" d="M414.128,396.27a.237.237,0,0,1-.1-.022.224.224,0,0,1-.1-.3c.076-.152.153-.31.234-.473,1.262-2.56,3.169-6.43,7.8-7.972a.223.223,0,1,1,.142.423c-4.454,1.485-6.312,5.252-7.54,7.746q-.121.246-.235.474A.222.222,0,0,1,414.128,396.27Z" transform="translate(-413.905 -387.492)" fill="#81c18c"/>
        </g>
        <g id="Groupe_13333" data-name="Groupe 13333" transform="translate(139.926 112.107)">
          <path id="Tracé_3350" data-name="Tracé 3350" d="M453.831,392.031a.223.223,0,0,1-.158-.066,14.33,14.33,0,0,1-1.143-1.441c-1.2-1.621-2.834-3.841-4.742-4.659a.223.223,0,0,1,.177-.41c2.019.865,3.7,3.142,4.925,4.8a14.545,14.545,0,0,0,1.1,1.391.223.223,0,0,1-.158.38Z" transform="translate(-447.653 -385.436)" fill="#81c18c"/>
        </g>
        <g id="Groupe_13334" data-name="Groupe 13334" transform="translate(150.011 105.941)">
          <path id="Tracé_3351" data-name="Tracé 3351" d="M457.883,383.115a.223.223,0,0,1-.168-.076c-.685-.787-.992-1.137-1.17-1.337-.241-.275-.241-.275-.612-.719l-.117-.141a.223.223,0,0,1,.343-.286l.117.141c.367.44.367.44.6.709.177.2.485.552,1.171,1.339a.223.223,0,0,1-.022.315A.22.22,0,0,1,457.883,383.115Z" transform="translate(-455.764 -380.478)" fill="#81c18c"/>
        </g>
        <g id="Groupe_13335" data-name="Groupe 13335" transform="translate(151.255 105.349)">
          <path id="Tracé_3352" data-name="Tracé 3352" d="M459.06,381.988a.23.23,0,0,1-.124-.037c-.282-.189-.571-.429-.849-.66a6.809,6.809,0,0,0-1.2-.865.224.224,0,0,1,.2-.4,7.138,7.138,0,0,1,1.286.923,10.146,10.146,0,0,0,.812.632.224.224,0,0,1,.061.31A.221.221,0,0,1,459.06,381.988Z" transform="translate(-456.765 -380.001)" fill="#81c18c"/>
        </g>
        <g id="Groupe_13336" data-name="Groupe 13336" transform="translate(154.691 134.615)">
          <path id="Tracé_3353" data-name="Tracé 3353" d="M470.123,408.371a.213.213,0,0,1-.114-.032c-2.422-1.439-7.637-3.852-10.3-4.358a.223.223,0,0,1,.083-.439c2.707.515,7.994,2.958,10.443,4.414a.224.224,0,0,1-.114.415Z" transform="translate(-459.529 -403.538)" fill="#81c18c"/>
        </g>
        <g id="Groupe_13337" data-name="Groupe 13337" transform="translate(104.323 129.291)">
          <path id="Tracé_3354" data-name="Tracé 3354" d="M420.473,408.548a.224.224,0,0,1-.22-.188c-.18-1.141-.4-2.811-.615-4.427s-.434-3.284-.614-4.419a.223.223,0,0,1,.44-.07c.182,1.141.4,2.813.617,4.43s.434,3.28.614,4.415a.223.223,0,0,1-.185.255A.175.175,0,0,1,420.473,408.548Z" transform="translate(-419.021 -399.257)" fill="#81c18c"/>
        </g>
        <g id="Groupe_13338" data-name="Groupe 13338" transform="translate(141.221 125.828)">
          <path id="Tracé_3355" data-name="Tracé 3355" d="M448.918,402.516a.223.223,0,0,1-.223-.224,47.126,47.126,0,0,1,.691-5.668.223.223,0,1,1,.423.141,47.172,47.172,0,0,0-.668,5.527A.224.224,0,0,1,448.918,402.516Z" transform="translate(-448.695 -396.472)" fill="#81c18c"/>
        </g>
        <g id="Groupe_13340" data-name="Groupe 13340" transform="translate(110.629 84.41)">
          <path id="Tracé_3356" data-name="Tracé 3356" d="M440.535,368.075a5.353,5.353,0,0,0-10.67,0l-.022,2.111A1.111,1.111,0,0,0,431,371.249H439.4a1.112,1.112,0,0,0,1.154-1.063Zm-3.3-2.617a.446.446,0,0,1-.351.17.451.451,0,0,1-.277-.1,2.156,2.156,0,0,0-2.79-.015.447.447,0,0,1-.593-.669,3.035,3.035,0,0,1,3.938-.016A.445.445,0,0,1,437.233,365.458Z" transform="translate(-422.692 -363.161)" fill="#3c7548"/>
          <path id="Tracé_3357" data-name="Tracé 3357" d="M443.127,368.305a1.058,1.058,0,0,0-1.337.675c0,.016-.567,1.634-1.716,1.634H435.88a1.033,1.033,0,0,0-.139.01,1.051,1.051,0,0,0-.14-.01h-4.193c-1.144,0-1.706-1.6-1.717-1.634a1.061,1.061,0,0,0-2.014.665c.375,1.148,1.584,3.089,3.732,3.089H435.6a1.051,1.051,0,0,0,.14-.01,1.033,1.033,0,0,0,.139.01h4.194c2.146,0,3.355-1.941,3.73-3.089A1.063,1.063,0,0,0,443.127,368.305Z" transform="translate(-423.232 -361.922)" fill="#3c7548"/>
          <path id="Tracé_3358" data-name="Tracé 3358" d="M434.152,379.757" transform="translate(-421.643 -359.121)" fill="#304e36"/>
          <g id="Groupe_13339" data-name="Groupe 13339" transform="translate(0 11.42)">
            <path id="Tracé_3359" data-name="Tracé 3359" d="M429.814,373.8a4.271,4.271,0,1,1-4.271,4.271,4.275,4.275,0,0,1,4.271-4.271m0-1.451a5.722,5.722,0,1,0,5.721,5.722,5.722,5.722,0,0,0-5.721-5.722Z" transform="translate(-424.092 -372.345)" fill="#e3bac6"/>
            <path id="Tracé_3360" data-name="Tracé 3360" d="M440.73,373.8a4.271,4.271,0,1,1-4.271,4.271,4.276,4.276,0,0,1,4.271-4.271m0-1.451a5.722,5.722,0,1,0,5.722,5.722,5.722,5.722,0,0,0-5.722-5.722Z" transform="translate(-421.435 -372.345)" fill="#e3bac6"/>
          </g>
          <path id="Tracé_3361" data-name="Tracé 3361" d="M434.465,375.244a1.605,1.605,0,0,0-1.605,1.605v3.038h.785v-2.742a.822.822,0,1,1,1.644,0v2.742h.783v-3.038A1.605,1.605,0,0,0,434.465,375.244Z" transform="translate(-421.958 -360.22)" fill="#e3bac6"/>
        </g>
        <g id="Groupe_13341" data-name="Groupe 13341" transform="translate(172.152 53.625)">
          <path id="Tracé_3362" data-name="Tracé 3362" d="M475.216,348.348,488.03,338.4l11.351,10.508a1.32,1.32,0,0,1,1.288,1.35l-.3,12.672a1.319,1.319,0,0,1-1.35,1.288l-24.163-.563a1.32,1.32,0,0,1-1.288-1.35l.3-12.672A1.319,1.319,0,0,1,475.216,348.348Z" transform="translate(-473.571 -338.403)" fill="#61bd74" fill-rule="evenodd"/>
          <path id="Tracé_3363" data-name="Tracé 3363" d="M475.216,346.4l12.274,9.006,11.891-8.443a1.32,1.32,0,0,1,1.288,1.35l-.3,12.672a1.319,1.319,0,0,1-1.35,1.288l-24.163-.563a1.32,1.32,0,0,1-1.288-1.35l.3-12.672A1.319,1.319,0,0,1,475.216,346.4Z" transform="translate(-473.571 -336.456)" fill="#4c945b" fill-rule="evenodd"/>
          <path id="Tracé_3364" data-name="Tracé 3364" d="M483.14,348.826c-.039.036-.077.072-.113.108Z" transform="translate(-471.269 -335.866)" fill="#f6d193" fill-rule="evenodd"/>
          <path id="Tracé_3365" data-name="Tracé 3365" d="M478.631,343.738l16.094.352c1.88-.256,2.348.822,2.335,1.371L497,348.8,486.792,356.1l-10.3-7.572.08-3.424C476.586,344.555,477.3,343.707,478.631,343.738Z" transform="translate(-472.859 -337.105)" fill="#fff" fill-rule="evenodd"/>
          <path id="Tracé_3366" data-name="Tracé 3366" d="M481.506,347.386l10.884.254a.163.163,0,0,1,.165.159h0a.164.164,0,0,1-.172.152L481.5,347.7a.163.163,0,0,1-.165-.159h0A.163.163,0,0,1,481.506,347.386Z" transform="translate(-471.681 -336.216)" fill="#61bd74" fill-rule="evenodd"/>
          <path id="Tracé_3367" data-name="Tracé 3367" d="M481.493,348.506l10.8.251a.169.169,0,0,1,.155.18h0a.17.17,0,0,1-.164.173l-10.8-.251a.171.171,0,0,1-.155-.18h0A.168.168,0,0,1,481.493,348.506Z" transform="translate(-471.682 -335.944)" fill="#61bd74" fill-rule="evenodd"/>
          <path id="Tracé_3368" data-name="Tracé 3368" d="M479.106,349.427l13.756.322a.32.32,0,0,1,.148.078l-.41.3-13.088-.3-.495-.368A.312.312,0,0,1,479.106,349.427Z" transform="translate(-472.245 -335.72)" fill="#61bd74" fill-rule="evenodd"/>
          <path id="Tracé_3369" data-name="Tracé 3369" d="M480.371,350.444l10.754.25-.461.331-9.82-.23Z" transform="translate(-471.915 -335.472)" fill="#61bd74" fill-rule="evenodd"/>
          <path id="Tracé_3370" data-name="Tracé 3370" d="M481.7,351.422l7.5.175-.464.334-6.559-.153Z" transform="translate(-471.591 -335.234)" fill="#61bd74" fill-rule="evenodd"/>
          <path id="Tracé_3371" data-name="Tracé 3371" d="M483.189,352.515l3.873.091-.378.276-3.1-.072Z" transform="translate(-471.229 -334.968)" fill="#61bd74" fill-rule="evenodd"/>
          <path id="Tracé_3372" data-name="Tracé 3372" d="M486.438,355.3l11.891-8.443a1.32,1.32,0,0,1,1.288,1.35l-.3,12.672a1.319,1.319,0,0,1-1.35,1.288l-20.039-.47C477.2,361.677,486.438,355.3,486.438,355.3Z" transform="translate(-472.519 -336.346)" fill="#3c7548" fill-rule="evenodd"/>
          <path id="Tracé_3373" data-name="Tracé 3373" d="M481.495,346.357l10.886.255a.161.161,0,0,1,.164.159h0a.16.16,0,0,1-.172.15l-10.887-.252a.162.162,0,0,1-.164-.16h0A.163.163,0,0,1,481.495,346.357Z" transform="translate(-471.684 -336.467)" fill="#61bd74" fill-rule="evenodd"/>
          <path id="Tracé_3374" data-name="Tracé 3374" d="M481.487,345.342l10.978.256a.163.163,0,0,1,.165.159h0a.164.164,0,0,1-.174.152l-10.977-.257a.164.164,0,0,1-.167-.159h0A.164.164,0,0,1,481.487,345.342Z" transform="translate(-471.686 -336.714)" fill="#61bd74" fill-rule="evenodd"/>
          <path id="Tracé_3375" data-name="Tracé 3375" d="M479.065,344.96l.025-.007a.182.182,0,0,1,.219.092l.417.946a.136.136,0,0,1-.091.188l-.026.009a.181.181,0,0,1-.218-.092l-.418-.947A.136.136,0,0,1,479.065,344.96Z" transform="translate(-472.259 -336.811)" fill="#61bd74" fill-rule="evenodd"/>
          <path id="Tracé_3376" data-name="Tracé 3376" d="M480.1,344.869l-.029-.01a.2.2,0,0,0-.245.091l-.514,1.032a.156.156,0,0,0,.093.215l.029.01a.2.2,0,0,0,.245-.092l.514-1.032A.152.152,0,0,0,480.1,344.869Z" transform="translate(-472.177 -336.834)" fill="#61bd74" fill-rule="evenodd"/>
          <path id="Tracé_3377" data-name="Tracé 3377" d="M479.079,346.268l.026-.009a.183.183,0,0,1,.216.093l.419.946a.139.139,0,0,1-.093.189l-.026.007a.18.18,0,0,1-.216-.092l-.419-.948A.139.139,0,0,1,479.079,346.268Z" transform="translate(-472.255 -336.493)" fill="#61bd74" fill-rule="evenodd"/>
          <path id="Tracé_3378" data-name="Tracé 3378" d="M480.114,346.177l-.027-.011a.2.2,0,0,0-.246.093l-.512,1.031a.152.152,0,0,0,.093.214l.029.01a.2.2,0,0,0,.245-.091l.511-1.032A.151.151,0,0,0,480.114,346.177Z" transform="translate(-472.173 -336.516)" fill="#61bd74" fill-rule="evenodd"/>
          <path id="Tracé_3379" data-name="Tracé 3379" d="M479.083,347.638l.026-.007a.184.184,0,0,1,.216.093l.419.946a.14.14,0,0,1-.093.189l-.026.007a.181.181,0,0,1-.216-.093l-.419-.946A.138.138,0,0,1,479.083,347.638Z" transform="translate(-472.255 -336.159)" fill="#61bd74" fill-rule="evenodd"/>
          <path id="Tracé_3380" data-name="Tracé 3380" d="M480.116,347.548l-.029-.01a.2.2,0,0,0-.245.091l-.511,1.032a.152.152,0,0,0,.093.214l.027.01a.2.2,0,0,0,.246-.092l.511-1.031A.151.151,0,0,0,480.116,347.548Z" transform="translate(-472.173 -336.182)" fill="#61bd74" fill-rule="evenodd"/>
        </g>
        <path id="Tracé_3381" data-name="Tracé 3381" d="M426.941,386.9c-1.6-1.124-3.417-1.956-4.822-3.431a64.467,64.467,0,0,0-4.757-4.714c-1.056-.893-4.165-3.1-4.622-4.275-.282-.726.108-1.568-.113-2.292s-1.034-.93-1.314-1.56a10.717,10.717,0,0,1-.38-2.824" transform="translate(-316.666 -277.622)" fill="none" stroke="#232c33" stroke-miterlimit="10" stroke-width="0.25" fill-rule="evenodd"/>
        <path id="Tracé_3382" data-name="Tracé 3382" d="M409.406,392.339c-.964.16-2.486,1.047-3.473.849-.817-.164-1.408-1.021-2.15-1.318s-1.275,1.033-1.275,1.033-11.826-8.653-14.016-9.2c-.628-.157-1.577,1.9-2.5,3.283a23.128,23.128,0,0,0-1.937,5.214" transform="translate(-323.209 -273.753)" fill="none" stroke="#232c33" stroke-linecap="round" stroke-linejoin="round" stroke-width="0.25" fill-rule="evenodd"/>
        <path id="Tracé_3383" data-name="Tracé 3383" d="M401.41,355.584c-.592.439-.1,3.321-.045,4.693.148,3.713.492,8.335.492,8.335s.536,8,.933,8.884a68.351,68.351,0,0,0,6.011,10.659,60.5,60.5,0,0,0,6.693,8.3" transform="translate(-319.055 -280.596)" fill="none" stroke="#232c33" stroke-linecap="round" stroke-linejoin="round" stroke-width="0.25" fill-rule="evenodd"/>
        <path id="Tracé_3384" data-name="Tracé 3384" d="M468.341,368.137c-3.238,4.317-6.38,8.861-9.957,12.886-.8.905-1.5.277-1.938.858-.289.384-.014,1.232-.465,1.431-3.258,1.45-7.827,2.464-11.155,3.712" transform="translate(-308.416 -277.54)" fill="none" stroke="#232c33" stroke-linecap="round" stroke-linejoin="round" stroke-width="0.25" fill-rule="evenodd"/>
        <path id="Tracé_3385" data-name="Tracé 3385" d="M461.285,417.939a52.7,52.7,0,0,0,8.776.15,7.7,7.7,0,0,0,4.1-1.957c1.56-1.337-.834-5.711-1.823-6.9A80.978,80.978,0,0,0,456.2,394.463" transform="translate(-305.647 -271.132)" fill="none" stroke="#232c33" stroke-linecap="round" stroke-linejoin="round" stroke-width="0.25" fill-rule="evenodd"/>
        <path id="Tracé_3386" data-name="Tracé 3386" d="M414.111,415.827h51.273a1.6,1.6,0,0,1,1.6,1.6S462.7,448.2,461.814,448.2l-44.171.137c-.885,0-5.134-30.91-5.134-30.91A1.6,1.6,0,0,1,414.111,415.827Z" transform="translate(-316.283 -265.932)" fill="#413847" fill-rule="evenodd"/>
        <path id="Tracé_3387" data-name="Tracé 3387" d="M414.111,415.827h51.273a1.6,1.6,0,0,1,1.6,1.6H412.509A1.6,1.6,0,0,1,414.111,415.827Z" transform="translate(-316.283 -265.932)" fill="#fff" fill-rule="evenodd"/>
      </g>
    </g>
  </g>
</svg>
