<svg xmlns="http://www.w3.org/2000/svg" width="24.069" height="32.784" viewBox="0 0 24.069 32.784">
  <g id="Groupe_13198" data-name="Groupe 13198" transform="translate(14208 9398.689)">
    <g id="Groupe_13197" data-name="Groupe 13197" transform="translate(1209.499 1799.811)">
      <g id="Groupe_12603" data-name="Groupe 12603" transform="translate(-15393.43 -11198.5) rotate(90)">
        <g id="Groupe_12598" data-name="Groupe 12598">
          <g id="Groupe_12595" data-name="Groupe 12595" transform="translate(0)">
            <g id="Tracé_1304" data-name="Tracé 1304" fill="none">
              <path d="M3.359,0h0A3.4,3.4,0,0,0,1.142,5.938L5.12,9.49a3.42,3.42,0,0,1,0,5.089L1.142,18.131a3.4,3.4,0,0,0,2.217,5.938h0a3.33,3.33,0,0,0,2.217-.848l9.68-8.642a3.42,3.42,0,0,0,0-5.089L5.577.848A3.327,3.327,0,0,0,3.359,0Z" stroke="none"/>
              <path d="M 3.359375953674316 1.999998092651367 C 2.527226448059082 1.999998092651367 2.201886177062988 2.617538452148438 2.10063648223877 2.883037567138672 C 2.018566131591797 3.098237991333008 1.802926063537598 3.846918106079102 2.474016189575195 4.445877075195313 L 6.451786041259766 7.997608184814453 C 7.59765625 9.020487785339355 8.254846572875977 10.49181842803955 8.254837036132813 12.03434753417969 C 8.254837036132813 13.57686805725098 7.597646236419678 15.04818820953369 6.451976776123047 16.07088851928711 L 2.473696708679199 19.62307739257813 C 1.802836418151855 20.22182846069336 2.018586158752441 20.97081756591797 2.100686073303223 21.18611717224121 C 2.201966285705566 21.4516773223877 2.527336120605469 22.06933784484863 3.359375953674316 22.06933784484863 C 3.684476852416992 22.06933784484863 3.999106407165527 21.9483585357666 4.244915962219238 21.72902870178223 L 13.92518615722656 13.08700752258301 C 14.33133602142334 12.72445774078369 14.39197635650635 12.27185821533203 14.39197635650635 12.03433799743652 C 14.39198684692383 11.79681777954102 14.33133602142334 11.34421825408936 13.92515659332275 10.98163795471191 L 4.244416236877441 2.339847564697266 C 3.999095916748047 2.120687484741211 3.684786796569824 1.999998092651367 3.359375953674316 1.999998092651367 M 3.359375953674316 -1.9073486328125e-06 C 4.176226615905762 -1.9073486328125e-06 4.964566230773926 0.3013477325439453 5.57685661315918 0.8483371734619141 L 15.25703620910645 9.489627838134766 C 16.77029609680176 10.84043788909912 16.77029609680176 13.22823810577393 15.25703620910645 14.5790376663208 L 5.57685661315918 23.22098731994629 C 4.964566230773926 23.76731872558594 4.176226615905762 24.06933784484863 3.359375953674316 24.06933784484863 C 0.2700967788696289 24.06933784484863 -1.175203323364258 20.19903755187988 1.141956329345703 18.13094711303711 L 5.119915962219238 14.5790376663208 C 6.633146286010742 13.22823810577393 6.633146286010742 10.84043788909912 5.119915962219238 9.489627838134766 L 1.141956329345703 5.937728881835938 C -1.175203323364258 3.86962890625 0.2700967788696289 -1.9073486328125e-06 3.359375953674316 -1.9073486328125e-06 Z" stroke="none" fill="#dbdbdb"/>
            </g>
          </g>
          <g id="Groupe_12596" data-name="Groupe 12596" transform="translate(16.392)">
            <g id="Tracé_1305" data-name="Tracé 1305" fill="none">
              <path d="M3.36,0h0A3.4,3.4,0,0,0,1.141,5.938L5.12,9.49a3.42,3.42,0,0,1,0,5.089L1.141,18.131A3.4,3.4,0,0,0,3.36,24.069h0a3.331,3.331,0,0,0,2.217-.848l9.68-8.642a3.42,3.42,0,0,0,0-5.089L5.577.848A3.327,3.327,0,0,0,3.36,0Z" stroke="none"/>
              <path d="M 3.359589576721191 1.999998092651367 C 2.527409553527832 1.999998092651367 2.201999664306641 2.617588043212891 2.100709915161133 2.88311767578125 C 2.018619537353516 3.098348617553711 1.80286979675293 3.847118377685547 2.473429679870605 4.445777893066406 L 6.451909065246582 7.997598648071289 C 7.597809314727783 9.020467758178711 8.255020141601563 10.49180793762207 8.255009651184082 12.03434753417969 C 8.255009651184082 13.57687759399414 7.597799301147461 15.04820823669434 6.452009201049805 16.07098770141602 L 2.47343921661377 19.62288856506348 C 1.802779197692871 20.22163772583008 2.01863956451416 20.97071838378906 2.10076904296875 21.18603897094727 C 2.202069282531738 21.45161819458008 2.527529716491699 22.06933784484863 3.359589576721191 22.06933784484863 C 3.68467903137207 22.06933784484863 3.999309539794922 21.94834899902344 4.245119094848633 21.72902870178223 L 13.92535972595215 13.08701801300049 C 14.33149909973145 12.72446823120117 14.39213943481445 12.2718677520752 14.39213943481445 12.03433799743652 C 14.39214897155762 11.79680824279785 14.33149909973145 11.34419822692871 13.92534923553467 10.98163795471191 L 4.24463939666748 2.339868545532227 C 3.999299049377441 2.120697021484375 3.684979438781738 1.999998092651367 3.359589576721191 1.999998092651367 M 3.359589576721191 -1.9073486328125e-06 C 4.176359176635742 -1.9073486328125e-06 4.964749336242676 0.3013477325439453 5.577059745788574 0.8483371734619141 L 15.25722980499268 9.489627838134766 C 16.77044868469238 10.84043788909912 16.77044868469238 13.22823810577393 15.25722980499268 14.5790376663208 L 5.577059745788574 23.22098731994629 C 4.964749336242676 23.76731872558594 4.176359176635742 24.06933784484863 3.359589576721191 24.06933784484863 C 0.2702598571777344 24.06933784484863 -1.174989700317383 20.19903755187988 1.1414794921875 18.13094711303711 L 5.120059967041016 14.5790376663208 C 6.633329391479492 13.22823810577393 6.633329391479492 10.84043788909912 5.120059967041016 9.489627838134766 L 1.1414794921875 5.937728881835938 C -1.174989700317383 3.86962890625 0.2702598571777344 -1.9073486328125e-06 3.359589576721191 -1.9073486328125e-06 Z" stroke="none" fill="#dbdbdb"/>
            </g>
          </g>
        </g>
      </g>
    </g>
  </g>
</svg>
