<svg xmlns="http://www.w3.org/2000/svg" width="50" height="50" viewBox="0 0 50 50">
  <g id="Groupe_13362" data-name="Groupe 13362" transform="translate(15736 10980)">
    <rect id="Rectangle_2559" data-name="Rectangle 2559" width="50" height="50" rx="10" transform="translate(-15736 -10980)" fill="#3c7548"/>
    <g id="Groupe_12444" data-name="Groupe 12444" transform="translate(-100 91)">
      <g id="Groupe_68" data-name="Groupe 68" transform="translate(-15623 -11046.391)">
        <g id="Groupe_67" data-name="Groupe 67" transform="translate(0)">
          <path id="Tracé_49" data-name="Tracé 49" d="M23.328,257.323a11.952,11.952,0,0,0-12,11.875.522.522,0,0,0,1.044,0,10.957,10.957,0,0,1,21.913,0,.522.522,0,0,0,1.044,0A11.951,11.951,0,0,0,23.328,257.323Z" transform="translate(-11.328 -257.323)" fill="#fff"/>
        </g>
      </g>
      <g id="Groupe_70" data-name="Groupe 70" transform="translate(-15617 -11058)">
        <g id="Groupe_69" data-name="Groupe 69" transform="translate(0)">
          <path id="Tracé_50" data-name="Tracé 50" d="M145.067,0a5.739,5.739,0,1,0,5.739,5.739A5.746,5.746,0,0,0,145.067,0Zm0,10.435a4.7,4.7,0,1,1,4.7-4.7A4.7,4.7,0,0,1,145.067,10.435Z" transform="translate(-139.328)" fill="#fff"/>
        </g>
      </g>
    </g>
  </g>
</svg>
