<svg xmlns="http://www.w3.org/2000/svg" xmlns:xlink="http://www.w3.org/1999/xlink" width="412" height="267" viewBox="0 0 412 267">
  <defs>
    <clipPath id="clip-path">
      <rect id="Rectangle_2832" data-name="Rectangle 2832" width="412" height="267" transform="translate(0 82)" fill="#fff" stroke="#707070" stroke-width="1"/>
    </clipPath>
  </defs>
  <g id="Groupe_de_masques_13" data-name="Groupe de masques 13" transform="translate(0 -82)" clip-path="url(#clip-path)">
    <g id="Groupe_13327" data-name="Groupe 13327" transform="translate(265.894 211.561)">
      <path id="Tracé_2761" data-name="Tracé 2761" d="M-750.89,783.735a1.443,1.443,0,0,0-2.039.13,10.672,10.672,0,0,1-12.156,2.575,10.694,10.694,0,0,1-5.72-7.3,8.181,8.181,0,0,0,4.238.065,7.976,7.976,0,0,0,5.713-9.025,1.448,1.448,0,0,0-.224-.506,6.424,6.424,0,0,0-8.353-1.576,9.068,9.068,0,0,0-4.144,5.829q-.152-.217-.282-.434a7.8,7.8,0,0,1,.21-7.673,1.45,1.45,0,0,0-.513-1.981,1.449,1.449,0,0,0-1.981.506,10.609,10.609,0,0,0-.21,10.6,8.932,8.932,0,0,0,2.43,2.69,13.745,13.745,0,0,0,7.615,11.426,12.8,12.8,0,0,0,5.388,1.157,13.642,13.642,0,0,0,10.168-4.447A1.45,1.45,0,0,0-750.89,783.735Zm-20.053-8.251A6.659,6.659,0,0,1-768,770.617a3.665,3.665,0,0,1,4.375.484,5.1,5.1,0,0,1-3.674,5.308,5.623,5.623,0,0,1-3.717-.383C-770.994,775.845-770.972,775.665-770.943,775.484Z" transform="translate(777.671 -763.639)" fill="#db9ac5"/>
    </g>
    <g id="Groupe_13328" data-name="Groupe 13328" transform="translate(288.561 104.633)">
      <path id="Tracé_2762" data-name="Tracé 2762" d="M-1013.394,720.856a9.9,9.9,0,0,0-7.232-.832,15.723,15.723,0,0,0-5.518,2.48,15.615,15.615,0,0,1-1.258-2.907,14.545,14.545,0,0,1,.7-11.05,1.448,1.448,0,0,0-.615-1.953,1.448,1.448,0,0,0-1.953.615,17.467,17.467,0,0,0-.89,13.27,18.838,18.838,0,0,0,1.757,3.905,20.146,20.146,0,0,0-5.149,8.483,25.167,25.167,0,0,0-1.077,6.718,15.145,15.145,0,0,0-8.114,6.783,17.4,17.4,0,0,0,.528,17.175,1.444,1.444,0,0,0,1.244.7,1.461,1.461,0,0,0,.745-.2,1.454,1.454,0,0,0,.492-1.989,14.477,14.477,0,0,1-.492-14.275,12.234,12.234,0,0,1,5.67-5.084,39.162,39.162,0,0,0,1.6,8.324,15.947,15.947,0,0,0,3.088,6.169,7.509,7.509,0,0,0,7.022,2.618c3.428-.738,5.33-4.122,5.684-7.145.73-6.075-3.905-12.315-10.11-13.624a13.2,13.2,0,0,0-4.426-.152,22.041,22.041,0,0,1,.911-5.163,17.343,17.343,0,0,1,4.086-6.957,16.112,16.112,0,0,0,4.975,4,10.255,10.255,0,0,0,8.143.564,5.373,5.373,0,0,0,3.2-3.392A6.317,6.317,0,0,0-1013.394,720.856Zm-14.478,21.015c4.722.991,8.389,5.879,7.839,10.45-.239,2-1.49,4.238-3.428,4.657a4.7,4.7,0,0,1-4.252-1.714,13.5,13.5,0,0,1-2.473-5.077,35.689,35.689,0,0,1-1.526-8.367A10.229,10.229,0,0,1-1027.872,741.871Zm14.738-14.81a2.516,2.516,0,0,1-1.562,1.6,7.343,7.343,0,0,1-5.713-.47,13.382,13.382,0,0,1-4.1-3.3,12.856,12.856,0,0,1,4.52-2.039,7.287,7.287,0,0,1,5.12.5A3.458,3.458,0,0,1-1013.134,727.061Z" transform="translate(1044.757 -706.432)" fill="#db9ac5"/>
    </g>
    <g id="Groupe_13329" data-name="Groupe 13329" transform="translate(158.158 252.475)">
      <path id="Tracé_2763" data-name="Tracé 2763" d="M-908.772,794.49a5.029,5.029,0,0,0-3.623-1.671,6.406,6.406,0,0,0-4.635,1.736,8.069,8.069,0,0,0-2.09,3.587c-.137-.145-.268-.3-.4-.448a14.852,14.852,0,0,1-3.377-9.445,1.446,1.446,0,0,0-1.432-1.461,1.462,1.462,0,0,0-1.461,1.439,17.754,17.754,0,0,0,4.05,11.317,13.293,13.293,0,0,0,2.155,2.09c0,.123,0,.246.007.369a17.28,17.28,0,0,0,6.646,13.024,1.42,1.42,0,0,0,.882.3,1.458,1.458,0,0,0,1.15-.564,1.448,1.448,0,0,0-.26-2.025,14.384,14.384,0,0,1-5.417-9.466,7.658,7.658,0,0,0,3.956.311,6.377,6.377,0,0,0,4.657-4.216A4.829,4.829,0,0,0-908.772,794.49Zm-1.924,3.941a3.546,3.546,0,0,1-2.473,2.314,5.21,5.21,0,0,1-3.428-.622,5.923,5.923,0,0,1,1.577-3.486,3.465,3.465,0,0,1,2.495-.926,2.182,2.182,0,0,1,1.577.672A2.083,2.083,0,0,1-910.7,798.431Z" transform="translate(925.789 -786.788)" fill="#db9ac5"/>
    </g>
    <g id="Groupe_13330" data-name="Groupe 13330" transform="translate(304.55 286.327) rotate(20)">
      <path id="Tracé_2764" data-name="Tracé 2764" d="M-715.369,847.294a1.44,1.44,0,0,1-.545-.108,1.446,1.446,0,0,1-.793-1.885,29.211,29.211,0,0,1,9.225-12.109,1.448,1.448,0,0,1,2.029.265,1.447,1.447,0,0,1-.264,2.029,26.309,26.309,0,0,0-8.312,10.907A1.447,1.447,0,0,1-715.369,847.294Z" transform="translate(716.815 -832.893)" fill="#42c0bd"/>
    </g>
    <g id="Groupe_13331" data-name="Groupe 13331" transform="translate(361.788 206.567) rotate(20)">
      <path id="Tracé_2765" data-name="Tracé 2765" d="M-672.947,719.609a1.441,1.441,0,0,1-1.106-.513,26.219,26.219,0,0,1-6.106-15.39,1.447,1.447,0,0,1,1.365-1.523,1.454,1.454,0,0,1,1.524,1.365,23.319,23.319,0,0,0,5.427,13.683,1.446,1.446,0,0,1-.172,2.038A1.445,1.445,0,0,1-672.947,719.609Z" transform="translate(680.161 -702.18)" fill="#42c0bd"/>
    </g>
    <g id="Groupe_13332" data-name="Groupe 13332" transform="translate(200.656 139.406)">
      <path id="Tracé_2766" data-name="Tracé 2766" d="M-837.284,713.9a6.139,6.139,0,0,0-4.845-1.345,9.007,9.007,0,0,0-5.438,3.558,16.575,16.575,0,0,1-4.382-11.672,10.069,10.069,0,0,0,.962.4,8.421,8.421,0,0,0,8.635-1.562,6.662,6.662,0,0,0,1.924-4.78,5.658,5.658,0,0,0-1.75-4.129,6.611,6.611,0,0,0-8.208-.159,10.16,10.16,0,0,0-3.543,5.062,15.837,15.837,0,0,1-1.114-1.446,18.983,18.983,0,0,1-2.994-7.326h-2.929a21.915,21.915,0,0,0,3.536,8.96,16.771,16.771,0,0,0,2.734,3.138,19.472,19.472,0,0,0,5.489,15.967,21.542,21.542,0,0,0-2.365,14.984,1.451,1.451,0,0,0,1.417,1.157,1.319,1.319,0,0,0,.289-.036,1.444,1.444,0,0,0,1.128-1.707,18.95,18.95,0,0,1,1.786-12.489.007.007,0,0,1,.007.007,9.5,9.5,0,0,0,6.313,2.061c2.444-.239,5.084-2.242,5.091-5.077A4.665,4.665,0,0,0-837.284,713.9ZM-848.7,696.568c1.258-.9,3.355-1.186,4.556-.072a2.791,2.791,0,0,1,.824,2.047,3.747,3.747,0,0,1-1.056,2.676,5.5,5.5,0,0,1-5.626.911,8.3,8.3,0,0,1-1.526-.752A8.278,8.278,0,0,1-848.7,696.568Zm7.8,23.1a6.637,6.637,0,0,1-4.361-1.533,1.463,1.463,0,0,0-.13-.094,6.573,6.573,0,0,1,3.76-2.632,3.19,3.19,0,0,1,2.488.709,1.81,1.81,0,0,1,.716,1.352C-838.434,718.625-839.736,719.557-840.908,719.666Z" transform="translate(860.968 -690.508)" fill="#f9c462"/>
    </g>
    <g id="Groupe_13333" data-name="Groupe 13333" transform="translate(95.922 304.841)">
      <path id="Tracé_2767" data-name="Tracé 2767" d="M-1014.854,842.265a1.439,1.439,0,0,1-.894-.31,101.45,101.45,0,0,1-9.776-8.8,1.447,1.447,0,0,1,.026-2.046,1.446,1.446,0,0,1,2.045.026,98.541,98.541,0,0,0,9.5,8.544,1.447,1.447,0,0,1,.241,2.031A1.444,1.444,0,0,1-1014.854,842.265Z" transform="translate(1025.935 -830.702)" fill="#f9c462"/>
    </g>
    <g id="Groupe_13334" data-name="Groupe 13334" transform="translate(41.321 192.461)">
      <path id="Tracé_2768" data-name="Tracé 2768" d="M-1088.616,756.115a1.437,1.437,0,0,1-.765-.22,1.446,1.446,0,0,1-.46-1.993l4.821-7.714a1.447,1.447,0,0,1,1.993-.46,1.446,1.446,0,0,1,.459,1.993l-4.821,7.714A1.445,1.445,0,0,1-1088.616,756.115Z" transform="translate(1090.062 -745.508)" fill="#f9c462"/>
    </g>
    <g id="Groupe_13335" data-name="Groupe 13335" transform="translate(307.534 321.826) rotate(20)">
      <path id="Tracé_2769" data-name="Tracé 2769" d="M-688,886.335a1.443,1.443,0,0,1-.949-.354l-6.707-5.833a1.447,1.447,0,0,1-.142-2.041,1.447,1.447,0,0,1,2.041-.143l6.707,5.833a1.446,1.446,0,0,1,.142,2.041A1.442,1.442,0,0,1-688,886.335Z" transform="translate(696.149 -877.61)" fill="#f9c462"/>
    </g>
    <g id="Groupe_13336" data-name="Groupe 13336" transform="translate(230.144 277.148)">
      <path id="Tracé_2770" data-name="Tracé 2770" d="M-803.342,853.929a7.356,7.356,0,0,0-5-2.676,8.554,8.554,0,0,0-.962-.007,13.7,13.7,0,0,1,5.706-6.284,1.44,1.44,0,0,0,.557-1.967,1.446,1.446,0,0,0-1.967-.557,16.745,16.745,0,0,0-7.745,9.813,9.52,9.52,0,0,0-3.985,4.144,12.847,12.847,0,0,0-.412,9.582,1.438,1.438,0,0,0,1.374,1.005,1.552,1.552,0,0,0,.441-.065,1.448,1.448,0,0,0,.94-1.815,10.141,10.141,0,0,1,.253-7.434,6.436,6.436,0,0,1,.73-1.164c-.029,2.943.991,5.315,2.828,6.545a5.338,5.338,0,0,0,5.221.253,5.962,5.962,0,0,0,3.522-4.585A6.332,6.332,0,0,0-803.342,853.929Zm-1.374,4.44a3.138,3.138,0,0,1-1.859,2.307,2.547,2.547,0,0,1-2.408-.036c-1.482-.991-1.569-3.348-1.533-4.325a12.143,12.143,0,0,1,.224-1.981,4.8,4.8,0,0,1,1.721-.2,4.425,4.425,0,0,1,2.994,1.627A3.5,3.5,0,0,1-804.716,858.369Z" transform="translate(817.877 -842.254)" fill="#f9c462"/>
    </g>
    <g id="Groupe_13337" data-name="Groupe 13337" transform="translate(357.951 252.476) rotate(20)">
      <path id="Tracé_2771" data-name="Tracé 2771" d="M-645.286,790.76a6.437,6.437,0,0,0-5.149-2.5,8.646,8.646,0,0,0-6.132,3.218,14.333,14.333,0,0,1-1.294-11.513,9.988,9.988,0,0,0,4.353,1.135,7.359,7.359,0,0,0,5.655-2.437,4.554,4.554,0,0,0,1.078-3.847c-.542-2.842-3.637-4.288-6.176-3.854a8.914,8.914,0,0,0-5.547,3.891c-.145.2-.289.412-.427.629a7.191,7.191,0,0,1-1.034-1.663,7.552,7.552,0,0,1,1.208-7.767,1.444,1.444,0,0,0-.137-2.039,1.443,1.443,0,0,0-2.039.13,10.416,10.416,0,0,0-1.678,10.84,10.124,10.124,0,0,0,2.3,3.254,17.339,17.339,0,0,0,2,15.859,15.7,15.7,0,0,0,2.929,17.848,1.445,1.445,0,0,0,1.012.4,1.439,1.439,0,0,0,1.034-.434,1.449,1.449,0,0,0-.022-2.047,12.748,12.748,0,0,1-2.849-13.4,9.68,9.68,0,0,0,5.959,2.734,5.864,5.864,0,0,0,5.93-3.919A5.023,5.023,0,0,0-645.286,790.76Zm-10.862-14.217a6.277,6.277,0,0,1,3.681-2.726c1.143-.2,2.64.434,2.849,1.548a1.635,1.635,0,0,1-.441,1.425,4.553,4.553,0,0,1-3.37,1.417,7.176,7.176,0,0,1-3.233-.89C-656.5,777.056-656.328,776.8-656.148,776.542Zm9.061,17.927a3.05,3.05,0,0,1-3.037,1.837,7.026,7.026,0,0,1-4.173-2.025c-.159-.145-.311-.289-.456-.441a6.13,6.13,0,0,1,4.411-2.69,3.524,3.524,0,0,1,2.77,1.381A2.2,2.2,0,0,1-647.086,794.469Z" transform="translate(663.434 -763.649)" fill="#f9c462"/>
    </g>
    <g id="Groupe_13338" data-name="Groupe 13338" transform="translate(132.863 266.134)">
      <path id="Tracé_2772" data-name="Tracé 2772" d="M-960.135,844.073a1.447,1.447,0,0,1-1.435-1.287l-.482-4.339a1.446,1.446,0,0,1,1.278-1.6,1.446,1.446,0,0,1,1.6,1.278l.482,4.339a1.446,1.446,0,0,1-1.278,1.6A1.5,1.5,0,0,1-960.135,844.073Z" transform="translate(962.061 -836.841)" fill="#f9c462"/>
    </g>
    <g id="Groupe_13339" data-name="Groupe 13339" transform="translate(38.46 321.333)">
      <path id="Tracé_2773" data-name="Tracé 2773" d="M-1103.949,860.258a1.447,1.447,0,0,1-1.372-.989,1.447,1.447,0,0,1,.915-1.83l11.571-3.857a1.448,1.448,0,0,1,1.83.915,1.447,1.447,0,0,1-.915,1.83l-11.571,3.857A1.444,1.444,0,0,1-1103.949,860.258Z" transform="translate(1105.395 -853.508)" fill="#f9c462"/>
    </g>
    <g id="Groupe_13340" data-name="Groupe 13340" transform="matrix(0.921, -0.391, 0.391, 0.921, 111.879, 149.619)">
      <path id="Tracé_2774" data-name="Tracé 2774" d="M-950.045,722.092a1.447,1.447,0,0,1-1.365-.969l-3.374-9.643a1.447,1.447,0,0,1,.888-1.843,1.447,1.447,0,0,1,1.843.888l3.374,9.642a1.447,1.447,0,0,1-.887,1.843A1.456,1.456,0,0,1-950.045,722.092Z" transform="translate(954.865 -709.555)" fill="#f9c462"/>
    </g>
    <g id="Groupe_13341" data-name="Groupe 13341" transform="translate(52.268 155.829)">
      <path id="Tracé_2775" data-name="Tracé 2775" d="M-1070.429,701.544a1.454,1.454,0,0,1-.4-.056,5.736,5.736,0,0,1-4.1-5.1,1.446,1.446,0,0,1,1.357-1.53,1.444,1.444,0,0,1,1.53,1.357,2.879,2.879,0,0,0,2,2.494,1.445,1.445,0,0,1,.994,1.787A1.446,1.446,0,0,1-1070.429,701.544Z" transform="translate(1074.926 -694.853)" fill="#db9ac5"/>
    </g>
    <g id="Groupe_13342" data-name="Groupe 13342" transform="translate(33.689 245.738)">
      <path id="Tracé_2776" data-name="Tracé 2776" d="M-1088.33,807.343a7.809,7.809,0,0,1-5.612-6.3,7.559,7.559,0,0,0,4.021-1.381,6.2,6.2,0,0,0,2.43-4.939,4.876,4.876,0,0,0-1.923-4.021,1.449,1.449,0,0,0-1.468-.145,10.782,10.782,0,0,0-5.756,7.3,7.478,7.478,0,0,1-.984-.34,11.745,11.745,0,0,1-6.255-6.494c-.043-.116-.087-.224-.13-.34a11.184,11.184,0,0,0,1.208-.043,9.514,9.514,0,0,0,6.32-3.486,7.711,7.711,0,0,0,1.764-5.727c-.311-2.6-2.422-5.388-5.424-5.539-3.182-.145-5.5,2.589-6.523,4.983a13.662,13.662,0,0,0-1.056,5.93,10.87,10.87,0,0,1-2.01-1.309V789a13.972,13.972,0,0,0,2.5,1.121,15.946,15.946,0,0,0,.68,2,14.659,14.659,0,0,0,7.832,8.078,13.161,13.161,0,0,0,1.837.586c.007.072.015.137.022.21a10.728,10.728,0,0,0,7.8,9.148,1.556,1.556,0,0,0,.362.051,1.441,1.441,0,0,0,1.4-1.092A1.434,1.434,0,0,0-1088.33,807.343Zm-2.256-13.639a2.537,2.537,0,0,1,.2,1.02,3.345,3.345,0,0,1-1.244,2.6,4.5,4.5,0,0,1-2.1.788A7.917,7.917,0,0,1-1090.586,793.7ZM-1104,782c.709-1.663,2.133-3.3,3.717-3.225,1.41.065,2.531,1.6,2.7,2.987a4.874,4.874,0,0,1-1.15,3.58,6.555,6.555,0,0,1-4.346,2.408,7.117,7.117,0,0,1-1.663-.022A10.99,10.99,0,0,1-1104,782Z" transform="translate(1109.728 -775.88)" fill="#42c0bd"/>
    </g>
    <g id="Groupe_13343" data-name="Groupe 13343" transform="translate(206.794 219.18)">
      <path id="Tracé_2777" data-name="Tracé 2777" d="M-850.718,781.889a1.445,1.445,0,0,1-.524-.1,21.833,21.833,0,0,1-7.749-5.166,1.447,1.447,0,0,1,.039-2.045,1.446,1.446,0,0,1,2.045.039,18.924,18.924,0,0,0,6.715,4.476,1.446,1.446,0,0,1,.822,1.873A1.446,1.446,0,0,1-850.718,781.889Z" transform="translate(859.395 -774.175)" fill="#db7d9c"/>
    </g>
    <g id="Groupe_13344" data-name="Groupe 13344" transform="translate(312.875 203.067) rotate(20)">
      <path id="Tracé_2778" data-name="Tracé 2778" d="M-743.93,729.51a1.442,1.442,0,0,1-.95-.356,1.446,1.446,0,0,1-.14-2.041,20.216,20.216,0,0,1,10.363-6.307,1.448,1.448,0,0,1,1.748,1.062,1.447,1.447,0,0,1-1.063,1.748,17.3,17.3,0,0,0-8.867,5.4A1.446,1.446,0,0,1-743.93,729.51Z" transform="translate(745.375 -720.766)" fill="#db7d9c"/>
    </g>
    <g id="Groupe_13345" data-name="Groupe 13345" transform="translate(355.589 322.496) rotate(20)">
      <path id="Tracé_2779" data-name="Tracé 2779" d="M-631.944,859.045a1.446,1.446,0,0,1-1.443-1.383,1.446,1.446,0,0,1,1.382-1.508l9.164-.4a1.453,1.453,0,0,1,1.508,1.382,1.446,1.446,0,0,1-1.382,1.508l-9.164.4Z" transform="translate(633.389 -855.754)" fill="#db7d9c"/>
    </g>
    <g id="Groupe_13346" data-name="Groupe 13346" transform="translate(389.198 234.434) rotate(20)">
      <path id="Tracé_2780" data-name="Tracé 2780" d="M-629.918,730.815a1.442,1.442,0,0,1-1.117-.528,1.445,1.445,0,0,1,.2-2.036,12.569,12.569,0,0,1,8.161-2.82,1.445,1.445,0,0,1,1.413,1.478,1.463,1.463,0,0,1-1.478,1.414,9.662,9.662,0,0,0-6.26,2.163A1.442,1.442,0,0,1-629.918,730.815Z" transform="translate(631.365 -725.427)" fill="#db7d9c"/>
    </g>
    <g id="Groupe_13347" data-name="Groupe 13347" transform="translate(257.398 158.674)">
      <path id="Tracé_2781" data-name="Tracé 2781" d="M-785.585,697.913a1.505,1.505,0,0,1-.434.065,1.445,1.445,0,0,1-1.374-1.012l-2.025-6.458h3.023l1.757,5.59A1.447,1.447,0,0,1-785.585,697.913Z" transform="translate(789.418 -690.508)" fill="#db7d9c"/>
    </g>
    <g id="Groupe_13348" data-name="Groupe 13348" transform="matrix(0.921, -0.391, 0.391, 0.921, 110.538, 210.368)">
      <path id="Tracé_2782" data-name="Tracé 2782" d="M-986.725,792.533a9.328,9.328,0,0,1-1.447-.111,1.447,1.447,0,0,1-1.206-1.652,1.449,1.449,0,0,1,1.652-1.206,7.206,7.206,0,0,0,6.788-2.812,1.445,1.445,0,0,1,2.021-.316,1.446,1.446,0,0,1,.317,2.021A10.208,10.208,0,0,1-986.725,792.533Z" transform="translate(989.395 -786.158)" fill="#db7d9c"/>
    </g>
    <g id="Groupe_13349" data-name="Groupe 13349" transform="translate(96.313 340.136)">
      <path id="Tracé_2783" data-name="Tracé 2783" d="M-1019.608,888.187a1.447,1.447,0,0,1-1.333-.883,13.612,13.612,0,0,0-3.922-5.229,1.447,1.447,0,0,1-.206-2.035,1.448,1.448,0,0,1,2.035-.207,16.522,16.522,0,0,1,4.756,6.343,1.445,1.445,0,0,1-.768,1.9A1.437,1.437,0,0,1-1019.608,888.187Z" transform="translate(1025.394 -879.509)" fill="#db7d9c"/>
    </g>
    <g id="Groupe_13350" data-name="Groupe 13350" transform="translate(238.181 246.119)">
      <path id="Tracé_2784" data-name="Tracé 2784" d="M-810.329,820l-1.059-.668a1.063,1.063,0,0,0-.989-.078l-1.151.493a1.066,1.066,0,0,1-1.453-1.242l.308-1.213a1.066,1.066,0,0,0-.231-.965l-.824-.941a1.066,1.066,0,0,1,.732-1.766l1.249-.082a1.068,1.068,0,0,0,.846-.518l.64-1.075a1.066,1.066,0,0,1,1.906.15l.464,1.162a1.063,1.063,0,0,0,.754.644l1.221.277a1.066,1.066,0,0,1,.445,1.859l-.962.8a1.066,1.066,0,0,0-.38.916l.114,1.247A1.066,1.066,0,0,1-810.329,820Z" transform="translate(815.994 -811.43)" fill="#db7d9c"/>
    </g>
    <g id="Groupe_13351" data-name="Groupe 13351" transform="matrix(0.921, -0.391, 0.391, 0.921, 110.542, 179.254)">
      <path id="Tracé_2785" data-name="Tracé 2785" d="M-970.783,754.252l.053-1.25a1.065,1.065,0,0,0-.424-.9l-1-.753a1.066,1.066,0,0,1,.355-1.878l1.206-.336a1.066,1.066,0,0,0,.722-.681l.406-1.183a1.066,1.066,0,0,1,1.9-.243l.692,1.043a1.065,1.065,0,0,0,.87.476l1.251.022a1.065,1.065,0,0,1,.817,1.728l-.777.981a1.065,1.065,0,0,0-.184.975l.367,1.2a1.066,1.066,0,0,1-1.391,1.311l-1.172-.437a1.068,1.068,0,0,0-.984.126l-1.025.719A1.066,1.066,0,0,1-970.783,754.252Z" transform="translate(972.579 -746.555)" fill="#42c0bd"/>
    </g>
    <g id="Groupe_13352" data-name="Groupe 13352" transform="translate(64.214 261.244)">
      <path id="Tracé_2786" data-name="Tracé 2786" d="M-1065.722,805.019l.053-1.25a1.065,1.065,0,0,0-.424-.9l-1-.752a1.066,1.066,0,0,1,.355-1.878l1.206-.336a1.065,1.065,0,0,0,.722-.68l.407-1.183a1.065,1.065,0,0,1,1.9-.243l.692,1.043a1.065,1.065,0,0,0,.87.476l1.252.022a1.065,1.065,0,0,1,.816,1.728l-.777.981a1.065,1.065,0,0,0-.184.974l.367,1.2a1.066,1.066,0,0,1-1.391,1.311l-1.172-.437a1.068,1.068,0,0,0-.984.126l-1.025.719A1.066,1.066,0,0,1-1065.722,805.019Z" transform="translate(1067.518 -797.322)" fill="#f9c462"/>
    </g>
    <g id="Groupe_13353" data-name="Groupe 13353" transform="translate(330.237 263.712) rotate(20)">
      <path id="Tracé_2787" data-name="Tracé 2787" d="M-686.463,792.683l-.23,1.23a1.065,1.065,0,0,0,.293.948l.883.887a1.066,1.066,0,0,1-.618,1.809l-1.241.162a1.066,1.066,0,0,0-.811.571l-.57,1.114a1.066,1.066,0,0,1-1.911-.028l-.537-1.13a1.067,1.067,0,0,0-.794-.6l-1.235-.2a1.066,1.066,0,0,1-.564-1.826l.909-.861a1.066,1.066,0,0,0,.32-.939l-.193-1.237a1.066,1.066,0,0,1,1.563-1.1l1.1.6a1.066,1.066,0,0,0,.991.015l1.116-.566A1.066,1.066,0,0,1-686.463,792.683Z" transform="translate(694.133 -791.357)" fill="#42c0bd"/>
    </g>
    <g id="Groupe_13354" data-name="Groupe 13354" transform="translate(171.84 161.346)">
      <path id="Tracé_2788" data-name="Tracé 2788" d="M-893.147,722.174l-.229,1.23a1.067,1.067,0,0,0,.292.948l.883.887a1.065,1.065,0,0,1-.618,1.809l-1.24.162a1.066,1.066,0,0,0-.811.571l-.571,1.114a1.066,1.066,0,0,1-1.911-.028l-.537-1.13a1.068,1.068,0,0,0-.794-.6l-1.236-.2a1.066,1.066,0,0,1-.563-1.826l.909-.861a1.066,1.066,0,0,0,.32-.939l-.194-1.237a1.066,1.066,0,0,1,1.563-1.1l1.1.6a1.067,1.067,0,0,0,.992.015l1.116-.566A1.066,1.066,0,0,1-893.147,722.174Z" transform="translate(900.816 -720.848)" fill="#f9c462"/>
    </g>
    <g id="Groupe_13355" data-name="Groupe 13355" transform="translate(328.411 227.589) rotate(20)">
      <path id="Tracé_2789" data-name="Tracé 2789" d="M-708.564,746.247l-.006.048a4.666,4.666,0,0,1-4.006,4l-.048.006a1.074,1.074,0,0,0-.588,1.883,4.615,4.615,0,0,0,3.388,1.1,4.656,4.656,0,0,0,4.242-4.242,4.615,4.615,0,0,0-1.1-3.388A1.073,1.073,0,0,0-708.564,746.247Z" transform="translate(713.589 -745.282)" fill="#f9c462"/>
    </g>
    <g id="Groupe_13356" data-name="Groupe 13356" transform="translate(71.247 318.968)">
      <path id="Tracé_2790" data-name="Tracé 2790" d="M-1052.973,855.179l-.048-.005a4.666,4.666,0,0,1-4.068-3.94l-.006-.048a1.073,1.073,0,0,0-1.892-.558,4.614,4.614,0,0,0-1.046,3.405,4.655,4.655,0,0,0,4.309,4.174,4.616,4.616,0,0,0,3.371-1.154A1.074,1.074,0,0,0-1052.973,855.179Z" transform="translate(1060.056 -850.237)" fill="#42c0bd"/>
    </g>
    <g id="Groupe_13357" data-name="Groupe 13357" transform="translate(62.859 178.06)">
      <path id="Tracé_2791" data-name="Tracé 2791" d="M-1057.61,732.392l.012-.046a4.666,4.666,0,0,1,4.538-3.389h.048a1.074,1.074,0,0,0,.852-1.78,4.614,4.614,0,0,0-3.2-1.574,4.654,4.654,0,0,0-4.807,3.589,4.615,4.615,0,0,0,.6,3.512A1.074,1.074,0,0,0-1057.61,732.392Z" transform="translate(1060.279 -725.594)" fill="#db7d9c"/>
    </g>
  </g>
</svg>
