<svg xmlns="http://www.w3.org/2000/svg" width="50" height="50" viewBox="0 0 50 50">
  <g id="Groupe_13364" data-name="Groupe 13364" transform="translate(16072 10980)">
    <g id="Groupe_12445" data-name="Groupe 12445">
      <rect id="Rectangle_2555" data-name="Rectangle 2555" width="50" height="50" rx="10" transform="translate(-16072 -10980)" fill="rgba(60,117,72,0)"/>
      <g id="Groupe_71" data-name="Groupe 71" transform="translate(-57 -17)">
        <path id="Tracé_38" data-name="Tracé 38" d="M124.4,351.7a5.242,5.242,0,0,0-.715-.252,5.315,5.315,0,0,0-6.532,3.73,1.491,1.491,0,0,0-2.348,0,5.313,5.313,0,1,0-.642,4.239,5.234,5.234,0,0,0,.325-.587v.088h.728v-2.547a.763.763,0,1,1,1.525,0v2.547h.728v-.088a5.138,5.138,0,0,0,.324.587A5.311,5.311,0,1,0,124.4,351.7Zm-11.38,7a3.963,3.963,0,1,1-5.462-5.478,3.861,3.861,0,0,1,.715-.359,3.962,3.962,0,0,1,4.747,5.837Zm9.258,1.832a3.946,3.946,0,0,1-2.757-1.119,3.99,3.99,0,0,1-.584-.715,3.962,3.962,0,0,1,4.749-5.836,3.9,3.9,0,0,1,.713.358,3.963,3.963,0,0,1-2.121,7.312Z" transform="translate(-16105.981 -11291.509)" fill="#5c6360"/>
        <g id="tick-mark" transform="translate(-16002 -10950)">
          <g id="Groupe_52" data-name="Groupe 52" transform="translate(0 2)">
            <g id="Groupe_51" data-name="Groupe 51">
              <path id="Tracé_33" data-name="Tracé 33" d="M21.5,24H2.5A2.5,2.5,0,0,1,0,21.5V4.5A2.5,2.5,0,0,1,2.5,2h19A2.5,2.5,0,0,1,24,4.5v17A2.5,2.5,0,0,1,21.5,24ZM2.5,3A1.5,1.5,0,0,0,1,4.5v17A1.5,1.5,0,0,0,2.5,23h19A1.5,1.5,0,0,0,23,21.5V4.5A1.5,1.5,0,0,0,21.5,3Z" transform="translate(0 -2)" fill="#5c6360"/>
            </g>
          </g>
          <g id="Groupe_54" data-name="Groupe 54" transform="translate(0 7)">
            <g id="Groupe_53" data-name="Groupe 53">
              <path id="Tracé_34" data-name="Tracé 34" d="M23.5,8H.5a.5.5,0,1,1,0-1h23a.5.5,0,0,1,0,1Z" transform="translate(0 -7)" fill="#5c6360"/>
            </g>
          </g>
          <g id="Groupe_56" data-name="Groupe 56" transform="translate(5)">
            <g id="Groupe_55" data-name="Groupe 55">
              <path id="Tracé_35" data-name="Tracé 35" d="M5.5,5A.5.5,0,0,1,5,4.5V.5a.5.5,0,1,1,1,0v4A.5.5,0,0,1,5.5,5Z" transform="translate(-5)" fill="#5c6360"/>
            </g>
          </g>
          <g id="Groupe_58" data-name="Groupe 58" transform="translate(18)">
            <g id="Groupe_57" data-name="Groupe 57">
              <path id="Tracé_36" data-name="Tracé 36" d="M18.5,5a.5.5,0,0,1-.5-.5V.5a.5.5,0,0,1,1,0v4A.5.5,0,0,1,18.5,5Z" transform="translate(-18)" fill="#5c6360"/>
            </g>
          </g>
        </g>
      </g>
    </g>
  </g>
</svg>
