<?xml version="1.0" encoding="UTF-8"?>
<svg id="Layer_2" data-name="Layer 2" xmlns="http://www.w3.org/2000/svg" viewBox="0 0 99.62 91.04">
  <defs>
    <style>
      .cls-1 {
        fill: #e3bac6;
      }

      .cls-2 {
        fill: #3c7548;
      }
    </style>
  </defs>
  <g id="Group_11" data-name="Group 11">
    <g id="Group_7" data-name="Group 7">
      <path id="Path_17" data-name="Path 17" class="cls-2" d="m71.05,19.57C69.96,8.82,58.5,0,49.81,0s-20.15,8.82-21.24,19.57l-.09,8.41c.1,2.44,2.16,4.33,4.6,4.23h33.48c2.43.09,4.49-1.8,4.59-4.23l-.1-8.4Zm-13.15-10.42c-.61.77-1.73.9-2.5.29-3.19-2.74-7.89-2.76-11.11-.06-.75.64-1.87.55-2.51-.19-.62-.73-.56-1.82.15-2.47,4.5-3.87,11.15-3.9,15.68-.06.77.61.9,1.72.29,2.49,0,0,0,0,0,0Z"/>
      <path id="Path_18" data-name="Path 18" class="cls-2" d="m79.22,25.42c-2.21-.73-4.59.47-5.32,2.68,0,0,0,0,0,0-.02.07-2.26,6.5-6.84,6.5h-16.7c-.37.05-.75.05-1.12,0h-16.7c-4.55,0-6.79-6.38-6.84-6.5-.76-2.2-3.16-3.38-5.37-2.61-2.16.75-3.34,3.08-2.65,5.26,1.5,4.57,6.31,12.3,14.85,12.3h16.7c.37-.05.75-.05,1.12,0h16.7c8.55,0,13.36-7.73,14.85-12.3.73-2.22-.48-4.6-2.7-5.33Z"/>
    </g>
    <g id="Group_9" data-name="Group 9">
      <g id="Group_8" data-name="Group 8">
        <path id="Path_20" data-name="Path 20" class="cls-1" d="m22.78,51.25c9.39,0,17.01,7.61,17.01,17.01s-7.61,17.01-17.01,17.01-17.01-7.61-17.01-17.01c.01-9.39,7.62-17,17.01-17.01m0-5.78c-12.58,0-22.78,10.2-22.78,22.79s10.2,22.78,22.79,22.78,22.78-10.2,22.78-22.78-10.2-22.79-22.78-22.79h0Z"/>
        <path id="Path_21" data-name="Path 21" class="cls-1" d="m76.83,51.25c9.39,0,17.01,7.61,17.01,17.01s-7.61,17.01-17.01,17.01c-9.39,0-17.01-7.61-17.01-17.01h0c.01-9.39,7.62-17,17.01-17.01m0-5.78c-12.58,0-22.79,10.2-22.79,22.79s10.2,22.78,22.79,22.78,22.79-10.2,22.79-22.78-10.2-22.79-22.79-22.79h0Z"/>
      </g>
      <path id="Path_22" data-name="Path 22" class="cls-1" d="m49.81,59.83c-3.53,0-6.39,2.86-6.39,6.39v12.1h3.12v-10.92c-.03-1.81,1.41-3.3,3.22-3.33s3.3,1.41,3.33,3.22c0,.04,0,.08,0,.11v10.92h3.12v-12.1c0-3.53-2.86-6.39-6.39-6.39Z"/>
    </g>
  </g>
</svg>