<svg xmlns="http://www.w3.org/2000/svg" width="99.62" height="91.046" viewBox="0 0 99.62 91.046">
  <g id="Groupe_13359" data-name="Groupe 13359" transform="translate(-11.894)">
    <g id="Groupe_7" data-name="Groupe 7" transform="translate(29.383)">
      <path id="Tracé_17" data-name="Tracé 17" d="M208.541,23.082C207.452,12.334,195.989,3.511,187.3,3.511s-20.153,8.823-21.242,19.571l-.093,8.405a4.425,4.425,0,0,0,4.6,4.231h33.484a4.423,4.423,0,0,0,4.591-4.231ZM195.388,12.659a1.78,1.78,0,0,1-2.5.293,8.588,8.588,0,0,0-11.112-.062,1.779,1.779,0,0,1-2.36-2.662,12.082,12.082,0,0,1,15.682-.062A1.774,1.774,0,0,1,195.388,12.659Z" transform="translate(-154.977 -3.511)" fill="#3c7548"/>
      <path id="Tracé_18" data-name="Tracé 18" d="M184.427,103.018a4.212,4.212,0,0,0-5.323,2.689c-.022.065-2.26,6.5-6.835,6.5h-16.7a3.807,3.807,0,0,1-1.116,0h-16.7c-4.552,0-6.791-6.375-6.835-6.5a4.223,4.223,0,0,0-8.02,2.646c1.495,4.569,6.306,12.3,14.855,12.3h16.7a3.809,3.809,0,0,1,1.116,0h16.7c8.55,0,13.36-7.733,14.855-12.3A4.232,4.232,0,0,0,184.427,103.018Z" transform="translate(-122.693 -77.596)" fill="#3c7548"/>
    </g>
    <path id="Tracé_19" data-name="Tracé 19" d="M250,327.187" transform="translate(-188.296 -245.011)" fill="#304e36"/>
    <g id="Groupe_9" data-name="Groupe 9" transform="translate(11.894 45.475)">
      <g id="Groupe_8" data-name="Groupe 8">
        <path id="Tracé_20" data-name="Tracé 20" d="M76.593,188.408a17.007,17.007,0,1,1-17.007,17.007,17.026,17.026,0,0,1,17.007-17.007m0-5.778a22.785,22.785,0,1,0,22.785,22.785A22.785,22.785,0,0,0,76.593,182.63Z" transform="translate(-53.808 -182.63)" fill="#e3bac6"/>
        <path id="Tracé_21" data-name="Tracé 21" d="M289.484,188.408a17.007,17.007,0,1,1-17.007,17.007,17.026,17.026,0,0,1,17.007-17.007m0-5.778a22.785,22.785,0,1,0,22.785,22.785,22.785,22.785,0,0,0-22.785-22.785Z" transform="translate(-212.649 -182.63)" fill="#e3bac6"/>
      </g>
      <path id="Tracé_22" data-name="Tracé 22" d="M231.207,239.162a6.393,6.393,0,0,0-6.392,6.392v12.1h3.12V246.732a3.274,3.274,0,1,1,6.547,0v10.921h3.12v-12.1A6.394,6.394,0,0,0,231.207,239.162Z" transform="translate(-181.399 -224.809)" fill="#e3bac6"/>
    </g>
  </g>
</svg>
